<?xml version="1.0" encoding="utf-8"?>
<!-- Generator: Adobe Illustrator 28.3.0, SVG Export Plug-In . SVG Version: 6.00 Build 0)  -->
<svg version="1.1" id="Layer_1" xmlns="http://www.w3.org/2000/svg" xmlns:xlink="http://www.w3.org/1999/xlink" x="0px" y="0px"
	 viewBox="0 0 72.9 48" style="enable-background:new 0 0 72.9 48;" xml:space="preserve">
<style type="text/css">
	.st0{display:none;}
	.st1{display:inline;fill-rule:evenodd;clip-rule:evenodd;fill:#FF9900;}
	.st2{display:inline;fill-rule:evenodd;clip-rule:evenodd;}
	.st3{display:inline;fill:#0693CE;}
	.st4{fill:#050661;}
	.st5{fill:#D3AD29;}
</style>
<g class="st0">
	<path class="st1" d="M50.2,37.8C43,42.5,32.6,45,23.6,45C11,45-0.3,40.9-8.8,34c-0.7-0.5-0.1-1.3,0.7-0.9
		c9.2,4.8,20.7,7.6,32.4,7.6c8,0,16.7-1.5,24.8-4.5C50.3,35.9,51.3,37,50.2,37.8z"/>
	<path class="st1" d="M53.1,34.8c-0.9-1-6.1-0.5-8.4-0.2c-0.7,0.1-0.8-0.5-0.2-0.9c4.1-2.6,10.8-1.8,11.6-1c0.8,0.9-0.2,6.8-4.1,9.7
		c-0.6,0.4-1.2,0.2-0.9-0.4C52.1,40.1,54.1,35.8,53.1,34.8z"/>
	<path class="st2" d="M44.9,15.6v-2.5c0-0.4,0.3-0.6,0.7-0.6h12.6c0.4,0,0.7,0.3,0.7,0.6v2.1c0,0.4-0.3,0.8-0.9,1.6l-6.5,8.3
		c2.4-0.1,5,0.3,7.2,1.4c0.5,0.2,0.6,0.6,0.7,1V30c0,0.4-0.5,0.8-0.9,0.6c-3.9-1.8-9-2-13.3,0c-0.4,0.2-0.9-0.2-0.9-0.6v-2.5
		c0-0.4,0-1.1,0.5-1.7l7.5-9.6h-6.6C45.2,16.2,44.9,16,44.9,15.6z"/>
	<path class="st2" d="M-0.9,31.1h-3.8c-0.4,0-0.7-0.3-0.7-0.6V13.2c0-0.3,0.3-0.6,0.7-0.6h3.6c0.4,0,0.7,0.3,0.7,0.6v2.3h0.1
		c0.9-2.2,2.7-3.2,5-3.2c2.4,0,3.9,1,5,3.2c0.9-2.2,3-3.2,5.3-3.2c1.6,0,3.4,0.6,4.4,1.9c1.2,1.5,1,3.6,1,5.5v11
		c0,0.3-0.3,0.6-0.7,0.6h-3.8c-0.4,0-0.7-0.3-0.7-0.6v-9.2c0-0.7,0.1-2.6-0.1-3.3c-0.3-1.2-1.1-1.5-2.2-1.5c-0.9,0-1.9,0.5-2.3,1.4
		s-0.4,2.3-0.4,3.3v9.2c0,0.3-0.3,0.6-0.7,0.6h-4c-0.4,0-0.7-0.3-0.7-0.6v-9.2c0-1.9,0.4-4.8-2.4-4.8c-2.7,0-2.6,2.8-2.6,4.8v9.2
		C-0.2,30.8-0.5,31.1-0.9,31.1z"/>
	<path class="st2" d="M69.7,12.2c5.7,0,8.7,4.3,8.7,9.8c0,5.3-3.4,9.5-8.7,9.5c-5.6,0-8.6-4.3-8.6-9.7S64.2,12.2,69.7,12.2z
		 M69.8,15.7c-2.8,0-3,3.4-3,5.5s0,6.7,3,6.7s3.1-3.7,3.1-5.9c0-1.5-0.1-3.2-0.6-4.6C71.8,16.2,71,15.7,69.8,15.7z"/>
	<path class="st2" d="M85.8,31.1H82c-0.4,0-0.7-0.3-0.7-0.6V13.1c0-0.3,0.3-0.6,0.7-0.6h3.5c0.3,0,0.6,0.2,0.7,0.5v2.7h0.1
		c1.1-2.4,2.6-3.5,5.2-3.5c1.7,0,3.4,0.5,4.5,2c1,1.4,1,3.7,1,5.4v10.9c0,0.3-0.4,0.5-0.7,0.5h-3.8c-0.3,0-0.6-0.3-0.7-0.5v-9.4
		c0-1.9,0.2-4.7-2.4-4.7c-0.9,0-1.8,0.6-2.2,1.4c-0.5,1.1-0.6,2.1-0.6,3.3v9.4C86.6,30.8,86.3,31.1,85.8,31.1z"/>
	<path class="st2" d="M34.9,22.8c0,1.3,0,2.4-0.7,3.6c-0.6,1-1.6,1.5-2.6,1.5c-1.5,0-2.3-1-2.3-2.5c0-2.9,2.9-3.4,5.7-3.4v0.8H34.9z
		 M38.8,31.1c-0.3,0.2-0.6,0.2-0.9,0.1c-1.3-0.9-1.5-1.4-2.2-2.3c-2.1,1.9-3.6,2.5-6.3,2.5c-3.2,0-5.7-1.8-5.7-5.3
		c0-2.8,1.7-4.6,4.1-5.5c2.1-0.8,5-1,7.2-1.2V19c0-0.8,0.1-1.8-0.5-2.5c-0.5-0.6-1.4-0.9-2.1-0.9c-1.5,0-2.8,0.7-3.1,2
		c-0.1,0.3-0.3,0.6-0.7,0.6l-3.7-0.4c-0.3-0.1-0.7-0.3-0.6-0.7c0.8-4,4.9-5.2,8.6-5.2c1.9,0,4.3,0.4,5.8,1.7
		c1.9,1.5,1.7,3.6,1.7,5.8v5.3c0,1.6,0.7,2.3,1.4,3.1c0.2,0.3,0.3,0.7,0,0.9C40.9,29.4,39.5,30.5,38.8,31.1L38.8,31.1z"/>
	<path class="st2" d="M-15.2,22.8c0,1.3,0,2.4-0.7,3.6c-0.7,1-1.6,1.6-2.7,1.6c-1.5,0-2.3-1-2.3-2.5c0-2.9,2.9-3.4,5.7-3.4V22.8z
		 M-11.4,31.1c-0.3,0.2-0.6,0.2-0.9,0.1c-1.3-0.9-1.5-1.4-2.2-2.3c-2.1,1.9-3.6,2.5-6.3,2.5c-3.2,0-5.7-1.8-5.7-5.3
		c0-2.8,1.7-4.6,4.1-5.5c2.1-0.8,5-1,7.2-1.2V19c0-0.8,0.1-1.8-0.5-2.5c-0.5-0.6-1.4-0.9-2.1-0.9c-1.5,0-2.8,0.7-3.1,2
		c-0.1,0.3-0.3,0.6-0.7,0.6l-3.7-0.4c-0.3-0.1-0.7-0.3-0.6-0.7c0.9-4,4.9-5.2,8.6-5.2c1.9,0,4.3,0.4,5.8,1.7
		c1.9,1.5,1.7,3.6,1.7,5.8v5.3c0,1.6,0.7,2.3,1.4,3.1c0.2,0.3,0.3,0.7,0,0.9C-9.2,29.4-10.6,30.5-11.4,31.1L-11.4,31.1z"/>
</g>
<g class="st0">
	<path class="st3" d="M2.6,29.7c-0.1-0.1-0.2,0-0.3,0.1C2.2,29.9,2.1,30,2,30.2c-1.3,1.5-2.5,3-3.8,4.5c-0.2,0.2-0.4,0.4-0.6,0.7
		c-0.1,0.1-0.2,0.2-0.4,0.1C-3.9,34.7-5,34-6.5,33.9c0.2-0.2,0.3-0.3,0.4-0.4c1.4-1.2,2.6-2.7,3.9-4c1.9-2,2.6-4.3,2.4-7
		c-0.1-1.6-0.6-3.2-0.5-4.8c0-0.5-0.3-0.3-0.5-0.1c-0.5,0.4-1,0.3-1.5,0c-0.3-0.2-0.7-0.2-1-0.1c-1.2,0.5-2.4,1.1-3.6,1.8
		c-0.1,0.1-0.3,0.2-0.3,0.3c-0.5,0.9-1,1.8-1.5,2.6c-0.2,0.3,0,0.4,0.2,0.4c0.5,0,0.8-0.2,1.1-0.5c0.7-0.8,1.4-1.6,1.9-2.5
		c0.1-0.1,0.2-0.3,0.4-0.3c0.2,0.1,0.1,0.3,0.1,0.4c-0.1,1.2-0.2,2.3-0.6,3.4c-0.6,1.5-1.3,2.9-2.2,4.2c0.9-0.7,1.9-1.3,2.6-2.3
		c1.1-1.7,2.2-3.5,2.3-5.6c0-0.2,0.1-0.3,0.3-0.4c0.2,0,0.2,0.2,0.2,0.3c0,1.1,0.4,2.1,0.5,3.2c0.1,1.9,0.3,3.8-0.7,5.6
		c-0.8,1.4-1.7,2.7-2.7,3.9c-0.7,0.9-1.6,1.6-2.8,1.8c-1.4,0.3-2.6,1.2-3.6,2.2c0.3,0.1,0.4-0.1,0.6-0.1c2-0.8,4.1-1.1,6,0.4
		c0.3,0.2,0.6,0.4,0.8,0.6c0.5,0.5,0.8,0.3,1.2-0.1c1.4-1.6,2.8-3.2,4.2-4.9c0.5-0.7,1-1.4,1.5-2.1C2.7,30,2.8,29.8,2.6,29.7z"/>
	<path class="st3" d="M38.1,19.8c-0.3-1.1-0.2-1.9,0.6-2.7c0.4-0.4,0.8-0.9,1.4-1.2c0.1,0.5,0,1,0.2,1.6c1.1-0.8,2.5-1.2,2.2-3v-0.1
		c0-0.3-0.1-0.4-0.4-0.3c-0.8,0.3-1.5,0.7-2.2,1.2c-0.9,0.6-1.6,1.4-2.3,2.3c-0.1-0.1-0.1-0.2-0.1-0.3c-0.3-0.8-0.3-0.9-1.1-0.4
		c-1,0.6-2.1,1.2-3.1,1.8c-0.8,0.5-1,0.8-0.8,1.5c0.6,2.1,1.5,4.1,2.6,6c0.3,0.5,0.7,0.5,1.1,0.1c0.4-0.4,0.4-0.9,0.3-1.4
		c-0.3-0.9-0.4-1.8-0.3-2.9c0.3,0.4,0.4,0.7,0.4,1c0.4,1.9,1,3.7,1.6,5.5c0.5,1.7,0.9,3.3,0.9,5.1c0,1.1,0,2.2,0,3.3
		c0.4-0.8,0.6-1.6,0.7-2.4c0.5-2.8,0.8-5.6,0-8.4C39.2,23.9,38.7,21.9,38.1,19.8z M35.4,21.9C35,21,34.7,20,34.5,19.1
		c-0.1-0.4,0.1-0.6,0.5-0.7s0.5,0.1,0.6,0.4C35.9,19.9,36.2,20.9,35.4,21.9z"/>
	<path class="st3" d="M45.6,24.1c0-3.1,0-6.1,0-9.2c0-2.8,0-5.5,0-8.3c0-0.2,0.1-0.5-0.1-0.5c-0.4-0.1-0.8-0.1-1.2,0
		c-0.2,0.1-0.1,0.4-0.1,0.7c0,11.4,0,22.8,0,34.2c0,0.2,0,0.5,0,0.7c0,0.1,0,0.3,0.1,0.3c0.4,0,0.8,0.1,1.2,0
		c0.3-0.1,0.1-0.4,0.1-0.6C45.6,35.6,45.6,29.8,45.6,24.1z"/>
	<path class="st3" d="M12.4,17.3c-0.8,0.1-1.5,0.1-2.2-0.3c-0.1,0-0.2,0-0.2-0.1c-0.3,0-0.5,0.2-0.7,0.4c-0.7,0.6-1.4,1.2-2.1,1.7
		c-0.4,0.3-0.7,0.6-0.9,1.1c-0.3,0.8-0.6,1.6-0.7,2.4c-0.1,1.2,0.4,2,1.4,2.6c0.5,0.3,1.1,0.2,1.6,0.1c0.9-0.1,1.7,0.2,2.4,0.8
		c0.5,0.4,0.9,0.9,1.3,1.3c0.1,0.1,0.3,0.4,0.5,0.2c0.2-0.1,0.1-0.3,0-0.5c-0.1-0.3-0.1-0.6,0-0.8c0.2-0.5,0.1-0.9-0.1-1.4
		c-0.4-1-0.6-1.9-0.7-3c-0.1-1.4,0.2-2.6,0.9-3.8C13.1,17.3,13,17.2,12.4,17.3z M10.8,22.8c-0.6-0.3-1.3-0.3-2-0.3
		c-0.9,0.1-1.1-0.2-1-1.1c0.1-1,0.6-1.7,1.6-2c0.8-0.2,1.4,0.1,1.4,1C10.8,21.2,10.8,21.9,10.8,22.8z"/>
	<path class="st3" d="M-16.6,26c0.1-0.2,0-0.4-0.1-0.5c-0.5-0.8-0.8-1.7-1-2.6c-0.3-1.7-0.4-3.4,0.3-5c0.1-0.2,0.3-0.3,0.1-0.5
		c-0.1-0.2-0.4,0-0.5,0c-0.6,0.2-1.2,0.3-1.8,0c-0.6-0.4-1-0.2-1.4,0.2c-0.6,0.7-1.3,1.3-2.1,1.9c-0.4,0.3-0.6,0.7-0.7,1.1
		c-0.2,1-0.3,2-0.4,2.7c0,1.5,0.9,2.3,2.1,2.1c1.5-0.3,2.9-0.1,4.2,1c0.4,0.4,0.8,0.9,1.1,1.3c0.1,0.1,0.2,0.3,0.4,0.2
		c0.2-0.1,0.1-0.3,0-0.4C-16.6,27-16.8,26.6-16.6,26z M-21.2,23.1c-0.5,0-0.7-0.2-0.8-0.7c-0.2-0.9,0.3-2,1.1-2.4
		c0.5-0.2,1,0,1.4,0.1s0.2,0.5,0.3,0.8c0.2,0.8,0.3,1.7,0.5,2.6C-19.6,23.1-20.4,23.1-21.2,23.1z"/>
	<path class="st3" d="M55.1,18.3c1.3,0,2.5,0,3.7,0c-0.9-0.4-0.9-0.4-0.9-1.5c0-0.8,0-1.7,0-2.5c0-0.4,0.1-0.5,0.5-0.5
		c0.5,0,1,0,1.5,0c0.4,0,0.5,0.1,0.5,0.5c0,0.8,0,1.6,0,2.4c0,1.1,0,1.1-1,1.6c1.3,0,2.5,0,3.8,0c-1.1-0.5-1.1-0.5-1.1-1.6
		c0-2.1,0-4.1,0-6.2c0-0.7-0.2-1.6,1.2-1.6c-0.7-0.3-3.5-0.3-3.8,0c0.9,0.3,0.9,0.3,0.9,1.3c0,0.3,0,0.7,0,1c0,0.6,0.3,1.4-0.1,1.8
		c-0.4,0.4-1.2,0.1-1.9,0.1c-0.4,0-0.5-0.1-0.4-0.5c0-0.7,0-1.4,0-2.1c0-1.2,0-1.2,1.1-1.7c-1.4-0.1-2.5-0.1-3.7,0
		c0.9,0.4,0.9,0.4,0.9,1.5c0,2.1,0,4.1,0,6.2C56.1,17.7,56.1,17.7,55.1,18.3z"/>
	<path class="st3" d="M-15,17.7c-0.7,0.2-1,0.6-1,1.3c-0.1,2.6,0.1,5.2,0.4,7.8c0.3,2.7,0.6,5.4,0.1,8.1c-0.1,0.6-0.3,1.2-0.4,1.8
		c0.3-0.1,0.3-0.3,0.4-0.5c1.8-3.3,2.3-6.9,2.2-10.6c-0.1-2.8-0.7-5.6,0.1-8.5C-13.9,17.4-14.5,17.6-15,17.7z"/>
	<path class="st3" d="M76.9,38.2c-0.4-0.8-0.8-1.5-1.2-2.3c-0.2-0.4-0.2-0.5,0.2-0.7c0.9-0.5,1.3-1.7,1-2.9c-0.3-1.1-0.9-1.7-2-1.8
		c-1.4-0.1-2.7,0-4.1-0.1c-0.1,0-0.2,0-0.2,0.3c0.5,0,0.9,0.2,0.9,0.8c0,2.5,0,5,0,7.5c0,0.4-0.2,0.7-0.6,0.7c-0.1,0-0.3,0-0.3,0.2
		c1.2,0,2.3,0,3.5,0c-0.9-0.4-0.9-0.5-0.9-1.5c0-0.7,0-1.5,0-2.2c0-0.2-0.1-0.4,0.2-0.5c0.3-0.1,0.4,0.2,0.5,0.4
		c0.6,1.2,1.2,2.4,1.8,3.6c0.1,0.2,0.2,0.4,0.5,0.4c0.6,0,1.3,0,1.9,0c0-0.1,0.1-0.1,0.1-0.2C77.4,39.4,77.2,38.7,76.9,38.2z
		 M75.2,33.8c-0.2,0.9-0.8,1.4-1.7,1.3c-0.3,0-0.3-0.2-0.3-0.4c0-0.6,0-1.1,0-1.7c0-0.5,0-1.1,0-1.6c0-0.4,0.1-0.4,0.5-0.5
		c0.9,0,1.4,0.3,1.6,1.2C75.3,32.6,75.3,33.2,75.2,33.8z"/>
	<path class="st3" d="M66.4,26.9c0.2-1.4-0.2-2-1.8-2.9c0.1-0.1,0.1-0.1,0.2-0.1c1.1-0.6,1.5-1.4,1.2-2.6c-0.3-1.1-1-1.7-2.2-1.7
		c-0.7,0-1.4,0-2.2,0c-0.6,0-1.1,0-1.7,0c0,0.1,0,0.1,0,0.2c0.9,0.4,0.9,0.4,0.9,1.4c0,2.2,0,4.3,0,6.5c0,0.7-0.1,1.2-0.9,1.3
		c0,0,0,0.1,0,0.2c1.5,0,3,0.1,4.5-0.1C65.5,28.8,66.2,27.9,66.4,26.9z M62.5,21.9c0-0.5,0-1,0-1.5c0-0.3,0.1-0.4,0.4-0.4
		c0.1,0,0.3,0,0.4,0.1c0.7,0.2,1.1,1.1,0.9,2.2c-0.1,0.8-0.6,1.4-1.4,1.4c-0.3,0-0.4,0-0.4-0.3C62.5,23,62.5,22.5,62.5,21.9z
		 M63.9,28.3c-0.3,0.3-0.6,0.4-1,0.3c-0.4-0.2-0.4-0.6-0.4-1s0-0.9,0-1.3c0-0.5,0-1.1,0-1.6c0-0.2,0-0.4,0.3-0.3
		c0.4,0,0.8,0.1,1.1,0.4C64.8,25.5,64.8,27.5,63.9,28.3z"/>
	<path class="st3" d="M18.5,31.9L18.5,31.9c-0.6,0.3-1,0.1-1.3-0.5c-0.1-0.1-0.1-0.3-0.1-0.4c-0.2-0.7-0.2-1.5-0.2-2.2
		c0-0.3,0-0.6-0.1-1c-1.1-2.5-1.4-5.2-1.1-7.9c0.1-1.1,0.3-2.1,0.6-3.2c-0.8,0.3-1.4,0.5-2.1,0.7c-0.4,0.1-0.5,0.3-0.5,0.7
		c-0.6,3.6-0.4,7.1,1.1,10.5c0.5,1.2,1.2,2.4,2.2,3.3c0.7,0.6,1.2,0.6,1.8,0.1C18.6,31.9,18.6,31.9,18.5,31.9L18.5,31.9z"/>
	<path class="st3" d="M65,9.8c0,2.5,0,5,0,7.4c0,0.4-0.2,0.7-0.7,0.8c-0.1,0-0.3,0-0.3,0.2l0.1,0.1c1.9,0,3.7,0,5.6,0
		c0.1,0,0.3,0,0.3-0.2c0.1-0.9,0.2-1.8,0.3-2.8h-0.1c-0.1,0.3-0.2,0.6-0.3,0.8c-0.5,1.2-1.3,1.7-2.5,1.6c-0.4,0-0.7-0.2-0.7-0.7
		c0-1,0-2,0-3c0-0.3,0.2-0.4,0.4-0.3c0.5,0.1,0.7,0.6,0.8,1c0.2,0.4,0.1,0.8,0.3,1.2c0-1.8,0-3.4,0-5c-0.2,0.4-0.3,0.9-0.4,1.3
		c-0.1,0.4-0.3,0.7-0.8,0.8c-0.3,0.1-0.4,0-0.4-0.3c0-1.1,0-2.1,0-3.2c0-0.1,0-0.3,0.2-0.3c1.1-0.3,2.2,0.2,2.6,1.4
		c0.1,0.3,0,0.6,0.4,0.9c0-0.9,0-1.6,0-2.4c0-0.4-0.1-0.5-0.5-0.5c-1.3,0-2.6,0-4,0c-0.4,0-0.9,0-1.3,0c0,0.1-0.1,0.2-0.1,0.2
		C64.5,9,65,9.2,65,9.8z"/>
	<path class="st3" d="M53.2,37.7c-0.5,1.2-1.3,1.7-2.5,1.6c-0.4,0-0.7-0.2-0.7-0.6c0-1,0-2,0-3.1c0-0.3,0.2-0.4,0.4-0.3
		c0.5,0.1,0.7,0.6,0.8,1c0.2,0.4,0.1,0.8,0.3,1.2c0.1-0.8,0.1-4.5-0.1-5c-0.1,0.5-0.2,0.9-0.3,1.3c-0.1,0.4-0.3,0.8-0.8,0.9
		c-0.3,0.1-0.5,0.1-0.5-0.3c0-1,0-2.1,0-3.1c0-0.2,0-0.3,0.2-0.4c1.1-0.3,2.2,0.3,2.6,1.4c0.1,0.3,0.1,0.5,0.2,0.8
		c0.1,0,0.1,0,0.2,0c0-0.8,0-1.6,0-2.4c0-0.4-0.2-0.4-0.5-0.4c-1.7,0-3.3,0-5,0c-0.1,0-0.3-0.1-0.3,0.2c0.5,0.1,1,0.2,1,0.9
		c0,2.5,0,5,0,7.4c0,0.4-0.2,0.7-0.7,0.8c-0.1,0-0.3,0-0.3,0.2l0.1,0.1c1.9,0,3.7,0,5.6,0c0.2,0,0.3,0,0.3-0.2
		c0.1-0.9,0.2-1.8,0.3-2.8c-0.1,0-0.1,0-0.2,0C53.4,37.2,53.3,37.5,53.2,37.7z"/>
	<path class="st3" d="M62,39.5c-0.2-0.2-0.4-0.5-0.5-0.7c-0.7-1.4-1.4-2.8-2-4.1c-0.1-0.2-0.1-0.4,0-0.6c0.6-0.9,1.1-1.8,1.7-2.7
		c0.2-0.3,0.4-0.5,0.7-0.6c0.1,0,0.3,0,0.2-0.2c0-0.1-0.2-0.1-0.3-0.1c-0.6,0-1.3,0-1.9,0c-0.1,0-0.3,0-0.3,0.1s0.1,0.1,0.2,0.2
		c0.6,0.2,0.6,0.6,0.4,1c-0.3,0.7-0.7,1.4-1.2,2.2c-0.4-0.9-0.8-1.7-1.2-2.5c-0.2-0.4-0.1-0.6,0.4-0.7c0.1,0,0.3,0,0.2-0.2
		c0-0.1-0.2-0.1-0.3-0.1c-1,0-1.9,0-2.9,0c-0.1,0-0.2,0-0.2,0.1s0.1,0.2,0.2,0.2c0.3,0.1,0.5,0.4,0.6,0.7c0.5,1,0.9,2,1.5,3
		c0.6,0.9,0.6,1.7-0.1,2.5c-0.7,0.9-1,2.2-2.2,2.8c-0.1,0.1-0.1,0.2,0,0.2c0.8,0,1.6,0,2.5,0c-0.1-0.3-0.3-0.3-0.4-0.3
		c-0.4-0.2-0.6-0.5-0.4-0.9c0.4-0.9,0.9-1.7,1.5-2.6c0.4,0.8,0.7,1.5,1.1,2.2c0.4,0.9,0.4,0.9-0.3,1.5c0.1,0.2,0.3,0.1,0.5,0.1
		c0.8,0,1.5,0,2.3,0c0.2,0,0.4,0.1,0.5-0.1C62.5,39.6,62.2,39.6,62,39.5z"/>
	<path class="st3" d="M27.1,18.4c-0.6-1-1.1-2-0.8-3.2c-0.7,0.1-1.2,0.5-1.7,0.7c-0.3,0.1-0.4,0.3-0.4,0.6c0,1,0.1,1.9,0.6,2.7
		c0.1,0.2,0.3,0.4,0.3,0.7c-0.8-0.2-1.4,0.1-1.9,0.6c-0.7,0.6-1.4,1.3-2.2,1.9c-0.3,0.2-0.4,0.5-0.3,0.9c0.1,1,1,1.6,1.9,1.4
		c0.6-0.1,1.1-0.3,1.6-0.7c1.3-0.8,2.2-2,2.8-3.3C27.3,20,27.6,19.2,27.1,18.4z M24.2,22.9c-0.6,0.5-1.5,0.3-1.7-0.5
		c-0.1-0.4,0.1-0.7,0.5-0.9c0.3-0.1,0.6-0.2,0.9-0.1c0.4,0.2,0.7,0.1,1.1-0.3C24.9,21.9,24.7,22.5,24.2,22.9z"/>
	<path class="st3" d="M84.8,37.8c-0.4,1.1-1.1,1.6-2.4,1.6c-0.5,0-0.8-0.2-0.8-0.8c0-1,0-2,0-3c0-0.3,0.2-0.4,0.4-0.3
		c0.6,0.1,0.7,0.7,0.9,1.1c0.1,0.3,0,0.7,0.3,1.1c0-1.7,0-3.4,0-5c-0.2,0.4-0.3,0.9-0.4,1.3c-0.1,0.4-0.3,0.7-0.7,0.8
		c-0.3,0.1-0.5,0.1-0.5-0.3c0-1,0-2.1,0-3.1c0-0.1,0-0.3,0.2-0.4c0.8-0.4,2.2,0.2,2.5,1c0.1,0.4,0.2,0.8,0.3,1.2c0.1,0,0.1,0,0.2,0
		c0-0.8,0-1.5,0-2.3c0-0.4-0.1-0.5-0.5-0.5c-1.6,0-3.3,0-4.9,0c-0.1,0-0.3-0.1-0.4,0.1c1,0.6,1,0.6,1,1.9c0,1.1,0,2.3,0,3.4
		c0,0.9,0,1.9,0,2.8c0,0.6-0.1,1.1-0.9,1.1c0,0,0,0.1-0.1,0.1l0.1,0.1c1.9,0,3.7,0,5.6,0c0.1,0,0.3,0,0.3-0.2
		c0.1-0.9,0.2-1.9,0.3-2.8c-0.1,0-0.1,0-0.2,0C85,37.2,84.9,37.5,84.8,37.8z"/>
	<path class="st3" d="M67.6,30.5c-1.3-0.3-2.6-0.1-3.9-0.1c-0.1,0-0.2,0-0.2,0.2c0,0.1,0.1,0.1,0.2,0.1c0.7,0,0.7,0.5,0.7,1
		c0,0.9,0,1.9,0,2.8c0,1.4,0,2.7,0,4.1c0,0.6-0.1,1.1-0.9,1.1c0,0-0.1,0.1-0.1,0.2c1.2,0,2.3,0,3.5,0c0-0.1,0-0.1,0.1-0.2
		c-0.9-0.1-1-0.6-1-1.3c0-0.6,0-1.1,0-1.7c0-1,0-1,1-1.1c0.1,0,0.3,0,0.4-0.1c1.1-0.2,1.8-1.1,1.9-2.4
		C69.4,31.7,68.7,30.7,67.6,30.5z M67.4,34.2c-0.1,0.2-0.2,0.4-0.4,0.6c-0.2,0.2-0.5,0.3-0.8,0.2s-0.1-0.4-0.1-0.6
		c0-0.5,0-0.9,0-1.4c0-0.6,0-1.1,0-1.7c0-0.4,0.2-0.5,0.5-0.4c0.4,0.1,0.7,0.4,0.9,0.8C67.7,32.5,67.7,33.4,67.4,34.2z"/>
	<path class="st3" d="M73.8,27.9c0.1-0.6,0.1-1.2,0.2-1.8c-0.2,0.3-0.3,0.6-0.5,0.9c-0.5,1.1-1.1,1.6-2.3,1.6
		c-0.7,0-0.9-0.2-0.9-0.9c0-0.9,0-1.7,0-2.6c0-0.2-0.1-0.5,0.1-0.5c0.2-0.1,0.5,0,0.7,0.2c0.3,0.3,0.4,0.6,0.5,1
		c0.1,0.3,0.1,0.6,0.2,0.9h0.1c0-1.6,0-3.2,0-4.9c-0.2,0.4-0.3,0.9-0.4,1.3s-0.4,0.7-0.8,0.8c-0.3,0.1-0.4,0-0.4-0.3
		c0-1.1,0-2.1,0-3.2c0-0.2,0-0.3,0.3-0.3c1.3-0.3,2.2,0.3,2.6,1.6c0.1,0.2,0,0.5,0.3,0.8c0-0.9,0-1.6,0-2.4c0-0.5-0.2-0.5-0.6-0.5
		c-1.6,0-3.2,0-4.8,0c-0.2,0-0.4-0.1-0.5,0.2c1.1,0,1,0.8,1,1.5c0,2,0,4,0,6c0,0.7,0.2,1.5-1.1,1.6c0.3,0.3,0.5,0.2,0.7,0.2
		c1.4,0,2.8,0,4.1,0C73.7,29.1,73.7,29.1,73.8,27.9z"/>
	<path class="st3" d="M-19,15.9c0.1-0.4,0.1-0.7,0.3-1.1c0.5-1.5,1.2-1.9,2.8-1.7c0.2,0,0.4,0.1,0.7,0.1c1.8,0.3,3.3,1.1,5,1.8
		l0.1-0.1c-1.1-0.6-2-1.3-2.3-2.7c0-0.2-0.2-0.5-0.5-0.6c-1.6-0.9-3.6-0.5-4.9,0.9c-0.7,0.7-1.1,1.5-1.3,2.4
		c-0.1,0.4-0.2,0.8-0.3,1.3c-0.4-0.5-0.7-0.9-1.1-1.3c-0.2-0.2-0.2-0.4-0.2-0.6c-0.1-1.7-1.6-3.1-3.3-3.1c-0.1,0-0.2,0-0.2,0.1
		c-0.7,0.5-1.4,1-2.2,1.6c3.2,0.3,5.3,2.2,7.5,4.3C-19.1,16.7-19.1,16.3-19,15.9z"/>
	<path class="st3" d="M-8.6,15.3c1.1,0.4,2.3,0.4,3.4,0.1c0.2-0.1,0.4-0.2,0.5-0.4c0.2-0.2,0.4-0.5,0.3-0.9
		c-0.1-0.3-0.5-0.3-0.8-0.3c-0.6,0-1.1-0.1-1.7-0.1c-0.3,0-0.5-0.2-0.2-0.5c0.6-0.5,1.3-0.9,2.1-0.6c0.6,0.2,1.2,0.5,1.7,0.9
		c1.4,1.2,2.5,2.7,3.8,3.9c-0.4-0.6-0.8-1.2-1.2-1.8C-1,15.2-1.1,14.8-1,14.3c0.1-0.8,0.2-1.6-0.5-2.2C-2.2,11.4-3,10.9-4,10.7
		c-0.7-0.2-1.4-0.1-2,0.4c-1,0.8-2,1.8-2.9,2.8C-9.2,14.2-9.2,15.1-8.6,15.3z"/>
	<path class="st3" d="M89.1,33.4c-0.4-0.3-0.7-0.6-0.9-1.1c-0.2-0.6,0-1.3,0.5-1.5c0.5-0.3,1-0.2,1.5,0.2c0.6,0.5,0.9,1.1,1,1.9
		c0,0.1,0,0.3,0.2,0.4c0-1,0-2,0-3.1c-0.3,0.8-0.7,0.5-1.1,0.2c-1.1-0.6-2.1-0.4-2.8,0.7c-0.8,1.2-0.6,2.9,0.5,4
		c0.5,0.5,1.1,0.9,1.7,1.3c0.4,0.3,0.8,0.6,1,1.1c0.2,0.7,0,1.5-0.5,1.8S89,39.5,88.5,39c-0.6-0.5-0.8-1.2-1-1.9
		c-0.1-0.2,0-0.5-0.3-0.7c0,1.2,0,2.4,0,3.5c0.4-0.7,0.8-0.5,1.4-0.2c1.1,0.6,2.2,0.3,2.9-0.8c0.9-1.3,0.7-3.1-0.4-4.2
		C90.4,34.3,89.7,33.9,89.1,33.4z"/>
	<path class="st3" d="M97.5,34.8c-0.5-0.5-1.1-0.9-1.7-1.3c-0.4-0.3-0.7-0.5-0.9-0.9c-0.3-0.6-0.1-1.4,0.4-1.7
		c0.4-0.3,1.1-0.2,1.6,0.2c0.4,0.4,0.7,0.9,0.9,1.5c0.1,0.2,0,0.5,0.3,0.8c0-1.1,0-2.1,0-3.1c-0.2,0.7-0.6,0.6-1.1,0.3
		c-1.2-0.7-2.4-0.4-3,0.9c-0.6,1.2-0.4,2.8,0.6,3.8c0.5,0.5,1.1,0.9,1.7,1.3c0.4,0.3,0.7,0.6,0.9,1.1c0.3,0.7,0.1,1.5-0.5,1.9
		c-0.5,0.3-1.2,0.2-1.8-0.3c-0.5-0.5-0.8-1.1-1-1.8c-0.1-0.2-0.1-0.5-0.3-0.8c0,1.3,0,2.4,0,3.6c0.4-0.6,0.8-0.5,1.3-0.3
		c1.2,0.7,2.4,0.3,3.1-0.9C98.8,37.5,98.6,35.9,97.5,34.8z"/>
	<path class="st3" d="M4.4,17.2c-0.6,0.2-1.3,0.4-1.9,0.6c-0.4,0.1-0.5,0.3-0.6,0.7c-0.3,0.8-0.4,1.6-0.4,2.5c0,0.4,0.1,0.8,0.1,1.2
		c0.2,1.9,0.9,3.7,1.7,5.4c0.1,0.2,0.1,0.5,0.4,0.4c0.4-0.1,0.3-0.4,0.2-0.7c-0.3-0.8-0.2-1.6,0.4-2.3c0.2-0.3,0.4-0.6,0.3-1
		c-0.5-2-0.6-4.1,0-6.1c0-0.2,0.1-0.3,0.1-0.5C4.8,17.2,4.6,17.1,4.4,17.2z"/>
	<path class="st3" d="M20.3,16.8c-0.8,0.2-1.5,0.5-2.2,0.7c-0.3,0.1-0.5,0.3-0.6,0.7c-1,3.4,0.2,6.4,1.5,9.4
		c0.1,0.1,0.1,0.2,0.3,0.2c0.1,0,0.2-0.1,0.2-0.2c0-0.2,0-0.3,0-0.5c-0.3-0.8-0.1-1.6,0.4-2.3c0.3-0.4,0.3-0.9,0.2-1.4
		c-0.4-1.5-0.5-3.1-0.2-4.6C20,18.1,20.3,17.5,20.3,16.8z"/>
	<path class="st3" d="M-10.2,28.1c0.4-0.1,0.3-0.4,0.2-0.7c-0.3-0.9-0.1-1.6,0.4-2.4c0.3-0.4,0.3-0.8,0.2-1.3
		c-0.4-1.5-0.5-3-0.2-4.6c0.1-0.7,0.4-1.3,0.4-2.1c-0.8,0.3-1.6,0.5-2.4,0.8c-0.2,0.1-0.3,0.2-0.4,0.4c-0.2,0.7-0.4,1.4-0.4,2.2
		c-0.1,2.6,0.9,4.9,1.8,7.2C-10.5,27.8-10.5,28.1-10.2,28.1z"/>
	<path class="st3" d="M29.1,20.5c-0.8,0-2.3,1-2.5,1.7c-0.1,0.2,0,0.3,0.2,0.3c0.2,0.1,0.4,0,0.5-0.1c1.2-0.3,2.8,0.8,3,2
		c0.1,0.6-0.1,0.8-0.7,0.7c-1.1-0.3-2.3-0.4-2.7-1.8c-0.1-0.3-0.5-0.5-0.9-0.4s-0.2,0.5-0.1,0.8c0.2,0.7,0.5,1.5,1,2.1
		c0.8,1.1,2,1.4,3,0.7c0.9-0.7,1.6-1.5,2.2-2.4c0.3-0.4,0.3-0.9,0.2-1.4C31.7,21.6,30.2,20.5,29.1,20.5z"/>
	<path class="st3" d="M48.1,10.1c0.2-0.5,0.6-0.7,1.2-0.7c0.4,0,0.6,0.1,0.6,0.5c0,2.2,0,4.4,0,6.6c0,0.7,0.2,1.6-0.9,1.8
		c1.2,0,2.4,0,3.7,0c-1.2-0.6-1.2-0.6-1.2-1.8c0-2.1,0-4.2,0-6.3c0-0.3-0.1-0.6,0.1-0.7c0.4-0.1,0.8-0.1,1.2,0.2
		c0.3,0.2,0.5,0.6,0.6,0.9c0.1,0.3,0.2,0.5,0.2,0.8c0.1,0,0.1,0,0.2,0c0-0.7,0-1.5,0-2.2c0-0.3-0.2-0.3-0.4-0.3c-1.8,0-3.7,0-5.5,0
		c-0.2,0-0.4,0-0.4,0.2c0,0.8,0,1.5,0,2.3C47.8,10.9,47.9,10.5,48.1,10.1z"/>
	<path class="st3" d="M75.6,22.1c0.1,0,0.1,0,0.2,0c0.1-0.4,0.2-0.8,0.3-1.2c0.3-0.6,0.7-0.8,1.3-0.8c0.3,0,0.4,0.1,0.4,0.4
		c0,2.5,0,5,0,7.6c0,0.5-0.2,0.8-0.7,0.8c-0.1,0-0.2,0-0.2,0.2c1.2,0,2.4,0,3.8,0c-1.1-0.5-1.1-0.5-1.1-1.6c0-2.2,0-4.3,0-6.5
		c0-0.3-0.2-0.7,0.1-0.8c0.4-0.1,0.8-0.1,1.2,0.2c0.4,0.3,0.5,0.7,0.6,1.1c0.1,0.2,0,0.5,0.3,0.8c0-0.9,0-1.6,0-2.4
		c0-0.2-0.2-0.2-0.3-0.2c-1.9,0-3.7,0-5.6,0c-0.2,0-0.3,0.1-0.3,0.3C75.6,20.6,75.6,21.3,75.6,22.1z"/>
	<path class="st3" d="M53.4,19.6c-1.9,0-3.7,0-5.6,0c-0.2,0-0.3,0-0.3,0.2c0,0.8,0,1.5,0,2.3c0.3-0.4,0.4-0.7,0.5-1.1
		c0.2-0.5,0.6-0.8,1.1-0.9s0.7,0,0.7,0.6c0,2.2,0,4.4,0,6.6c0,0.7,0.2,1.6-1,1.7c1.3,0.1,2.5,0.1,3.7,0c-0.5-0.1-1-0.3-1-0.9
		c0-2.5,0-5.1,0-7.6c0-0.3,0.1-0.3,0.4-0.4c0.7,0,1.2,0.2,1.4,0.9c0.1,0.3,0.2,0.7,0.3,1.1c0.1,0,0.1,0,0.2,0c0-0.7,0-1.4,0-2.1
		C53.8,19.7,53.7,19.6,53.4,19.6z"/>
	<path class="st3" d="M43.3,26.7c-0.4-0.6-0.9-1.2-0.5-1.9c0.5-0.8,0.3-1.4,0-2.1c-0.2-0.4-0.3-0.8-0.3-1.2c-0.3-1.5-0.4-3-0.1-4.8
		c0-0.2-0.2-0.3-0.5-0.1c-0.6,0.4-1.2,0.8-1.8,1.1c-0.3,0.2-0.3,0.4-0.3,0.6c0,1.3,0.1,2.7,0.4,4c0.5,1.8,1.2,3.4,2.7,4.6
		c0.2,0.1,0.4,0.4,0.6,0.2C43.8,27,43.5,26.9,43.3,26.7z"/>
	<path class="st3" d="M58.9,19.8c-0.1-0.1-0.1-0.1-0.2-0.2c-1.2,0-2.4,0-3.5,0c0.9,0.4,0.9,0.4,0.9,1.6c0,2.1,0,4.1,0,6.2
		c0,0.7,0.2,1.6-1,1.7c1.3,0.1,2.4,0.2,3.6,0c-0.9-0.4-0.9-0.4-0.9-1.4c0-2.1,0-4.2,0-6.3C57.8,20.6,57.6,19.8,58.9,19.8z"/>
	<path class="st3" d="M22.6,12.2c1.7,0.3,3.2,0.9,4.4,2.1c0.6,0.6,1.2,1.3,1.9,1.9c0.3,0.3,0.6,0.6,1.1,0.9c0-0.3-0.2-0.5-0.4-0.6
		c-0.7-0.8-1.4-1.7-2.1-2.5c-0.3-0.3-0.5-0.7-0.6-1.1c0-1.3-0.7-2.1-2-2.4c-0.1,0-0.2-0.1-0.4-0.1c-2.2-0.7-3-0.5-4.5,1.3
		c-0.1,0.3-0.5,0.7-0.7,1.3C20.4,12.3,21.5,12,22.6,12.2z"/>
	<path class="st3" d="M-10.4,15c0.3,0.2,0.6,0.3,1,0.3c-0.3-0.2-0.6-0.3-0.9-0.5C-10.2,15-10.2,15.1-10.4,15z"/>
	<path class="st3" d="M18.5,31.9c0.1-0.1,0.2,0,0.2,0.1c0.4-0.2,0.4-0.5,0.4-0.9C18.8,31.4,18.7,31.6,18.5,31.9z"/>
</g>
<g>
	<g>
		<path class="st4" d="M34.7,25.3c-2.6,0-5.2,0-7.7,0c-0.2,0-0.3,0-0.3,0.3c0,3.1,0,6.2,0,9.4c0,0.2,0.1,0.3,0.3,0.3
			c0.6,0,1.2,0,1.8,0c0.2,0,0.3-0.1,0.3-0.3c0-0.9,0-1.7,0-2.6c0-0.3,0.1-0.4,0.4-0.4c1,0,2,0,3,0c0.3,0,0.4,0.1,0.4,0.3
			c0,0.8,0,1.7,0,2.5c0,0.3,0.1,0.3,0.4,0.3c0.6,0,1.1,0,1.7,0c0.3,0,0.3-0.1,0.3-0.3c0-1.5,0-3.1,0-4.6s0-3,0-4.6
			C35.1,25.4,35,25.3,34.7,25.3z M32.8,29.5c0,0.1-0.1,0.2-0.2,0.2c-1.1,0-2.2,0-3.4,0c-0.2,0-0.2-0.1-0.2-0.2c0-0.5,0-1.1,0-1.6
			c0-0.2,0.1-0.2,0.3-0.2c0.5,0,1.1,0,1.6,0l0,0c0.5,0,1.1,0,1.6,0c0.2,0,0.2,0,0.2,0.2C32.7,28.4,32.7,28.9,32.8,29.5z"/>
		<path class="st4" d="M22.3,25.3c-0.6,0-1.2,0-1.8,0c-0.2,0-0.3,0.1-0.3,0.3c0,1.3,0,2.5,0,3.8c0,0.3-0.1,0.3-0.3,0.3c-1,0-2,0-3,0
			c-0.3,0-0.4-0.1-0.4-0.4c0-1.2,0-2.4,0-3.7c0-0.3-0.1-0.4-0.4-0.3c-0.5,0-1.1,0-1.6,0c-0.3,0-0.4,0.1-0.4,0.4c0,1.5,0,3,0,4.6
			s0,3.1,0,4.7c0,0.2,0.1,0.3,0.3,0.3c0.6,0,1.2,0,1.8,0c0.2,0,0.3-0.1,0.3-0.3c0-0.9,0-1.7,0-2.6c0-0.2,0.1-0.3,0.3-0.3
			c1.1,0,2.1,0,3.2,0c0.2,0,0.3,0.1,0.3,0.3c0,0.9,0,1.7,0,2.6c0,0.2,0.1,0.3,0.3,0.3c0.6,0,1.2,0,1.8,0c0.2,0,0.3-0.1,0.3-0.3
			c0-3.1,0-6.2,0-9.3C22.6,25.3,22.5,25.3,22.3,25.3z"/>
		<path class="st4" d="M58.6,25.4c-0.6,0-1.1,0-1.7,0c-0.3,0-0.3,0.1-0.3,0.3c0,2.3,0,4.6,0,6.9c0,0.3-0.1,0.4-0.4,0.4
			c-0.8,0-1.6,0-2.4,0c-0.3,0-0.4-0.1-0.4-0.4c0-2.3,0-4.6,0-6.8c0-0.3-0.1-0.4-0.3-0.3c-0.6,0-1.1,0-1.7,0c-0.3,0-0.3,0.1-0.3,0.3
			c0,3.1,0,6.2,0,9.3c0,0.2,0.1,0.3,0.3,0.3c2.4,0,4.8,0,7.2,0c0.3,0,0.3-0.1,0.3-0.4c0-1.5,0-3.1,0-4.6c0-1.6,0-3.1,0-4.7
			C58.9,25.5,58.8,25.4,58.6,25.4z"/>
		<path class="st4" d="M10,25.4c-2.3,0-4.7,0-7,0c-0.3,0-0.3,0.1-0.3,0.4c0,1.5,0,3.1,0,4.6c0,1.6,0,3.1,0,4.7c0,0.2,0,0.3,0.3,0.3
			c0.6,0,1.2,0,1.8,0c0.2,0,0.3-0.1,0.3-0.3c0-0.9,0-1.7,0-2.6c0-0.3,0.1-0.4,0.4-0.4c1.5,0,3.1,0,4.6,0c0.3,0,0.3-0.1,0.3-0.3
			c0-2,0-4.1,0-6.1C10.3,25.5,10.2,25.4,10,25.4z M8,28c0,0.5,0,1,0,1.6c0,0.2-0.1,0.3-0.3,0.3c-0.8,0-1.6,0-2.4,0
			c-0.2,0-0.3-0.1-0.3-0.3c0-0.5,0-1,0-1.6c0-0.2,0-0.2,0.2-0.2c0.4,0,0.9,0,1.3,0s0.8,0,1.2,0C7.9,27.8,8,27.8,8,28z"/>
		<path class="st4" d="M46.5,25.7c0-0.2-0.1-0.3-0.3-0.2c-0.6,0-1.2,0-1.8,0c-0.3,0-0.3,0.1-0.3,0.3c0,1.1,0,2.2,0,3.3
			c0,0.2-0.1,0.3-0.3,0.3c-0.9,0-1.8,0-2.6,0c-0.3,0-0.3-0.1-0.3-0.3c0-1.1,0-2.2,0-3.3c0-0.2,0-0.3-0.3-0.3c-0.6,0-1.2,0-1.8,0
			c-0.3,0-0.3,0.1-0.3,0.3c0,0.9,0,1.9,0,2.8l0,0c0,0.9,0,1.9,0,2.8c0,0.2,0.1,0.3,0.3,0.3c0.7,0,1.5,0,2.2,0c0.5,0,0.5,0,0.5,0.5
			c0,0.9,0,1.9,0,2.8c0,0.2,0.1,0.3,0.3,0.3c0.6,0,1.2,0,1.8,0c0.2,0,0.3-0.1,0.3-0.3c0-1,0-2,0-2.9c0-0.3,0.1-0.3,0.4-0.3
			c0.7,0,1.4,0,2.1,0c0.2,0,0.3,0,0.3-0.2C46.5,29.5,46.5,27.6,46.5,25.7z"/>
		<path class="st4" d="M69.4,35.1c0-0.6,0-1.2,0-1.8c0-0.2-0.1-0.3-0.3-0.3c-0.9,0-1.8,0-2.7,0c-0.3,0-0.4-0.1-0.4-0.4
			c0-2.3,0-4.6,0-6.8c0-0.3-0.1-0.4-0.4-0.4c-0.5,0-1.1,0-1.6,0c-0.3,0-0.4,0.1-0.4,0.4c0,1.5,0,3,0,4.6s0,3.1,0,4.7
			c0,0.2,0.1,0.3,0.3,0.3c1.7,0,3.4,0,5.1,0C69.3,35.4,69.4,35.3,69.4,35.1z"/>
	</g>
	<path class="st5" d="M42.1,41.4c0-1.3,0-2.5,0-3.8c0-0.3-0.1-0.4-0.4-0.4c-0.7,0-1.3,0-2,0c-0.5,0-0.5,0-0.5,0.5c0,0.1,0,0.1,0,0.2
		c0,1.4,0,2.8,0,4.2c0,0.8,0,0.8-0.8,0.8c-0.3,0-0.4-0.1-0.3-0.3c0-1.6,0-3.3,0-4.9c0-0.3-0.1-0.4-0.4-0.4c-2.3,0-4.7,0-7,0
		c-0.3,0-0.4,0.1-0.4,0.4c0,0.6,0,1.2,0,1.8c0,0.5,0.1,0.6,0.6,0.6c1.3,0,2.7,0,4,0c0.2,0,0.4,0,0.4,0.3s0,0.6,0,0.9
		c0,1.3,0,2.6,0,3.9c0,0.3,0.1,0.4,0.4,0.4c2,0,4,0,6.1,0c0.3,0,0.4-0.1,0.4-0.4C42.1,43.9,42.1,42.7,42.1,41.4z M41.2,41.4
		L41.2,41.4c0,0.9,0,1.8,0,2.7c0,0.6,0,0.6-0.5,0.6c-1.4,0-2.8,0-4.3,0c-0.3,0-0.4-0.1-0.4-0.4c0-1.5,0-3,0-4.6c0-0.6,0-0.6-0.5-0.6
		c-1.3,0-2.6,0-3.9,0c-0.2,0-0.4,0-0.4-0.2c-0.1-0.2-0.1-0.5,0-0.8c0-0.1,0.2-0.1,0.3-0.1c1.8,0,3.6,0,5.4,0c0.3,0,0.3,0.1,0.3,0.4
		c0,1.6,0,3.2,0,4.8c0,0.5,0,0.5,0.5,0.5c0.6,0,1.2,0,1.9,0c0.6,0,0.6,0,0.6-0.6c0-1.4,0-2.8,0-4.2c0-0.2,0-0.4,0-0.6
		c0-0.2,0.1-0.3,0.3-0.3c1,0,0.9,0,0.9,0.8C41.2,39.7,41.2,40.6,41.2,41.4z"/>
	<g>
		<path class="st5" d="M42.6,5.8c0-0.3-0.1-0.5-0.3-0.6c-0.7-0.5-1.4-1-2.1-1.6c-0.1-0.1-0.3-0.3-0.4-0.2s-0.1,0.3-0.1,0.4
			c0,5.5,0,11.1,0,16.6c0,0.1,0,0.3,0,0.4c0,0.2-0.1,0.3-0.3,0.3c-0.3,0-0.5,0-0.8,0s-0.4-0.1-0.4-0.4c0-2.9,0-5.9,0-8.8
			s0-5.9,0-8.8c0-0.1,0-0.2,0-0.4c-0.1-0.1-0.1-0.3-0.3-0.2c-0.4,0.1-0.7,0-1,0c-0.4,0-0.8,0.1-1.2,0.1c-0.3-0.1-0.4,0-0.4,0.3
			c0,0.7,0,1.3,0,2c0,5,0,10,0,15.1c0,0.3,0,0.5,0,0.8s-0.1,0.5-0.4,0.4c-0.2,0-0.4,0-0.6,0c-0.5,0-0.5,0-0.5-0.5c0-5.5,0-11,0-16.5
			c0-0.1,0-0.2,0-0.3s-0.1-0.2-0.2-0.1c-0.8,0.6-1.6,1.3-2.4,1.9C31.1,5.8,31,5.9,31,6c-0.1,0.4,0,0.7,0,1.1c0,5.3,0,10.6,0,15.9
			c0,0.1,0,0.2,0,0.3c0,0.5,0,0.5,0.5,0.5c3.6,0,7.2,0,10.8,0c0.4,0,0.5-0.1,0.5-0.5c0-0.8,0-1.6,0-2.3c0-4.3,0-8.6,0-12.9
			C42.5,7.2,42.6,6.5,42.6,5.8z M41.7,6.9c0,4.6,0,9.2,0,13.8c0,0.6,0,1.2,0,1.8c0,0.2-0.1,0.3-0.3,0.3c-3.2,0-6.3,0-9.5,0
			c-0.3,0-0.3-0.1-0.3-0.4c0-1.7,0-3.4,0-5.1c0-3.3,0-6.7,0-10c0-0.1,0-0.2,0-0.3c-0.2-0.8,0.4-1.1,0.9-1.5c0.2-0.1,0.3,0,0.2,0.2
			c0,0.4,0,0.9,0,1.3c0,3.9,0,7.7,0,11.6c0,1,0,1.9,0,2.9c0,0.5,0,0.5,0.5,0.5c0.8,0,1.6,0,2.4,0c0.4,0,0.5,0,0.5-0.5
			c0-3,0-5.9,0-8.9l0,0c0-2.9,0-5.9,0-8.8c0-0.3,0.1-0.5,0.4-0.4c0.9,0,0.8-0.2,0.8,0.8c0,5.8,0,11.5,0,17.3c0,0.5,0,0.5,0.5,0.5
			c0.8,0,1.6,0,2.4,0c0.3,0,0.4-0.1,0.4-0.4c0-0.1,0-0.3,0-0.4c0-5.3,0-10.5,0-15.8c0-0.1-0.1-0.3,0.1-0.3c0.1,0,0.2,0.1,0.3,0.1
			c0.6,0.3,0.9,0.7,0.7,1.3C41.7,6.7,41.7,6.8,41.7,6.9z"/>
		<path class="st5" d="M54.7,15.3c-0.7-0.6-1.4-1.2-2.2-1.8c-0.1,0-0.1-0.2-0.2-0.1c-0.1,0.1-0.1,0.2-0.1,0.2c0,0.1,0,0.2,0,0.3
			c0,2.3,0,4.6,0,6.8c0,0.1,0.1,0.3-0.1,0.3c-0.3,0.2-0.7,0.2-1,0.1c-0.2-0.1-0.2-0.4-0.2-0.6c0-2.7,0-5.3,0-8c0-0.2,0-0.4-0.3-0.6
			c-1.2-0.9-2.3-1.9-3.5-2.8c-1-0.8-2-1.6-2.9-2.4c-0.1-0.1-0.3-0.2-0.4-0.2s-0.1,0.2-0.1,0.4c0,2.7,0,5.4,0,8.1l0,0
			c0,2.7,0,5.4,0,8.1c0,0.5,0.1,0.6,0.6,0.6c0.6,0,1.2,0,1.7,0c0.6,0,0.7-0.1,0.7-0.7c0-3.3,0-6.5,0-9.8c0-0.1-0.1-0.3,0.1-0.3
			c0.1-0.1,0.3,0,0.4,0.1s0.3,0.3,0.4,0.4c0.3,0.2,0.3,0.4,0.3,0.7c0,3,0,6,0,9c0,0.5,0.1,0.6,0.6,0.6c1.9,0,3.9,0,5.8,0
			c0.4,0,0.5-0.1,0.5-0.5c0-2.5,0-5,0-7.4C54.9,15.6,54.8,15.4,54.7,15.3z M54.1,22.3c0,0.5-0.1,0.6-0.6,0.6c-0.6-0.1-1.1,0-1.7,0
			c-0.7,0-1.4,0-2.1,0c-0.2,0-0.4-0.1-0.6-0.1c-0.1,0-0.2-0.1-0.2-0.2s0-0.2,0-0.3c0-2.8,0-5.6,0-8.4c0-0.4-0.1-0.7-0.5-0.9
			c-0.7-0.5-1.4-1.1-2.1-1.7c-0.1-0.1-0.2-0.2-0.4-0.2c-0.2,0.1-0.1,0.2-0.1,0.4c0,3.6,0,7.2,0,10.8c0,0.3,0,0.5-0.4,0.5
			c-0.2,0-0.3,0-0.5,0c-0.3,0-0.4-0.1-0.4-0.4c0-4.6,0-9.1,0-13.7c0-0.1,0-0.2,0.1-0.3s0.2,0,0.3,0.1c1,0.8,2.1,1.7,3.1,2.5
			c0.5,0.4,1.1,0.9,1.6,1.3c0.3,0.2,0.4,0.5,0.4,0.8c0,2.7,0,5.4,0,8.2c0,0.6,0,0.7,0.6,0.7c0.7,0,1.5,0.1,2.2,0
			c0.2,0,0.2-0.1,0.2-0.3c0-0.2,0-0.5,0-0.7l0,0l0,0c0-0.7,0-1.5,0-2.2c0-1.1,0-2.2,0-3.3c0-0.1,0-0.2,0.1-0.3s0.2,0.1,0.3,0.1
			c0.1,0,0.1,0.1,0.2,0.1c0.3,0.2,0.5,0.5,0.5,0.9C54,18.4,54.1,20.3,54.1,22.3z"/>
		<path class="st5" d="M25,10.7c-0.1-0.1-0.2,0.1-0.2,0.1c-0.4,0.3-0.8,0.6-1.2,1c-1,0.9-2,1.7-3,2.6c-0.6,0.5-1.2,1.1-1.8,1.5
			c-0.5,0.4-0.8,0.9-0.7,1.5c0.1,1,0,2,0,2.9c0,0.7,0.1,0.6-0.6,0.6c-0.3,0-0.4-0.1-0.4-0.4c0-0.9,0-1.8,0-2.6c0-0.1,0-0.3-0.1-0.3
			c-0.1-0.1-0.2,0.1-0.3,0.1c-0.6,0.5-1.1,1-1.7,1.5c-0.4,0.3-0.5,0.6-0.5,1.1c0.1,0.9,0,1.9,0,2.8c0,0.4,0.1,0.5,0.5,0.5
			c3.3,0,6.5,0,9.8,0c0.4,0,0.5-0.1,0.5-0.5c0-2,0-4.1,0-6.1c0-1.3,0-2.6,0-3.9c0-0.8,0-1.5,0-2.3C25.1,10.9,25.1,10.8,25,10.7z
			 M24.2,17.7L24.2,17.7c0,1.6,0,3.2,0,4.7c0,0.3-0.1,0.3-0.3,0.3c-2.8,0-5.5,0-8.3,0c-0.3,0-0.4-0.1-0.4-0.4c0-0.6,0-1.2,0-1.8
			c0-0.3,0.4-0.8,0.7-0.9c0.2-0.1,0.2,0.1,0.2,0.2c0,0.5,0,0.9,0,1.4c0,0.7,0,0.7,0.7,0.7c0.5,0,1.1,0,1.6,0c0.3,0,0.4-0.1,0.4-0.4
			c0-1.3,0-2.6,0-4c0-0.4,0.1-0.6,0.4-0.9c1.3-1,2.5-2.1,3.7-3.2c0.3-0.2,0.5-0.5,0.8-0.7c0.1-0.1,0.2-0.2,0.3-0.1
			c0.1,0.1,0.1,0.2,0.1,0.3C24.2,14.6,24.2,16.2,24.2,17.7z"/>
		<path class="st5" d="M29.1,7.4c-0.2-0.1-0.3,0.1-0.4,0.2c-0.7,0.6-1.4,1.2-2.2,1.7c-0.2,0.2-0.3,0.4-0.3,0.6c0,0.2,0,0.5,0,0.7
			c0,4.1,0,8.3,0,12.4c0,0.1,0,0.1,0,0.2c0,0.5,0,0.6,0.5,0.6c0.6,0,1.2,0,1.7,0s0.6-0.1,0.6-0.6c0-2.6,0-5.1,0-7.7s0-5.2,0-7.7
			C29.1,7.6,29.2,7.5,29.1,7.4z M28.3,22.1c0,0.6,0,0.6-0.6,0.6c-0.5,0-0.5,0-0.5-0.5c0-1.3,0-2.5,0-3.8c0-2.6,0-5.3,0-7.9
			c0-0.7,0.4-1,0.9-1.4c0.2-0.2,0.3,0,0.3,0.2c0,1.2,0,2.5,0,3.7c0,0.9,0,1.8,0,2.7l0,0C28.3,18,28.3,20.1,28.3,22.1z"/>
		<path class="st5" d="M59,21L59,21c0-0.7,0-1.5,0-2.2c0-0.2-0.1-0.4-0.3-0.5c-0.7-0.5-1.4-1.1-2.1-1.7c-0.1-0.1-0.2-0.2-0.3-0.1
			c-0.1,0-0.1,0.2-0.1,0.3c0,0.1,0,0.2,0,0.3c0,1.1,0,2.1,0,3.2c0,1-0.1,2.1,0,3.1c0,0.2,0.1,0.3,0.3,0.3c0.7,0,1.3,0,2,0
			c0.3,0,0.4-0.1,0.4-0.4C59,22.5,59,21.8,59,21z M58.1,19.8c0,0.8,0,1.7,0,2.5c0,0.4-0.1,0.5-0.6,0.5c-0.3,0-0.5-0.1-0.4-0.5
			c0-0.6,0-1.3,0-1.9l0,0c0-0.6,0-1.3,0-1.9c0-0.1,0-0.2,0.1-0.3c0.1-0.1,0.2,0.1,0.3,0.1C58,18.7,58.2,19.2,58.1,19.8z"/>
		<path class="st5" d="M53,18.8c0,0.7,0,1.5,0,2.2C53.1,20.3,53.1,19.6,53,18.8z"/>
		<path class="st5" d="M23,15c-0.1-0.1-0.2,0.1-0.3,0.1c-0.8,0.7-1.6,1.3-2.4,1.9c-0.2,0.2-0.3,0.3-0.3,0.6c0,1.3,0,2.5,0,3.8
			c0,0.4,0,0.4,0.5,0.5c0.7,0,1.5,0,2.2,0c0.3,0,0.4-0.1,0.4-0.4c0-1,0-2,0-3.1l0,0c0-1,0-2,0-3.1C23.1,15.3,23.1,15.1,23,15z
			 M22.2,19L22.2,19c0,0.6,0,1.2,0,1.8c0,0.2-0.1,0.3-0.3,0.3c-1.2,0-1,0.2-1-0.9c0-0.6,0-1.3,0-1.9c0-0.3,0.1-0.5,0.3-0.6
			s0.4-0.3,0.6-0.5c0.1-0.1,0.2-0.1,0.3-0.1s0.1,0.2,0.1,0.2C22.2,17.8,22.2,18.4,22.2,19z"/>
	</g>
</g>
</svg>
