<?xml version="1.0" encoding="utf-8"?>
<!-- Generator: Adobe Illustrator 28.3.0, SVG Export Plug-In . SVG Version: 6.00 Build 0)  -->
<svg version="1.1" id="Layer_1" xmlns="http://www.w3.org/2000/svg" xmlns:xlink="http://www.w3.org/1999/xlink" x="0px" y="0px"
	 viewBox="0 0 105.5 48" style="enable-background:new 0 0 105.5 48;" xml:space="preserve">
<style type="text/css">
	.st0{display:none;}
	.st1{display:inline;fill-rule:evenodd;clip-rule:evenodd;fill:#FF9900;}
	.st2{display:inline;fill-rule:evenodd;clip-rule:evenodd;}
	.st3{display:inline;fill:#0693CE;}
	.st4{fill:#66BB46;}
	.st5{fill:#627568;}
</style>
<g class="st0">
	<path class="st1" d="M70.1,37.8C62.9,42.5,52.5,45,43.5,45c-12.6,0-23.9-4.1-32.4-11c-0.7-0.5-0.1-1.3,0.7-0.9
		c9.2,4.8,20.7,7.6,32.4,7.6c8,0,16.7-1.5,24.8-4.5C70.2,35.9,71.2,37,70.1,37.8z"/>
	<path class="st1" d="M73,34.8c-0.9-1-6.1-0.5-8.4-0.2c-0.7,0.1-0.8-0.5-0.2-0.9c4.1-2.6,10.8-1.8,11.6-1c0.8,0.9-0.2,6.8-4.1,9.7
		c-0.6,0.4-1.2,0.2-0.9-0.4C72,40.1,74,35.8,73,34.8z"/>
	<path class="st2" d="M64.8,15.6v-2.5c0-0.4,0.3-0.6,0.7-0.6h12.6c0.4,0,0.7,0.3,0.7,0.6v2.1c0,0.4-0.3,0.8-0.9,1.6l-6.5,8.3
		c2.4-0.1,5,0.3,7.2,1.4c0.5,0.2,0.6,0.6,0.7,1V30c0,0.4-0.5,0.8-0.9,0.6c-3.9-1.8-9-2-13.3,0c-0.4,0.2-0.9-0.2-0.9-0.6v-2.5
		c0-0.4,0-1.1,0.5-1.7l7.5-9.6h-6.6C65.1,16.2,64.8,16,64.8,15.6z"/>
	<path class="st2" d="M19,31.1h-3.8c-0.4,0-0.7-0.3-0.7-0.6V13.2c0-0.3,0.3-0.6,0.7-0.6h3.6c0.4,0,0.7,0.3,0.7,0.6v2.3h0.1
		c0.9-2.2,2.7-3.2,5-3.2c2.4,0,3.9,1,5,3.2c0.9-2.2,3-3.2,5.3-3.2c1.6,0,3.4,0.6,4.4,1.9c1.2,1.5,1,3.6,1,5.5v11
		c0,0.3-0.3,0.6-0.7,0.6h-3.8c-0.4,0-0.7-0.3-0.7-0.6v-9.2c0-0.7,0.1-2.6-0.1-3.3c-0.3-1.2-1.1-1.5-2.2-1.5c-0.9,0-1.9,0.5-2.3,1.4
		s-0.4,2.3-0.4,3.3v9.2c0,0.3-0.3,0.6-0.7,0.6h-4c-0.4,0-0.7-0.3-0.7-0.6v-9.2c0-1.9,0.4-4.8-2.4-4.8c-2.7,0-2.6,2.8-2.6,4.8v9.2
		C19.7,30.8,19.4,31.1,19,31.1z"/>
	<path class="st2" d="M89.6,12.2c5.7,0,8.7,4.3,8.7,9.8c0,5.3-3.4,9.5-8.7,9.5c-5.6,0-8.6-4.3-8.6-9.7S84.1,12.2,89.6,12.2z
		 M89.7,15.7c-2.8,0-3,3.4-3,5.5s0,6.7,3,6.7s3.1-3.7,3.1-5.9c0-1.5-0.1-3.2-0.6-4.6C91.7,16.2,90.9,15.7,89.7,15.7z"/>
	<path class="st2" d="M105.7,31.1h-3.8c-0.4,0-0.7-0.3-0.7-0.6V13.1c0-0.3,0.3-0.6,0.7-0.6h3.5c0.3,0,0.6,0.2,0.7,0.5v2.7h0.1
		c1.1-2.4,2.6-3.5,5.2-3.5c1.7,0,3.4,0.5,4.5,2c1,1.4,1,3.7,1,5.4v10.9c0,0.3-0.4,0.5-0.7,0.5h-3.8c-0.3,0-0.6-0.3-0.7-0.5v-9.4
		c0-1.9,0.2-4.7-2.4-4.7c-0.9,0-1.8,0.6-2.2,1.4c-0.5,1.1-0.6,2.1-0.6,3.3v9.4C106.5,30.8,106.2,31.1,105.7,31.1z"/>
	<path class="st2" d="M54.8,22.8c0,1.3,0,2.4-0.7,3.6c-0.6,1-1.6,1.5-2.6,1.5c-1.5,0-2.3-1-2.3-2.5c0-2.9,2.9-3.4,5.7-3.4v0.8H54.8z
		 M58.7,31.1c-0.3,0.2-0.6,0.2-0.9,0.1c-1.3-0.9-1.5-1.4-2.2-2.3c-2.1,1.9-3.6,2.5-6.3,2.5c-3.2,0-5.7-1.8-5.7-5.3
		c0-2.8,1.7-4.6,4.1-5.5c2.1-0.8,5-1,7.2-1.2V19c0-0.8,0.1-1.8-0.5-2.5c-0.5-0.6-1.4-0.9-2.1-0.9c-1.5,0-2.8,0.7-3.1,2
		c-0.1,0.3-0.3,0.6-0.7,0.6l-3.7-0.4c-0.3-0.1-0.7-0.3-0.6-0.7c0.8-4,4.9-5.2,8.6-5.2c1.9,0,4.3,0.4,5.8,1.7
		c1.9,1.5,1.7,3.6,1.7,5.8v5.3c0,1.6,0.7,2.3,1.4,3.1c0.2,0.3,0.3,0.7,0,0.9C60.8,29.4,59.4,30.5,58.7,31.1L58.7,31.1z"/>
	<path class="st2" d="M4.7,22.8c0,1.3,0,2.4-0.7,3.6c-0.7,1-1.6,1.6-2.7,1.6C-0.2,28-1,27-1,25.5c0-2.9,2.9-3.4,5.7-3.4V22.8z
		 M8.5,31.1c-0.3,0.2-0.6,0.2-0.9,0.1c-1.3-0.9-1.5-1.4-2.2-2.3c-2.1,1.9-3.6,2.5-6.3,2.5c-3.2,0-5.7-1.8-5.7-5.3
		c0-2.8,1.7-4.6,4.1-5.5c2.1-0.8,5-1,7.2-1.2V19c0-0.8,0.1-1.8-0.5-2.5c-0.5-0.6-1.4-0.9-2.1-0.9c-1.5,0-2.8,0.7-3.1,2
		c-0.1,0.3-0.3,0.6-0.7,0.6l-3.7-0.4c-0.3-0.1-0.7-0.3-0.6-0.7c0.9-4,4.9-5.2,8.6-5.2c1.9,0,4.3,0.4,5.8,1.7
		c1.9,1.5,1.7,3.6,1.7,5.8v5.3c0,1.6,0.7,2.3,1.4,3.1c0.2,0.3,0.3,0.7,0,0.9C10.7,29.4,9.3,30.5,8.5,31.1L8.5,31.1z"/>
</g>
<g class="st0">
	<path class="st3" d="M22.5,29.7c-0.1-0.1-0.2,0-0.3,0.1c-0.1,0.1-0.2,0.2-0.3,0.4c-1.3,1.5-2.5,3-3.8,4.5c-0.2,0.2-0.4,0.4-0.6,0.7
		c-0.1,0.1-0.2,0.2-0.4,0.1c-1.1-0.8-2.2-1.5-3.7-1.6c0.2-0.2,0.3-0.3,0.4-0.4c1.4-1.2,2.6-2.7,3.9-4c1.9-2,2.6-4.3,2.4-7
		c-0.1-1.6-0.6-3.2-0.5-4.8c0-0.5-0.3-0.3-0.5-0.1c-0.5,0.4-1,0.3-1.5,0c-0.3-0.2-0.7-0.2-1-0.1c-1.2,0.5-2.4,1.1-3.6,1.8
		c-0.1,0.1-0.3,0.2-0.3,0.3c-0.5,0.9-1,1.8-1.5,2.6c-0.2,0.3,0,0.4,0.2,0.4c0.5,0,0.8-0.2,1.1-0.5c0.7-0.8,1.4-1.6,1.9-2.5
		c0.1-0.1,0.2-0.3,0.4-0.3c0.2,0.1,0.1,0.3,0.1,0.4c-0.1,1.2-0.2,2.3-0.6,3.4c-0.6,1.5-1.3,2.9-2.2,4.2C13,26.6,14,26,14.7,25
		c1.1-1.7,2.2-3.5,2.3-5.6c0-0.2,0.1-0.3,0.3-0.4c0.2,0,0.2,0.2,0.2,0.3c0,1.1,0.4,2.1,0.5,3.2c0.1,1.9,0.3,3.8-0.7,5.6
		c-0.8,1.4-1.7,2.7-2.7,3.9c-0.7,0.9-1.6,1.6-2.8,1.8C10.4,34.1,9.2,35,8.2,36c0.3,0.1,0.4-0.1,0.6-0.1c2-0.8,4.1-1.1,6,0.4
		c0.3,0.2,0.6,0.4,0.8,0.6c0.5,0.5,0.8,0.3,1.2-0.1c1.4-1.6,2.8-3.2,4.2-4.9c0.5-0.7,1-1.4,1.5-2.1C22.6,30,22.7,29.8,22.5,29.7z"/>
	<path class="st3" d="M58,19.8c-0.3-1.1-0.2-1.9,0.6-2.7c0.4-0.4,0.8-0.9,1.4-1.2c0.1,0.5,0,1,0.2,1.6c1.1-0.8,2.5-1.2,2.2-3v-0.1
		c0-0.3-0.1-0.4-0.4-0.3c-0.8,0.3-1.5,0.7-2.2,1.2c-0.9,0.6-1.6,1.4-2.3,2.3c-0.1-0.1-0.1-0.2-0.1-0.3c-0.3-0.8-0.3-0.9-1.1-0.4
		c-1,0.6-2.1,1.2-3.1,1.8c-0.8,0.5-1,0.8-0.8,1.5c0.6,2.1,1.5,4.1,2.6,6c0.3,0.5,0.7,0.5,1.1,0.1c0.4-0.4,0.4-0.9,0.3-1.4
		C56.1,24,56,23.1,56.1,22c0.3,0.4,0.4,0.7,0.4,1c0.4,1.9,1,3.7,1.6,5.5c0.5,1.7,0.9,3.3,0.9,5.1c0,1.1,0,2.2,0,3.3
		c0.4-0.8,0.6-1.6,0.7-2.4c0.5-2.8,0.8-5.6,0-8.4C59.1,23.9,58.6,21.9,58,19.8z M55.3,21.9c-0.4-0.9-0.7-1.9-0.9-2.8
		c-0.1-0.4,0.1-0.6,0.5-0.7s0.5,0.1,0.6,0.4C55.8,19.9,56.1,20.9,55.3,21.9z"/>
	<path class="st3" d="M65.5,24.1c0-3.1,0-6.1,0-9.2c0-2.8,0-5.5,0-8.3c0-0.2,0.1-0.5-0.1-0.5C65,6,64.6,6,64.2,6.1
		c-0.2,0.1-0.1,0.4-0.1,0.7c0,11.4,0,22.8,0,34.2c0,0.2,0,0.5,0,0.7c0,0.1,0,0.3,0.1,0.3c0.4,0,0.8,0.1,1.2,0
		c0.3-0.1,0.1-0.4,0.1-0.6C65.5,35.6,65.5,29.8,65.5,24.1z"/>
	<path class="st3" d="M32.3,17.3c-0.8,0.1-1.5,0.1-2.2-0.3c-0.1,0-0.2,0-0.2-0.1c-0.3,0-0.5,0.2-0.7,0.4c-0.7,0.6-1.4,1.2-2.1,1.7
		c-0.4,0.3-0.7,0.6-0.9,1.1c-0.3,0.8-0.6,1.6-0.7,2.4c-0.1,1.2,0.4,2,1.4,2.6c0.5,0.3,1.1,0.2,1.6,0.1c0.9-0.1,1.7,0.2,2.4,0.8
		c0.5,0.4,0.9,0.9,1.3,1.3c0.1,0.1,0.3,0.4,0.5,0.2c0.2-0.1,0.1-0.3,0-0.5c-0.1-0.3-0.1-0.6,0-0.8c0.2-0.5,0.1-0.9-0.1-1.4
		c-0.4-1-0.6-1.9-0.7-3c-0.1-1.4,0.2-2.6,0.9-3.8C33,17.3,32.9,17.2,32.3,17.3z M30.7,22.8c-0.6-0.3-1.3-0.3-2-0.3
		c-0.9,0.1-1.1-0.2-1-1.1c0.1-1,0.6-1.7,1.6-2c0.8-0.2,1.4,0.1,1.4,1C30.7,21.2,30.7,21.9,30.7,22.8z"/>
	<path class="st3" d="M3.3,26c0.1-0.2,0-0.4-0.1-0.5c-0.5-0.8-0.8-1.7-1-2.6c-0.3-1.7-0.4-3.4,0.3-5c0.1-0.2,0.3-0.3,0.1-0.5
		c-0.1-0.2-0.4,0-0.5,0c-0.6,0.2-1.2,0.3-1.8,0c-0.6-0.4-1-0.2-1.4,0.2c-0.6,0.7-1.3,1.3-2.1,1.9c-0.4,0.3-0.6,0.7-0.7,1.1
		c-0.2,1-0.3,2-0.4,2.7c0,1.5,0.9,2.3,2.1,2.1c1.5-0.3,2.9-0.1,4.2,1c0.4,0.4,0.8,0.9,1.1,1.3c0.1,0.1,0.2,0.3,0.4,0.2
		c0.2-0.1,0.1-0.3,0-0.4C3.3,27,3.1,26.6,3.3,26z M-1.3,23.1c-0.5,0-0.7-0.2-0.8-0.7c-0.2-0.9,0.3-2,1.1-2.4c0.5-0.2,1,0,1.4,0.1
		s0.2,0.5,0.3,0.8c0.2,0.8,0.3,1.7,0.5,2.6C0.3,23.1-0.5,23.1-1.3,23.1z"/>
	<path class="st3" d="M75,18.3c1.3,0,2.5,0,3.7,0c-0.9-0.4-0.9-0.4-0.9-1.5c0-0.8,0-1.7,0-2.5c0-0.4,0.1-0.5,0.5-0.5
		c0.5,0,1,0,1.5,0c0.4,0,0.5,0.1,0.5,0.5c0,0.8,0,1.6,0,2.4c0,1.1,0,1.1-1,1.6c1.3,0,2.5,0,3.8,0C82,17.8,82,17.8,82,16.7
		c0-2.1,0-4.1,0-6.2c0-0.7-0.2-1.6,1.2-1.6c-0.7-0.3-3.5-0.3-3.8,0c0.9,0.3,0.9,0.3,0.9,1.3c0,0.3,0,0.7,0,1c0,0.6,0.3,1.4-0.1,1.8
		c-0.4,0.4-1.2,0.1-1.9,0.1c-0.4,0-0.5-0.1-0.4-0.5c0-0.7,0-1.4,0-2.1c0-1.2,0-1.2,1.1-1.7c-1.4-0.1-2.5-0.1-3.7,0
		c0.9,0.4,0.9,0.4,0.9,1.5c0,2.1,0,4.1,0,6.2C76,17.7,76,17.7,75,18.3z"/>
	<path class="st3" d="M4.9,17.7c-0.7,0.2-1,0.6-1,1.3c-0.1,2.6,0.1,5.2,0.4,7.8c0.3,2.7,0.6,5.4,0.1,8.1c-0.1,0.6-0.3,1.2-0.4,1.8
		c0.3-0.1,0.3-0.3,0.4-0.5c1.8-3.3,2.3-6.9,2.2-10.6c-0.1-2.8-0.7-5.6,0.1-8.5C6,17.4,5.4,17.6,4.9,17.7z"/>
	<path class="st3" d="M96.8,38.2c-0.4-0.8-0.8-1.5-1.2-2.3c-0.2-0.4-0.2-0.5,0.2-0.7c0.9-0.5,1.3-1.7,1-2.9c-0.3-1.1-0.9-1.7-2-1.8
		c-1.4-0.1-2.7,0-4.1-0.1c-0.1,0-0.2,0-0.2,0.3c0.5,0,0.9,0.2,0.9,0.8c0,2.5,0,5,0,7.5c0,0.4-0.2,0.7-0.6,0.7c-0.1,0-0.3,0-0.3,0.2
		c1.2,0,2.3,0,3.5,0c-0.9-0.4-0.9-0.5-0.9-1.5c0-0.7,0-1.5,0-2.2c0-0.2-0.1-0.4,0.2-0.5c0.3-0.1,0.4,0.2,0.5,0.4
		c0.6,1.2,1.2,2.4,1.8,3.6c0.1,0.2,0.2,0.4,0.5,0.4c0.6,0,1.3,0,1.9,0c0-0.1,0.1-0.1,0.1-0.2C97.3,39.4,97.1,38.7,96.8,38.2z
		 M95.1,33.8c-0.2,0.9-0.8,1.4-1.7,1.3c-0.3,0-0.3-0.2-0.3-0.4c0-0.6,0-1.1,0-1.7c0-0.5,0-1.1,0-1.6c0-0.4,0.1-0.4,0.5-0.5
		c0.9,0,1.4,0.3,1.6,1.2C95.2,32.6,95.2,33.2,95.1,33.8z"/>
	<path class="st3" d="M86.3,26.9c0.2-1.4-0.2-2-1.8-2.9c0.1-0.1,0.1-0.1,0.2-0.1c1.1-0.6,1.5-1.4,1.2-2.6c-0.3-1.1-1-1.7-2.2-1.7
		c-0.7,0-1.4,0-2.2,0c-0.6,0-1.1,0-1.7,0c0,0.1,0,0.1,0,0.2c0.9,0.4,0.9,0.4,0.9,1.4c0,2.2,0,4.3,0,6.5c0,0.7-0.1,1.2-0.9,1.3
		c0,0,0,0.1,0,0.2c1.5,0,3,0.1,4.5-0.1C85.4,28.8,86.1,27.9,86.3,26.9z M82.4,21.9c0-0.5,0-1,0-1.5c0-0.3,0.1-0.4,0.4-0.4
		c0.1,0,0.3,0,0.4,0.1c0.7,0.2,1.1,1.1,0.9,2.2c-0.1,0.8-0.6,1.4-1.4,1.4c-0.3,0-0.4,0-0.4-0.3C82.4,23,82.4,22.5,82.4,21.9z
		 M83.8,28.3c-0.3,0.3-0.6,0.4-1,0.3c-0.4-0.2-0.4-0.6-0.4-1s0-0.9,0-1.3c0-0.5,0-1.1,0-1.6c0-0.2,0-0.4,0.3-0.3
		c0.4,0,0.8,0.1,1.1,0.4C84.7,25.5,84.7,27.5,83.8,28.3z"/>
	<path class="st3" d="M38.4,31.9L38.4,31.9c-0.6,0.3-1,0.1-1.3-0.5C37,31.3,37,31.1,37,31c-0.2-0.7-0.2-1.5-0.2-2.2
		c0-0.3,0-0.6-0.1-1c-1.1-2.5-1.4-5.2-1.1-7.9c0.1-1.1,0.3-2.1,0.6-3.2c-0.8,0.3-1.4,0.5-2.1,0.7c-0.4,0.1-0.5,0.3-0.5,0.7
		c-0.6,3.6-0.4,7.1,1.1,10.5c0.5,1.2,1.2,2.4,2.2,3.3c0.7,0.6,1.2,0.6,1.8,0.1C38.5,31.9,38.5,31.9,38.4,31.9L38.4,31.9z"/>
	<path class="st3" d="M84.9,9.8c0,2.5,0,5,0,7.4c0,0.4-0.2,0.7-0.7,0.8c-0.1,0-0.3,0-0.3,0.2l0.1,0.1c1.9,0,3.7,0,5.6,0
		c0.1,0,0.3,0,0.3-0.2c0.1-0.9,0.2-1.8,0.3-2.8h-0.1c-0.1,0.3-0.2,0.6-0.3,0.8c-0.5,1.2-1.3,1.7-2.5,1.6c-0.4,0-0.7-0.2-0.7-0.7
		c0-1,0-2,0-3c0-0.3,0.2-0.4,0.4-0.3c0.5,0.1,0.7,0.6,0.8,1c0.2,0.4,0.1,0.8,0.3,1.2c0-1.8,0-3.4,0-5c-0.2,0.4-0.3,0.9-0.4,1.3
		c-0.1,0.4-0.3,0.7-0.8,0.8c-0.3,0.1-0.4,0-0.4-0.3c0-1.1,0-2.1,0-3.2c0-0.1,0-0.3,0.2-0.3c1.1-0.3,2.2,0.2,2.6,1.4
		c0.1,0.3,0,0.6,0.4,0.9c0-0.9,0-1.6,0-2.4c0-0.4-0.1-0.5-0.5-0.5c-1.3,0-2.6,0-4,0c-0.4,0-0.9,0-1.3,0c0,0.1-0.1,0.2-0.1,0.2
		C84.4,9,84.9,9.2,84.9,9.8z"/>
	<path class="st3" d="M73.1,37.7c-0.5,1.2-1.3,1.7-2.5,1.6c-0.4,0-0.7-0.2-0.7-0.6c0-1,0-2,0-3.1c0-0.3,0.2-0.4,0.4-0.3
		c0.5,0.1,0.7,0.6,0.8,1c0.2,0.4,0.1,0.8,0.3,1.2c0.1-0.8,0.1-4.5-0.1-5c-0.1,0.5-0.2,0.9-0.3,1.3c-0.1,0.4-0.3,0.8-0.8,0.9
		c-0.3,0.1-0.5,0.1-0.5-0.3c0-1,0-2.1,0-3.1c0-0.2,0-0.3,0.2-0.4c1.1-0.3,2.2,0.3,2.6,1.4c0.1,0.3,0.1,0.5,0.2,0.8
		c0.1,0,0.1,0,0.2,0c0-0.8,0-1.6,0-2.4c0-0.4-0.2-0.4-0.5-0.4c-1.7,0-3.3,0-5,0c-0.1,0-0.3-0.1-0.3,0.2c0.5,0.1,1,0.2,1,0.9
		c0,2.5,0,5,0,7.4c0,0.4-0.2,0.7-0.7,0.8c-0.1,0-0.3,0-0.3,0.2l0.1,0.1c1.9,0,3.7,0,5.6,0c0.2,0,0.3,0,0.3-0.2
		c0.1-0.9,0.2-1.8,0.3-2.8c-0.1,0-0.1,0-0.2,0C73.3,37.2,73.2,37.5,73.1,37.7z"/>
	<path class="st3" d="M81.9,39.5c-0.2-0.2-0.4-0.5-0.5-0.7c-0.7-1.4-1.4-2.8-2-4.1c-0.1-0.2-0.1-0.4,0-0.6c0.6-0.9,1.1-1.8,1.7-2.7
		c0.2-0.3,0.4-0.5,0.7-0.6c0.1,0,0.3,0,0.2-0.2c0-0.1-0.2-0.1-0.3-0.1c-0.6,0-1.3,0-1.9,0c-0.1,0-0.3,0-0.3,0.1s0.1,0.1,0.2,0.2
		c0.6,0.2,0.6,0.6,0.4,1c-0.3,0.7-0.7,1.4-1.2,2.2c-0.4-0.9-0.8-1.7-1.2-2.5c-0.2-0.4-0.1-0.6,0.4-0.7c0.1,0,0.3,0,0.2-0.2
		c0-0.1-0.2-0.1-0.3-0.1c-1,0-1.9,0-2.9,0c-0.1,0-0.2,0-0.2,0.1s0.1,0.2,0.2,0.2c0.3,0.1,0.5,0.4,0.6,0.7c0.5,1,0.9,2,1.5,3
		c0.6,0.9,0.6,1.7-0.1,2.5c-0.7,0.9-1,2.2-2.2,2.8c-0.1,0.1-0.1,0.2,0,0.2c0.8,0,1.6,0,2.5,0c-0.1-0.3-0.3-0.3-0.4-0.3
		c-0.4-0.2-0.6-0.5-0.4-0.9c0.4-0.9,0.9-1.7,1.5-2.6c0.4,0.8,0.7,1.5,1.1,2.2c0.4,0.9,0.4,0.9-0.3,1.5c0.1,0.2,0.3,0.1,0.5,0.1
		c0.8,0,1.5,0,2.3,0c0.2,0,0.4,0.1,0.5-0.1C82.4,39.6,82.1,39.6,81.9,39.5z"/>
	<path class="st3" d="M47,18.4c-0.6-1-1.1-2-0.8-3.2c-0.7,0.1-1.2,0.5-1.7,0.7c-0.3,0.1-0.4,0.3-0.4,0.6c0,1,0.1,1.9,0.6,2.7
		c0.1,0.2,0.3,0.4,0.3,0.7c-0.8-0.2-1.4,0.1-1.9,0.6c-0.7,0.6-1.4,1.3-2.2,1.9c-0.3,0.2-0.4,0.5-0.3,0.9c0.1,1,1,1.6,1.9,1.4
		c0.6-0.1,1.1-0.3,1.6-0.7c1.3-0.8,2.2-2,2.8-3.3C47.2,20,47.5,19.2,47,18.4z M44.1,22.9c-0.6,0.5-1.5,0.3-1.7-0.5
		c-0.1-0.4,0.1-0.7,0.5-0.9c0.3-0.1,0.6-0.2,0.9-0.1c0.4,0.2,0.7,0.1,1.1-0.3C44.8,21.9,44.6,22.5,44.1,22.9z"/>
	<path class="st3" d="M104.7,37.8c-0.4,1.1-1.1,1.6-2.4,1.6c-0.5,0-0.8-0.2-0.8-0.8c0-1,0-2,0-3c0-0.3,0.2-0.4,0.4-0.3
		c0.6,0.1,0.7,0.7,0.9,1.1c0.1,0.3,0,0.7,0.3,1.1c0-1.7,0-3.4,0-5c-0.2,0.4-0.3,0.9-0.4,1.3c-0.1,0.4-0.3,0.7-0.7,0.8
		c-0.3,0.1-0.5,0.1-0.5-0.3c0-1,0-2.1,0-3.1c0-0.1,0-0.3,0.2-0.4c0.8-0.4,2.2,0.2,2.5,1c0.1,0.4,0.2,0.8,0.3,1.2c0.1,0,0.1,0,0.2,0
		c0-0.8,0-1.5,0-2.3c0-0.4-0.1-0.5-0.5-0.5c-1.6,0-3.3,0-4.9,0c-0.1,0-0.3-0.1-0.4,0.1c1,0.6,1,0.6,1,1.9c0,1.1,0,2.3,0,3.4
		c0,0.9,0,1.9,0,2.8c0,0.6-0.1,1.1-0.9,1.1c0,0,0,0.1-0.1,0.1l0.1,0.1c1.9,0,3.7,0,5.6,0c0.1,0,0.3,0,0.3-0.2
		c0.1-0.9,0.2-1.9,0.3-2.8c-0.1,0-0.1,0-0.2,0C104.9,37.2,104.8,37.5,104.7,37.8z"/>
	<path class="st3" d="M87.5,30.5c-1.3-0.3-2.6-0.1-3.9-0.1c-0.1,0-0.2,0-0.2,0.2c0,0.1,0.1,0.1,0.2,0.1c0.7,0,0.7,0.5,0.7,1
		c0,0.9,0,1.9,0,2.8c0,1.4,0,2.7,0,4.1c0,0.6-0.1,1.1-0.9,1.1c0,0-0.1,0.1-0.1,0.2c1.2,0,2.3,0,3.5,0c0-0.1,0-0.1,0.1-0.2
		c-0.9-0.1-1-0.6-1-1.3c0-0.6,0-1.1,0-1.7c0-1,0-1,1-1.1c0.1,0,0.3,0,0.4-0.1c1.1-0.2,1.8-1.1,1.9-2.4
		C89.3,31.7,88.6,30.7,87.5,30.5z M87.3,34.2c-0.1,0.2-0.2,0.4-0.4,0.6c-0.2,0.2-0.5,0.3-0.8,0.2S86,34.6,86,34.4c0-0.5,0-0.9,0-1.4
		c0-0.6,0-1.1,0-1.7c0-0.4,0.2-0.5,0.5-0.4c0.4,0.1,0.7,0.4,0.9,0.8C87.6,32.5,87.6,33.4,87.3,34.2z"/>
	<path class="st3" d="M93.7,27.9c0.1-0.6,0.1-1.2,0.2-1.8c-0.2,0.3-0.3,0.6-0.5,0.9c-0.5,1.1-1.1,1.6-2.3,1.6
		c-0.7,0-0.9-0.2-0.9-0.9c0-0.9,0-1.7,0-2.6c0-0.2-0.1-0.5,0.1-0.5c0.2-0.1,0.5,0,0.7,0.2c0.3,0.3,0.4,0.6,0.5,1
		c0.1,0.3,0.1,0.6,0.2,0.9h0.1c0-1.6,0-3.2,0-4.9c-0.2,0.4-0.3,0.9-0.4,1.3s-0.4,0.7-0.8,0.8c-0.3,0.1-0.4,0-0.4-0.3
		c0-1.1,0-2.1,0-3.2c0-0.2,0-0.3,0.3-0.3c1.3-0.3,2.2,0.3,2.6,1.6c0.1,0.2,0,0.5,0.3,0.8c0-0.9,0-1.6,0-2.4c0-0.5-0.2-0.5-0.6-0.5
		c-1.6,0-3.2,0-4.8,0c-0.2,0-0.4-0.1-0.5,0.2c1.1,0,1,0.8,1,1.5c0,2,0,4,0,6c0,0.7,0.2,1.5-1.1,1.6c0.3,0.3,0.5,0.2,0.7,0.2
		c1.4,0,2.8,0,4.1,0C93.6,29.1,93.6,29.1,93.7,27.9z"/>
	<path class="st3" d="M0.9,15.9C1,15.5,1,15.2,1.2,14.8c0.5-1.5,1.2-1.9,2.8-1.7c0.2,0,0.4,0.1,0.7,0.1c1.8,0.3,3.3,1.1,5,1.8
		l0.1-0.1c-1.1-0.6-2-1.3-2.3-2.7c0-0.2-0.2-0.5-0.5-0.6c-1.6-0.9-3.6-0.5-4.9,0.9C1.4,13.2,1,14,0.8,14.9c-0.1,0.4-0.2,0.8-0.3,1.3
		c-0.4-0.5-0.7-0.9-1.1-1.3c-0.2-0.2-0.2-0.4-0.2-0.6c-0.1-1.7-1.6-3.1-3.3-3.1c-0.1,0-0.2,0-0.2,0.1c-0.7,0.5-1.4,1-2.2,1.6
		c3.2,0.3,5.3,2.2,7.5,4.3C0.8,16.7,0.8,16.3,0.9,15.9z"/>
	<path class="st3" d="M11.3,15.3c1.1,0.4,2.3,0.4,3.4,0.1c0.2-0.1,0.4-0.2,0.5-0.4c0.2-0.2,0.4-0.5,0.3-0.9
		c-0.1-0.3-0.5-0.3-0.8-0.3c-0.6,0-1.1-0.1-1.7-0.1c-0.3,0-0.5-0.2-0.2-0.5c0.6-0.5,1.3-0.9,2.1-0.6c0.6,0.2,1.2,0.5,1.7,0.9
		c1.4,1.2,2.5,2.7,3.8,3.9c-0.4-0.6-0.8-1.2-1.2-1.8c-0.3-0.4-0.4-0.8-0.3-1.3c0.1-0.8,0.2-1.6-0.5-2.2c-0.7-0.7-1.5-1.2-2.5-1.4
		c-0.7-0.2-1.4-0.1-2,0.4c-1,0.8-2,1.8-2.9,2.8C10.7,14.2,10.7,15.1,11.3,15.3z"/>
	<path class="st3" d="M109,33.4c-0.4-0.3-0.7-0.6-0.9-1.1c-0.2-0.6,0-1.3,0.5-1.5c0.5-0.3,1-0.2,1.5,0.2c0.6,0.5,0.9,1.1,1,1.9
		c0,0.1,0,0.3,0.2,0.4c0-1,0-2,0-3.1c-0.3,0.8-0.7,0.5-1.1,0.2c-1.1-0.6-2.1-0.4-2.8,0.7c-0.8,1.2-0.6,2.9,0.5,4
		c0.5,0.5,1.1,0.9,1.7,1.3c0.4,0.3,0.8,0.6,1,1.1c0.2,0.7,0,1.5-0.5,1.8s-1.2,0.2-1.7-0.3c-0.6-0.5-0.8-1.2-1-1.9
		c-0.1-0.2,0-0.5-0.3-0.7c0,1.2,0,2.4,0,3.5c0.4-0.7,0.8-0.5,1.4-0.2c1.1,0.6,2.2,0.3,2.9-0.8c0.9-1.3,0.7-3.1-0.4-4.2
		C110.3,34.3,109.6,33.9,109,33.4z"/>
	<path class="st3" d="M117.4,34.8c-0.5-0.5-1.1-0.9-1.7-1.3c-0.4-0.3-0.7-0.5-0.9-0.9c-0.3-0.6-0.1-1.4,0.4-1.7
		c0.4-0.3,1.1-0.2,1.6,0.2c0.4,0.4,0.7,0.9,0.9,1.5c0.1,0.2,0,0.5,0.3,0.8c0-1.1,0-2.1,0-3.1c-0.2,0.7-0.6,0.6-1.1,0.3
		c-1.2-0.7-2.4-0.4-3,0.9c-0.6,1.2-0.4,2.8,0.6,3.8c0.5,0.5,1.1,0.9,1.7,1.3c0.4,0.3,0.7,0.6,0.9,1.1c0.3,0.7,0.1,1.5-0.5,1.9
		c-0.5,0.3-1.2,0.2-1.8-0.3c-0.5-0.5-0.8-1.1-1-1.8c-0.1-0.2-0.1-0.5-0.3-0.8c0,1.3,0,2.4,0,3.6c0.4-0.6,0.8-0.5,1.3-0.3
		c1.2,0.7,2.4,0.3,3.1-0.9C118.7,37.5,118.5,35.9,117.4,34.8z"/>
	<path class="st3" d="M24.3,17.2c-0.6,0.2-1.3,0.4-1.9,0.6c-0.4,0.1-0.5,0.3-0.6,0.7c-0.3,0.8-0.4,1.6-0.4,2.5
		c0,0.4,0.1,0.8,0.1,1.2c0.2,1.9,0.9,3.7,1.7,5.4c0.1,0.2,0.1,0.5,0.4,0.4c0.4-0.1,0.3-0.4,0.2-0.7c-0.3-0.8-0.2-1.6,0.4-2.3
		c0.2-0.3,0.4-0.6,0.3-1c-0.5-2-0.6-4.1,0-6.1c0-0.2,0.1-0.3,0.1-0.5C24.7,17.2,24.5,17.1,24.3,17.2z"/>
	<path class="st3" d="M40.2,16.8c-0.8,0.2-1.5,0.5-2.2,0.7c-0.3,0.1-0.5,0.3-0.6,0.7c-1,3.4,0.2,6.4,1.5,9.4
		c0.1,0.1,0.1,0.2,0.3,0.2c0.1,0,0.2-0.1,0.2-0.2c0-0.2,0-0.3,0-0.5c-0.3-0.8-0.1-1.6,0.4-2.3c0.3-0.4,0.3-0.9,0.2-1.4
		c-0.4-1.5-0.5-3.1-0.2-4.6C39.9,18.1,40.2,17.5,40.2,16.8z"/>
	<path class="st3" d="M9.7,28.1c0.4-0.1,0.3-0.4,0.2-0.7c-0.3-0.9-0.1-1.6,0.4-2.4c0.3-0.4,0.3-0.8,0.2-1.3c-0.4-1.5-0.5-3-0.2-4.6
		c0.1-0.7,0.4-1.3,0.4-2.1c-0.8,0.3-1.6,0.5-2.4,0.8C8.1,17.9,8,18,7.9,18.2c-0.2,0.7-0.4,1.4-0.4,2.2c-0.1,2.6,0.9,4.9,1.8,7.2
		C9.4,27.8,9.4,28.1,9.7,28.1z"/>
	<path class="st3" d="M49,20.5c-0.8,0-2.3,1-2.5,1.7c-0.1,0.2,0,0.3,0.2,0.3c0.2,0.1,0.4,0,0.5-0.1c1.2-0.3,2.8,0.8,3,2
		c0.1,0.6-0.1,0.8-0.7,0.7c-1.1-0.3-2.3-0.4-2.7-1.8c-0.1-0.3-0.5-0.5-0.9-0.4s-0.2,0.5-0.1,0.8c0.2,0.7,0.5,1.5,1,2.1
		c0.8,1.1,2,1.4,3,0.7c0.9-0.7,1.6-1.5,2.2-2.4c0.3-0.4,0.3-0.9,0.2-1.4C51.6,21.6,50.1,20.5,49,20.5z"/>
	<path class="st3" d="M68,10.1c0.2-0.5,0.6-0.7,1.2-0.7c0.4,0,0.6,0.1,0.6,0.5c0,2.2,0,4.4,0,6.6c0,0.7,0.2,1.6-0.9,1.8
		c1.2,0,2.4,0,3.7,0c-1.2-0.6-1.2-0.6-1.2-1.8c0-2.1,0-4.2,0-6.3c0-0.3-0.1-0.6,0.1-0.7c0.4-0.1,0.8-0.1,1.2,0.2
		c0.3,0.2,0.5,0.6,0.6,0.9c0.1,0.3,0.2,0.5,0.2,0.8c0.1,0,0.1,0,0.2,0c0-0.7,0-1.5,0-2.2c0-0.3-0.2-0.3-0.4-0.3c-1.8,0-3.7,0-5.5,0
		c-0.2,0-0.4,0-0.4,0.2c0,0.8,0,1.5,0,2.3C67.7,10.9,67.8,10.5,68,10.1z"/>
	<path class="st3" d="M95.5,22.1c0.1,0,0.1,0,0.2,0c0.1-0.4,0.2-0.8,0.3-1.2c0.3-0.6,0.7-0.8,1.3-0.8c0.3,0,0.4,0.1,0.4,0.4
		c0,2.5,0,5,0,7.6c0,0.5-0.2,0.8-0.7,0.8c-0.1,0-0.2,0-0.2,0.2c1.2,0,2.4,0,3.8,0c-1.1-0.5-1.1-0.5-1.1-1.6c0-2.2,0-4.3,0-6.5
		c0-0.3-0.2-0.7,0.1-0.8c0.4-0.1,0.8-0.1,1.2,0.2c0.4,0.3,0.5,0.7,0.6,1.1c0.1,0.2,0,0.5,0.3,0.8c0-0.9,0-1.6,0-2.4
		c0-0.2-0.2-0.2-0.3-0.2c-1.9,0-3.7,0-5.6,0c-0.2,0-0.3,0.1-0.3,0.3C95.5,20.6,95.5,21.3,95.5,22.1z"/>
	<path class="st3" d="M73.3,19.6c-1.9,0-3.7,0-5.6,0c-0.2,0-0.3,0-0.3,0.2c0,0.8,0,1.5,0,2.3c0.3-0.4,0.4-0.7,0.5-1.1
		c0.2-0.5,0.6-0.8,1.1-0.9s0.7,0,0.7,0.6c0,2.2,0,4.4,0,6.6c0,0.7,0.2,1.6-1,1.7c1.3,0.1,2.5,0.1,3.7,0c-0.5-0.1-1-0.3-1-0.9
		c0-2.5,0-5.1,0-7.6c0-0.3,0.1-0.3,0.4-0.4c0.7,0,1.2,0.2,1.4,0.9c0.1,0.3,0.2,0.7,0.3,1.1c0.1,0,0.1,0,0.2,0c0-0.7,0-1.4,0-2.1
		C73.7,19.7,73.6,19.6,73.3,19.6z"/>
	<path class="st3" d="M63.2,26.7c-0.4-0.6-0.9-1.2-0.5-1.9c0.5-0.8,0.3-1.4,0-2.1c-0.2-0.4-0.3-0.8-0.3-1.2c-0.3-1.5-0.4-3-0.1-4.8
		c0-0.2-0.2-0.3-0.5-0.1c-0.6,0.4-1.2,0.8-1.8,1.1c-0.3,0.2-0.3,0.4-0.3,0.6c0,1.3,0.1,2.7,0.4,4c0.5,1.8,1.2,3.4,2.7,4.6
		c0.2,0.1,0.4,0.4,0.6,0.2C63.7,27,63.4,26.9,63.2,26.7z"/>
	<path class="st3" d="M78.8,19.8c-0.1-0.1-0.1-0.1-0.2-0.2c-1.2,0-2.4,0-3.5,0C76,20,76,20,76,21.2c0,2.1,0,4.1,0,6.2
		c0,0.7,0.2,1.6-1,1.7c1.3,0.1,2.4,0.2,3.6,0c-0.9-0.4-0.9-0.4-0.9-1.4c0-2.1,0-4.2,0-6.3C77.7,20.6,77.5,19.8,78.8,19.8z"/>
	<path class="st3" d="M42.5,12.2c1.7,0.3,3.2,0.9,4.4,2.1c0.6,0.6,1.2,1.3,1.9,1.9c0.3,0.3,0.6,0.6,1.1,0.9c0-0.3-0.2-0.5-0.4-0.6
		c-0.7-0.8-1.4-1.7-2.1-2.5c-0.3-0.3-0.5-0.7-0.6-1.1c0-1.3-0.7-2.1-2-2.4c-0.1,0-0.2-0.1-0.4-0.1c-2.2-0.7-3-0.5-4.5,1.3
		c-0.1,0.3-0.5,0.7-0.7,1.3C40.3,12.3,41.4,12,42.5,12.2z"/>
	<path class="st3" d="M9.5,15c0.3,0.2,0.6,0.3,1,0.3c-0.3-0.2-0.6-0.3-0.9-0.5C9.7,15,9.7,15.1,9.5,15z"/>
	<path class="st3" d="M38.4,31.9c0.1-0.1,0.2,0,0.2,0.1c0.4-0.2,0.4-0.5,0.4-0.9C38.7,31.4,38.6,31.6,38.4,31.9z"/>
</g>
<g>
	<path class="st4" d="M27.3,15.7c-2.9,1-5.3,2.6-7.3,4.8c0.1,0.1,0.2,0.1,0.3,0.2c4.7,1.7,7.5,5.1,8.2,10c0.8,6-2.9,11.5-8.5,13.1
		c-7.5,2.1-14.3-2.6-15.4-9.6C3.9,29.9,5,26,7.3,22.4c2.9-4.3,7-6.8,12.1-7.6c2.6-0.4,5.1-0.1,7.6,0.6
		C27.1,15.6,27.2,15.7,27.3,15.7z"/>
	<g>
		<path class="st5" d="M99.9,41c0-8.6,0-17.1,0-25.7c0-0.2,0.1-0.5-0.3-0.5c-1.8,0-3.7,0-5.5,0c-0.3,0-0.3,0.1-0.3,0.3
			c0,0.8,0,1.5,0,2.3c-0.1,0-0.1,0-0.1,0c-0.1-0.1-0.2-0.1-0.3-0.2c-3.2-2.1-6.7-2.8-10.4-2.3c-3.9,0.6-7.1,2.5-9.5,5.6
			c-2.6,3.5-3.5,7.4-2.8,11.6c0.6,3.4,2.2,6.2,4.8,8.5c3.6,3.1,7.8,4.1,12.4,3.4c2-0.3,3.9-1.1,5.6-2.3c0.1-0.1,0.2-0.2,0.3-0.1
			c0.1,0.1,0,0.2,0.1,0.3c0,0.6,0,1.3,0,1.9c0,0.3,0.1,0.4,0.4,0.4c1.8,0,3.6,0,5.4,0c0.3,0,0.4-0.1,0.4-0.4
			C99.9,42.9,99.9,41.9,99.9,41z M85.2,38.2c-4.6,0-8.6-3.9-8.6-8.6c0-4.4,3.7-8.6,8.7-8.6c4.9,0,8.6,4.2,8.5,8.6
			C93.8,34.3,89.8,38.2,85.2,38.2z"/>
		<path class="st5" d="M70.4,15.2c0-0.3-0.1-0.4-0.4-0.4c-1.5,0-2.9,0-4.4,0c-0.3,0-0.4-0.1-0.4-0.4c0-0.9,0-1.8,0-2.7
			c0-1.7,1.2-3.1,2.8-3.4c0.6-0.1,1.3-0.1,2-0.1c0.3,0,0.4-0.1,0.4-0.4c0-1.5,0-2.9,0-4.4C70.4,3.1,70.3,3,70,3c-1.2,0-2.5,0-3.7,0
			c-2.1,0-3.9,0.9-5.3,2.4c-1.2,1.3-2,2.9-2,4.8c0,1.4,0,2.8,0,4.3c0,0.3-0.1,0.4-0.4,0.4c-0.8,0-1.7,0-2.5,0c-0.3,0-0.4,0-0.4,0.3
			c0,1.7,0,3.3,0,5c0,0.3,0.1,0.3,0.4,0.3c0.8,0,1.6,0,2.4,0c0.4,0,0.5,0.1,0.5,0.5c0,7.6,0,15.2,0,22.8c0,0.4,0.1,0.5,0.5,0.5
			c1.8,0,3.5,0,5.3,0c0.4,0,0.4-0.1,0.4-0.4c0-3.8,0-7.6,0-11.5c0-3.8,0-7.7,0-11.5c0-0.4,0.1-0.4,0.4-0.4c1.5,0,2.9,0,4.4,0
			c0.3,0,0.4-0.1,0.4-0.4C70.4,18.5,70.4,16.9,70.4,15.2z"/>
		<path class="st5" d="M52.7,15.1c0-0.3-0.1-0.3-0.3-0.3c-0.5,0-1,0-1.5,0.1c-2.6,0.4-4.9,1.4-6.9,3.3c0-1.1,0-2,0-3
			c0-0.3-0.1-0.4-0.4-0.4c-1.8,0-3.6,0-5.4,0c-0.3,0-0.4,0.1-0.4,0.4c0,9.6,0,19.1,0,28.7c0,0.3,0.1,0.4,0.4,0.4c1.8,0,3.5,0,5.3,0
			c0.4,0,0.5-0.1,0.5-0.5c0-4.7,0-9.3,0-14c0-0.7,0-1.3,0.2-2c0.8-4.1,4.1-7,8.2-7.3c0.2,0,0.4,0,0.4-0.3
			C52.6,18.5,52.7,16.8,52.7,15.1z"/>
	</g>
</g>
</svg>
