<?xml version="1.0" encoding="UTF-8"?>
<svg id="Layer_1" data-name="Layer 1" xmlns="http://www.w3.org/2000/svg" viewBox="0 0 125 39.01">
  <defs>
    <style>
      .cls-1 {
        fill: #0693ce;
        stroke-width: 0px;
      }
    </style>
  </defs>
  <path class="cls-1" d="M29.14,23.73c-.12-.09-.23.04-.31.13-.11.12-.22.25-.32.37-1.26,1.49-2.51,2.98-3.78,4.47-.2.23-.43.44-.65.66-.12.12-.24.22-.42.08-1.06-.83-2.17-1.54-3.65-1.64.18-.2.27-.31.37-.4,1.4-1.24,2.62-2.66,3.92-4.01,1.91-1.97,2.57-4.31,2.38-6.98-.11-1.62-.6-3.19-.53-4.82.02-.47-.3-.29-.49-.15-.52.4-1.03.35-1.53,0-.35-.24-.68-.23-1.05-.07-1.23.54-2.41,1.15-3.57,1.82-.14.08-.26.21-.34.35-.5.87-.98,1.75-1.48,2.63-.18.31-.04.41.25.41.45,0,.84-.15,1.15-.5.72-.79,1.41-1.6,1.95-2.53.08-.14.19-.32.37-.28.21.05.13.28.12.42-.08,1.17-.23,2.32-.64,3.43-.55,1.5-1.32,2.89-2.22,4.22.94-.65,1.91-1.26,2.55-2.25,1.11-1.71,2.15-3.45,2.33-5.55.01-.18.08-.35.27-.35.2,0,.18.19.19.32.03,1.09.4,2.14.47,3.22.11,1.9.3,3.83-.71,5.58-.79,1.37-1.67,2.68-2.67,3.91-.73.9-1.57,1.56-2.75,1.84-1.4.34-2.56,1.17-3.61,2.2.27.07.44-.08.63-.15,2.05-.78,4.06-1.1,5.97.39.28.21.6.38.84.63.47.51.8.32,1.19-.12,1.43-1.59,2.83-3.2,4.18-4.85.55-.67,1.04-1.38,1.55-2.07.08-.11.2-.25.04-.37Z"/>
  <path class="cls-1" d="M64.55,13.85c-.33-1.1-.19-1.92.6-2.7.42-.42.79-.91,1.36-1.23.13.55-.02,1.05.21,1.56,1.09-.77,2.52-1.21,2.23-2.96,0-.04,0-.08.01-.12.05-.34-.08-.39-.38-.27-.79.31-1.51.74-2.19,1.24-.86.63-1.6,1.38-2.29,2.28-.07-.17-.11-.25-.13-.32-.28-.84-.32-.85-1.09-.4-1.05.61-2.1,1.22-3.14,1.83-.76.45-.97.81-.78,1.48.6,2.1,1.5,4.08,2.62,5.95.29.49.65.5,1.05.09.4-.4.41-.86.26-1.37-.27-.91-.42-1.84-.25-2.91.3.35.37.68.43.99.39,1.87,1.02,3.68,1.59,5.49.52,1.65.91,3.32.89,5.06-.01,1.08,0,2.17,0,3.25.44-.76.57-1.57.7-2.37.46-2.81.76-5.64.04-8.42-.53-2.06-1.11-4.12-1.72-6.16ZM61.91,15.89c-.37-.92-.69-1.84-.88-2.79-.07-.37.09-.58.45-.67.38-.1.5.12.6.42.36,1.02.6,2.03-.18,3.04Z"/>
  <path class="cls-1" d="M72.13,18.08c0-3.06,0-6.11,0-9.17,0-2.77,0-5.54,0-8.31,0-.19.11-.5-.12-.55-.37-.07-.8-.09-1.16.02-.23.07-.1.44-.1.68,0,11.4,0,22.81,0,34.21,0,.23,0,.45,0,.68,0,.12-.03.32.09.33.39.04.79.08,1.16,0,.25-.06.13-.39.13-.6,0-5.76,0-11.53,0-17.29Z"/>
  <path class="cls-1" d="M38.89,11.27c-.78.12-1.51.1-2.2-.32-.07-.04-.16-.04-.21-.06-.32,0-.52.19-.73.35-.71.55-1.39,1.15-2.14,1.67-.41.28-.71.61-.9,1.05-.34.77-.56,1.57-.66,2.42-.15,1.21.41,1.99,1.4,2.57.52.3,1.09.19,1.63.14.92-.08,1.69.18,2.38.78.47.41.87.87,1.3,1.31.13.13.25.38.5.19.19-.14.12-.31.03-.49-.13-.27-.13-.58-.03-.84.19-.49.06-.91-.13-1.36-.39-.95-.64-1.94-.73-2.97-.12-1.37.19-2.64.85-3.84.31-.55.23-.69-.36-.6ZM37.29,16.77c-.63-.32-1.29-.34-1.97-.26-.9.1-1.13-.18-1.03-1.09.12-1.02.59-1.7,1.63-1.97.82-.22,1.37.15,1.37.99,0,.76,0,1.51,0,2.33Z"/>
  <path class="cls-1" d="M9.93,20.05c.08-.18-.04-.36-.15-.52-.52-.78-.81-1.66-.97-2.57-.3-1.69-.39-3.38.35-5.01.07-.15.29-.31.12-.49-.15-.15-.36-.01-.52.05-.62.22-1.25.35-1.84-.04-.56-.36-1-.23-1.42.22-.63.67-1.28,1.34-2.05,1.85-.41.27-.63.65-.71,1.11-.17,1.01-.31,2.02-.42,2.73-.03,1.54.9,2.34,2.11,2.1,1.53-.3,2.94-.11,4.16.97.44.39.76.86,1.14,1.29.11.12.23.26.42.15.21-.13.08-.29.01-.43-.22-.45-.45-.87-.23-1.4ZM5.26,17.07c-.48-.03-.7-.24-.79-.68-.19-.9.33-2.04,1.15-2.45.49-.24.98-.02,1.44.06.36.06.23.51.29.79.18.83.33,1.67.52,2.61-.91-.29-1.76-.28-2.6-.32Z"/>
  <path class="cls-1" d="M81.57,12.27h3.67q-.94-.41-.94-1.49c0-.84.01-1.68,0-2.52,0-.36.08-.52.48-.5.49.03.99.03,1.48,0,.39-.02.49.13.48.5-.02.8,0,1.6,0,2.4q0,1.12-1.03,1.63h3.85q-1.12-.47-1.12-1.55c0-2.05,0-4.1,0-6.15,0-.73-.18-1.57,1.15-1.59-.74-.31-3.46-.27-3.78-.04.9.3.9.31.92,1.3,0,.33.02.66,0,.98-.04.61.27,1.42-.13,1.77-.42.36-1.22.07-1.85.11-.37.03-.45-.14-.44-.47.02-.7,0-1.39,0-2.09q0-1.18,1.1-1.73c-1.35-.09-2.55-.06-3.75.04.92.42.94.42.94,1.5,0,2.07,0,4.14,0,6.21,0,1.17-.01,1.17-1.03,1.7Z"/>
  <path class="cls-1" d="M11.47,11.74c-.71.18-.97.62-1.01,1.33-.14,2.61.13,5.2.42,7.79.3,2.71.58,5.42.07,8.14-.11.6-.27,1.2-.41,1.82.29-.07.3-.31.4-.48,1.83-3.32,2.28-6.92,2.18-10.64-.07-2.81-.72-5.63.08-8.54-.64.22-1.18.44-1.73.58Z"/>
  <path class="cls-1" d="M103.41,32.17c-.41-.75-.77-1.54-1.2-2.29-.21-.37-.15-.52.22-.73.9-.51,1.28-1.72.99-2.94-.26-1.11-.91-1.69-2.04-1.82-1.35-.15-2.71-.05-4.07-.07-.11,0-.2.03-.18.26.47.03.91.19.91.79,0,2.5,0,5,0,7.5,0,.39-.2.66-.6.75-.12.03-.31-.03-.32.21h3.51c-.91-.44-.93-.47-.93-1.52,0-.74,0-1.48,0-2.21,0-.18-.12-.44.17-.51.3-.08.38.18.48.37.61,1.18,1.22,2.37,1.83,3.55.1.19.17.41.47.41.63-.02,1.26,0,1.89,0,.03-.06.07-.12.1-.18-.74-.29-.91-.97-1.22-1.55ZM101.72,27.79c-.17.9-.84,1.36-1.75,1.26-.3-.03-.3-.21-.3-.42,0-.57,0-1.14,0-1.71,0-.53.02-1.06,0-1.59-.02-.36.12-.45.46-.45.9,0,1.39.34,1.58,1.21.12.56.12,1.14.01,1.7Z"/>
  <path class="cls-1" d="M92.85,20.92c.16-1.39-.23-2.04-1.77-2.87.08-.05.14-.1.21-.14,1.09-.58,1.47-1.42,1.19-2.6-.26-1.11-.96-1.68-2.16-1.73-.72-.03-1.44-.01-2.16-.01-.56,0-1.12,0-1.68,0,0,.05,0,.11,0,.16.92.35.93.36.93,1.43,0,2.15-.01,4.3,0,6.45,0,.68-.11,1.22-.91,1.32,0,0,0,.07-.02.19,1.5-.04,3,.14,4.48-.11,1.07-.18,1.77-1.05,1.89-2.09ZM89.04,15.93c0-.49.01-.98,0-1.47,0-.31.12-.41.41-.35.14.03.28.05.42.09.74.24,1.08,1.08.92,2.24-.12.84-.63,1.35-1.37,1.41-.26.02-.38-.05-.37-.33.01-.53,0-1.06,0-1.59ZM90.43,22.26c-.29.25-.65.42-1.02.28-.41-.15-.37-.54-.37-.89,0-.43,0-.86,0-1.29,0-.53,0-1.07,0-1.6,0-.21.03-.37.3-.34.39.04.78.09,1.09.36.83.73.84,2.77,0,3.49Z"/>
  <path class="cls-1" d="M45.01,25.87s0,0,0,0c-.64.27-.98.14-1.3-.51-.06-.13-.11-.27-.15-.4-.21-.72-.24-1.45-.16-2.19.04-.33.02-.65-.12-.96-1.12-2.52-1.37-5.16-1.1-7.87.1-1.05.32-2.09.6-3.19-.76.27-1.43.53-2.11.73-.36.11-.47.32-.53.65-.59,3.59-.38,7.1,1.07,10.49.53,1.23,1.16,2.4,2.18,3.31.67.6,1.15.62,1.77.08-.05-.04-.1-.09-.15-.13,0,0,0,0,0,0Z"/>
  <path class="cls-1" d="M91.49,3.83c0,2.48,0,4.96,0,7.44,0,.44-.19.75-.67.81-.11.01-.26-.03-.27.16.03.03.05.08.08.08,1.87.01,3.74.02,5.62.03.15,0,.3,0,.32-.2.1-.92.19-1.85.28-2.77-.05-.01-.1-.02-.15-.03-.09.28-.18.56-.28.83-.45,1.2-1.29,1.74-2.52,1.65-.45-.03-.69-.23-.69-.69,0-1,0-2.01-.02-3.01,0-.33.16-.38.43-.31.52.13.66.57.83.99.15.36.06.8.35,1.25v-5.01c-.2.43-.29.89-.41,1.33-.11.39-.34.71-.76.82-.26.07-.44.04-.43-.3.01-1.07,0-2.13,0-3.2,0-.14,0-.26.2-.32,1.13-.34,2.24.25,2.58,1.38.08.27.02.6.36.92,0-.87-.02-1.63,0-2.38.02-.4-.11-.53-.52-.52-1.32.02-2.63,0-3.95,0-.44,0-.88,0-1.33,0-.03.08-.07.15-.1.23.57.05,1.03.21,1.03.84Z"/>
  <path class="cls-1" d="M79.74,31.75c-.46,1.21-1.26,1.7-2.53,1.62-.42-.03-.66-.21-.67-.64-.01-1.02,0-2.05-.02-3.07,0-.35.17-.37.43-.3.51.14.66.57.83.99.15.36.05.8.33,1.19.13-.83.1-4.52-.07-5.04-.11.49-.18.91-.29,1.31-.11.41-.31.77-.76.9-.26.08-.48.09-.48-.31.02-1.04,0-2.09,0-3.14,0-.15-.03-.31.2-.38,1.14-.33,2.24.27,2.57,1.4.08.26.14.53.21.8.06,0,.11-.01.17-.02,0-.8-.01-1.59,0-2.39,0-.37-.21-.37-.48-.37-1.67,0-3.33,0-5,0-.12,0-.3-.06-.33.21.47.1.95.21.95.86-.01,2.48,0,4.96-.01,7.44,0,.45-.2.74-.68.8-.11.01-.26-.02-.25.17.03.03.06.07.09.07,1.87,0,3.74.01,5.61.02.15,0,.29-.02.31-.21.09-.92.19-1.84.28-2.75-.05,0-.1-.02-.16-.03-.1.28-.18.56-.29.84Z"/>
  <path class="cls-1" d="M88.54,33.46c-.22-.2-.36-.45-.48-.71-.69-1.38-1.36-2.76-2.05-4.14-.11-.23-.12-.4.02-.62.57-.9,1.11-1.82,1.67-2.73.17-.28.37-.54.73-.62.12-.03.27-.05.23-.22-.03-.12-.16-.11-.26-.11-.64,0-1.28,0-1.91,0-.11,0-.27-.04-.29.13-.01.12.11.15.21.18.55.17.59.57.42,1.03-.28.75-.74,1.4-1.21,2.16-.42-.88-.81-1.67-1.17-2.47-.16-.35-.09-.65.36-.74.11-.02.27,0,.24-.19-.02-.13-.16-.11-.25-.11-.97,0-1.93,0-2.9,0-.1,0-.22,0-.25.12-.02.12.06.18.17.22.34.13.47.45.61.74.5.99.91,2.03,1.5,2.96.57.91.55,1.65-.11,2.48-.74.93-1.01,2.23-2.23,2.78-.14.06-.13.25.04.25.82.02,1.65,0,2.51,0-.1-.33-.31-.25-.45-.32-.4-.19-.56-.49-.38-.9.38-.88.93-1.67,1.46-2.57.39.8.74,1.5,1.08,2.2q.44.91-.27,1.48c.12.21.33.11.5.12.76.01,1.52,0,2.28,0,.17,0,.43.09.51-.08.11-.24-.19-.25-.32-.36Z"/>
  <path class="cls-1" d="M53.59,12.41c-.59-.98-1.13-1.96-.82-3.2-.68.14-1.2.46-1.75.66-.3.11-.4.3-.39.61.01.95.07,1.88.65,2.7.14.2.25.42.27.74-.76-.17-1.38.12-1.93.59-.73.63-1.45,1.28-2.18,1.9-.28.24-.36.52-.33.87.09.97.96,1.62,1.92,1.42.57-.12,1.09-.33,1.58-.66,1.28-.84,2.18-2,2.84-3.34.35-.7.6-1.52.14-2.3ZM50.74,16.88c-.56.52-1.5.26-1.69-.47-.11-.43.13-.7.51-.86.29-.12.61-.18.9-.06.4.17.74.13,1.12-.26-.15.72-.4,1.24-.85,1.65Z"/>
  <path class="cls-1" d="M111.29,31.79c-.45,1.14-1.15,1.59-2.37,1.58-.54,0-.82-.22-.82-.75-.01-.98,0-1.97-.02-2.95,0-.34.16-.38.43-.31.6.15.72.67.9,1.15.12.32.04.7.32,1.09v-5.01c-.2.43-.29.88-.42,1.32-.11.39-.32.71-.75.83-.27.07-.48.07-.48-.32.01-1.05,0-2.09,0-3.14,0-.13-.03-.28.15-.36.82-.35,2.18.18,2.52,1.03.15.38.23.78.34,1.17.06,0,.11-.01.17-.02,0-.77-.02-1.53,0-2.3.01-.39-.13-.48-.5-.48-1.63.02-3.25,0-4.88.01-.15,0-.34-.08-.43.13q.95.56.95,1.85c0,1.15,0,2.3,0,3.44,0,.94,0,1.89,0,2.83,0,.59-.15,1.07-.87,1.09-.03,0-.05.09-.07.14.05.04.08.08.11.08,1.85,0,3.7.01,5.55.02.14,0,.32.01.34-.18.1-.93.19-1.87.28-2.8-.05,0-.1-.02-.15-.03-.1.3-.2.6-.31.9Z"/>
  <path class="cls-1" d="M94.12,24.46c-1.28-.28-2.59-.1-3.88-.14-.1,0-.22,0-.21.15,0,.1.09.14.17.14.71.02.74.55.75,1.05.02.94,0,1.89,0,2.83,0,1.35,0,2.71,0,4.06,0,.59-.14,1.07-.86,1.11-.03,0-.05.09-.1.18h3.47l.07-.16c-.89-.06-.99-.62-.96-1.3.02-.57,0-1.15,0-1.72q0-1.01.97-1.13c.14-.02.28-.04.43-.07,1.12-.22,1.82-1.14,1.86-2.43.04-1.35-.59-2.33-1.72-2.59ZM93.92,28.24c-.08.24-.23.44-.43.59-.23.16-.5.25-.76.15-.27-.11-.13-.39-.14-.6-.02-.47,0-.94,0-1.41,0-.55.02-1.11,0-1.66-.02-.39.17-.45.49-.38.44.1.74.36.87.78.27.84.26,1.7-.02,2.54Z"/>
  <path class="cls-1" d="M100.34,21.91c.07-.59.11-1.17.16-1.76-.25.28-.34.59-.46.88-.45,1.13-1.11,1.56-2.32,1.55-.69,0-.86-.16-.87-.88-.02-.86-.01-1.72,0-2.58,0-.19-.11-.47.13-.55.23-.08.49.04.68.21.29.26.4.61.5.97.08.31.13.63.2.95.04,0,.08-.01.11-.02v-4.86c-.2.44-.29.89-.42,1.34-.11.39-.35.69-.77.81-.28.08-.43,0-.43-.31,0-1.07,0-2.13,0-3.2,0-.18.04-.29.26-.34,1.28-.29,2.25.31,2.58,1.57.06.23,0,.52.34.77,0-.85-.03-1.61.01-2.36.02-.45-.15-.54-.56-.53-1.58.02-3.17,0-4.76.01-.16,0-.37-.09-.54.21,1.14,0,.99.81.99,1.52,0,2.01,0,4.02,0,6.03,0,.72.16,1.54-1.05,1.59.28.26.49.19.68.19,1.38,0,2.76,0,4.14,0,1.25,0,1.26,0,1.4-1.2Z"/>
  <path class="cls-1" d="M7.46,9.96c.08-.36.15-.72.27-1.07.5-1.46,1.22-1.9,2.75-1.72.22.03.45.06.67.09,1.78.28,3.34,1.14,4.98,1.79.05-.05.09-.1.14-.14-1.1-.59-2.02-1.34-2.28-2.66-.05-.25-.18-.49-.45-.63-1.64-.86-3.64-.5-4.89.86-.64.7-1.06,1.51-1.28,2.42-.1.42-.19.84-.3,1.32-.41-.47-.75-.88-1.11-1.27-.16-.18-.23-.36-.25-.6-.08-1.67-1.61-3.09-3.28-3.06-.08,0-.17,0-.23.05-.7.49-1.39.98-2.19,1.55,3.21.28,5.29,2.23,7.45,4.32-.06-.51-.07-.88,0-1.24Z"/>
  <path class="cls-1" d="M17.85,9.28c1.12.37,2.29.45,3.44.1.2-.06.38-.25.53-.41.22-.24.44-.54.31-.88-.13-.34-.5-.3-.8-.33-.57-.04-1.15-.06-1.72-.13-.28-.03-.54-.21-.2-.46.61-.46,1.25-.88,2.09-.65.65.18,1.21.49,1.73.91,1.42,1.17,2.46,2.69,3.85,3.91-.39-.59-.75-1.2-1.16-1.77-.28-.39-.37-.76-.31-1.25.1-.79.16-1.63-.51-2.25-.71-.66-1.53-1.16-2.49-1.41-.74-.19-1.39-.09-1.98.37-1.05.83-1.98,1.79-2.9,2.75-.45.47-.39,1.33.12,1.49Z"/>
  <path class="cls-1" d="M115.59,27.43c-.39-.29-.72-.61-.88-1.08-.19-.56.01-1.25.48-1.53.53-.32,1.03-.18,1.48.2.58.49.85,1.14,1.02,1.85.03.14-.04.34.21.4v-3.06c-.26.78-.66.52-1.13.24-1.08-.65-2.15-.36-2.8.71-.75,1.24-.56,2.92.46,3.98.5.52,1.12.9,1.7,1.32.42.3.8.64.99,1.15.25.67.03,1.47-.5,1.82-.51.34-1.17.22-1.74-.31-.56-.53-.83-1.2-1.02-1.93-.05-.21-.02-.47-.28-.66v3.55c.4-.66.83-.53,1.38-.23,1.1.59,2.21.27,2.91-.76.88-1.29.71-3.13-.4-4.24-.55-.56-1.23-.95-1.86-1.42Z"/>
  <path class="cls-1" d="M123.98,28.8c-.52-.51-1.14-.88-1.72-1.3-.35-.26-.68-.53-.88-.93-.3-.59-.13-1.37.36-1.73.44-.32,1.07-.23,1.58.23.44.4.69.91.87,1.46.08.25.04.54.3.82v-3.14c-.25.66-.58.59-1.06.28-1.18-.74-2.37-.37-2.99.87-.62,1.23-.36,2.83.61,3.82.51.52,1.13.89,1.71,1.32.39.28.73.6.92,1.05.28.69.07,1.52-.47,1.88-.53.35-1.21.22-1.78-.34-.52-.51-.78-1.15-.97-1.83-.07-.24-.05-.51-.29-.81v3.62c.38-.62.79-.55,1.33-.26,1.22.65,2.41.26,3.09-.95.75-1.33.5-3-.59-4.07Z"/>
  <path class="cls-1" d="M30.86,11.23c-.62.21-1.25.4-1.88.59-.36.1-.52.34-.62.69-.23.81-.38,1.63-.38,2.48.03.41.05.82.1,1.22.23,1.91.95,3.68,1.69,5.43.08.18.08.52.4.44.35-.09.3-.4.21-.66-.28-.84-.15-1.59.37-2.31.21-.28.4-.6.29-1.02-.52-2.04-.64-4.08,0-6.11.05-.16.05-.32.1-.48.1-.31,0-.36-.29-.26Z"/>
  <path class="cls-1" d="M46.83,10.77c-.76.24-1.48.47-2.2.69-.35.11-.52.32-.62.68-1,3.39.25,6.41,1.52,9.42.05.12.12.22.27.17.12-.04.24-.11.25-.24.01-.16.02-.34-.04-.48-.29-.83-.12-1.56.39-2.25.31-.42.33-.86.2-1.38-.36-1.52-.49-3.07-.19-4.63.12-.64.37-1.25.41-1.98Z"/>
  <path class="cls-1" d="M16.32,22.07c.36-.09.3-.39.21-.66-.3-.87-.13-1.64.41-2.36.28-.38.3-.79.19-1.27-.36-1.5-.5-3.02-.23-4.56.12-.68.38-1.33.43-2.11-.83.27-1.6.51-2.37.77-.21.07-.34.22-.4.43-.2.71-.37,1.42-.4,2.17-.12,2.56.79,4.86,1.76,7.15.08.18.08.52.4.44Z"/>
  <path class="cls-1" d="M55.57,14.53c-.77,0-2.29,1.01-2.54,1.67-.08.2.04.26.18.31.19.06.36-.04.54-.08,1.23-.29,2.83.8,3.01,2.04.08.58-.15.82-.72.67-1.1-.29-2.29-.45-2.65-1.85-.09-.33-.54-.48-.89-.37-.43.14-.24.5-.15.78.24.74.52,1.47.97,2.12.78,1.13,1.98,1.41,2.96.66.87-.67,1.58-1.49,2.2-2.39.31-.44.33-.9.16-1.4-.39-1.11-1.88-2.16-3.06-2.16Z"/>
  <path class="cls-1" d="M74.59,4.09c.21-.5.61-.73,1.17-.75.42-.02.56.1.56.54-.02,2.19,0,4.39-.01,6.58,0,.75.23,1.64-.95,1.83h3.7q-1.05-.59-1.05-1.83c0-2.11,0-4.22,0-6.34,0-.25-.14-.64.12-.73.37-.12.82-.13,1.17.16.3.24.47.56.58.93.08.27.15.54.23.82.06,0,.11,0,.17-.01,0-.75,0-1.49,0-2.24,0-.27-.17-.28-.37-.28-1.83,0-3.66,0-5.5,0-.16,0-.37-.02-.37.21-.01.77,0,1.54,0,2.31.27-.4.38-.82.55-1.21Z"/>
  <path class="cls-1" d="M102.11,16.1c.06,0,.12.01.18.02.11-.41.17-.83.35-1.22.27-.57.73-.79,1.34-.8.29,0,.4.08.4.38,0,2.52,0,5.04-.01,7.56,0,.47-.2.79-.73.79-.1,0-.21.03-.2.19h3.75q-1.12-.46-1.12-1.6c0-2.17,0-4.35,0-6.52,0-.26-.18-.66.14-.77.38-.13.82-.08,1.17.2.35.28.5.69.63,1.1.07.22.03.49.35.76,0-.86,0-1.63,0-2.4,0-.23-.16-.25-.34-.25-1.87,0-3.74,0-5.62,0-.2,0-.31.06-.31.28,0,.75,0,1.5,0,2.26Z"/>
  <path class="cls-1" d="M79.94,13.56c-1.85,0-3.7,0-5.56,0-.17,0-.34,0-.34.24,0,.76,0,1.53,0,2.29.25-.36.36-.75.5-1.12.19-.5.55-.79,1.1-.86.48-.06.69.02.68.59-.03,2.19,0,4.39-.02,6.58,0,.73.2,1.59-1.01,1.71,1.26.14,2.45.14,3.69-.01-.54-.11-.98-.28-.98-.9,0-2.54,0-5.08,0-7.63,0-.27.1-.35.36-.36.69-.03,1.16.24,1.43.93.14.35.23.72.34,1.08.05-.01.1-.02.15-.03,0-.72,0-1.43,0-2.15,0-.25-.06-.37-.34-.37Z"/>
  <path class="cls-1" d="M69.84,20.76c-.39-.57-.89-1.21-.48-1.85.48-.77.32-1.39,0-2.1-.18-.39-.25-.82-.33-1.24-.27-1.52-.36-3.05-.1-4.77.01-.19-.15-.25-.45-.07-.61.38-1.21.77-1.83,1.14-.25.16-.27.4-.27.64.02,1.33.09,2.67.43,3.96.47,1.77,1.19,3.41,2.67,4.6.16.13.36.41.57.22.26-.24-.11-.36-.22-.53Z"/>
  <path class="cls-1" d="M85.36,13.78c-.05-.05-.11-.1-.16-.15h-3.54c.93.45.93.45.94,1.56,0,2.05,0,4.1,0,6.15,0,.71.18,1.55-1.01,1.66,1.26.09,2.44.18,3.61,0-.88-.36-.9-.38-.9-1.36,0-2.11,0-4.23,0-6.34,0-.69-.2-1.52,1.07-1.52Z"/>
  <path class="cls-1" d="M49.13,6.2c1.67.3,3.21.88,4.44,2.11.63.62,1.25,1.25,1.88,1.87.31.3.63.61,1.06.86-.02-.33-.23-.45-.37-.61-.7-.84-1.41-1.66-2.1-2.5-.28-.33-.54-.67-.55-1.14-.04-1.31-.69-2.1-1.98-2.35-.12-.02-.23-.08-.35-.12-2.22-.69-3.04-.45-4.49,1.33-.31.38-.64.76-.92,1.37,1.14-.71,2.21-1.03,3.38-.82Z"/>
  <path class="cls-1" d="M16.13,9.05c.3.23.64.34,1.04.33-.3-.16-.6-.32-.9-.48.03.12,0,.18-.14.14Z"/>
  <path class="cls-1" d="M45.01,25.87c.14-.06.15.02.15.13.36-.19.38-.51.37-.94-.21.32-.37.56-.53.81Z"/>
</svg>