<?xml version="1.0" encoding="utf-8"?>
<!-- Generator: Adobe Illustrator 28.3.0, SVG Export Plug-In . SVG Version: 6.00 Build 0)  -->
<svg version="1.1" id="Layer_1" xmlns="http://www.w3.org/2000/svg" xmlns:xlink="http://www.w3.org/1999/xlink" x="0px" y="0px"
	 viewBox="0 0 125 48" style="enable-background:new 0 0 125 48;" xml:space="preserve">
<style type="text/css">
	.st0{display:none;}
	.st1{display:inline;fill-rule:evenodd;clip-rule:evenodd;fill:#FF9900;}
	.st2{display:inline;fill-rule:evenodd;clip-rule:evenodd;}
	.st3{display:inline;fill:#0693CE;}
	.st4{fill:#D76714;}
	.st5{fill:#D17836;}
</style>
<g class="st0">
	<path class="st1" d="M76.7,37.8C69.5,42.5,59.1,45,50.1,45c-12.6,0-23.9-4.1-32.4-11c-0.7-0.5-0.1-1.3,0.7-0.9
		c9.2,4.8,20.7,7.6,32.4,7.6c8,0,16.7-1.5,24.8-4.5C76.8,35.9,77.8,37,76.7,37.8z"/>
	<path class="st1" d="M79.6,34.8c-0.9-1-6.1-0.5-8.4-0.2c-0.7,0.1-0.8-0.5-0.2-0.9c4.1-2.6,10.8-1.8,11.6-1c0.8,0.9-0.2,6.8-4.1,9.7
		c-0.6,0.4-1.2,0.2-0.9-0.4C78.6,40.1,80.6,35.8,79.6,34.8z"/>
	<path class="st2" d="M71.4,15.6v-2.5c0-0.4,0.3-0.6,0.7-0.6h12.6c0.4,0,0.7,0.3,0.7,0.6v2.1c0,0.4-0.3,0.8-0.9,1.6L78,25.1
		c2.4-0.1,5,0.3,7.2,1.4c0.5,0.2,0.6,0.6,0.7,1V30c0,0.4-0.5,0.8-0.9,0.6c-3.9-1.8-9-2-13.3,0c-0.4,0.2-0.9-0.2-0.9-0.6v-2.5
		c0-0.4,0-1.1,0.5-1.7l7.5-9.6h-6.6C71.7,16.2,71.4,16,71.4,15.6z"/>
	<path class="st2" d="M25.6,31.1h-3.8c-0.4,0-0.7-0.3-0.7-0.6V13.2c0-0.3,0.3-0.6,0.7-0.6h3.6c0.4,0,0.7,0.3,0.7,0.6v2.3h0.1
		c0.9-2.2,2.7-3.2,5-3.2c2.4,0,3.9,1,5,3.2c0.9-2.2,3-3.2,5.3-3.2c1.6,0,3.4,0.6,4.4,1.9c1.2,1.5,1,3.6,1,5.5l0,11
		c0,0.3-0.3,0.6-0.7,0.6h-3.8c-0.4,0-0.7-0.3-0.7-0.6v-9.2c0-0.7,0.1-2.6-0.1-3.3c-0.3-1.2-1.1-1.5-2.2-1.5c-0.9,0-1.9,0.5-2.3,1.4
		s-0.4,2.3-0.4,3.3v9.2c0,0.3-0.3,0.6-0.7,0.6H32c-0.4,0-0.7-0.3-0.7-0.6l0-9.2c0-1.9,0.4-4.8-2.4-4.8c-2.7,0-2.6,2.8-2.6,4.8v9.2
		C26.3,30.8,26,31.1,25.6,31.1z"/>
	<path class="st2" d="M96.2,12.2c5.7,0,8.7,4.3,8.7,9.8c0,5.3-3.4,9.5-8.7,9.5c-5.6,0-8.6-4.3-8.6-9.7
		C87.6,16.4,90.7,12.2,96.2,12.2z M96.3,15.7c-2.8,0-3,3.4-3,5.5c0,2.1,0,6.7,3,6.7c3,0,3.1-3.7,3.1-5.9c0-1.5-0.1-3.2-0.6-4.6
		C98.3,16.2,97.5,15.7,96.3,15.7z"/>
	<path class="st2" d="M112.3,31.1h-3.8c-0.4,0-0.7-0.3-0.7-0.6l0-17.4c0-0.3,0.3-0.6,0.7-0.6h3.5c0.3,0,0.6,0.2,0.7,0.5v2.7h0.1
		c1.1-2.4,2.6-3.5,5.2-3.5c1.7,0,3.4,0.5,4.5,2c1,1.4,1,3.7,1,5.4v10.9c0,0.3-0.4,0.5-0.7,0.5H119c-0.3,0-0.6-0.3-0.7-0.5v-9.4
		c0-1.9,0.2-4.7-2.4-4.7c-0.9,0-1.8,0.6-2.2,1.4c-0.5,1.1-0.6,2.1-0.6,3.3v9.4C113.1,30.8,112.8,31.1,112.3,31.1z"/>
	<path class="st2" d="M61.4,22.8c0,1.3,0,2.4-0.7,3.6c-0.6,1-1.6,1.5-2.6,1.5c-1.5,0-2.3-1-2.3-2.5c0-2.9,2.9-3.4,5.7-3.4V22.8z
		 M65.3,31.1c-0.3,0.2-0.6,0.2-0.9,0.1c-1.3-0.9-1.5-1.4-2.2-2.3c-2.1,1.9-3.6,2.5-6.3,2.5c-3.2,0-5.7-1.8-5.7-5.3
		c0-2.8,1.7-4.6,4.1-5.5c2.1-0.8,5-1,7.2-1.2v-0.4c0-0.8,0.1-1.8-0.5-2.5c-0.5-0.6-1.4-0.9-2.1-0.9c-1.5,0-2.8,0.7-3.1,2
		c-0.1,0.3-0.3,0.6-0.7,0.6l-3.7-0.4c-0.3-0.1-0.7-0.3-0.6-0.7c0.8-4,4.9-5.2,8.6-5.2c1.9,0,4.3,0.4,5.8,1.7
		c1.9,1.5,1.7,3.6,1.7,5.8v5.3c0,1.6,0.7,2.3,1.4,3.1c0.2,0.3,0.3,0.7,0,0.9C67.4,29.4,66,30.5,65.3,31.1L65.3,31.1z"/>
	<path class="st2" d="M11.3,22.8c0,1.3,0,2.4-0.7,3.6C9.9,27.4,9,28,7.9,28c-1.5,0-2.3-1-2.3-2.5c0-2.9,2.9-3.4,5.7-3.4V22.8z
		 M15.1,31.1c-0.3,0.2-0.6,0.2-0.9,0.1c-1.3-0.9-1.5-1.4-2.2-2.3c-2.1,1.9-3.6,2.5-6.3,2.5c-3.2,0-5.7-1.8-5.7-5.3
		c0-2.8,1.7-4.6,4.1-5.5c2.1-0.8,5-1,7.2-1.2v-0.4c0-0.8,0.1-1.8-0.5-2.5c-0.5-0.6-1.4-0.9-2.1-0.9c-1.5,0-2.8,0.7-3.1,2
		c-0.1,0.3-0.3,0.6-0.7,0.6l-3.7-0.4c-0.3-0.1-0.7-0.3-0.6-0.7c0.9-4,4.9-5.2,8.6-5.2c1.9,0,4.3,0.4,5.8,1.7
		c1.9,1.5,1.7,3.6,1.7,5.8v5.3c0,1.6,0.7,2.3,1.4,3.1c0.2,0.3,0.3,0.7,0,0.9C17.3,29.4,15.9,30.5,15.1,31.1L15.1,31.1z"/>
</g>
<g class="st0">
	<path class="st3" d="M29.1,29.7c-0.1-0.1-0.2,0-0.3,0.1c-0.1,0.1-0.2,0.2-0.3,0.4c-1.3,1.5-2.5,3-3.8,4.5c-0.2,0.2-0.4,0.4-0.6,0.7
		c-0.1,0.1-0.2,0.2-0.4,0.1c-1.1-0.8-2.2-1.5-3.7-1.6c0.2-0.2,0.3-0.3,0.4-0.4c1.4-1.2,2.6-2.7,3.9-4c1.9-2,2.6-4.3,2.4-7
		c-0.1-1.6-0.6-3.2-0.5-4.8c0-0.5-0.3-0.3-0.5-0.1c-0.5,0.4-1,0.3-1.5,0c-0.3-0.2-0.7-0.2-1-0.1c-1.2,0.5-2.4,1.1-3.6,1.8
		c-0.1,0.1-0.3,0.2-0.3,0.3c-0.5,0.9-1,1.8-1.5,2.6c-0.2,0.3,0,0.4,0.2,0.4c0.5,0,0.8-0.2,1.1-0.5c0.7-0.8,1.4-1.6,1.9-2.5
		c0.1-0.1,0.2-0.3,0.4-0.3c0.2,0.1,0.1,0.3,0.1,0.4c-0.1,1.2-0.2,2.3-0.6,3.4c-0.6,1.5-1.3,2.9-2.2,4.2c0.9-0.7,1.9-1.3,2.6-2.3
		c1.1-1.7,2.2-3.5,2.3-5.6c0-0.2,0.1-0.3,0.3-0.4c0.2,0,0.2,0.2,0.2,0.3c0,1.1,0.4,2.1,0.5,3.2c0.1,1.9,0.3,3.8-0.7,5.6
		c-0.8,1.4-1.7,2.7-2.7,3.9c-0.7,0.9-1.6,1.6-2.8,1.8c-1.4,0.3-2.6,1.2-3.6,2.2c0.3,0.1,0.4-0.1,0.6-0.1c2-0.8,4.1-1.1,6,0.4
		c0.3,0.2,0.6,0.4,0.8,0.6c0.5,0.5,0.8,0.3,1.2-0.1c1.4-1.6,2.8-3.2,4.2-4.9c0.5-0.7,1-1.4,1.5-2.1C29.2,30,29.3,29.8,29.1,29.7z"/>
	<path class="st3" d="M64.6,19.8c-0.3-1.1-0.2-1.9,0.6-2.7c0.4-0.4,0.8-0.9,1.4-1.2c0.1,0.5,0,1,0.2,1.6c1.1-0.8,2.5-1.2,2.2-3
		c0,0,0-0.1,0-0.1c0-0.3-0.1-0.4-0.4-0.3c-0.8,0.3-1.5,0.7-2.2,1.2c-0.9,0.6-1.6,1.4-2.3,2.3C64,17.5,64,17.4,64,17.3
		c-0.3-0.8-0.3-0.9-1.1-0.4c-1,0.6-2.1,1.2-3.1,1.8c-0.8,0.5-1,0.8-0.8,1.5c0.6,2.1,1.5,4.1,2.6,6c0.3,0.5,0.7,0.5,1.1,0.1
		c0.4-0.4,0.4-0.9,0.3-1.4c-0.3-0.9-0.4-1.8-0.3-2.9c0.3,0.4,0.4,0.7,0.4,1c0.4,1.9,1,3.7,1.6,5.5c0.5,1.7,0.9,3.3,0.9,5.1
		c0,1.1,0,2.2,0,3.3c0.4-0.8,0.6-1.6,0.7-2.4c0.5-2.8,0.8-5.6,0-8.4C65.7,23.9,65.2,21.9,64.6,19.8z M61.9,21.9
		C61.5,21,61.2,20,61,19.1c-0.1-0.4,0.1-0.6,0.5-0.7c0.4-0.1,0.5,0.1,0.6,0.4C62.4,19.9,62.7,20.9,61.9,21.9z"/>
	<path class="st3" d="M72.1,24.1c0-3.1,0-6.1,0-9.2c0-2.8,0-5.5,0-8.3c0-0.2,0.1-0.5-0.1-0.5c-0.4-0.1-0.8-0.1-1.2,0
		c-0.2,0.1-0.1,0.4-0.1,0.7c0,11.4,0,22.8,0,34.2c0,0.2,0,0.5,0,0.7c0,0.1,0,0.3,0.1,0.3c0.4,0,0.8,0.1,1.2,0
		c0.3-0.1,0.1-0.4,0.1-0.6C72.1,35.6,72.1,29.8,72.1,24.1z"/>
	<path class="st3" d="M38.9,17.3c-0.8,0.1-1.5,0.1-2.2-0.3c-0.1,0-0.2,0-0.2-0.1c-0.3,0-0.5,0.2-0.7,0.4c-0.7,0.6-1.4,1.2-2.1,1.7
		c-0.4,0.3-0.7,0.6-0.9,1.1c-0.3,0.8-0.6,1.6-0.7,2.4c-0.1,1.2,0.4,2,1.4,2.6c0.5,0.3,1.1,0.2,1.6,0.1c0.9-0.1,1.7,0.2,2.4,0.8
		c0.5,0.4,0.9,0.9,1.3,1.3c0.1,0.1,0.3,0.4,0.5,0.2c0.2-0.1,0.1-0.3,0-0.5c-0.1-0.3-0.1-0.6,0-0.8c0.2-0.5,0.1-0.9-0.1-1.4
		c-0.4-1-0.6-1.9-0.7-3c-0.1-1.4,0.2-2.6,0.9-3.8C39.6,17.3,39.5,17.2,38.9,17.3z M37.3,22.8c-0.6-0.3-1.3-0.3-2-0.3
		c-0.9,0.1-1.1-0.2-1-1.1c0.1-1,0.6-1.7,1.6-2c0.8-0.2,1.4,0.1,1.4,1C37.3,21.2,37.3,21.9,37.3,22.8z"/>
	<path class="st3" d="M9.9,26c0.1-0.2,0-0.4-0.1-0.5c-0.5-0.8-0.8-1.7-1-2.6c-0.3-1.7-0.4-3.4,0.3-5c0.1-0.2,0.3-0.3,0.1-0.5
		c-0.1-0.2-0.4,0-0.5,0c-0.6,0.2-1.2,0.3-1.8,0c-0.6-0.4-1-0.2-1.4,0.2c-0.6,0.7-1.3,1.3-2.1,1.9c-0.4,0.3-0.6,0.7-0.7,1.1
		c-0.2,1-0.3,2-0.4,2.7c0,1.5,0.9,2.3,2.1,2.1c1.5-0.3,2.9-0.1,4.2,1c0.4,0.4,0.8,0.9,1.1,1.3c0.1,0.1,0.2,0.3,0.4,0.2
		c0.2-0.1,0.1-0.3,0-0.4C9.9,27,9.7,26.6,9.9,26z M5.3,23.1c-0.5,0-0.7-0.2-0.8-0.7c-0.2-0.9,0.3-2,1.1-2.4c0.5-0.2,1,0,1.4,0.1
		c0.4,0.1,0.2,0.5,0.3,0.8c0.2,0.8,0.3,1.7,0.5,2.6C6.9,23.1,6.1,23.1,5.3,23.1z"/>
	<path class="st3" d="M81.6,18.3c1.3,0,2.5,0,3.7,0c-0.9-0.4-0.9-0.4-0.9-1.5c0-0.8,0-1.7,0-2.5c0-0.4,0.1-0.5,0.5-0.5
		c0.5,0,1,0,1.5,0c0.4,0,0.5,0.1,0.5,0.5c0,0.8,0,1.6,0,2.4c0,1.1,0,1.1-1,1.6c1.3,0,2.5,0,3.8,0c-1.1-0.5-1.1-0.5-1.1-1.6
		c0-2.1,0-4.1,0-6.2c0-0.7-0.2-1.6,1.2-1.6c-0.7-0.3-3.5-0.3-3.8,0c0.9,0.3,0.9,0.3,0.9,1.3c0,0.3,0,0.7,0,1c0,0.6,0.3,1.4-0.1,1.8
		c-0.4,0.4-1.2,0.1-1.9,0.1c-0.4,0-0.5-0.1-0.4-0.5c0-0.7,0-1.4,0-2.1c0-1.2,0-1.2,1.1-1.7c-1.4-0.1-2.5-0.1-3.7,0
		c0.9,0.4,0.9,0.4,0.9,1.5c0,2.1,0,4.1,0,6.2C82.6,17.7,82.6,17.7,81.6,18.3z"/>
	<path class="st3" d="M11.5,17.7c-0.7,0.2-1,0.6-1,1.3c-0.1,2.6,0.1,5.2,0.4,7.8c0.3,2.7,0.6,5.4,0.1,8.1c-0.1,0.6-0.3,1.2-0.4,1.8
		c0.3-0.1,0.3-0.3,0.4-0.5c1.8-3.3,2.3-6.9,2.2-10.6c-0.1-2.8-0.7-5.6,0.1-8.5C12.6,17.4,12,17.6,11.5,17.7z"/>
	<path class="st3" d="M103.4,38.2c-0.4-0.8-0.8-1.5-1.2-2.3c-0.2-0.4-0.2-0.5,0.2-0.7c0.9-0.5,1.3-1.7,1-2.9c-0.3-1.1-0.9-1.7-2-1.8
		c-1.4-0.1-2.7,0-4.1-0.1c-0.1,0-0.2,0-0.2,0.3c0.5,0,0.9,0.2,0.9,0.8c0,2.5,0,5,0,7.5c0,0.4-0.2,0.7-0.6,0.7c-0.1,0-0.3,0-0.3,0.2
		c1.2,0,2.3,0,3.5,0c-0.9-0.4-0.9-0.5-0.9-1.5c0-0.7,0-1.5,0-2.2c0-0.2-0.1-0.4,0.2-0.5c0.3-0.1,0.4,0.2,0.5,0.4
		c0.6,1.2,1.2,2.4,1.8,3.6c0.1,0.2,0.2,0.4,0.5,0.4c0.6,0,1.3,0,1.9,0c0-0.1,0.1-0.1,0.1-0.2C103.9,39.4,103.7,38.7,103.4,38.2z
		 M101.7,33.8c-0.2,0.9-0.8,1.4-1.7,1.3c-0.3,0-0.3-0.2-0.3-0.4c0-0.6,0-1.1,0-1.7c0-0.5,0-1.1,0-1.6c0-0.4,0.1-0.4,0.5-0.5
		c0.9,0,1.4,0.3,1.6,1.2C101.8,32.6,101.8,33.2,101.7,33.8z"/>
	<path class="st3" d="M92.9,26.9c0.2-1.4-0.2-2-1.8-2.9c0.1-0.1,0.1-0.1,0.2-0.1c1.1-0.6,1.5-1.4,1.2-2.6c-0.3-1.1-1-1.7-2.2-1.7
		c-0.7,0-1.4,0-2.2,0c-0.6,0-1.1,0-1.7,0c0,0.1,0,0.1,0,0.2c0.9,0.4,0.9,0.4,0.9,1.4c0,2.2,0,4.3,0,6.5c0,0.7-0.1,1.2-0.9,1.3
		c0,0,0,0.1,0,0.2c1.5,0,3,0.1,4.5-0.1C92,28.8,92.7,27.9,92.9,26.9z M89,21.9c0-0.5,0-1,0-1.5c0-0.3,0.1-0.4,0.4-0.4
		c0.1,0,0.3,0,0.4,0.1c0.7,0.2,1.1,1.1,0.9,2.2c-0.1,0.8-0.6,1.4-1.4,1.4c-0.3,0-0.4,0-0.4-0.3C89,23,89,22.5,89,21.9z M90.4,28.3
		c-0.3,0.3-0.6,0.4-1,0.3C89,28.4,89,28,89,27.6c0-0.4,0-0.9,0-1.3c0-0.5,0-1.1,0-1.6c0-0.2,0-0.4,0.3-0.3c0.4,0,0.8,0.1,1.1,0.4
		C91.3,25.5,91.3,27.5,90.4,28.3z"/>
	<path class="st3" d="M45,31.9C45,31.9,45,31.9,45,31.9c-0.6,0.3-1,0.1-1.3-0.5c-0.1-0.1-0.1-0.3-0.1-0.4c-0.2-0.7-0.2-1.5-0.2-2.2
		c0-0.3,0-0.6-0.1-1c-1.1-2.5-1.4-5.2-1.1-7.9c0.1-1.1,0.3-2.1,0.6-3.2c-0.8,0.3-1.4,0.5-2.1,0.7c-0.4,0.1-0.5,0.3-0.5,0.7
		c-0.6,3.6-0.4,7.1,1.1,10.5c0.5,1.2,1.2,2.4,2.2,3.3c0.7,0.6,1.2,0.6,1.8,0.1C45.1,31.9,45.1,31.9,45,31.9C45,31.9,45,31.9,45,31.9
		z"/>
	<path class="st3" d="M91.5,9.8c0,2.5,0,5,0,7.4c0,0.4-0.2,0.7-0.7,0.8c-0.1,0-0.3,0-0.3,0.2c0,0,0.1,0.1,0.1,0.1c1.9,0,3.7,0,5.6,0
		c0.1,0,0.3,0,0.3-0.2c0.1-0.9,0.2-1.8,0.3-2.8c0,0-0.1,0-0.1,0c-0.1,0.3-0.2,0.6-0.3,0.8c-0.5,1.2-1.3,1.7-2.5,1.6
		c-0.4,0-0.7-0.2-0.7-0.7c0-1,0-2,0-3c0-0.3,0.2-0.4,0.4-0.3c0.5,0.1,0.7,0.6,0.8,1c0.2,0.4,0.1,0.8,0.3,1.2c0-1.8,0-3.4,0-5
		c-0.2,0.4-0.3,0.9-0.4,1.3c-0.1,0.4-0.3,0.7-0.8,0.8c-0.3,0.1-0.4,0-0.4-0.3c0-1.1,0-2.1,0-3.2c0-0.1,0-0.3,0.2-0.3
		c1.1-0.3,2.2,0.2,2.6,1.4c0.1,0.3,0,0.6,0.4,0.9c0-0.9,0-1.6,0-2.4c0-0.4-0.1-0.5-0.5-0.5c-1.3,0-2.6,0-4,0c-0.4,0-0.9,0-1.3,0
		c0,0.1-0.1,0.2-0.1,0.2C91,9,91.5,9.2,91.5,9.8z"/>
	<path class="st3" d="M79.7,37.7c-0.5,1.2-1.3,1.7-2.5,1.6c-0.4,0-0.7-0.2-0.7-0.6c0-1,0-2,0-3.1c0-0.3,0.2-0.4,0.4-0.3
		c0.5,0.1,0.7,0.6,0.8,1c0.2,0.4,0.1,0.8,0.3,1.2c0.1-0.8,0.1-4.5-0.1-5c-0.1,0.5-0.2,0.9-0.3,1.3c-0.1,0.4-0.3,0.8-0.8,0.9
		c-0.3,0.1-0.5,0.1-0.5-0.3c0-1,0-2.1,0-3.1c0-0.2,0-0.3,0.2-0.4c1.1-0.3,2.2,0.3,2.6,1.4c0.1,0.3,0.1,0.5,0.2,0.8
		c0.1,0,0.1,0,0.2,0c0-0.8,0-1.6,0-2.4c0-0.4-0.2-0.4-0.5-0.4c-1.7,0-3.3,0-5,0c-0.1,0-0.3-0.1-0.3,0.2c0.5,0.1,1,0.2,1,0.9
		c0,2.5,0,5,0,7.4c0,0.4-0.2,0.7-0.7,0.8c-0.1,0-0.3,0-0.3,0.2c0,0,0.1,0.1,0.1,0.1c1.9,0,3.7,0,5.6,0c0.2,0,0.3,0,0.3-0.2
		c0.1-0.9,0.2-1.8,0.3-2.8c-0.1,0-0.1,0-0.2,0C79.9,37.2,79.8,37.5,79.7,37.7z"/>
	<path class="st3" d="M88.5,39.5c-0.2-0.2-0.4-0.5-0.5-0.7c-0.7-1.4-1.4-2.8-2-4.1c-0.1-0.2-0.1-0.4,0-0.6c0.6-0.9,1.1-1.8,1.7-2.7
		c0.2-0.3,0.4-0.5,0.7-0.6c0.1,0,0.3,0,0.2-0.2c0-0.1-0.2-0.1-0.3-0.1c-0.6,0-1.3,0-1.9,0c-0.1,0-0.3,0-0.3,0.1
		c0,0.1,0.1,0.1,0.2,0.2c0.6,0.2,0.6,0.6,0.4,1c-0.3,0.7-0.7,1.4-1.2,2.2c-0.4-0.9-0.8-1.7-1.2-2.5c-0.2-0.4-0.1-0.6,0.4-0.7
		c0.1,0,0.3,0,0.2-0.2c0-0.1-0.2-0.1-0.3-0.1c-1,0-1.9,0-2.9,0c-0.1,0-0.2,0-0.2,0.1c0,0.1,0.1,0.2,0.2,0.2c0.3,0.1,0.5,0.4,0.6,0.7
		c0.5,1,0.9,2,1.5,3c0.6,0.9,0.6,1.7-0.1,2.5c-0.7,0.9-1,2.2-2.2,2.8c-0.1,0.1-0.1,0.2,0,0.2c0.8,0,1.6,0,2.5,0
		c-0.1-0.3-0.3-0.3-0.4-0.3c-0.4-0.2-0.6-0.5-0.4-0.9c0.4-0.9,0.9-1.7,1.5-2.6c0.4,0.8,0.7,1.5,1.1,2.2c0.4,0.9,0.4,0.9-0.3,1.5
		c0.1,0.2,0.3,0.1,0.5,0.1c0.8,0,1.5,0,2.3,0c0.2,0,0.4,0.1,0.5-0.1C89,39.6,88.7,39.6,88.5,39.5z"/>
	<path class="st3" d="M53.6,18.4c-0.6-1-1.1-2-0.8-3.2c-0.7,0.1-1.2,0.5-1.7,0.7c-0.3,0.1-0.4,0.3-0.4,0.6c0,1,0.1,1.9,0.6,2.7
		c0.1,0.2,0.3,0.4,0.3,0.7c-0.8-0.2-1.4,0.1-1.9,0.6c-0.7,0.6-1.4,1.3-2.2,1.9c-0.3,0.2-0.4,0.5-0.3,0.9c0.1,1,1,1.6,1.9,1.4
		c0.6-0.1,1.1-0.3,1.6-0.7c1.3-0.8,2.2-2,2.8-3.3C53.8,20,54.1,19.2,53.6,18.4z M50.7,22.9c-0.6,0.5-1.5,0.3-1.7-0.5
		c-0.1-0.4,0.1-0.7,0.5-0.9c0.3-0.1,0.6-0.2,0.9-0.1c0.4,0.2,0.7,0.1,1.1-0.3C51.4,21.9,51.2,22.5,50.7,22.9z"/>
	<path class="st3" d="M111.3,37.8c-0.4,1.1-1.1,1.6-2.4,1.6c-0.5,0-0.8-0.2-0.8-0.8c0-1,0-2,0-3c0-0.3,0.2-0.4,0.4-0.3
		c0.6,0.1,0.7,0.7,0.9,1.1c0.1,0.3,0,0.7,0.3,1.1c0-1.7,0-3.4,0-5c-0.2,0.4-0.3,0.9-0.4,1.3c-0.1,0.4-0.3,0.7-0.7,0.8
		c-0.3,0.1-0.5,0.1-0.5-0.3c0-1,0-2.1,0-3.1c0-0.1,0-0.3,0.2-0.4c0.8-0.4,2.2,0.2,2.5,1c0.1,0.4,0.2,0.8,0.3,1.2c0.1,0,0.1,0,0.2,0
		c0-0.8,0-1.5,0-2.3c0-0.4-0.1-0.5-0.5-0.5c-1.6,0-3.3,0-4.9,0c-0.1,0-0.3-0.1-0.4,0.1c1,0.6,1,0.6,1,1.9c0,1.1,0,2.3,0,3.4
		c0,0.9,0,1.9,0,2.8c0,0.6-0.1,1.1-0.9,1.1c0,0,0,0.1-0.1,0.1c0,0,0.1,0.1,0.1,0.1c1.9,0,3.7,0,5.6,0c0.1,0,0.3,0,0.3-0.2
		c0.1-0.9,0.2-1.9,0.3-2.8c-0.1,0-0.1,0-0.2,0C111.5,37.2,111.4,37.5,111.3,37.8z"/>
	<path class="st3" d="M94.1,30.5c-1.3-0.3-2.6-0.1-3.9-0.1c-0.1,0-0.2,0-0.2,0.2c0,0.1,0.1,0.1,0.2,0.1c0.7,0,0.7,0.5,0.7,1
		c0,0.9,0,1.9,0,2.8c0,1.4,0,2.7,0,4.1c0,0.6-0.1,1.1-0.9,1.1c0,0-0.1,0.1-0.1,0.2c1.2,0,2.3,0,3.5,0c0-0.1,0-0.1,0.1-0.2
		c-0.9-0.1-1-0.6-1-1.3c0-0.6,0-1.1,0-1.7c0-1,0-1,1-1.1c0.1,0,0.3,0,0.4-0.1c1.1-0.2,1.8-1.1,1.9-2.4
		C95.9,31.7,95.2,30.7,94.1,30.5z M93.9,34.2c-0.1,0.2-0.2,0.4-0.4,0.6C93.3,35,93,35.1,92.7,35c-0.3-0.1-0.1-0.4-0.1-0.6
		c0-0.5,0-0.9,0-1.4c0-0.6,0-1.1,0-1.7c0-0.4,0.2-0.5,0.5-0.4c0.4,0.1,0.7,0.4,0.9,0.8C94.2,32.5,94.2,33.4,93.9,34.2z"/>
	<path class="st3" d="M100.3,27.9c0.1-0.6,0.1-1.2,0.2-1.8c-0.2,0.3-0.3,0.6-0.5,0.9c-0.5,1.1-1.1,1.6-2.3,1.6
		c-0.7,0-0.9-0.2-0.9-0.9c0-0.9,0-1.7,0-2.6c0-0.2-0.1-0.5,0.1-0.5c0.2-0.1,0.5,0,0.7,0.2c0.3,0.3,0.4,0.6,0.5,1
		c0.1,0.3,0.1,0.6,0.2,0.9c0,0,0.1,0,0.1,0c0-1.6,0-3.2,0-4.9c-0.2,0.4-0.3,0.9-0.4,1.3c-0.1,0.4-0.4,0.7-0.8,0.8
		c-0.3,0.1-0.4,0-0.4-0.3c0-1.1,0-2.1,0-3.2c0-0.2,0-0.3,0.3-0.3c1.3-0.3,2.2,0.3,2.6,1.6c0.1,0.2,0,0.5,0.3,0.8c0-0.9,0-1.6,0-2.4
		c0-0.5-0.2-0.5-0.6-0.5c-1.6,0-3.2,0-4.8,0c-0.2,0-0.4-0.1-0.5,0.2c1.1,0,1,0.8,1,1.5c0,2,0,4,0,6c0,0.7,0.2,1.5-1.1,1.6
		c0.3,0.3,0.5,0.2,0.7,0.2c1.4,0,2.8,0,4.1,0C100.2,29.1,100.2,29.1,100.3,27.9z"/>
	<path class="st3" d="M7.5,15.9c0.1-0.4,0.1-0.7,0.3-1.1c0.5-1.5,1.2-1.9,2.8-1.7c0.2,0,0.4,0.1,0.7,0.1c1.8,0.3,3.3,1.1,5,1.8
		c0,0,0.1-0.1,0.1-0.1c-1.1-0.6-2-1.3-2.3-2.7c0-0.2-0.2-0.5-0.5-0.6c-1.6-0.9-3.6-0.5-4.9,0.9C8,13.2,7.6,14,7.4,14.9
		c-0.1,0.4-0.2,0.8-0.3,1.3c-0.4-0.5-0.7-0.9-1.1-1.3c-0.2-0.2-0.2-0.4-0.2-0.6c-0.1-1.7-1.6-3.1-3.3-3.1c-0.1,0-0.2,0-0.2,0.1
		c-0.7,0.5-1.4,1-2.2,1.6c3.2,0.3,5.3,2.2,7.5,4.3C7.4,16.7,7.4,16.3,7.5,15.9z"/>
	<path class="st3" d="M17.9,15.3c1.1,0.4,2.3,0.4,3.4,0.1c0.2-0.1,0.4-0.2,0.5-0.4c0.2-0.2,0.4-0.5,0.3-0.9
		c-0.1-0.3-0.5-0.3-0.8-0.3c-0.6,0-1.1-0.1-1.7-0.1c-0.3,0-0.5-0.2-0.2-0.5c0.6-0.5,1.3-0.9,2.1-0.6c0.6,0.2,1.2,0.5,1.7,0.9
		c1.4,1.2,2.5,2.7,3.8,3.9c-0.4-0.6-0.8-1.2-1.2-1.8c-0.3-0.4-0.4-0.8-0.3-1.3c0.1-0.8,0.2-1.6-0.5-2.2c-0.7-0.7-1.5-1.2-2.5-1.4
		c-0.7-0.2-1.4-0.1-2,0.4c-1,0.8-2,1.8-2.9,2.8C17.3,14.2,17.3,15.1,17.9,15.3z"/>
	<path class="st3" d="M115.6,33.4c-0.4-0.3-0.7-0.6-0.9-1.1c-0.2-0.6,0-1.3,0.5-1.5c0.5-0.3,1-0.2,1.5,0.2c0.6,0.5,0.9,1.1,1,1.9
		c0,0.1,0,0.3,0.2,0.4c0-1,0-2,0-3.1c-0.3,0.8-0.7,0.5-1.1,0.2c-1.1-0.6-2.1-0.4-2.8,0.7c-0.8,1.2-0.6,2.9,0.5,4
		c0.5,0.5,1.1,0.9,1.7,1.3c0.4,0.3,0.8,0.6,1,1.1c0.2,0.7,0,1.5-0.5,1.8c-0.5,0.3-1.2,0.2-1.7-0.3c-0.6-0.5-0.8-1.2-1-1.9
		c-0.1-0.2,0-0.5-0.3-0.7c0,1.2,0,2.4,0,3.5c0.4-0.7,0.8-0.5,1.4-0.2c1.1,0.6,2.2,0.3,2.9-0.8c0.9-1.3,0.7-3.1-0.4-4.2
		C116.9,34.3,116.2,33.9,115.6,33.4z"/>
	<path class="st3" d="M124,34.8c-0.5-0.5-1.1-0.9-1.7-1.3c-0.4-0.3-0.7-0.5-0.9-0.9c-0.3-0.6-0.1-1.4,0.4-1.7
		c0.4-0.3,1.1-0.2,1.6,0.2c0.4,0.4,0.7,0.9,0.9,1.5c0.1,0.2,0,0.5,0.3,0.8c0-1.1,0-2.1,0-3.1c-0.2,0.7-0.6,0.6-1.1,0.3
		c-1.2-0.7-2.4-0.4-3,0.9c-0.6,1.2-0.4,2.8,0.6,3.8c0.5,0.5,1.1,0.9,1.7,1.3c0.4,0.3,0.7,0.6,0.9,1.1c0.3,0.7,0.1,1.5-0.5,1.9
		c-0.5,0.3-1.2,0.2-1.8-0.3c-0.5-0.5-0.8-1.1-1-1.8c-0.1-0.2-0.1-0.5-0.3-0.8c0,1.3,0,2.4,0,3.6c0.4-0.6,0.8-0.5,1.3-0.3
		c1.2,0.7,2.4,0.3,3.1-0.9C125.3,37.5,125.1,35.9,124,34.8z"/>
	<path class="st3" d="M30.9,17.2c-0.6,0.2-1.3,0.4-1.9,0.6c-0.4,0.1-0.5,0.3-0.6,0.7C28.1,19.3,28,20.1,28,21c0,0.4,0.1,0.8,0.1,1.2
		c0.2,1.9,0.9,3.7,1.7,5.4c0.1,0.2,0.1,0.5,0.4,0.4c0.4-0.1,0.3-0.4,0.2-0.7c-0.3-0.8-0.2-1.6,0.4-2.3c0.2-0.3,0.4-0.6,0.3-1
		c-0.5-2-0.6-4.1,0-6.1c0-0.2,0.1-0.3,0.1-0.5C31.3,17.2,31.1,17.1,30.9,17.2z"/>
	<path class="st3" d="M46.8,16.8c-0.8,0.2-1.5,0.5-2.2,0.7c-0.3,0.1-0.5,0.3-0.6,0.7c-1,3.4,0.2,6.4,1.5,9.4
		c0.1,0.1,0.1,0.2,0.3,0.2c0.1,0,0.2-0.1,0.2-0.2c0-0.2,0-0.3,0-0.5c-0.3-0.8-0.1-1.6,0.4-2.3c0.3-0.4,0.3-0.9,0.2-1.4
		c-0.4-1.5-0.5-3.1-0.2-4.6C46.5,18.1,46.8,17.5,46.8,16.8z"/>
	<path class="st3" d="M16.3,28.1c0.4-0.1,0.3-0.4,0.2-0.7c-0.3-0.9-0.1-1.6,0.4-2.4c0.3-0.4,0.3-0.8,0.2-1.3c-0.4-1.5-0.5-3-0.2-4.6
		c0.1-0.7,0.4-1.3,0.4-2.1c-0.8,0.3-1.6,0.5-2.4,0.8c-0.2,0.1-0.3,0.2-0.4,0.4c-0.2,0.7-0.4,1.4-0.4,2.2C14,23,15,25.3,15.9,27.6
		C16,27.8,16,28.1,16.3,28.1z"/>
	<path class="st3" d="M55.6,20.5c-0.8,0-2.3,1-2.5,1.7c-0.1,0.2,0,0.3,0.2,0.3c0.2,0.1,0.4,0,0.5-0.1c1.2-0.3,2.8,0.8,3,2
		c0.1,0.6-0.1,0.8-0.7,0.7c-1.1-0.3-2.3-0.4-2.7-1.8c-0.1-0.3-0.5-0.5-0.9-0.4c-0.4,0.1-0.2,0.5-0.1,0.8c0.2,0.7,0.5,1.5,1,2.1
		c0.8,1.1,2,1.4,3,0.7c0.9-0.7,1.6-1.5,2.2-2.4c0.3-0.4,0.3-0.9,0.2-1.4C58.2,21.6,56.7,20.5,55.6,20.5z"/>
	<path class="st3" d="M74.6,10.1c0.2-0.5,0.6-0.7,1.2-0.7c0.4,0,0.6,0.1,0.6,0.5c0,2.2,0,4.4,0,6.6c0,0.7,0.2,1.6-0.9,1.8
		c1.2,0,2.4,0,3.7,0C78,17.7,78,17.7,78,16.5c0-2.1,0-4.2,0-6.3c0-0.3-0.1-0.6,0.1-0.7c0.4-0.1,0.8-0.1,1.2,0.2
		c0.3,0.2,0.5,0.6,0.6,0.9c0.1,0.3,0.2,0.5,0.2,0.8c0.1,0,0.1,0,0.2,0c0-0.7,0-1.5,0-2.2c0-0.3-0.2-0.3-0.4-0.3c-1.8,0-3.7,0-5.5,0
		c-0.2,0-0.4,0-0.4,0.2c0,0.8,0,1.5,0,2.3C74.3,10.9,74.4,10.5,74.6,10.1z"/>
	<path class="st3" d="M102.1,22.1c0.1,0,0.1,0,0.2,0c0.1-0.4,0.2-0.8,0.3-1.2c0.3-0.6,0.7-0.8,1.3-0.8c0.3,0,0.4,0.1,0.4,0.4
		c0,2.5,0,5,0,7.6c0,0.5-0.2,0.8-0.7,0.8c-0.1,0-0.2,0-0.2,0.2c1.2,0,2.4,0,3.8,0c-1.1-0.5-1.1-0.5-1.1-1.6c0-2.2,0-4.3,0-6.5
		c0-0.3-0.2-0.7,0.1-0.8c0.4-0.1,0.8-0.1,1.2,0.2c0.4,0.3,0.5,0.7,0.6,1.1c0.1,0.2,0,0.5,0.3,0.8c0-0.9,0-1.6,0-2.4
		c0-0.2-0.2-0.2-0.3-0.2c-1.9,0-3.7,0-5.6,0c-0.2,0-0.3,0.1-0.3,0.3C102.1,20.6,102.1,21.3,102.1,22.1z"/>
	<path class="st3" d="M79.9,19.6c-1.9,0-3.7,0-5.6,0c-0.2,0-0.3,0-0.3,0.2c0,0.8,0,1.5,0,2.3c0.3-0.4,0.4-0.7,0.5-1.1
		c0.2-0.5,0.6-0.8,1.1-0.9c0.5-0.1,0.7,0,0.7,0.6c0,2.2,0,4.4,0,6.6c0,0.7,0.2,1.6-1,1.7c1.3,0.1,2.5,0.1,3.7,0
		c-0.5-0.1-1-0.3-1-0.9c0-2.5,0-5.1,0-7.6c0-0.3,0.1-0.3,0.4-0.4c0.7,0,1.2,0.2,1.4,0.9c0.1,0.3,0.2,0.7,0.3,1.1c0.1,0,0.1,0,0.2,0
		c0-0.7,0-1.4,0-2.1C80.3,19.7,80.2,19.6,79.9,19.6z"/>
	<path class="st3" d="M69.8,26.7c-0.4-0.6-0.9-1.2-0.5-1.9c0.5-0.8,0.3-1.4,0-2.1c-0.2-0.4-0.3-0.8-0.3-1.2c-0.3-1.5-0.4-3-0.1-4.8
		c0-0.2-0.2-0.3-0.5-0.1c-0.6,0.4-1.2,0.8-1.8,1.1c-0.3,0.2-0.3,0.4-0.3,0.6c0,1.3,0.1,2.7,0.4,4c0.5,1.8,1.2,3.4,2.7,4.6
		c0.2,0.1,0.4,0.4,0.6,0.2C70.3,27,70,26.9,69.8,26.7z"/>
	<path class="st3" d="M85.4,19.8c-0.1-0.1-0.1-0.1-0.2-0.2c-1.2,0-2.4,0-3.5,0c0.9,0.4,0.9,0.4,0.9,1.6c0,2.1,0,4.1,0,6.2
		c0,0.7,0.2,1.6-1,1.7c1.3,0.1,2.4,0.2,3.6,0c-0.9-0.4-0.9-0.4-0.9-1.4c0-2.1,0-4.2,0-6.3C84.3,20.6,84.1,19.8,85.4,19.8z"/>
	<path class="st3" d="M49.1,12.2c1.7,0.3,3.2,0.9,4.4,2.1c0.6,0.6,1.2,1.3,1.9,1.9c0.3,0.3,0.6,0.6,1.1,0.9c0-0.3-0.2-0.5-0.4-0.6
		c-0.7-0.8-1.4-1.7-2.1-2.5c-0.3-0.3-0.5-0.7-0.6-1.1c0-1.3-0.7-2.1-2-2.4c-0.1,0-0.2-0.1-0.4-0.1c-2.2-0.7-3-0.5-4.5,1.3
		C46.4,12,46,12.4,45.8,13C46.9,12.3,48,12,49.1,12.2z"/>
	<path class="st3" d="M16.1,15c0.3,0.2,0.6,0.3,1,0.3c-0.3-0.2-0.6-0.3-0.9-0.5C16.3,15,16.3,15.1,16.1,15z"/>
	<path class="st3" d="M45,31.9c0.1-0.1,0.2,0,0.2,0.1c0.4-0.2,0.4-0.5,0.4-0.9C45.3,31.4,45.2,31.6,45,31.9z"/>
</g>
<g>
	<path class="st4" d="M32,22.3c-0.6-3.5,1.2-6.7,4.4-7.9c3.2-1.2,6.5-1.1,9.8-0.4c0.2,0,0.3,0.2,0.5,0.2c2.6-1,1.7,0.9,1.5,2
		c-0.6,3.4-0.3,6.9-0.7,10.4c-0.2,1.5-0.5,2.7-1.4,3.9c-1.9,2.4-4.2,4.5-6.6,6.4c-0.4,0.3-1.1,0.5-0.7,1.2c0.6,1,1,2.1,2.1,2.6
		c0.7,0.3,1-0.5,1.4-1c1.7-2.2,3.5-4.4,5.2-6.5c0.4-0.5,0.8-1.5,1.5-1c0.8,0.5,1.1,1.6,0.6,2.4c-2.3,3.8-4.7,7.7-7.7,11.1
		c-0.8,0.9-1.8,0.8-2.7-0.1c-1.7-1.9-3.4-3.8-5.1-5.7c-0.6-0.6-1.2-1.1-2.1-1.4c-1.3-0.4-1.5-1.6-0.6-2.7c0.3-0.4,0.7-0.6,0.9-1
		c0.8-1.2,1.6-1,2.5-0.2c1.2,1.1,2.1,1.1,3.5-0.1c2-1.8,4.2-3.3,5.3-5.8c0.7-1.7,0.5-3.4,0.5-5.1c0-1.4,0-2.9,0-4.3
		c0-0.9-0.3-1.5-1.3-1.5c-0.9,0-1.4,0.5-1.5,1.3c-0.1,1-0.1,1.9-0.1,2.9c0.1,2.6-0.7,4.6-3.4,5.6c-1.6,0.6-2.9,1.7-4.4,2.5
		c-0.3,0.2-0.7,0.5-1.1,0.2c-0.4-0.3-0.1-0.7,0-1.1c0.2-2,2-2.7,3.3-3.6c2.1-1.5,3.2-4.1,2.5-6.5c-0.1-0.5,0-1.3-0.9-1.5
		c-0.9-0.2-1.4,0.4-1.9,0.9c-0.6,0.6-1.1,1.3-1.6,2C33.2,21,32.7,21.6,32,22.3z"/>
	<path class="st4" d="M29.4,5.7c-2.3,2.4-5.2,3.6-8.4,3.1c-1.8-0.3-3.7-0.4-5.5-0.8c-0.7-0.2-1.4,0.2-1.8,0.9
		c-0.7,1.5-0.6,3.3-1.8,4.5c-0.2,0.2,0,0.3,0.1,0.4c0.9,1.3,2.6,1.8,4.2,1.3c0.5-0.1,1-0.5,1.5,0c0.5,0.5,0.1,1,0,1.4
		c-0.7,3.2-1.1,6.5-0.6,9.8c0.2,1.5,0.6,3.4-1.6,4.1c-0.7,0.3-1.1,0.4-1.8-0.2c-1.3-1.1-3-0.8-4.5-1.4c-0.6-0.2-1.2-0.3-1.8-0.4
		c-2.6-0.4-2.6-0.4-2.6-2.9c0-1.9,0.2-3.8,0-5.7c-0.2-2.1,0.9-3.3,2.5-4.3c1.2-0.8,2.5-1.4,3.7-2.1C9.3,10.5,7,8.2,3.6,7.1
		C3,6.9,2.5,6.5,1.9,6.2C1.5,6.1,1.2,5.8,1.2,5.4c0.1-1.4,1.2-2.1,2.2-2.8C4.1,2,4.8,2.1,5.5,2.8C7.2,4.3,9,5.8,10.7,7.4
		c0.6,0.6,1,0.6,1.7,0.1c5.7-4.4,4.1-3.6,11-2.3c1.4,0.3,2.9,0.1,4.3,0.2C28.2,5.4,28.8,5.2,29.4,5.7z M13.5,25.6
		c-0.4-1.4-0.3-2.6-0.3-3.8c0-2.9-0.6-3.5-3.5-3.3c-0.3,0-0.7,0-0.8,0.4c-0.5,1.8-0.4,3.6,0.1,5.3c0.3,1.1,1.6,0.3,2.4,0.6
		C12,25.2,12.6,25.3,13.5,25.6z"/>
	<path class="st4" d="M63.2,13.6c-0.5,2.6-0.9,4.7-1.5,6.9c-0.6,2.4,0,4.5,1,6.6c1.1,2.2,2.3,4.4,2.8,6.9c0.6,3.5-2.1,9.9-4.8,11.6
		c-1.5,0.9-3.7,0.9-4.7-0.4c-1.4-1.8-3.2-3.3-4.7-4.9c-1-1.1-1.2-3.8-0.2-4.9c0.8-0.9,1.3,0.2,1.5,0.6c1.3,1.9,3,3.5,4.7,5.2
		c1.6,1.6,1.9,1.6,3.3-0.2c2.8-3.4,2.6-7.7-0.6-10.7c-3.4-3.1-3.7-9.8-2.2-13.1c0.6-1.2,2-1.6,3.1-2.3
		C61.6,14.5,62.2,14.2,63.2,13.6z"/>
	<path class="st4" d="M85.9,22.6c0-0.9,0.1-1.7,0-2.6c-0.4-2.1,0.7-3.4,2.3-4.5c0.6-0.4,1.1-0.8,1.7-1.1c2.6-1.5,2.6-1.6,5,0.4
		c1.1,0.9,2.1,0.4,3.1,0c1-0.4,1.4,0,1.1,0.9c-1.6,4.1-0.6,8.4-0.6,12.5c0,1.3-0.9,1.6-1.7,2c-0.7,0.4-1.4,0.7-2-0.3
		c-0.1-0.2-0.6-0.3-0.9-0.4c-2.2-0.5-4.4-0.9-6.7-1.3c-1-0.2-1.4-0.6-1.3-1.6C85.9,25.3,85.9,24,85.9,22.6z M94.6,22.5
		C94.6,22.5,94.6,22.5,94.6,22.5c0-0.6,0-1.3,0-1.9c0-1.2-0.5-2-1.8-2c-0.6,0-1.1-0.1-1.7-0.3c-0.5-0.1-0.9,0-1,0.4
		c-0.4,1.7-0.4,3.4,0,5.1c0.3,1.3,1.6,0.7,2.5,1c0.6,0.2,1.1,1,1.7,0.5c0.5-0.4,0.2-1.3,0.2-2C94.6,23,94.6,22.7,94.6,22.5z"/>
	<path class="st4" d="M100.3,20.9c-0.9-3.2,0.8-4.5,2.6-5.7c0.7-0.4,1.4-0.8,2.1-1.2c1.1-0.7,2.3-0.7,3.2,0.1
		c1.2,1.2,2.5,1.3,3.9,0.9c0.9-0.2,1.4,0,1.1,1c-1.1,3.8-1,7.6-0.6,11.5c0.2,1.6-0.8,2.7-2.5,3c-0.2,0-0.5,0.1-0.6,0
		c-2.1-2-4.9-1.5-7.4-2.1c-1.3-0.3-2-0.5-1.9-2.1C100.4,24.3,100.3,22.3,100.3,20.9z M108.8,22.5C108.8,22.5,108.8,22.5,108.8,22.5
		c0.1-0.3,0.1-0.7,0.1-1c0-2.4-0.5-2.9-3.4-3c-2.1-0.1-1,1.7-1.2,2.5c-0.5,2.2,0.4,3.6,2.3,3.7c0.8,0,1.5,1.3,2.2,0.4
		C109.1,24.4,108.8,23.4,108.8,22.5z"/>
	<path class="st4" d="M64.4,21.2c0.1-1.5,0.2-2.9,0.2-4.2c0-1.3,1.1-1.5,1.9-2c0.8-0.4,1.6-1.7,2.4-1.1c0.7,0.5,0.1,1.8,0,2.7
		c-0.2,1.3-0.2,2.7-0.3,4.1c-0.2,2.7,0.8,3.8,3.5,4c0.9,0.1,0.8-0.5,0.7-1c0-1.3-0.1-2.6-0.2-3.9c-0.2-2.6,0.8-4.5,3.3-5.4
		c0.5-0.2,1-0.9,1.5-0.7c0.6,0.4,0.1,1.1,0.2,1.7c0,3.9-1.2,7.9-0.1,11.8c0.3,1.3-0.7,1.6-1.5,2.2c-1.2,0.8-2.2,1.5-3.6-0.1
		c-1.5-1.8-3.9-2.3-6.2-2.5c-1.3-0.1-1.7-0.6-1.6-1.8C64.7,23.7,64.5,22.4,64.4,21.2z"/>
	<path class="st4" d="M24,16.5c-0.5,3-1.2,6.1-0.2,9.1c1.3,4.1-0.2,8.1-0.2,12.1c0,2.5-0.6,4.8-1.5,7.1c-0.2,0.5-0.5,1.3-1.1,1.2
		c-0.8-0.1-0.4-1-0.4-1.4c0.1-2.8,0.2-5.6,0.1-8.5c-0.2-3.9-1.4-7.6-2-11.4c-0.4-2.3,0-4.7,0.6-6.9c0.4-1.3,2.2-2,3.5-2.8
		c0.1-0.1,0.3-0.2,0.4-0.3c0,0,0,0,0,0c0.1-0.1,0.2-0.2,0.4-0.3c0,0,0.1,0,0.1,0C24.8,15,23.6,15.8,24,16.5z"/>
	<path class="st4" d="M49.9,11.6c0.1,0,0.2,0,0.3,0.1c0,0.4,0.3,0.6,0.7,0.6l0,0c-0.2,1-0.8,0.6-1.4,0.4c-1.2-0.4-2-1.6-3.5-1.3
		c-2.4-1.3-4.5-3.1-6.7-4.7c-1.5-1.1-2.9-1.3-4.6-0.5c-0.6,0.3-1.1,0.6-1.1,1.4c0,0.8,0.5,1.3,1.3,1.3c1.6,0.1,2.8,0.9,3.8,2
		c0.7,0.7,0.7,1.3-0.4,1.4c-2.3,0.2-4.6,0.6-6.7-1c-2.2-1.7-2.2-5,0.2-6.4C33.6,3.8,35.5,3,37.4,2c1.9-0.9,3,0.6,4.2,1.4
		c1.1,0.8,2,1.9,2.8,2.9c1.4,1.9,3.3,3.2,5,4.8C49.5,11.5,49.6,11.6,49.9,11.6z"/>
	<path class="st4" d="M25.5,22.1c-0.2-1.3,0.8-2.5-0.1-3.8c-0.1-0.1,0.3-0.4,0.5-0.6c1.1-1.2,2.3-2.3,3.5-3.5
		c0.2-0.2,0.4-0.6,0.8-0.4c0.4,0.2,0.2,0.6,0.1,0.9c-0.2,2.1-0.8,4.1-0.7,6.2c0,2.2-0.6,4.6,1.9,6c0.4,0.2,0.1,0.6-0.1,0.9
		c-0.4,0.5-0.7,1-1,1.6c-1,1.6-1.7,1.6-2.9,0.2c-0.4-0.5-0.8-1.1-1-1.8C25.9,25.9,25.6,24.1,25.5,22.1z"/>
	<path class="st4" d="M54.9,14c-0.4,2.4-0.8,4.9-0.9,7.4c-0.1,2.2-0.4,4.3,1.7,5.8c0.4,0.3,0.3,0.5,0.1,0.9c-0.3,0.5-0.6,1-0.9,1.4
		c-1.3,1.9-2.3,1.9-3.6-0.2c-0.9-1.5-1-3.3-1.3-5.1c-0.3-1.9,0.5-3.8-0.2-5.7c-0.1-0.4,0.3-0.7,0.6-1c1.3-1.2,2.7-2.4,4-3.7
		C54.7,13.9,54.8,13.9,54.9,14z"/>
	<path class="st4" d="M119.5,14.7c-0.8,3.2-0.9,6.5-0.5,9.9c0.1,0.6,0.4,1.1,0.5,1.6c0.2,0.6,1.3,0.7,0.9,1.5
		c-0.4,0.9-1,1.8-1.6,2.6c-0.4,0.7-0.9,0.2-1.3-0.1c-1.9-1.5-2.5-3.7-2.4-5.9c0.1-1.9,0.2-3.8-0.6-5.6c-0.2-0.5,0.1-0.6,0.3-0.8
		c1.3-1.3,2.6-2.6,3.9-3.9c0.2-0.2,0.4-0.5,0.7-0.3C119.7,13.9,119.5,14.3,119.5,14.7z"/>
	<path class="st4" d="M84.1,13.8c-0.5,3.8-1.4,7.3-0.9,11c0.1,0.7,0.2,1.4,0.7,1.9c1,1.1,0.9,2.2-0.7,3.6c-1.2,1-2-0.2-2.4-0.9
		c-1.6-2.3-1.7-4.9-1.5-7.6c0.1-1,0.7-2.1-0.2-3.1c-0.2-0.2,0-0.5,0.2-0.7C80.7,16.4,82.1,14.9,84.1,13.8z"/>
	<path class="st5" d="M118.2,39.8c1.1,1.6,0.9,2.4-0.9,3.9c0.1,0.1,0.1,0.2,0.2,0.2c0.6,0.2,1.9-0.3,1.9,0.5c0,1.1-1.3,0.6-2,0.6
		c-16.2,0-32.5,0-48.7,0c-0.7,0-2,0.4-2-0.5c0-0.8,1.2-0.4,1.9-0.4c14.7,0,29.4-0.1,44.1,0c1.9,0,3.2-1.2,4.8-1.7
		C118.6,41.9,118.7,41.8,118.2,39.8z M105.6,44.4c0,0.1,0,0.1,0,0.2c2.3,0,4.5,0,6.8,0c0-0.1,0-0.1,0-0.2
		C110.1,44.4,107.8,44.4,105.6,44.4z"/>
	<path class="st5" d="M73.4,36.8c-0.4-0.2-1.1,0.5-1.4-0.4c-0.3-0.9-1.2-0.7-1.9-0.6c-0.4-1-0.9-1-1.4-0.1c-0.7,0.1-1.3,0.2-2,0.3
		c0.1-0.2,0-0.3-0.2-0.3c0,0,0,0,0,0c0-0.2,0-0.4,0-0.5c1.5-0.7,3.1-0.4,4.7-0.3c7.2,0.3,14.4,0.1,21.6,0.1c6.1,0.1,12.1,0,18.2,0
		c0.7,0,1.4-0.2,2.1,0.3c-0.6,0.7-1.3,0.4-1.9,0.4c-12.5,0-24.9,0-37.4,0c-0.3,0-0.9-0.4-0.9,0.3c0,0.2,0.4,0.5,0.6,0.7L73.4,36.8z"
		/>
	<path class="st5" d="M73.5,36.7c1.8-0.4,3.6-0.5,5.4-0.3c1.5,0.1,2.2,1.3,1.7,2.6c-0.2,0.5-0.2,0.8,0.1,1.3c0.9,1.4,0.3,2.7-1.3,3
		c-2.1,0.4-4.2,0.2-6.3,0.2c0.8-2.3,0.4-4.5,0.4-6.7C73.4,36.8,73.5,36.7,73.5,36.7z M76.2,40.1C76.2,40.1,76.2,40.1,76.2,40.1
		c0-0.7,0-1.5,0-2.2c0-0.5-0.1-0.9-0.7-0.9c-0.5,0-0.7,0.3-0.7,0.8c0,1.5,0,3,0,4.4c0,0.4,0.2,0.8,0.7,0.7c0.5,0,0.7-0.3,0.7-0.8
		C76.2,41.5,76.2,40.8,76.2,40.1z M77.4,41.5c0,0.6-0.2,1.4,0.9,1.3c0.8-0.1,1.4-0.3,1.4-1.3c0-0.9-0.6-1.3-1.4-1.4
		C77.1,40.1,77.5,41,77.4,41.5z M77.4,38.2c0,0.7-0.1,1.4,0.9,1.3c0.7-0.1,1.2-0.4,1.2-1.1c0-0.8-0.5-1.2-1.3-1.3
		C77.3,36.9,77.4,37.6,77.4,38.2z"/>
	<path class="st5" d="M97.9,36.8c-0.6-0.2-0.6,1-1.4,0.4c-0.9-0.6-1.2,0-1.2,0.9c0,1.5,0,3,0.1,4.4c0,0.5,0.1,0.8-0.4,1
		c-0.4,0.2-0.8,0.2-1.1-0.1C93.2,43,94,42.9,94,42.6c0-1.7,0.1-3.3,0-5c-0.1-0.9-0.9-0.7-1.2-0.3c-0.6,0.7-1,1.2-1.6,0
		c-0.2-0.3-0.6-0.3-0.9-0.2c-0.5,0.1-0.4,0.5-0.4,0.8c0,1.5,0,3,0,4.4c0,0.7-0.1,1.3-1,1.2c-1-0.1-0.4-0.7-0.4-1.2
		c0-2,0.3-3.9-0.3-6c3.3,0,6.4,0,9.6,0C97.9,36.6,97.9,36.7,97.9,36.8z"/>
	<path class="st4" d="M118.2,39.8c0.5,2,0.4,2.1-0.7,2.5c0.1-1.1-0.5-1.7-1.3-2.2c-0.7-0.4-1.3-0.9-1.9-1.4
		c-0.6-0.6-0.8-1.5-0.5-2.2c0.3-0.6,0.8-1.4,1.8-1.2c-0.7-0.2-1.1-0.2-0.9,0.8c0.1,1,0.8,1.6,1.5,2.1
		C116.9,38.7,117.8,39,118.2,39.8z"/>
	<path class="st5" d="M107.4,43c0.9,0.1,1.5-0.2,1.3-1.2c-0.2-1.7,0.3-3.3-0.3-5c-0.3-0.8,0.5-0.3,0.8-0.4c0,1.9,0,3.7,0,5.6
		c0,0.5-0.1,1.2,0.7,1.3c0.8-0.1,1.6-0.1,2.5-0.2c0,0.1,0,0.2,0,0.3c-2.2,0-4.5,0-6.8,0c0.6-1.3,0.3-2.7,0.4-4.2
		c-0.7-0.1-0.4,1-1.2,0.8c0.1-1,0.4-1.8,1-2.6c0.6,0.4,0.7,1,0.7,1.6c0,1.1,0,2.1,0,3.2C106.5,42.8,106.5,43.5,107.4,43z"/>
	<path class="st5" d="M83.1,37.4c0.4,0.6-0.3,1.6,0.7,1.9c0.6,0.2,1.2,0.1,1.6-1c0.4,1.1,0.4,1.8,0.1,2.7c-0.6-0.7-1.3-1.3-2-0.6
		c-0.5,0.6-0.5,1.5,0,2.2c0.5,0.6,1.9,0.2,2.8-0.8c0.1,1.3,0,1.7-1.2,1.8c-0.7,0.1-1.4,0-2,0C83.1,41.5,83.1,39.5,83.1,37.4z"/>
	<path class="st4" d="M97.9,36.8c0-0.1,0-0.3,0.1-0.4c1.1-0.2,1.7-0.3,1.4,1.3c-0.2,1.7-0.4,3.5,0.2,5.2c-0.7,0.5-1.2,0.1-1.6-0.4
		c-0.1-1.3-0.2-2.5,0.2-3.8C98.3,38.1,98.4,37.4,97.9,36.8z"/>
	<path class="st5" d="M98,42.6c0.4,0.5,0.9,1,1.6,0.4c0.9,0.2,1.4-0.2,1.3-1.2c0-1.6,0-3.1,0-4.7c1.3,0.1,1,1.2,1.2,1.9l-0.1,0.1
		c-0.8,1.4-0.4,2.8,0.1,4.4c-1.4,0-2.6,0-3.9,0C96.9,43.6,97.9,42.9,98,42.6z"/>
	<path class="st4" d="M68.7,35.7c0.5-0.9,1-0.9,1.4,0.1c0.2,2.5-0.4,5,0.4,7.5c-0.6,0-1.3,0.5-1.9-0.4c0.9-1,1-6.2,0.2-7.2
		C68.8,35.7,68.8,35.7,68.7,35.7L68.7,35.7z"/>
	<path class="st4" d="M107.4,43c-0.9,0.4-0.9-0.2-0.9-0.8c0-1.1,0-2.1,0-3.2c0-0.6,0-1.2-0.7-1.6c0-0.7,0.3-1.1,1-1
		c0.7,0.1,0.3,0.7,0.4,1.1C107.3,39.3,106.9,41.2,107.4,43z"/>
	<path class="st5" d="M102.7,38.4c0.8,0.8,0.5,2.2,1.7,2.8c0.4,0.2,0.2,1.6-0.5,1.9c-0.6,0.3-0.7-0.5-0.8-1c-0.3-1-1-1.9-1.1-3
		c0,0,0.1-0.1,0.1-0.1C102.6,39.1,102.7,38.8,102.7,38.4z"/>
	<path class="st4" d="M83.1,37.4c0,2.1,0,4.1,0,6.2c-0.2,0-0.5,0-0.7,0c0-2.4,0-4.8,0-7.1c0.2,0,0.4,0,0.7,0c0,0.3,0,0.5,0.1,0.8
		C83.2,37.2,83.2,37.3,83.1,37.4z"/>
	<path class="st5" d="M68.7,35.7c0.1,0,0.1,0,0.2,0c0.9,1,0.7,6.1-0.2,7.2C68.9,40.5,68.9,38.1,68.7,35.7z"/>
	<path class="st4" d="M110,43.2c-0.8-0.1-0.7-0.7-0.7-1.3c0-1.9,0-3.7,0-5.6c0.2,0,0.4,0,0.7,0c0,0.2,0,0.4,0,0.7c0,0.7,0,1.5,0,2.2
		c0,0.3,0,0.6,0,0.9C109.9,41.2,109.9,42.2,110,43.2z"/>
	<path class="st5" d="M46,11.4c1.4-0.3,2.3,0.9,3.5,1.3c0.6,0.2,1.2,0.6,1.4-0.4c0.5,0.1,1,0.3,0.8,0.9c-0.1,0.5-0.7,0.4-1.1,0.3
		C48.8,13.2,47.4,12.4,46,11.4z"/>
	<path class="st5" d="M109.9,40.2c0-0.3,0-0.6,0-0.9c0.9,0.2,1.7,0.2,2.3-0.8c0.2,1,0.3,1.7,0,2.6C111.6,40,110.8,40,109.9,40.2z"/>
	<path class="st5" d="M82.5,36.4c0,2.4,0,4.8,0,7.1c-0.4,0-1.1,0.2-0.9-0.5c0.9-2.1,0.8-4.2,0.1-6.3c-0.1-0.2,0-0.3,0.1-0.4
		C82,36.3,82.2,36.4,82.5,36.4z"/>
	<path class="st5" d="M109.9,37.1c0-0.2,0-0.4,0-0.7c0.6,0,1.1,0,1.7-0.1c1.1-0.1,1.5,0.3,1.2,1.3C112,36.8,110.9,37,109.9,37.1z"/>
	<path class="st4" d="M102.7,38.4c-0.1,0.4-0.1,0.7-0.6,0.7c-0.2-0.8,0-1.8-1.2-1.9c-0.3-0.3-0.4-0.6,0.1-0.7c0.5-0.1,1-0.2,1.3,0.4
		C102.4,37.3,102.6,37.9,102.7,38.4z"/>
	<path class="st5" d="M83.2,37.2c0-0.3,0-0.5-0.1-0.8c0.7,0,1.5-0.1,2.2-0.1c0.4,0,0.7,0.2,0.6,0.6c-0.1,0.7-0.5,0.2-0.7,0.1
		C84.5,37,83.8,37,83.2,37.2z"/>
	<path class="st5" d="M24,16.5c-0.4-0.6,0.8-1.5-0.3-2c0.2-0.2,0.3-0.7,0.7-0.6c0.4,0.1,0.2,0.5,0.2,0.7
		C24.6,15.3,24.5,15.9,24,16.5z"/>
	<path class="st5" d="M50.8,12.4c-0.4,0-0.7-0.2-0.7-0.6C50.5,11.8,50.7,12,50.8,12.4z"/>
	<path class="st5" d="M23.3,14.8c-0.1,0.1-0.3,0.2-0.4,0.3C23,15,23.2,14.9,23.3,14.8z"/>
	<path class="st5" d="M23.7,14.5c-0.1,0.1-0.2,0.2-0.4,0.3C23.3,14.6,23.5,14.5,23.7,14.5z"/>
	<path class="st5" d="M49.9,11.6c-0.2,0-0.4-0.1-0.4-0.4C49.6,11.4,49.7,11.5,49.9,11.6z"/>
	<path class="st4" d="M66.6,35.2c0,0.2,0,0.4,0,0.5C66.2,35.6,66.3,35.4,66.6,35.2z"/>
	<path class="st4" d="M66.6,35.7c0.2,0,0.3,0.1,0.2,0.3C66.6,35.9,66.6,35.8,66.6,35.7z"/>
	<path class="st4" d="M105.6,44.4c2.3,0,4.5,0,6.8,0c0,0.1,0,0.1,0,0.2c-2.3,0-4.5,0-6.8,0C105.6,44.5,105.6,44.4,105.6,44.4z"/>
</g>
</svg>
