<?xml version="1.0" encoding="utf-8"?>
<!-- Generator: Adobe Illustrator 28.3.0, SVG Export Plug-In . SVG Version: 6.00 Build 0)  -->
<svg version="1.1" id="Layer_1" xmlns="http://www.w3.org/2000/svg" xmlns:xlink="http://www.w3.org/1999/xlink" x="0px" y="0px"
	 viewBox="0 0 141.2 61.2" style="enable-background:new 0 0 141.2 61.2;" xml:space="preserve">
<style type="text/css">
	.st0{display:none;}
	.st1{display:inline;fill-rule:evenodd;clip-rule:evenodd;fill:#FF9900;}
	.st2{display:inline;fill-rule:evenodd;clip-rule:evenodd;}
	.st3{display:inline;fill:#0693CE;}
	.st4{fill:#002F98;}
	.st5{fill:#F00000;}
	.st6{fill:#A28585;}
	.st7{fill:#A28686;}
</style>
<g class="st0">
	<path class="st1" d="M85.2,45.5c-7.2,4.7-17.6,7.2-26.6,7.2c-12.6,0-23.9-4.1-32.4-11c-0.7-0.5-0.1-1.3,0.7-0.9
		c9.2,4.8,20.7,7.6,32.4,7.6c8,0,16.7-1.5,24.8-4.5C85.3,43.6,86.3,44.7,85.2,45.5z"/>
	<path class="st1" d="M88.1,42.5c-0.9-1-6.1-0.5-8.4-0.2c-0.7,0.1-0.8-0.5-0.2-0.9c4.1-2.6,10.8-1.8,11.6-1c0.8,0.9-0.2,6.8-4.1,9.7
		c-0.6,0.4-1.2,0.2-0.9-0.4C87.1,47.8,89.1,43.5,88.1,42.5z"/>
	<path class="st2" d="M79.9,23.3v-2.5c0-0.4,0.3-0.6,0.7-0.6h12.6c0.4,0,0.7,0.3,0.7,0.6v2.1c0,0.4-0.3,0.8-0.9,1.6l-6.5,8.3
		c2.4-0.1,5,0.3,7.2,1.4c0.5,0.2,0.6,0.6,0.7,1v2.5c0,0.4-0.5,0.8-0.9,0.6c-3.9-1.8-9-2-13.3,0c-0.4,0.2-0.9-0.2-0.9-0.6v-2.5
		c0-0.4,0-1.1,0.5-1.7l7.5-9.6h-6.6C80.2,23.9,79.9,23.7,79.9,23.3z"/>
	<path class="st2" d="M34.1,38.8h-3.8c-0.4,0-0.7-0.3-0.7-0.6V20.9c0-0.3,0.3-0.6,0.7-0.6h3.6c0.4,0,0.7,0.3,0.7,0.6v2.3h0.1
		c0.9-2.2,2.7-3.2,5-3.2c2.4,0,3.9,1,5,3.2c0.9-2.2,3-3.2,5.3-3.2c1.6,0,3.4,0.6,4.4,1.9c1.2,1.5,1,3.6,1,5.5v11
		c0,0.3-0.3,0.6-0.7,0.6h-3.8c-0.4,0-0.7-0.3-0.7-0.6v-9.2c0-0.7,0.1-2.6-0.1-3.3c-0.3-1.2-1.1-1.5-2.2-1.5c-0.9,0-1.9,0.5-2.3,1.4
		s-0.4,2.3-0.4,3.3v9.2c0,0.3-0.3,0.6-0.7,0.6h-4c-0.4,0-0.7-0.3-0.7-0.6v-9.2c0-1.9,0.4-4.8-2.4-4.8c-2.7,0-2.6,2.8-2.6,4.8v9.2
		C34.8,38.5,34.5,38.8,34.1,38.8z"/>
	<path class="st2" d="M104.7,19.9c5.7,0,8.7,4.3,8.7,9.8c0,5.3-3.4,9.5-8.7,9.5c-5.6,0-8.6-4.3-8.6-9.7S99.2,19.9,104.7,19.9z
		 M104.8,23.4c-2.8,0-3,3.4-3,5.5s0,6.7,3,6.7s3.1-3.7,3.1-5.9c0-1.5-0.1-3.2-0.6-4.6C106.8,23.9,106,23.4,104.8,23.4z"/>
	<path class="st2" d="M120.8,38.8H117c-0.4,0-0.7-0.3-0.7-0.6V20.8c0-0.3,0.3-0.6,0.7-0.6h3.5c0.3,0,0.6,0.2,0.7,0.5v2.7h0.1
		c1.1-2.4,2.6-3.5,5.2-3.5c1.7,0,3.4,0.5,4.5,2c1,1.4,1,3.7,1,5.4v10.9c0,0.3-0.4,0.5-0.7,0.5h-3.8c-0.3,0-0.6-0.3-0.7-0.5v-9.4
		c0-1.9,0.2-4.7-2.4-4.7c-0.9,0-1.8,0.6-2.2,1.4c-0.5,1.1-0.6,2.1-0.6,3.3v9.4C121.6,38.5,121.3,38.8,120.8,38.8z"/>
	<path class="st2" d="M69.9,30.5c0,1.3,0,2.4-0.7,3.6c-0.6,1-1.6,1.5-2.6,1.5c-1.5,0-2.3-1-2.3-2.5c0-2.9,2.9-3.4,5.7-3.4v0.8H69.9z
		 M73.8,38.8c-0.3,0.2-0.6,0.2-0.9,0.1c-1.3-0.9-1.5-1.4-2.2-2.3c-2.1,1.9-3.6,2.5-6.3,2.5c-3.2,0-5.7-1.8-5.7-5.3
		c0-2.8,1.7-4.6,4.1-5.5c2.1-0.8,5-1,7.2-1.2v-0.4c0-0.8,0.1-1.8-0.5-2.5c-0.5-0.6-1.4-0.9-2.1-0.9c-1.5,0-2.8,0.7-3.1,2
		c-0.1,0.3-0.3,0.6-0.7,0.6l-3.7-0.4c-0.3-0.1-0.7-0.3-0.6-0.7c0.8-4,4.9-5.2,8.6-5.2c1.9,0,4.3,0.4,5.8,1.7
		c1.9,1.5,1.7,3.6,1.7,5.8v5.3c0,1.6,0.7,2.3,1.4,3.1c0.2,0.3,0.3,0.7,0,0.9C75.9,37.1,74.5,38.2,73.8,38.8L73.8,38.8z"/>
	<path class="st2" d="M19.8,30.5c0,1.3,0,2.4-0.7,3.6c-0.7,1-1.6,1.6-2.7,1.6c-1.5,0-2.3-1-2.3-2.5c0-2.9,2.9-3.4,5.7-3.4V30.5z
		 M23.6,38.8C23.3,39,23,39,22.7,38.9c-1.3-0.9-1.5-1.4-2.2-2.3c-2.1,1.9-3.6,2.5-6.3,2.5c-3.2,0-5.7-1.8-5.7-5.3
		c0-2.8,1.7-4.6,4.1-5.5c2.1-0.8,5-1,7.2-1.2v-0.4c0-0.8,0.1-1.8-0.5-2.5c-0.5-0.6-1.4-0.9-2.1-0.9c-1.5,0-2.8,0.7-3.1,2
		c-0.1,0.3-0.3,0.6-0.7,0.6l-3.7-0.4c-0.3-0.1-0.7-0.3-0.6-0.7c0.9-4,4.9-5.2,8.6-5.2c1.9,0,4.3,0.4,5.8,1.7
		c1.9,1.5,1.7,3.6,1.7,5.8v5.3c0,1.6,0.7,2.3,1.4,3.1c0.2,0.3,0.3,0.7,0,0.9C25.8,37.1,24.4,38.2,23.6,38.8L23.6,38.8z"/>
</g>
<g class="st0">
	<path class="st3" d="M37.6,37.4c-0.1-0.1-0.2,0-0.3,0.1c-0.1,0.1-0.2,0.2-0.3,0.4c-1.3,1.5-2.5,3-3.8,4.5c-0.2,0.2-0.4,0.4-0.6,0.7
		c-0.1,0.1-0.2,0.2-0.4,0.1c-1.1-0.8-2.2-1.5-3.7-1.6c0.2-0.2,0.3-0.3,0.4-0.4c1.4-1.2,2.6-2.7,3.9-4c1.9-2,2.6-4.3,2.4-7
		c-0.1-1.6-0.6-3.2-0.5-4.8c0-0.5-0.3-0.3-0.5-0.1c-0.5,0.4-1,0.3-1.5,0c-0.3-0.2-0.7-0.2-1-0.1c-1.2,0.5-2.4,1.1-3.6,1.8
		c-0.1,0.1-0.3,0.2-0.3,0.3c-0.5,0.9-1,1.8-1.5,2.6c-0.2,0.3,0,0.4,0.2,0.4c0.5,0,0.8-0.2,1.1-0.5c0.7-0.8,1.4-1.6,1.9-2.5
		c0.1-0.1,0.2-0.3,0.4-0.3c0.2,0.1,0.1,0.3,0.1,0.4c-0.1,1.2-0.2,2.3-0.6,3.4c-0.6,1.5-1.3,2.9-2.2,4.2c0.9-0.7,1.9-1.3,2.6-2.3
		c1.1-1.7,2.2-3.5,2.3-5.6c0-0.2,0.1-0.3,0.3-0.4c0.2,0,0.2,0.2,0.2,0.3c0,1.1,0.4,2.1,0.5,3.2c0.1,1.9,0.3,3.8-0.7,5.6
		c-0.8,1.4-1.7,2.7-2.7,3.9c-0.7,0.9-1.6,1.6-2.8,1.8c-1.4,0.3-2.6,1.2-3.6,2.2c0.3,0.1,0.4-0.1,0.6-0.1c2-0.8,4.1-1.1,6,0.4
		c0.3,0.2,0.6,0.4,0.8,0.6c0.5,0.5,0.8,0.3,1.2-0.1c1.4-1.6,2.8-3.2,4.2-4.9c0.5-0.7,1-1.4,1.5-2.1C37.7,37.7,37.8,37.5,37.6,37.4z"
		/>
	<path class="st3" d="M73.1,27.5c-0.3-1.1-0.2-1.9,0.6-2.7c0.4-0.4,0.8-0.9,1.4-1.2c0.1,0.5,0,1,0.2,1.6c1.1-0.8,2.5-1.2,2.2-3v-0.1
		c0-0.3-0.1-0.4-0.4-0.3c-0.8,0.3-1.5,0.7-2.2,1.2c-0.9,0.6-1.6,1.4-2.3,2.3c-0.1-0.1-0.1-0.2-0.1-0.3c-0.3-0.8-0.3-0.9-1.1-0.4
		c-1,0.6-2.1,1.2-3.1,1.8c-0.8,0.5-1,0.8-0.8,1.5c0.6,2.1,1.5,4.1,2.6,6c0.3,0.5,0.7,0.5,1.1,0.1c0.4-0.4,0.4-0.9,0.3-1.4
		c-0.3-0.9-0.4-1.8-0.3-2.9c0.3,0.4,0.4,0.7,0.4,1c0.4,1.9,1,3.7,1.6,5.5c0.5,1.7,0.9,3.3,0.9,5.1c0,1.1,0,2.2,0,3.3
		c0.4-0.8,0.6-1.6,0.7-2.4c0.5-2.8,0.8-5.6,0-8.4C74.2,31.6,73.7,29.6,73.1,27.5z M70.4,29.6c-0.4-0.9-0.7-1.9-0.9-2.8
		c-0.1-0.4,0.1-0.6,0.5-0.7s0.5,0.1,0.6,0.4C70.9,27.6,71.2,28.6,70.4,29.6z"/>
	<path class="st3" d="M80.6,31.8c0-3.1,0-6.1,0-9.2c0-2.8,0-5.5,0-8.3c0-0.2,0.1-0.5-0.1-0.5c-0.4-0.1-0.8-0.1-1.2,0
		c-0.2,0.1-0.1,0.4-0.1,0.7c0,11.4,0,22.8,0,34.2c0,0.2,0,0.5,0,0.7c0,0.1,0,0.3,0.1,0.3c0.4,0,0.8,0.1,1.2,0
		c0.3-0.1,0.1-0.4,0.1-0.6C80.6,43.3,80.6,37.5,80.6,31.8z"/>
	<path class="st3" d="M47.4,25c-0.8,0.1-1.5,0.1-2.2-0.3c-0.1,0-0.2,0-0.2-0.1c-0.3,0-0.5,0.2-0.7,0.4c-0.7,0.6-1.4,1.2-2.1,1.7
		c-0.4,0.3-0.7,0.6-0.9,1.1c-0.3,0.8-0.6,1.6-0.7,2.4c-0.1,1.2,0.4,2,1.4,2.6c0.5,0.3,1.1,0.2,1.6,0.1c0.9-0.1,1.7,0.2,2.4,0.8
		c0.5,0.4,0.9,0.9,1.3,1.3c0.1,0.1,0.3,0.4,0.5,0.2c0.2-0.1,0.1-0.3,0-0.5c-0.1-0.3-0.1-0.6,0-0.8c0.2-0.5,0.1-0.9-0.1-1.4
		c-0.4-1-0.6-1.9-0.7-3c-0.1-1.4,0.2-2.6,0.9-3.8C48.1,25,48,24.9,47.4,25z M45.8,30.5c-0.6-0.3-1.3-0.3-2-0.3
		c-0.9,0.1-1.1-0.2-1-1.1c0.1-1,0.6-1.7,1.6-2c0.8-0.2,1.4,0.1,1.4,1C45.8,28.9,45.8,29.6,45.8,30.5z"/>
	<path class="st3" d="M18.4,33.7c0.1-0.2,0-0.4-0.1-0.5c-0.5-0.8-0.8-1.7-1-2.6c-0.3-1.7-0.4-3.4,0.3-5c0.1-0.2,0.3-0.3,0.1-0.5
		c-0.1-0.2-0.4,0-0.5,0c-0.6,0.2-1.2,0.3-1.8,0c-0.6-0.4-1-0.2-1.4,0.2c-0.6,0.7-1.3,1.3-2.1,1.9c-0.4,0.3-0.6,0.7-0.7,1.1
		c-0.2,1-0.3,2-0.4,2.7c0,1.5,0.9,2.3,2.1,2.1c1.5-0.3,2.9-0.1,4.2,1c0.4,0.4,0.8,0.9,1.1,1.3c0.1,0.1,0.2,0.3,0.4,0.2
		c0.2-0.1,0.1-0.3,0-0.4C18.4,34.7,18.2,34.3,18.4,33.7z M13.8,30.8c-0.5,0-0.7-0.2-0.8-0.7c-0.2-0.9,0.3-2,1.1-2.4
		c0.5-0.2,1,0,1.4,0.1c0.4,0.1,0.2,0.5,0.3,0.8c0.2,0.8,0.3,1.7,0.5,2.6C15.4,30.8,14.6,30.8,13.8,30.8z"/>
	<path class="st3" d="M90.1,26c1.3,0,2.5,0,3.7,0c-0.9-0.4-0.9-0.4-0.9-1.5c0-0.8,0-1.7,0-2.5c0-0.4,0.1-0.5,0.5-0.5
		c0.5,0,1,0,1.5,0c0.4,0,0.5,0.1,0.5,0.5c0,0.8,0,1.6,0,2.4c0,1.1,0,1.1-1,1.6c1.3,0,2.5,0,3.8,0c-1.1-0.5-1.1-0.5-1.1-1.6
		c0-2.1,0-4.1,0-6.2c0-0.7-0.2-1.6,1.2-1.6c-0.7-0.3-3.5-0.3-3.8,0c0.9,0.3,0.9,0.3,0.9,1.3c0,0.3,0,0.7,0,1c0,0.6,0.3,1.4-0.1,1.8
		s-1.2,0.1-1.9,0.1c-0.4,0-0.5-0.1-0.4-0.5c0-0.7,0-1.4,0-2.1c0-1.2,0-1.2,1.1-1.7c-1.4-0.1-2.5-0.1-3.7,0c0.9,0.4,0.9,0.4,0.9,1.5
		c0,2.1,0,4.1,0,6.2C91.1,25.4,91.1,25.4,90.1,26z"/>
	<path class="st3" d="M20,25.4c-0.7,0.2-1,0.6-1,1.3c-0.1,2.6,0.1,5.2,0.4,7.8c0.3,2.7,0.6,5.4,0.1,8.1c-0.1,0.6-0.3,1.2-0.4,1.8
		c0.3-0.1,0.3-0.3,0.4-0.5c1.8-3.3,2.3-6.9,2.2-10.6c-0.1-2.8-0.7-5.6,0.1-8.5C21.1,25.1,20.5,25.3,20,25.4z"/>
	<path class="st3" d="M111.9,45.9c-0.4-0.8-0.8-1.5-1.2-2.3c-0.2-0.4-0.2-0.5,0.2-0.7c0.9-0.5,1.3-1.7,1-2.9c-0.3-1.1-0.9-1.7-2-1.8
		c-1.4-0.1-2.7,0-4.1-0.1c-0.1,0-0.2,0-0.2,0.3c0.5,0,0.9,0.2,0.9,0.8c0,2.5,0,5,0,7.5c0,0.4-0.2,0.7-0.6,0.7c-0.1,0-0.3,0-0.3,0.2
		c1.2,0,2.3,0,3.5,0c-0.9-0.4-0.9-0.5-0.9-1.5c0-0.7,0-1.5,0-2.2c0-0.2-0.1-0.4,0.2-0.5c0.3-0.1,0.4,0.2,0.5,0.4
		c0.6,1.2,1.2,2.4,1.8,3.6c0.1,0.2,0.2,0.4,0.5,0.4c0.6,0,1.3,0,1.9,0c0-0.1,0.1-0.1,0.1-0.2C112.4,47.1,112.2,46.4,111.9,45.9z
		 M110.2,41.5c-0.2,0.9-0.8,1.4-1.7,1.3c-0.3,0-0.3-0.2-0.3-0.4c0-0.6,0-1.1,0-1.7c0-0.5,0-1.1,0-1.6c0-0.4,0.1-0.4,0.5-0.5
		c0.9,0,1.4,0.3,1.6,1.2C110.3,40.3,110.3,40.9,110.2,41.5z"/>
	<path class="st3" d="M101.4,34.6c0.2-1.4-0.2-2-1.8-2.9c0.1-0.1,0.1-0.1,0.2-0.1c1.1-0.6,1.5-1.4,1.2-2.6c-0.3-1.1-1-1.7-2.2-1.7
		c-0.7,0-1.4,0-2.2,0c-0.6,0-1.1,0-1.7,0c0,0.1,0,0.1,0,0.2c0.9,0.4,0.9,0.4,0.9,1.4c0,2.2,0,4.3,0,6.5c0,0.7-0.1,1.2-0.9,1.3
		c0,0,0,0.1,0,0.2c1.5,0,3,0.1,4.5-0.1C100.5,36.5,101.2,35.6,101.4,34.6z M97.5,29.6c0-0.5,0-1,0-1.5c0-0.3,0.1-0.4,0.4-0.4
		c0.1,0,0.3,0,0.4,0.1c0.7,0.2,1.1,1.1,0.9,2.2c-0.1,0.8-0.6,1.4-1.4,1.4c-0.3,0-0.4,0-0.4-0.3C97.5,30.7,97.5,30.2,97.5,29.6z
		 M98.9,36c-0.3,0.3-0.6,0.4-1,0.3c-0.4-0.2-0.4-0.6-0.4-1c0-0.4,0-0.9,0-1.3c0-0.5,0-1.1,0-1.6c0-0.2,0-0.4,0.3-0.3
		c0.4,0,0.8,0.1,1.1,0.4C99.8,33.2,99.8,35.2,98.9,36z"/>
	<path class="st3" d="M53.5,39.6L53.5,39.6c-0.6,0.3-1,0.1-1.3-0.5c-0.1-0.1-0.1-0.3-0.1-0.4c-0.2-0.7-0.2-1.5-0.2-2.2
		c0-0.3,0-0.6-0.1-1c-1.1-2.5-1.4-5.2-1.1-7.9c0.1-1.1,0.3-2.1,0.6-3.2c-0.8,0.3-1.4,0.5-2.1,0.7c-0.4,0.1-0.5,0.3-0.5,0.7
		c-0.6,3.6-0.4,7.1,1.1,10.5c0.5,1.2,1.2,2.4,2.2,3.3c0.7,0.6,1.2,0.6,1.8,0.1C53.6,39.6,53.6,39.6,53.5,39.6L53.5,39.6z"/>
	<path class="st3" d="M100,17.5c0,2.5,0,5,0,7.4c0,0.4-0.2,0.7-0.7,0.8c-0.1,0-0.3,0-0.3,0.2l0.1,0.1c1.9,0,3.7,0,5.6,0
		c0.1,0,0.3,0,0.3-0.2c0.1-0.9,0.2-1.8,0.3-2.8h-0.1c-0.1,0.3-0.2,0.6-0.3,0.8c-0.5,1.2-1.3,1.7-2.5,1.6c-0.4,0-0.7-0.2-0.7-0.7
		c0-1,0-2,0-3c0-0.3,0.2-0.4,0.4-0.3c0.5,0.1,0.7,0.6,0.8,1c0.2,0.4,0.1,0.8,0.3,1.2c0-1.8,0-3.4,0-5c-0.2,0.4-0.3,0.9-0.4,1.3
		s-0.3,0.7-0.8,0.8c-0.3,0.1-0.4,0-0.4-0.3c0-1.1,0-2.1,0-3.2c0-0.1,0-0.3,0.2-0.3c1.1-0.3,2.2,0.2,2.6,1.4c0.1,0.3,0,0.6,0.4,0.9
		c0-0.9,0-1.6,0-2.4c0-0.4-0.1-0.5-0.5-0.5c-1.3,0-2.6,0-4,0c-0.4,0-0.9,0-1.3,0c0,0.1-0.1,0.2-0.1,0.2C99.5,16.7,100,16.9,100,17.5
		z"/>
	<path class="st3" d="M88.2,45.4c-0.5,1.2-1.3,1.7-2.5,1.6c-0.4,0-0.7-0.2-0.7-0.6c0-1,0-2,0-3.1c0-0.3,0.2-0.4,0.4-0.3
		c0.5,0.1,0.7,0.6,0.8,1c0.2,0.4,0.1,0.8,0.3,1.2c0.1-0.8,0.1-4.5-0.1-5c-0.1,0.5-0.2,0.9-0.3,1.3c-0.1,0.4-0.3,0.8-0.8,0.9
		c-0.3,0.1-0.5,0.1-0.5-0.3c0-1,0-2.1,0-3.1c0-0.2,0-0.3,0.2-0.4c1.1-0.3,2.2,0.3,2.6,1.4c0.1,0.3,0.1,0.5,0.2,0.8
		c0.1,0,0.1,0,0.2,0c0-0.8,0-1.6,0-2.4c0-0.4-0.2-0.4-0.5-0.4c-1.7,0-3.3,0-5,0c-0.1,0-0.3-0.1-0.3,0.2c0.5,0.1,1,0.2,1,0.9
		c0,2.5,0,5,0,7.4c0,0.4-0.2,0.7-0.7,0.8c-0.1,0-0.3,0-0.3,0.2l0.1,0.1c1.9,0,3.7,0,5.6,0c0.2,0,0.3,0,0.3-0.2
		c0.1-0.9,0.2-1.8,0.3-2.8c-0.1,0-0.1,0-0.2,0C88.4,44.9,88.3,45.2,88.2,45.4z"/>
	<path class="st3" d="M97,47.2c-0.2-0.2-0.4-0.5-0.5-0.7c-0.7-1.4-1.4-2.8-2-4.1c-0.1-0.2-0.1-0.4,0-0.6c0.6-0.9,1.1-1.8,1.7-2.7
		c0.2-0.3,0.4-0.5,0.7-0.6c0.1,0,0.3,0,0.2-0.2c0-0.1-0.2-0.1-0.3-0.1c-0.6,0-1.3,0-1.9,0c-0.1,0-0.3,0-0.3,0.1
		c0,0.1,0.1,0.1,0.2,0.2c0.6,0.2,0.6,0.6,0.4,1c-0.3,0.7-0.7,1.4-1.2,2.2c-0.4-0.9-0.8-1.7-1.2-2.5c-0.2-0.4-0.1-0.6,0.4-0.7
		c0.1,0,0.3,0,0.2-0.2c0-0.1-0.2-0.1-0.3-0.1c-1,0-1.9,0-2.9,0c-0.1,0-0.2,0-0.2,0.1c0,0.1,0.1,0.2,0.2,0.2c0.3,0.1,0.5,0.4,0.6,0.7
		c0.5,1,0.9,2,1.5,3c0.6,0.9,0.6,1.7-0.1,2.5c-0.7,0.9-1,2.2-2.2,2.8c-0.1,0.1-0.1,0.2,0,0.2c0.8,0,1.6,0,2.5,0
		c-0.1-0.3-0.3-0.3-0.4-0.3c-0.4-0.2-0.6-0.5-0.4-0.9c0.4-0.9,0.9-1.7,1.5-2.6c0.4,0.8,0.7,1.5,1.1,2.2c0.4,0.9,0.4,0.9-0.3,1.5
		c0.1,0.2,0.3,0.1,0.5,0.1c0.8,0,1.5,0,2.3,0c0.2,0,0.4,0.1,0.5-0.1C97.5,47.3,97.2,47.3,97,47.2z"/>
	<path class="st3" d="M62.1,26.1c-0.6-1-1.1-2-0.8-3.2c-0.7,0.1-1.2,0.5-1.7,0.7c-0.3,0.1-0.4,0.3-0.4,0.6c0,1,0.1,1.9,0.6,2.7
		c0.1,0.2,0.3,0.4,0.3,0.7c-0.8-0.2-1.4,0.1-1.9,0.6c-0.7,0.6-1.4,1.3-2.2,1.9c-0.3,0.2-0.4,0.5-0.3,0.9c0.1,1,1,1.6,1.9,1.4
		c0.6-0.1,1.1-0.3,1.6-0.7c1.3-0.8,2.2-2,2.8-3.3C62.3,27.7,62.6,26.9,62.1,26.1z M59.2,30.6c-0.6,0.5-1.5,0.3-1.7-0.5
		c-0.1-0.4,0.1-0.7,0.5-0.9c0.3-0.1,0.6-0.2,0.9-0.1c0.4,0.2,0.7,0.1,1.1-0.3C59.9,29.6,59.7,30.2,59.2,30.6z"/>
	<path class="st3" d="M119.8,45.5c-0.4,1.1-1.1,1.6-2.4,1.6c-0.5,0-0.8-0.2-0.8-0.8c0-1,0-2,0-3c0-0.3,0.2-0.4,0.4-0.3
		c0.6,0.1,0.7,0.7,0.9,1.1c0.1,0.3,0,0.7,0.3,1.1c0-1.7,0-3.4,0-5c-0.2,0.4-0.3,0.9-0.4,1.3c-0.1,0.4-0.3,0.7-0.7,0.8
		c-0.3,0.1-0.5,0.1-0.5-0.3c0-1,0-2.1,0-3.1c0-0.1,0-0.3,0.2-0.4c0.8-0.4,2.2,0.2,2.5,1c0.1,0.4,0.2,0.8,0.3,1.2c0.1,0,0.1,0,0.2,0
		c0-0.8,0-1.5,0-2.3c0-0.4-0.1-0.5-0.5-0.5c-1.6,0-3.3,0-4.9,0c-0.1,0-0.3-0.1-0.4,0.1c1,0.6,1,0.6,1,1.9c0,1.1,0,2.3,0,3.4
		c0,0.9,0,1.9,0,2.8c0,0.6-0.1,1.1-0.9,1.1c0,0,0,0.1-0.1,0.1l0.1,0.1c1.9,0,3.7,0,5.6,0c0.1,0,0.3,0,0.3-0.2
		c0.1-0.9,0.2-1.9,0.3-2.8c-0.1,0-0.1,0-0.2,0C120,44.9,119.9,45.2,119.8,45.5z"/>
	<path class="st3" d="M102.6,38.2c-1.3-0.3-2.6-0.1-3.9-0.1c-0.1,0-0.2,0-0.2,0.2c0,0.1,0.1,0.1,0.2,0.1c0.7,0,0.7,0.5,0.7,1
		c0,0.9,0,1.9,0,2.8c0,1.4,0,2.7,0,4.1c0,0.6-0.1,1.1-0.9,1.1c0,0-0.1,0.1-0.1,0.2c1.2,0,2.3,0,3.5,0c0-0.1,0-0.1,0.1-0.2
		c-0.9-0.1-1-0.6-1-1.3c0-0.6,0-1.1,0-1.7c0-1,0-1,1-1.1c0.1,0,0.3,0,0.4-0.1c1.1-0.2,1.8-1.1,1.9-2.4
		C104.4,39.4,103.7,38.4,102.6,38.2z M102.4,41.9c-0.1,0.2-0.2,0.4-0.4,0.6c-0.2,0.2-0.5,0.3-0.8,0.2s-0.1-0.4-0.1-0.6
		c0-0.5,0-0.9,0-1.4c0-0.6,0-1.1,0-1.7c0-0.4,0.2-0.5,0.5-0.4c0.4,0.1,0.7,0.4,0.9,0.8C102.7,40.2,102.7,41.1,102.4,41.9z"/>
	<path class="st3" d="M108.8,35.6c0.1-0.6,0.1-1.2,0.2-1.8c-0.2,0.3-0.3,0.6-0.5,0.9c-0.5,1.1-1.1,1.6-2.3,1.6
		c-0.7,0-0.9-0.2-0.9-0.9c0-0.9,0-1.7,0-2.6c0-0.2-0.1-0.5,0.1-0.5c0.2-0.1,0.5,0,0.7,0.2c0.3,0.3,0.4,0.6,0.5,1
		c0.1,0.3,0.1,0.6,0.2,0.9h0.1c0-1.6,0-3.2,0-4.9c-0.2,0.4-0.3,0.9-0.4,1.3s-0.4,0.7-0.8,0.8c-0.3,0.1-0.4,0-0.4-0.3
		c0-1.1,0-2.1,0-3.2c0-0.2,0-0.3,0.3-0.3c1.3-0.3,2.2,0.3,2.6,1.6c0.1,0.2,0,0.5,0.3,0.8c0-0.9,0-1.6,0-2.4c0-0.5-0.2-0.5-0.6-0.5
		c-1.6,0-3.2,0-4.8,0c-0.2,0-0.4-0.1-0.5,0.2c1.1,0,1,0.8,1,1.5c0,2,0,4,0,6c0,0.7,0.2,1.5-1.1,1.6c0.3,0.3,0.5,0.2,0.7,0.2
		c1.4,0,2.8,0,4.1,0C108.7,36.8,108.7,36.8,108.8,35.6z"/>
	<path class="st3" d="M16,23.6c0.1-0.4,0.1-0.7,0.3-1.1c0.5-1.5,1.2-1.9,2.8-1.7c0.2,0,0.4,0.1,0.7,0.1c1.8,0.3,3.3,1.1,5,1.8
		l0.1-0.1c-1.1-0.6-2-1.3-2.3-2.7c0-0.2-0.2-0.5-0.5-0.6c-1.6-0.9-3.6-0.5-4.9,0.9c-0.7,0.7-1.1,1.5-1.3,2.4
		c-0.1,0.4-0.2,0.8-0.3,1.3c-0.4-0.5-0.7-0.9-1.1-1.3c-0.2-0.2-0.2-0.4-0.2-0.6c-0.1-1.7-1.6-3.1-3.3-3.1c-0.1,0-0.2,0-0.2,0.1
		c-0.7,0.5-1.4,1-2.2,1.6c3.2,0.3,5.3,2.2,7.5,4.3C15.9,24.4,15.9,24,16,23.6z"/>
	<path class="st3" d="M26.4,23c1.1,0.4,2.3,0.4,3.4,0.1c0.2-0.1,0.4-0.2,0.5-0.4c0.2-0.2,0.4-0.5,0.3-0.9c-0.1-0.3-0.5-0.3-0.8-0.3
		c-0.6,0-1.1-0.1-1.7-0.1c-0.3,0-0.5-0.2-0.2-0.5c0.6-0.5,1.3-0.9,2.1-0.6c0.6,0.2,1.2,0.5,1.7,0.9c1.4,1.2,2.5,2.7,3.8,3.9
		c-0.4-0.6-0.8-1.2-1.2-1.8C34,22.9,33.9,22.5,34,22c0.1-0.8,0.2-1.6-0.5-2.2c-0.7-0.7-1.5-1.2-2.5-1.4c-0.7-0.2-1.4-0.1-2,0.4
		c-1,0.8-2,1.8-2.9,2.8C25.8,21.9,25.8,22.8,26.4,23z"/>
	<path class="st3" d="M124.1,41.1c-0.4-0.3-0.7-0.6-0.9-1.1c-0.2-0.6,0-1.3,0.5-1.5c0.5-0.3,1-0.2,1.5,0.2c0.6,0.5,0.9,1.1,1,1.9
		c0,0.1,0,0.3,0.2,0.4c0-1,0-2,0-3.1c-0.3,0.8-0.7,0.5-1.1,0.2c-1.1-0.6-2.1-0.4-2.8,0.7c-0.8,1.2-0.6,2.9,0.5,4
		c0.5,0.5,1.1,0.9,1.7,1.3c0.4,0.3,0.8,0.6,1,1.1c0.2,0.7,0,1.5-0.5,1.8s-1.2,0.2-1.7-0.3c-0.6-0.5-0.8-1.2-1-1.9
		c-0.1-0.2,0-0.5-0.3-0.7c0,1.2,0,2.4,0,3.5c0.4-0.7,0.8-0.5,1.4-0.2c1.1,0.6,2.2,0.3,2.9-0.8c0.9-1.3,0.7-3.1-0.4-4.2
		C125.4,42,124.7,41.6,124.1,41.1z"/>
	<path class="st3" d="M132.5,42.5c-0.5-0.5-1.1-0.9-1.7-1.3c-0.4-0.3-0.7-0.5-0.9-0.9c-0.3-0.6-0.1-1.4,0.4-1.7
		c0.4-0.3,1.1-0.2,1.6,0.2c0.4,0.4,0.7,0.9,0.9,1.5c0.1,0.2,0,0.5,0.3,0.8c0-1.1,0-2.1,0-3.1c-0.2,0.7-0.6,0.6-1.1,0.3
		c-1.2-0.7-2.4-0.4-3,0.9c-0.6,1.2-0.4,2.8,0.6,3.8c0.5,0.5,1.1,0.9,1.7,1.3c0.4,0.3,0.7,0.6,0.9,1.1c0.3,0.7,0.1,1.5-0.5,1.9
		c-0.5,0.3-1.2,0.2-1.8-0.3c-0.5-0.5-0.8-1.1-1-1.8c-0.1-0.2-0.1-0.5-0.3-0.8c0,1.3,0,2.4,0,3.6c0.4-0.6,0.8-0.5,1.3-0.3
		c1.2,0.7,2.4,0.3,3.1-0.9C133.8,45.2,133.6,43.6,132.5,42.5z"/>
	<path class="st3" d="M39.4,24.9c-0.6,0.2-1.3,0.4-1.9,0.6c-0.4,0.1-0.5,0.3-0.6,0.7c-0.3,0.8-0.4,1.6-0.4,2.5
		c0,0.4,0.1,0.8,0.1,1.2c0.2,1.9,0.9,3.7,1.7,5.4c0.1,0.2,0.1,0.5,0.4,0.4c0.4-0.1,0.3-0.4,0.2-0.7c-0.3-0.8-0.2-1.6,0.4-2.3
		c0.2-0.3,0.4-0.6,0.3-1c-0.5-2-0.6-4.1,0-6.1c0-0.2,0.1-0.3,0.1-0.5C39.8,24.9,39.6,24.8,39.4,24.9z"/>
	<path class="st3" d="M55.3,24.5c-0.8,0.2-1.5,0.5-2.2,0.7c-0.3,0.1-0.5,0.3-0.6,0.7c-1,3.4,0.2,6.4,1.5,9.4
		c0.1,0.1,0.1,0.2,0.3,0.2c0.1,0,0.2-0.1,0.2-0.2c0-0.2,0-0.3,0-0.5c-0.3-0.8-0.1-1.6,0.4-2.3c0.3-0.4,0.3-0.9,0.2-1.4
		c-0.4-1.5-0.5-3.1-0.2-4.6C55,25.8,55.3,25.2,55.3,24.5z"/>
	<path class="st3" d="M24.8,35.8c0.4-0.1,0.3-0.4,0.2-0.7c-0.3-0.9-0.1-1.6,0.4-2.4c0.3-0.4,0.3-0.8,0.2-1.3c-0.4-1.5-0.5-3-0.2-4.6
		c0.1-0.7,0.4-1.3,0.4-2.1c-0.8,0.3-1.6,0.5-2.4,0.8c-0.2,0.1-0.3,0.2-0.4,0.4c-0.2,0.7-0.4,1.4-0.4,2.2c-0.1,2.6,0.9,4.9,1.8,7.2
		C24.5,35.5,24.5,35.8,24.8,35.8z"/>
	<path class="st3" d="M64.1,28.2c-0.8,0-2.3,1-2.5,1.7c-0.1,0.2,0,0.3,0.2,0.3c0.2,0.1,0.4,0,0.5-0.1c1.2-0.3,2.8,0.8,3,2
		c0.1,0.6-0.1,0.8-0.7,0.7c-1.1-0.3-2.3-0.4-2.7-1.8c-0.1-0.3-0.5-0.5-0.9-0.4s-0.2,0.5-0.1,0.8c0.2,0.7,0.5,1.5,1,2.1
		c0.8,1.1,2,1.4,3,0.7c0.9-0.7,1.6-1.5,2.2-2.4c0.3-0.4,0.3-0.9,0.2-1.4C66.7,29.3,65.2,28.2,64.1,28.2z"/>
	<path class="st3" d="M83.1,17.8c0.2-0.5,0.6-0.7,1.2-0.7c0.4,0,0.6,0.1,0.6,0.5c0,2.2,0,4.4,0,6.6c0,0.7,0.2,1.6-0.9,1.8
		c1.2,0,2.4,0,3.7,0c-1.2-0.6-1.2-0.6-1.2-1.8c0-2.1,0-4.2,0-6.3c0-0.3-0.1-0.6,0.1-0.7c0.4-0.1,0.8-0.1,1.2,0.2
		c0.3,0.2,0.5,0.6,0.6,0.9c0.1,0.3,0.2,0.5,0.2,0.8c0.1,0,0.1,0,0.2,0c0-0.7,0-1.5,0-2.2c0-0.3-0.2-0.3-0.4-0.3c-1.8,0-3.7,0-5.5,0
		c-0.2,0-0.4,0-0.4,0.2c0,0.8,0,1.5,0,2.3C82.8,18.6,82.9,18.2,83.1,17.8z"/>
	<path class="st3" d="M110.6,29.8c0.1,0,0.1,0,0.2,0c0.1-0.4,0.2-0.8,0.3-1.2c0.3-0.6,0.7-0.8,1.3-0.8c0.3,0,0.4,0.1,0.4,0.4
		c0,2.5,0,5,0,7.6c0,0.5-0.2,0.8-0.7,0.8c-0.1,0-0.2,0-0.2,0.2c1.2,0,2.4,0,3.8,0c-1.1-0.5-1.1-0.5-1.1-1.6c0-2.2,0-4.3,0-6.5
		c0-0.3-0.2-0.7,0.1-0.8c0.4-0.1,0.8-0.1,1.2,0.2c0.4,0.3,0.5,0.7,0.6,1.1c0.1,0.2,0,0.5,0.3,0.8c0-0.9,0-1.6,0-2.4
		c0-0.2-0.2-0.2-0.3-0.2c-1.9,0-3.7,0-5.6,0c-0.2,0-0.3,0.1-0.3,0.3C110.6,28.3,110.6,29,110.6,29.8z"/>
	<path class="st3" d="M88.4,27.3c-1.9,0-3.7,0-5.6,0c-0.2,0-0.3,0-0.3,0.2c0,0.8,0,1.5,0,2.3c0.3-0.4,0.4-0.7,0.5-1.1
		c0.2-0.5,0.6-0.8,1.1-0.9s0.7,0,0.7,0.6c0,2.2,0,4.4,0,6.6c0,0.7,0.2,1.6-1,1.7c1.3,0.1,2.5,0.1,3.7,0c-0.5-0.1-1-0.3-1-0.9
		c0-2.5,0-5.1,0-7.6c0-0.3,0.1-0.3,0.4-0.4c0.7,0,1.2,0.2,1.4,0.9c0.1,0.3,0.2,0.7,0.3,1.1c0.1,0,0.1,0,0.2,0c0-0.7,0-1.4,0-2.1
		C88.8,27.4,88.7,27.3,88.4,27.3z"/>
	<path class="st3" d="M78.3,34.4c-0.4-0.6-0.9-1.2-0.5-1.9c0.5-0.8,0.3-1.4,0-2.1c-0.2-0.4-0.3-0.8-0.3-1.2c-0.3-1.5-0.4-3-0.1-4.8
		c0-0.2-0.2-0.3-0.5-0.1c-0.6,0.4-1.2,0.8-1.8,1.1c-0.3,0.2-0.3,0.4-0.3,0.6c0,1.3,0.1,2.7,0.4,4c0.5,1.8,1.2,3.4,2.7,4.6
		c0.2,0.1,0.4,0.4,0.6,0.2C78.8,34.7,78.5,34.6,78.3,34.4z"/>
	<path class="st3" d="M93.9,27.5c-0.1-0.1-0.1-0.1-0.2-0.2c-1.2,0-2.4,0-3.5,0c0.9,0.4,0.9,0.4,0.9,1.6c0,2.1,0,4.1,0,6.2
		c0,0.7,0.2,1.6-1,1.7c1.3,0.1,2.4,0.2,3.6,0c-0.9-0.4-0.9-0.4-0.9-1.4c0-2.1,0-4.2,0-6.3C92.8,28.3,92.6,27.5,93.9,27.5z"/>
	<path class="st3" d="M57.6,19.9c1.7,0.3,3.2,0.9,4.4,2.1c0.6,0.6,1.2,1.3,1.9,1.9c0.3,0.3,0.6,0.6,1.1,0.9c0-0.3-0.2-0.5-0.4-0.6
		c-0.7-0.8-1.4-1.7-2.1-2.5c-0.3-0.3-0.5-0.7-0.6-1.1c0-1.3-0.7-2.1-2-2.4c-0.1,0-0.2-0.1-0.4-0.1c-2.2-0.7-3-0.5-4.5,1.3
		c-0.1,0.3-0.5,0.7-0.7,1.3C55.4,20,56.5,19.7,57.6,19.9z"/>
	<path class="st3" d="M24.6,22.7c0.3,0.2,0.6,0.3,1,0.3c-0.3-0.2-0.6-0.3-0.9-0.5C24.8,22.7,24.8,22.8,24.6,22.7z"/>
	<path class="st3" d="M53.5,39.6c0.1-0.1,0.2,0,0.2,0.1c0.4-0.2,0.4-0.5,0.4-0.9C53.8,39.1,53.7,39.3,53.5,39.6z"/>
</g>
<g>
	<path class="st4" d="M96.8,18.2c-1.7,6.3-3.4,12.5-5,18.8c-0.6,2.2-1.1,4.2-1.7,6.4c0,0.2,0,0.3-0.3,0.3c-5.2,0-10.3,0-15.5,0
		c0,0,0,0-0.2,0c0.2-0.2,0.3-0.2,0.5-0.2c2-0.5,4.1-1.4,5.9-2.7c1.9-1.3,3.6-2.7,5-4.4c1.3-1.6,2.3-3.1,3.1-5c0.9-2,1.4-4.1,1.7-6.3
		c0.2-1.6,0.2-3.1,0-4.7c-0.3-3.4-1.4-6.6-3.3-9.4c-0.3-0.5-0.6-1.1-1.1-1.6c-0.2-0.2-0.2-0.3-0.2-0.5c0.8-2.3,1.7-4.7,2.5-7.2
		c0-0.2,0.2-0.3,0.3-0.3c5,0,10.2,0,15.2,0c0.3,0,0.3,0.2,0.5,0.3c1.4,3.8,2.8,7.7,4.2,11.4c2,5.8,4.2,11.4,6.3,17.2
		c1.6,4.2,3.1,8.5,4.5,12.7c0.2,0.3,0,0.3-0.3,0.3c-5,0-10.2,0-15.2,0c-0.3,0-0.5,0-0.6-0.5c-1.3-5-2.7-9.9-4.1-14.9
		c-0.9-3.3-1.7-6.6-2.7-9.9C96.8,18.4,96.8,18.4,96.8,18.2z"/>
	<path class="st5" d="M63.3,1.6c-0.9,0.3-1.7,0.6-2.7,0.9C57.2,4,54.3,6,52,8.8c-2,2.3-3.4,5.2-4.2,8.1c-0.6,2.5-0.8,5.2-0.6,7.7
		c0.5,3.9,1.9,7.5,4.2,10.6c0.2,0.2,0.2,0.3,0.2,0.6c-0.9,2.3-1.7,4.9-2.7,7.2c-0.2,0.3-0.2,0.3-0.5,0.3c-5,0-10,0-15,0
		c-0.3,0-0.3,0-0.5-0.3c-3.6-10.2-7-20.3-10.6-30.5C21,9,19.8,5.4,18.5,1.6c0-0.2,0-0.2-0.2-0.3c0.2,0,0.3,0,0.3,0
		c5.2,0,10.2,0,15.3,0c0.3,0,0.5,0,0.5,0.3c1.9,7,3.8,14.1,5.6,21.1c0.3,1.3,0.6,2.5,1.1,3.9c0.2-0.6,0.3-1.1,0.5-1.7
		c1.3-4.9,2.7-9.7,3.9-14.6c0.8-3,1.6-5.8,2.3-8.8c0.2-0.3,0.2-0.5,0.6-0.5c4.7,0,9.5,0,14.2,0C63.1,1.6,63.1,1.6,63.3,1.6z"/>
	<path class="st6" d="M58.9,22.6c0-5.3,3.9-9.9,9.9-10c5.3,0,9.9,3.9,10,9.9c0,5.5-4.1,9.9-9.9,10C63.4,32.6,59,28.4,58.9,22.6z"/>
	<path class="st7" d="M106.3,51.3c0,0.5-0.5,0.9-0.9,0.9c-0.5,0-0.9-0.5-0.9-0.9s0.5-0.9,0.9-0.9S106.3,50.8,106.3,51.3z"/>
	<path class="st7" d="M34.8,51.3c0-0.5,0.5-0.9,0.9-0.9s0.9,0.5,0.9,0.9s-0.5,0.9-0.9,0.9C35.3,52.3,34.8,51.9,34.8,51.3z"/>
	<g>
		<path class="st7" d="M89.6,53.8c-0.8-0.6-1.7-0.6-2.5-0.2c-0.6,0.2-0.9,0.6-1.3,1.3c-0.5-1.3-1.1-1.4-2.2-1.4
			c-0.9,0-1.7,0.6-2.2,1.4c0-0.2,0-0.3,0-0.3c0-0.9,0-0.9-0.8-0.9c-0.2,0-0.2,0-0.3,0c-0.2,0-0.3,0.2-0.3,0.3c0,2.2,0,4.4,0,6.6
			c0,0.2,0,0.3,0.3,0.3c0.3,0,0.6,0,0.9,0c0.3,0,0.3-0.2,0.3-0.3c0-0.9,0-1.9,0-2.8s0.2-1.7,0.9-2.3c0.5-0.3,0.9-0.5,1.4-0.3
			c0.5,0.2,0.5,0.6,0.6,1.1c0,0.2,0,0.3,0,0.5c0,1.4,0,2.7,0,4.1c0,0.3,0.2,0.5,0.3,0.3c0.3,0,0.5,0,0.8,0s0.5-0.2,0.3-0.3
			c0-0.9,0-2,0-3c0-0.9,0.3-1.7,0.9-2.2c0.3-0.3,0.8-0.5,1.3-0.2c0.3,0.2,0.5,0.5,0.5,0.9c0.2,1.3,0,2.5,0,3.8
			c0,0.3-0.2,0.9,0.2,1.1c0.3,0.2,0.8,0,1.1,0l0,0c0.2,0,0.3,0,0.3-0.2c0-1.7,0-3.3,0-5C90.2,54.7,90,54.1,89.6,53.8z"/>
		<path class="st7" d="M75.8,52c-0.2-0.5-0.2-0.9-0.5-1.1c-0.3-0.3-0.8,0-1.3-0.2c-0.3,0-0.5,0.2-0.6,0.5c-0.6,1.6-1.1,3.3-1.7,4.9
			c-0.5,1.3-0.9,2.7-1.4,3.9c-0.2,0.3,0,0.3,0.2,0.3c0.3,0,0.6,0,0.9,0c0.2,0,0.3,0,0.3-0.3c0.2-0.5,0.3-1.1,0.5-1.6
			c0-0.2,0.2-0.3,0.3-0.3c1.1,0,2.2,0,3.3,0c0.2,0,0.3,0,0.5,0.3c0.2,0.5,0.3,1.1,0.5,1.6c0,0.2,0,0.3,0.3,0.3c0.5,0,1.1,0,1.6,0
			c0-0.2-0.2-0.3-0.2-0.3C77.7,57.4,76.7,54.7,75.8,52z M75.6,57c-0.9,0-1.7,0-2.7,0c-0.3,0-0.2-0.2-0.2-0.3
			c0.3-0.8,0.6-1.6,0.9-2.5c0.2-0.6,0.3-1.1,0.6-1.7c0.3,1.6,0.9,2.8,1.4,4.2C75.9,57,75.8,57,75.6,57z"/>
		<path class="st7" d="M26.6,50.8c-0.3,0-0.6,0-0.9,0c-0.2,0-0.3,0-0.3,0.3c-0.6,1.9-1.3,3.6-1.9,5.5c-0.3,0.6-0.5,1.4-0.6,2
			c0-0.2-0.2-0.2-0.2-0.2c-0.8-2.5-1.6-4.9-2.5-7.2c0-0.2,0-0.3-0.3-0.3c-0.5,0-0.9,0-1.6,0c0,0.2,0.2,0.3,0.2,0.5
			c0.9,2.7,1.9,5.3,2.8,8c0.2,0.5,0.2,0.9,0.5,1.1c0.3,0.2,0.8,0,1.3,0c0.3,0,0.5-0.2,0.6-0.5c0.8-2.3,1.7-4.7,2.5-7
			c0.2-0.6,0.5-1.3,0.6-1.9C27,50.9,27,50.8,26.6,50.8z"/>
		<path class="st7" d="M58.9,53.3c-0.9-0.2-1.7-0.2-2.7,0.3c-1.3,0.6-1.7,1.9-1.9,3.1c0,0.9,0.2,1.7,0.6,2.5
			c0.8,1.1,2.3,1.4,3.6,1.1c1.7-0.5,2.7-1.9,2.7-3.8c0-0.3,0-0.6,0-0.9C61.1,54.7,60.5,53.6,58.9,53.3z M59.7,56.7
			c0,0.8-0.2,1.6-0.9,2.2c-0.6,0.5-2,0.3-2.3-0.6c-0.5-1.1-0.5-2,0.2-3.1c0.3-0.5,0.9-0.8,1.6-0.8c1.1,0.2,1.4,0.8,1.6,1.9
			C59.7,56.4,59.7,56.6,59.7,56.7z"/>
		<path class="st7" d="M31.2,53.3c-0.9-0.2-1.7-0.2-2.5,0.3c-1.4,0.8-1.9,1.9-1.9,3.4c0,0.2,0,0.5,0,0.6c0.2,0.8,0.3,1.6,1.1,2.2
			c1.4,1.3,4.2,0.9,5.3-1.1c0.5-0.8,0.5-1.7,0.5-2.5C33.4,54.9,32.8,53.6,31.2,53.3z M31,58.9c-0.6,0.5-2,0.3-2.3-0.6
			c-0.3-1.1-0.5-2,0.2-3.1c0.3-0.5,0.9-0.8,1.6-0.8c0.9,0.2,1.4,0.6,1.6,1.7c0,0.2,0,0.5,0.2,0.6C31.8,57.7,31.8,58.5,31,58.9z"/>
		<path class="st7" d="M118,53.4c-1.3-0.3-2.5-0.2-3.8,0.2c-0.2,0-0.2,0.2-0.2,0.3c0,0.3,0,0.6,0.2,0.8c0,0.2,0.2,0.3,0.3,0.2
			c0.5-0.3,1.1-0.3,1.7-0.5c0.9-0.2,1.7,0.3,1.7,1.3c0,0.5,0,0.5-0.5,0.5c-0.6,0-1.3,0-1.9,0.3c-0.8,0.3-1.4,0.6-1.7,1.6
			c-0.3,0.8,0,1.7,0.5,2c0.8,0.5,1.6,0.5,2.3,0.2c0.6-0.2,0.9-0.6,1.4-1.1c0,0.2,0,0.3,0,0.3c-0.2,0.8-0.2,0.8,0.6,0.8
			c0.2,0,0.3,0,0.5,0c0.2,0,0.3,0,0.3-0.3c0-1.6,0-3.3-0.2-4.9C119.5,54.2,118.8,53.6,118,53.4z M117.9,57.7
			c-0.2,0.9-0.9,1.7-1.7,1.7c-0.5,0-0.8-0.3-0.9-0.6c-0.2-0.5,0.2-0.9,0.5-1.1c0.6-0.3,1.3-0.3,1.9-0.3
			C117.9,57.2,117.9,57.4,117.9,57.7z"/>
		<path class="st7" d="M95,53.1c-1.6,0-2.5,0.6-3.1,2c-0.3,0.9-0.3,1.9-0.2,2.8c0.3,1.3,1.1,2,2.3,2.3c1.1,0.2,2,0,3-0.2
			c0.3-0.2,0.5-0.3,0.3-0.6c-0.2-0.8-0.2-0.8-0.8-0.5c-0.8,0.2-1.4,0.3-2.2,0.2c-0.8-0.2-1.3-0.9-1.3-1.9c0-0.2,0-0.3,0.3-0.3
			c0.6,0,1.3,0,2,0c0.6,0,1.3,0,1.9,0c0.2,0,0.3,0,0.3-0.3c0-0.6,0-1.3-0.2-1.9C97.2,53.8,96.3,53.3,95,53.1z M96.1,55.9
			c-0.5,0-0.8,0-1.3,0c-0.5,0-0.8,0-1.3,0c-0.2,0-0.3,0-0.2-0.2c0.2-0.6,0.5-1.1,0.9-1.3c0.5-0.2,1.1-0.2,1.4,0.2
			c0.3,0.3,0.5,0.6,0.5,1.1C96.3,55.9,96.1,55.9,96.1,55.9z"/>
		<path class="st7" d="M47.6,53.3c-1.3,0-2.3,0.3-3,1.6c-0.8,1.3-0.8,2.7-0.2,4.1c0.3,0.9,0.9,1.4,1.9,1.6c1.1,0.3,2.2,0.2,3.3-0.2
			c0.3-0.2,0.5-0.2,0.3-0.5c0-0.2,0-0.3,0-0.6c0-0.2-0.2-0.2-0.3-0.2c-0.5,0.2-0.9,0.3-1.4,0.3c-1.1,0-1.9,0-2.3-1.1
			c-0.2-0.3,0-0.6-0.2-0.9c0-0.2,0-0.3,0.3-0.3c0.6,0,1.3,0,2,0c0.6,0,1.3,0,2,0c0.2,0,0.3,0,0.3-0.3c0-0.6,0-1.3-0.2-1.9
			C49.7,53.9,48.7,53.3,47.6,53.3z M48.4,55.9c-0.5,0-0.8,0-1.3,0s-0.8,0-1.3,0c-0.2,0-0.3,0-0.2-0.2c0.2-1.3,1.6-1.7,2.3-1.1
			c0.3,0.3,0.5,0.6,0.6,1.1C48.7,55.9,48.6,55.9,48.4,55.9z"/>
		<path class="st7" d="M67,50c-0.6-0.2-1.3-0.2-1.9,0c-0.9,0.2-1.6,0.8-1.7,1.6c-0.2,0.5-0.2,0.9-0.2,1.4c0,0.3-0.2,0.3-0.3,0.3
			c-0.3,0-0.5,0-0.8,0c-0.2,0-0.3,0-0.3,0.3c0,0.9-0.2,0.9,0.9,0.9c0,0,0,0,0.2,0c0.3,0,0.3,0.2,0.3,0.3c0,1.4,0,2.8,0,4.4
			c0,0.5-0.2,0.9,0.2,1.1c0.2,0.2,0.8,0,1.1,0c0.3,0,0.3,0,0.3-0.3c0-0.8,0-1.7,0-2.5l0,0c0-0.9,0-1.7,0-2.7c0-0.2,0-0.3,0.3-0.3
			c0.5,0,0.8,0,1.3,0c0.3,0,0.3,0,0.3-0.3c0-1.1,0.2-0.9-0.9-0.9s-1.1,0-0.9-1.1c0.2-0.6,0.5-0.9,1.1-0.9c0.3,0,0.5,0,0.8,0.2
			c0.2,0,0.3,0,0.3-0.2c0-0.3,0-0.6,0-0.9C67.3,50,67.2,50,67,50z"/>
		<path class="st7" d="M43.1,59.1c0-0.3-0.2-0.3-0.3-0.2c-0.5,0.2-0.9,0.3-1.4,0.2c-0.8,0-1.3-0.3-1.6-1.1c-0.2-0.8-0.2-1.4,0-2.2
			c0.2-0.5,0.5-0.9,0.9-1.3c0.5-0.2,0.9-0.2,1.4-0.2c0.3,0,0.6,0.3,0.8,0.2c0.2-0.2,0.2-0.5,0.2-0.8s-0.2-0.5-0.5-0.5
			c-0.3,0-0.5-0.2-0.8-0.2c-0.9-0.2-1.9,0.2-2.7,0.8c-0.9,0.8-1.3,1.9-1.3,3.1c0,0.5,0,0.9,0.2,1.4c0.2,0.8,0.6,1.4,1.4,1.7
			c1.1,0.5,2.2,0.3,3.3,0c0.2,0,0.2-0.2,0.2-0.2C43.1,59.7,43.1,59.4,43.1,59.1z"/>
		<path class="st7" d="M112.6,59.1c0-0.3-0.2-0.3-0.3-0.2c-0.5,0.2-0.9,0.3-1.6,0.2c-0.6,0-1.3-0.3-1.4-1.1c-0.3-0.8-0.3-1.6,0-2.2
			c0.2-0.5,0.5-1.1,1.1-1.3c0.5-0.2,1.1-0.2,1.6,0c0.6,0.2,0.6,0.2,0.6-0.5c0-0.6,0-0.6-0.6-0.8c-0.9-0.2-1.7-0.2-2.7,0.3
			c-1.3,0.6-1.7,1.7-1.9,3.1c0,0.6,0,1.3,0.2,1.9c0.3,0.9,0.8,1.6,1.7,1.7c0.8,0.2,1.6,0.3,2.5,0s0.9,0,0.8-1.1
			C112.6,59.2,112.6,59.2,112.6,59.1z"/>
		<path class="st7" d="M103,53.3c-0.6,0-1.1,0.2-1.6,0.6c-0.3,0.3-0.5,0.6-0.6,0.9c0-0.3,0-0.8,0.2-1.1c0-0.3,0-0.3-0.3-0.3
			c-0.3,0-0.5,0-0.8,0s-0.3,0-0.3,0.3c0,1.9,0,3.8,0,5.5c0,0.3-0.2,0.9,0.2,1.1c0.3,0.2,0.8,0,1.1,0s0.3,0,0.3-0.3
			c0-0.8,0-1.6,0-2.3s0-1.6,0.5-2.2c0.2-0.5,0.6-0.6,1.1-0.8c0.6,0,0.6,0,0.6-0.8c0-0.2,0-0.3,0-0.5C103.2,53.3,103.2,53.3,103,53.3
			z"/>
		<path class="st7" d="M105.8,53.3c-0.3,0-0.6,0-0.9,0c-0.3,0-0.3,0.2-0.3,0.3c0,1.1,0,2,0,3.1c0,0.8,0,1.6,0,2.3
			c0,0.3-0.2,0.9,0,1.1c0.3,0.3,0.8,0,1.3,0.2c0.2,0,0.3,0,0.3-0.3c0-2.2,0-4.4,0-6.6C106.2,53.3,106,53.3,105.8,53.3z"/>
		<path class="st7" d="M36.5,53.4c-0.2-0.2-0.6,0-1.1,0c-0.3,0-0.5,0.2-0.5,0.5c0,1.1,0,2,0,3.1s0,2,0,3.1c0,0.3,0,0.5,0.3,0.5
			s0.5,0,0.8,0s0.5,0,0.5-0.5c0-1.9,0-3.6,0-5.5C36.5,54.1,36.7,53.6,36.5,53.4z"/>
		<path class="st7" d="M122,53.1c-0.8,0-1.4,0.6-1.4,1.4s0.6,1.4,1.4,1.4c0.8,0,1.4-0.6,1.4-1.4C123.4,53.8,122.7,53.1,122,53.1z
			 M122,55.8c-0.8,0-1.3-0.6-1.3-1.3c0-0.6,0.6-1.3,1.3-1.3s1.3,0.6,1.3,1.3C123.2,55.3,122.7,55.8,122,55.8z"/>
		<path class="st7" d="M122.4,54.7c-0.2-0.2-0.2-0.2,0-0.3c0.2-0.2,0.3-0.3,0.2-0.6c-0.2-0.3-0.5-0.3-0.8-0.3s-0.2,0.3-0.2,0.5
			c0,0.2,0,0.3,0,0.5c0,0.2,0,0.2,0,0.3c0,0.2-0.2,0.5,0.2,0.5c0.2,0,0.2-0.3,0.2-0.5c0-0.2,0-0.2,0-0.3c0.2,0,0.2,0,0.3,0
			C122.4,54.4,122.4,54.5,122.4,54.7c0.2,0.2,0,0.5,0.3,0.5C122.7,55.3,122.4,55,122.4,54.7C122.4,54.9,122.4,54.9,122.4,54.7z
			 M122,54.5c-0.3,0-0.2-0.2-0.2-0.3c0-0.2,0-0.3,0.2-0.3c0.2,0,0.3,0.2,0.3,0.3C122.3,54.4,122.1,54.5,122,54.5z"/>
	</g>
</g>
</svg>
