<?xml version="1.0" encoding="utf-8"?>
<!-- Generator: Adobe Illustrator 28.3.0, SVG Export Plug-In . SVG Version: 6.00 Build 0)  -->
<svg version="1.1" id="Layer_1" xmlns="http://www.w3.org/2000/svg" xmlns:xlink="http://www.w3.org/1999/xlink" x="0px" y="0px"
	 viewBox="0 0 141.2 61.2" style="enable-background:new 0 0 141.2 61.2;" xml:space="preserve">
<style type="text/css">
	.st0{display:none;}
	.st1{display:inline;fill-rule:evenodd;clip-rule:evenodd;fill:#FF9900;}
	.st2{display:inline;fill-rule:evenodd;clip-rule:evenodd;}
	.st3{display:inline;fill:#0693CE;}
</style>
<g class="st0">
	<path class="st1" d="M85.2,45.5c-7.2,4.7-17.6,7.2-26.6,7.2c-12.6,0-23.9-4.1-32.4-11c-0.7-0.5-0.1-1.3,0.7-0.9
		c9.2,4.8,20.7,7.6,32.4,7.6c8,0,16.7-1.5,24.8-4.5C85.3,43.6,86.3,44.7,85.2,45.5z"/>
	<path class="st1" d="M88.1,42.5c-0.9-1-6.1-0.5-8.4-0.2c-0.7,0.1-0.8-0.5-0.2-0.9c4.1-2.6,10.8-1.8,11.6-1c0.8,0.9-0.2,6.8-4.1,9.7
		c-0.6,0.4-1.2,0.2-0.9-0.4C87.1,47.8,89.1,43.5,88.1,42.5z"/>
	<path class="st2" d="M79.9,23.3v-2.5c0-0.4,0.3-0.6,0.7-0.6h12.6c0.4,0,0.7,0.3,0.7,0.6v2.1c0,0.4-0.3,0.8-0.9,1.6l-6.5,8.3
		c2.4-0.1,5,0.3,7.2,1.4c0.5,0.2,0.6,0.6,0.7,1v2.5c0,0.4-0.5,0.8-0.9,0.6c-3.9-1.8-9-2-13.3,0c-0.4,0.2-0.9-0.2-0.9-0.6v-2.5
		c0-0.4,0-1.1,0.5-1.7l7.5-9.6h-6.6C80.2,23.9,79.9,23.7,79.9,23.3z"/>
	<path class="st2" d="M34.1,38.8h-3.8c-0.4,0-0.7-0.3-0.7-0.6V20.9c0-0.3,0.3-0.6,0.7-0.6h3.6c0.4,0,0.7,0.3,0.7,0.6v2.3h0.1
		c0.9-2.2,2.7-3.2,5-3.2c2.4,0,3.9,1,5,3.2c0.9-2.2,3-3.2,5.3-3.2c1.6,0,3.4,0.6,4.4,1.9c1.2,1.5,1,3.6,1,5.5v11
		c0,0.3-0.3,0.6-0.7,0.6h-3.8c-0.4,0-0.7-0.3-0.7-0.6v-9.2c0-0.7,0.1-2.6-0.1-3.3c-0.3-1.2-1.1-1.5-2.2-1.5c-0.9,0-1.9,0.5-2.3,1.4
		s-0.4,2.3-0.4,3.3v9.2c0,0.3-0.3,0.6-0.7,0.6h-4c-0.4,0-0.7-0.3-0.7-0.6v-9.2c0-1.9,0.4-4.8-2.4-4.8c-2.7,0-2.6,2.8-2.6,4.8v9.2
		C34.8,38.5,34.5,38.8,34.1,38.8z"/>
	<path class="st2" d="M104.7,19.9c5.7,0,8.7,4.3,8.7,9.8c0,5.3-3.4,9.5-8.7,9.5c-5.6,0-8.6-4.3-8.6-9.7S99.2,19.9,104.7,19.9z
		 M104.8,23.4c-2.8,0-3,3.4-3,5.5s0,6.7,3,6.7s3.1-3.7,3.1-5.9c0-1.5-0.1-3.2-0.6-4.6C106.8,23.9,106,23.4,104.8,23.4z"/>
	<path class="st2" d="M120.8,38.8H117c-0.4,0-0.7-0.3-0.7-0.6V20.8c0-0.3,0.3-0.6,0.7-0.6h3.5c0.3,0,0.6,0.2,0.7,0.5v2.7h0.1
		c1.1-2.4,2.6-3.5,5.2-3.5c1.7,0,3.4,0.5,4.5,2c1,1.4,1,3.7,1,5.4v10.9c0,0.3-0.4,0.5-0.7,0.5h-3.8c-0.3,0-0.6-0.3-0.7-0.5v-9.4
		c0-1.9,0.2-4.7-2.4-4.7c-0.9,0-1.8,0.6-2.2,1.4c-0.5,1.1-0.6,2.1-0.6,3.3v9.4C121.6,38.5,121.3,38.8,120.8,38.8z"/>
	<path class="st2" d="M69.9,30.5c0,1.3,0,2.4-0.7,3.6c-0.6,1-1.6,1.5-2.6,1.5c-1.5,0-2.3-1-2.3-2.5c0-2.9,2.9-3.4,5.7-3.4v0.8H69.9z
		 M73.8,38.8c-0.3,0.2-0.6,0.2-0.9,0.1c-1.3-0.9-1.5-1.4-2.2-2.3c-2.1,1.9-3.6,2.5-6.3,2.5c-3.2,0-5.7-1.8-5.7-5.3
		c0-2.8,1.7-4.6,4.1-5.5c2.1-0.8,5-1,7.2-1.2v-0.4c0-0.8,0.1-1.8-0.5-2.5c-0.5-0.6-1.4-0.9-2.1-0.9c-1.5,0-2.8,0.7-3.1,2
		c-0.1,0.3-0.3,0.6-0.7,0.6l-3.7-0.4c-0.3-0.1-0.7-0.3-0.6-0.7c0.8-4,4.9-5.2,8.6-5.2c1.9,0,4.3,0.4,5.8,1.7
		c1.9,1.5,1.7,3.6,1.7,5.8v5.3c0,1.6,0.7,2.3,1.4,3.1c0.2,0.3,0.3,0.7,0,0.9C75.9,37.1,74.5,38.2,73.8,38.8L73.8,38.8z"/>
	<path class="st2" d="M19.8,30.5c0,1.3,0,2.4-0.7,3.6c-0.7,1-1.6,1.6-2.7,1.6c-1.5,0-2.3-1-2.3-2.5c0-2.9,2.9-3.4,5.7-3.4V30.5z
		 M23.6,38.8C23.3,39,23,39,22.7,38.9c-1.3-0.9-1.5-1.4-2.2-2.3c-2.1,1.9-3.6,2.5-6.3,2.5c-3.2,0-5.7-1.8-5.7-5.3
		c0-2.8,1.7-4.6,4.1-5.5c2.1-0.8,5-1,7.2-1.2v-0.4c0-0.8,0.1-1.8-0.5-2.5c-0.5-0.6-1.4-0.9-2.1-0.9c-1.5,0-2.8,0.7-3.1,2
		c-0.1,0.3-0.3,0.6-0.7,0.6l-3.7-0.4c-0.3-0.1-0.7-0.3-0.6-0.7c0.9-4,4.9-5.2,8.6-5.2c1.9,0,4.3,0.4,5.8,1.7
		c1.9,1.5,1.7,3.6,1.7,5.8v5.3c0,1.6,0.7,2.3,1.4,3.1c0.2,0.3,0.3,0.7,0,0.9C25.8,37.1,24.4,38.2,23.6,38.8L23.6,38.8z"/>
</g>
<g class="st0">
	<path class="st3" d="M37.6,37.4c-0.1-0.1-0.2,0-0.3,0.1c-0.1,0.1-0.2,0.2-0.3,0.4c-1.3,1.5-2.5,3-3.8,4.5c-0.2,0.2-0.4,0.4-0.6,0.7
		c-0.1,0.1-0.2,0.2-0.4,0.1c-1.1-0.8-2.2-1.5-3.7-1.6c0.2-0.2,0.3-0.3,0.4-0.4c1.4-1.2,2.6-2.7,3.9-4c1.9-2,2.6-4.3,2.4-7
		c-0.1-1.6-0.6-3.2-0.5-4.8c0-0.5-0.3-0.3-0.5-0.1c-0.5,0.4-1,0.3-1.5,0c-0.3-0.2-0.7-0.2-1-0.1c-1.2,0.5-2.4,1.1-3.6,1.8
		c-0.1,0.1-0.3,0.2-0.3,0.3c-0.5,0.9-1,1.8-1.5,2.6c-0.2,0.3,0,0.4,0.2,0.4c0.5,0,0.8-0.2,1.1-0.5c0.7-0.8,1.4-1.6,1.9-2.5
		c0.1-0.1,0.2-0.3,0.4-0.3c0.2,0.1,0.1,0.3,0.1,0.4c-0.1,1.2-0.2,2.3-0.6,3.4c-0.6,1.5-1.3,2.9-2.2,4.2c0.9-0.7,1.9-1.3,2.6-2.3
		c1.1-1.7,2.2-3.5,2.3-5.6c0-0.2,0.1-0.3,0.3-0.4c0.2,0,0.2,0.2,0.2,0.3c0,1.1,0.4,2.1,0.5,3.2c0.1,1.9,0.3,3.8-0.7,5.6
		c-0.8,1.4-1.7,2.7-2.7,3.9c-0.7,0.9-1.6,1.6-2.8,1.8c-1.4,0.3-2.6,1.2-3.6,2.2c0.3,0.1,0.4-0.1,0.6-0.1c2-0.8,4.1-1.1,6,0.4
		c0.3,0.2,0.6,0.4,0.8,0.6c0.5,0.5,0.8,0.3,1.2-0.1c1.4-1.6,2.8-3.2,4.2-4.9c0.5-0.7,1-1.4,1.5-2.1C37.7,37.7,37.8,37.5,37.6,37.4z"
		/>
	<path class="st3" d="M73.1,27.5c-0.3-1.1-0.2-1.9,0.6-2.7c0.4-0.4,0.8-0.9,1.4-1.2c0.1,0.5,0,1,0.2,1.6c1.1-0.8,2.5-1.2,2.2-3v-0.1
		c0-0.3-0.1-0.4-0.4-0.3c-0.8,0.3-1.5,0.7-2.2,1.2c-0.9,0.6-1.6,1.4-2.3,2.3c-0.1-0.1-0.1-0.2-0.1-0.3c-0.3-0.8-0.3-0.9-1.1-0.4
		c-1,0.6-2.1,1.2-3.1,1.8c-0.8,0.5-1,0.8-0.8,1.5c0.6,2.1,1.5,4.1,2.6,6c0.3,0.5,0.7,0.5,1.1,0.1c0.4-0.4,0.4-0.9,0.3-1.4
		c-0.3-0.9-0.4-1.8-0.3-2.9c0.3,0.4,0.4,0.7,0.4,1c0.4,1.9,1,3.7,1.6,5.5c0.5,1.7,0.9,3.3,0.9,5.1c0,1.1,0,2.2,0,3.3
		c0.4-0.8,0.6-1.6,0.7-2.4c0.5-2.8,0.8-5.6,0-8.4C74.2,31.6,73.7,29.6,73.1,27.5z M70.4,29.6c-0.4-0.9-0.7-1.9-0.9-2.8
		c-0.1-0.4,0.1-0.6,0.5-0.7s0.5,0.1,0.6,0.4C70.9,27.6,71.2,28.6,70.4,29.6z"/>
	<path class="st3" d="M80.6,31.8c0-3.1,0-6.1,0-9.2c0-2.8,0-5.5,0-8.3c0-0.2,0.1-0.5-0.1-0.5c-0.4-0.1-0.8-0.1-1.2,0
		c-0.2,0.1-0.1,0.4-0.1,0.7c0,11.4,0,22.8,0,34.2c0,0.2,0,0.5,0,0.7c0,0.1,0,0.3,0.1,0.3c0.4,0,0.8,0.1,1.2,0
		c0.3-0.1,0.1-0.4,0.1-0.6C80.6,43.3,80.6,37.5,80.6,31.8z"/>
	<path class="st3" d="M47.4,25c-0.8,0.1-1.5,0.1-2.2-0.3c-0.1,0-0.2,0-0.2-0.1c-0.3,0-0.5,0.2-0.7,0.4c-0.7,0.6-1.4,1.2-2.1,1.7
		c-0.4,0.3-0.7,0.6-0.9,1.1c-0.3,0.8-0.6,1.6-0.7,2.4c-0.1,1.2,0.4,2,1.4,2.6c0.5,0.3,1.1,0.2,1.6,0.1c0.9-0.1,1.7,0.2,2.4,0.8
		c0.5,0.4,0.9,0.9,1.3,1.3c0.1,0.1,0.3,0.4,0.5,0.2c0.2-0.1,0.1-0.3,0-0.5c-0.1-0.3-0.1-0.6,0-0.8c0.2-0.5,0.1-0.9-0.1-1.4
		c-0.4-1-0.6-1.9-0.7-3c-0.1-1.4,0.2-2.6,0.9-3.8C48.1,25,48,24.9,47.4,25z M45.8,30.5c-0.6-0.3-1.3-0.3-2-0.3
		c-0.9,0.1-1.1-0.2-1-1.1c0.1-1,0.6-1.7,1.6-2c0.8-0.2,1.4,0.1,1.4,1C45.8,28.9,45.8,29.6,45.8,30.5z"/>
	<path class="st3" d="M18.4,33.7c0.1-0.2,0-0.4-0.1-0.5c-0.5-0.8-0.8-1.7-1-2.6c-0.3-1.7-0.4-3.4,0.3-5c0.1-0.2,0.3-0.3,0.1-0.5
		c-0.1-0.2-0.4,0-0.5,0c-0.6,0.2-1.2,0.3-1.8,0c-0.6-0.4-1-0.2-1.4,0.2c-0.6,0.7-1.3,1.3-2.1,1.9c-0.4,0.3-0.6,0.7-0.7,1.1
		c-0.2,1-0.3,2-0.4,2.7c0,1.5,0.9,2.3,2.1,2.1c1.5-0.3,2.9-0.1,4.2,1c0.4,0.4,0.8,0.9,1.1,1.3c0.1,0.1,0.2,0.3,0.4,0.2
		c0.2-0.1,0.1-0.3,0-0.4C18.4,34.7,18.2,34.3,18.4,33.7z M13.8,30.8c-0.5,0-0.7-0.2-0.8-0.7c-0.2-0.9,0.3-2,1.1-2.4
		c0.5-0.2,1,0,1.4,0.1c0.4,0.1,0.2,0.5,0.3,0.8c0.2,0.8,0.3,1.7,0.5,2.6C15.4,30.8,14.6,30.8,13.8,30.8z"/>
	<path class="st3" d="M90.1,26c1.3,0,2.5,0,3.7,0c-0.9-0.4-0.9-0.4-0.9-1.5c0-0.8,0-1.7,0-2.5c0-0.4,0.1-0.5,0.5-0.5
		c0.5,0,1,0,1.5,0c0.4,0,0.5,0.1,0.5,0.5c0,0.8,0,1.6,0,2.4c0,1.1,0,1.1-1,1.6c1.3,0,2.5,0,3.8,0c-1.1-0.5-1.1-0.5-1.1-1.6
		c0-2.1,0-4.1,0-6.2c0-0.7-0.2-1.6,1.2-1.6c-0.7-0.3-3.5-0.3-3.8,0c0.9,0.3,0.9,0.3,0.9,1.3c0,0.3,0,0.7,0,1c0,0.6,0.3,1.4-0.1,1.8
		s-1.2,0.1-1.9,0.1c-0.4,0-0.5-0.1-0.4-0.5c0-0.7,0-1.4,0-2.1c0-1.2,0-1.2,1.1-1.7c-1.4-0.1-2.5-0.1-3.7,0c0.9,0.4,0.9,0.4,0.9,1.5
		c0,2.1,0,4.1,0,6.2C91.1,25.4,91.1,25.4,90.1,26z"/>
	<path class="st3" d="M20,25.4c-0.7,0.2-1,0.6-1,1.3c-0.1,2.6,0.1,5.2,0.4,7.8c0.3,2.7,0.6,5.4,0.1,8.1c-0.1,0.6-0.3,1.2-0.4,1.8
		c0.3-0.1,0.3-0.3,0.4-0.5c1.8-3.3,2.3-6.9,2.2-10.6c-0.1-2.8-0.7-5.6,0.1-8.5C21.1,25.1,20.5,25.3,20,25.4z"/>
	<path class="st3" d="M111.9,45.9c-0.4-0.8-0.8-1.5-1.2-2.3c-0.2-0.4-0.2-0.5,0.2-0.7c0.9-0.5,1.3-1.7,1-2.9c-0.3-1.1-0.9-1.7-2-1.8
		c-1.4-0.1-2.7,0-4.1-0.1c-0.1,0-0.2,0-0.2,0.3c0.5,0,0.9,0.2,0.9,0.8c0,2.5,0,5,0,7.5c0,0.4-0.2,0.7-0.6,0.7c-0.1,0-0.3,0-0.3,0.2
		c1.2,0,2.3,0,3.5,0c-0.9-0.4-0.9-0.5-0.9-1.5c0-0.7,0-1.5,0-2.2c0-0.2-0.1-0.4,0.2-0.5c0.3-0.1,0.4,0.2,0.5,0.4
		c0.6,1.2,1.2,2.4,1.8,3.6c0.1,0.2,0.2,0.4,0.5,0.4c0.6,0,1.3,0,1.9,0c0-0.1,0.1-0.1,0.1-0.2C112.4,47.1,112.2,46.4,111.9,45.9z
		 M110.2,41.5c-0.2,0.9-0.8,1.4-1.7,1.3c-0.3,0-0.3-0.2-0.3-0.4c0-0.6,0-1.1,0-1.7c0-0.5,0-1.1,0-1.6c0-0.4,0.1-0.4,0.5-0.5
		c0.9,0,1.4,0.3,1.6,1.2C110.3,40.3,110.3,40.9,110.2,41.5z"/>
	<path class="st3" d="M101.4,34.6c0.2-1.4-0.2-2-1.8-2.9c0.1-0.1,0.1-0.1,0.2-0.1c1.1-0.6,1.5-1.4,1.2-2.6c-0.3-1.1-1-1.7-2.2-1.7
		c-0.7,0-1.4,0-2.2,0c-0.6,0-1.1,0-1.7,0c0,0.1,0,0.1,0,0.2c0.9,0.4,0.9,0.4,0.9,1.4c0,2.2,0,4.3,0,6.5c0,0.7-0.1,1.2-0.9,1.3
		c0,0,0,0.1,0,0.2c1.5,0,3,0.1,4.5-0.1C100.5,36.5,101.2,35.6,101.4,34.6z M97.5,29.6c0-0.5,0-1,0-1.5c0-0.3,0.1-0.4,0.4-0.4
		c0.1,0,0.3,0,0.4,0.1c0.7,0.2,1.1,1.1,0.9,2.2c-0.1,0.8-0.6,1.4-1.4,1.4c-0.3,0-0.4,0-0.4-0.3C97.5,30.7,97.5,30.2,97.5,29.6z
		 M98.9,36c-0.3,0.3-0.6,0.4-1,0.3c-0.4-0.2-0.4-0.6-0.4-1c0-0.4,0-0.9,0-1.3c0-0.5,0-1.1,0-1.6c0-0.2,0-0.4,0.3-0.3
		c0.4,0,0.8,0.1,1.1,0.4C99.8,33.2,99.8,35.2,98.9,36z"/>
	<path class="st3" d="M53.5,39.6L53.5,39.6c-0.6,0.3-1,0.1-1.3-0.5c-0.1-0.1-0.1-0.3-0.1-0.4c-0.2-0.7-0.2-1.5-0.2-2.2
		c0-0.3,0-0.6-0.1-1c-1.1-2.5-1.4-5.2-1.1-7.9c0.1-1.1,0.3-2.1,0.6-3.2c-0.8,0.3-1.4,0.5-2.1,0.7c-0.4,0.1-0.5,0.3-0.5,0.7
		c-0.6,3.6-0.4,7.1,1.1,10.5c0.5,1.2,1.2,2.4,2.2,3.3c0.7,0.6,1.2,0.6,1.8,0.1C53.6,39.6,53.6,39.6,53.5,39.6L53.5,39.6z"/>
	<path class="st3" d="M100,17.5c0,2.5,0,5,0,7.4c0,0.4-0.2,0.7-0.7,0.8c-0.1,0-0.3,0-0.3,0.2l0.1,0.1c1.9,0,3.7,0,5.6,0
		c0.1,0,0.3,0,0.3-0.2c0.1-0.9,0.2-1.8,0.3-2.8h-0.1c-0.1,0.3-0.2,0.6-0.3,0.8c-0.5,1.2-1.3,1.7-2.5,1.6c-0.4,0-0.7-0.2-0.7-0.7
		c0-1,0-2,0-3c0-0.3,0.2-0.4,0.4-0.3c0.5,0.1,0.7,0.6,0.8,1c0.2,0.4,0.1,0.8,0.3,1.2c0-1.8,0-3.4,0-5c-0.2,0.4-0.3,0.9-0.4,1.3
		s-0.3,0.7-0.8,0.8c-0.3,0.1-0.4,0-0.4-0.3c0-1.1,0-2.1,0-3.2c0-0.1,0-0.3,0.2-0.3c1.1-0.3,2.2,0.2,2.6,1.4c0.1,0.3,0,0.6,0.4,0.9
		c0-0.9,0-1.6,0-2.4c0-0.4-0.1-0.5-0.5-0.5c-1.3,0-2.6,0-4,0c-0.4,0-0.9,0-1.3,0c0,0.1-0.1,0.2-0.1,0.2C99.5,16.7,100,16.9,100,17.5
		z"/>
	<path class="st3" d="M88.2,45.4c-0.5,1.2-1.3,1.7-2.5,1.6c-0.4,0-0.7-0.2-0.7-0.6c0-1,0-2,0-3.1c0-0.3,0.2-0.4,0.4-0.3
		c0.5,0.1,0.7,0.6,0.8,1c0.2,0.4,0.1,0.8,0.3,1.2c0.1-0.8,0.1-4.5-0.1-5c-0.1,0.5-0.2,0.9-0.3,1.3c-0.1,0.4-0.3,0.8-0.8,0.9
		c-0.3,0.1-0.5,0.1-0.5-0.3c0-1,0-2.1,0-3.1c0-0.2,0-0.3,0.2-0.4c1.1-0.3,2.2,0.3,2.6,1.4c0.1,0.3,0.1,0.5,0.2,0.8
		c0.1,0,0.1,0,0.2,0c0-0.8,0-1.6,0-2.4c0-0.4-0.2-0.4-0.5-0.4c-1.7,0-3.3,0-5,0c-0.1,0-0.3-0.1-0.3,0.2c0.5,0.1,1,0.2,1,0.9
		c0,2.5,0,5,0,7.4c0,0.4-0.2,0.7-0.7,0.8c-0.1,0-0.3,0-0.3,0.2l0.1,0.1c1.9,0,3.7,0,5.6,0c0.2,0,0.3,0,0.3-0.2
		c0.1-0.9,0.2-1.8,0.3-2.8c-0.1,0-0.1,0-0.2,0C88.4,44.9,88.3,45.2,88.2,45.4z"/>
	<path class="st3" d="M97,47.2c-0.2-0.2-0.4-0.5-0.5-0.7c-0.7-1.4-1.4-2.8-2-4.1c-0.1-0.2-0.1-0.4,0-0.6c0.6-0.9,1.1-1.8,1.7-2.7
		c0.2-0.3,0.4-0.5,0.7-0.6c0.1,0,0.3,0,0.2-0.2c0-0.1-0.2-0.1-0.3-0.1c-0.6,0-1.3,0-1.9,0c-0.1,0-0.3,0-0.3,0.1
		c0,0.1,0.1,0.1,0.2,0.2c0.6,0.2,0.6,0.6,0.4,1c-0.3,0.7-0.7,1.4-1.2,2.2c-0.4-0.9-0.8-1.7-1.2-2.5c-0.2-0.4-0.1-0.6,0.4-0.7
		c0.1,0,0.3,0,0.2-0.2c0-0.1-0.2-0.1-0.3-0.1c-1,0-1.9,0-2.9,0c-0.1,0-0.2,0-0.2,0.1c0,0.1,0.1,0.2,0.2,0.2c0.3,0.1,0.5,0.4,0.6,0.7
		c0.5,1,0.9,2,1.5,3c0.6,0.9,0.6,1.7-0.1,2.5c-0.7,0.9-1,2.2-2.2,2.8c-0.1,0.1-0.1,0.2,0,0.2c0.8,0,1.6,0,2.5,0
		c-0.1-0.3-0.3-0.3-0.4-0.3c-0.4-0.2-0.6-0.5-0.4-0.9c0.4-0.9,0.9-1.7,1.5-2.6c0.4,0.8,0.7,1.5,1.1,2.2c0.4,0.9,0.4,0.9-0.3,1.5
		c0.1,0.2,0.3,0.1,0.5,0.1c0.8,0,1.5,0,2.3,0c0.2,0,0.4,0.1,0.5-0.1C97.5,47.3,97.2,47.3,97,47.2z"/>
	<path class="st3" d="M62.1,26.1c-0.6-1-1.1-2-0.8-3.2c-0.7,0.1-1.2,0.5-1.7,0.7c-0.3,0.1-0.4,0.3-0.4,0.6c0,1,0.1,1.9,0.6,2.7
		c0.1,0.2,0.3,0.4,0.3,0.7c-0.8-0.2-1.4,0.1-1.9,0.6c-0.7,0.6-1.4,1.3-2.2,1.9c-0.3,0.2-0.4,0.5-0.3,0.9c0.1,1,1,1.6,1.9,1.4
		c0.6-0.1,1.1-0.3,1.6-0.7c1.3-0.8,2.2-2,2.8-3.3C62.3,27.7,62.6,26.9,62.1,26.1z M59.2,30.6c-0.6,0.5-1.5,0.3-1.7-0.5
		c-0.1-0.4,0.1-0.7,0.5-0.9c0.3-0.1,0.6-0.2,0.9-0.1c0.4,0.2,0.7,0.1,1.1-0.3C59.9,29.6,59.7,30.2,59.2,30.6z"/>
	<path class="st3" d="M119.8,45.5c-0.4,1.1-1.1,1.6-2.4,1.6c-0.5,0-0.8-0.2-0.8-0.8c0-1,0-2,0-3c0-0.3,0.2-0.4,0.4-0.3
		c0.6,0.1,0.7,0.7,0.9,1.1c0.1,0.3,0,0.7,0.3,1.1c0-1.7,0-3.4,0-5c-0.2,0.4-0.3,0.9-0.4,1.3c-0.1,0.4-0.3,0.7-0.7,0.8
		c-0.3,0.1-0.5,0.1-0.5-0.3c0-1,0-2.1,0-3.1c0-0.1,0-0.3,0.2-0.4c0.8-0.4,2.2,0.2,2.5,1c0.1,0.4,0.2,0.8,0.3,1.2c0.1,0,0.1,0,0.2,0
		c0-0.8,0-1.5,0-2.3c0-0.4-0.1-0.5-0.5-0.5c-1.6,0-3.3,0-4.9,0c-0.1,0-0.3-0.1-0.4,0.1c1,0.6,1,0.6,1,1.9c0,1.1,0,2.3,0,3.4
		c0,0.9,0,1.9,0,2.8c0,0.6-0.1,1.1-0.9,1.1c0,0,0,0.1-0.1,0.1l0.1,0.1c1.9,0,3.7,0,5.6,0c0.1,0,0.3,0,0.3-0.2
		c0.1-0.9,0.2-1.9,0.3-2.8c-0.1,0-0.1,0-0.2,0C120,44.9,119.9,45.2,119.8,45.5z"/>
	<path class="st3" d="M102.6,38.2c-1.3-0.3-2.6-0.1-3.9-0.1c-0.1,0-0.2,0-0.2,0.2c0,0.1,0.1,0.1,0.2,0.1c0.7,0,0.7,0.5,0.7,1
		c0,0.9,0,1.9,0,2.8c0,1.4,0,2.7,0,4.1c0,0.6-0.1,1.1-0.9,1.1c0,0-0.1,0.1-0.1,0.2c1.2,0,2.3,0,3.5,0c0-0.1,0-0.1,0.1-0.2
		c-0.9-0.1-1-0.6-1-1.3c0-0.6,0-1.1,0-1.7c0-1,0-1,1-1.1c0.1,0,0.3,0,0.4-0.1c1.1-0.2,1.8-1.1,1.9-2.4
		C104.4,39.4,103.7,38.4,102.6,38.2z M102.4,41.9c-0.1,0.2-0.2,0.4-0.4,0.6c-0.2,0.2-0.5,0.3-0.8,0.2s-0.1-0.4-0.1-0.6
		c0-0.5,0-0.9,0-1.4c0-0.6,0-1.1,0-1.7c0-0.4,0.2-0.5,0.5-0.4c0.4,0.1,0.7,0.4,0.9,0.8C102.7,40.2,102.7,41.1,102.4,41.9z"/>
	<path class="st3" d="M108.8,35.6c0.1-0.6,0.1-1.2,0.2-1.8c-0.2,0.3-0.3,0.6-0.5,0.9c-0.5,1.1-1.1,1.6-2.3,1.6
		c-0.7,0-0.9-0.2-0.9-0.9c0-0.9,0-1.7,0-2.6c0-0.2-0.1-0.5,0.1-0.5c0.2-0.1,0.5,0,0.7,0.2c0.3,0.3,0.4,0.6,0.5,1
		c0.1,0.3,0.1,0.6,0.2,0.9h0.1c0-1.6,0-3.2,0-4.9c-0.2,0.4-0.3,0.9-0.4,1.3s-0.4,0.7-0.8,0.8c-0.3,0.1-0.4,0-0.4-0.3
		c0-1.1,0-2.1,0-3.2c0-0.2,0-0.3,0.3-0.3c1.3-0.3,2.2,0.3,2.6,1.6c0.1,0.2,0,0.5,0.3,0.8c0-0.9,0-1.6,0-2.4c0-0.5-0.2-0.5-0.6-0.5
		c-1.6,0-3.2,0-4.8,0c-0.2,0-0.4-0.1-0.5,0.2c1.1,0,1,0.8,1,1.5c0,2,0,4,0,6c0,0.7,0.2,1.5-1.1,1.6c0.3,0.3,0.5,0.2,0.7,0.2
		c1.4,0,2.8,0,4.1,0C108.7,36.8,108.7,36.8,108.8,35.6z"/>
	<path class="st3" d="M16,23.6c0.1-0.4,0.1-0.7,0.3-1.1c0.5-1.5,1.2-1.9,2.8-1.7c0.2,0,0.4,0.1,0.7,0.1c1.8,0.3,3.3,1.1,5,1.8
		l0.1-0.1c-1.1-0.6-2-1.3-2.3-2.7c0-0.2-0.2-0.5-0.5-0.6c-1.6-0.9-3.6-0.5-4.9,0.9c-0.7,0.7-1.1,1.5-1.3,2.4
		c-0.1,0.4-0.2,0.8-0.3,1.3c-0.4-0.5-0.7-0.9-1.1-1.3c-0.2-0.2-0.2-0.4-0.2-0.6c-0.1-1.7-1.6-3.1-3.3-3.1c-0.1,0-0.2,0-0.2,0.1
		c-0.7,0.5-1.4,1-2.2,1.6c3.2,0.3,5.3,2.2,7.5,4.3C15.9,24.4,15.9,24,16,23.6z"/>
	<path class="st3" d="M26.4,23c1.1,0.4,2.3,0.4,3.4,0.1c0.2-0.1,0.4-0.2,0.5-0.4c0.2-0.2,0.4-0.5,0.3-0.9c-0.1-0.3-0.5-0.3-0.8-0.3
		c-0.6,0-1.1-0.1-1.7-0.1c-0.3,0-0.5-0.2-0.2-0.5c0.6-0.5,1.3-0.9,2.1-0.6c0.6,0.2,1.2,0.5,1.7,0.9c1.4,1.2,2.5,2.7,3.8,3.9
		c-0.4-0.6-0.8-1.2-1.2-1.8C34,22.9,33.9,22.5,34,22c0.1-0.8,0.2-1.6-0.5-2.2c-0.7-0.7-1.5-1.2-2.5-1.4c-0.7-0.2-1.4-0.1-2,0.4
		c-1,0.8-2,1.8-2.9,2.8C25.8,21.9,25.8,22.8,26.4,23z"/>
	<path class="st3" d="M124.1,41.1c-0.4-0.3-0.7-0.6-0.9-1.1c-0.2-0.6,0-1.3,0.5-1.5c0.5-0.3,1-0.2,1.5,0.2c0.6,0.5,0.9,1.1,1,1.9
		c0,0.1,0,0.3,0.2,0.4c0-1,0-2,0-3.1c-0.3,0.8-0.7,0.5-1.1,0.2c-1.1-0.6-2.1-0.4-2.8,0.7c-0.8,1.2-0.6,2.9,0.5,4
		c0.5,0.5,1.1,0.9,1.7,1.3c0.4,0.3,0.8,0.6,1,1.1c0.2,0.7,0,1.5-0.5,1.8s-1.2,0.2-1.7-0.3c-0.6-0.5-0.8-1.2-1-1.9
		c-0.1-0.2,0-0.5-0.3-0.7c0,1.2,0,2.4,0,3.5c0.4-0.7,0.8-0.5,1.4-0.2c1.1,0.6,2.2,0.3,2.9-0.8c0.9-1.3,0.7-3.1-0.4-4.2
		C125.4,42,124.7,41.6,124.1,41.1z"/>
	<path class="st3" d="M132.5,42.5c-0.5-0.5-1.1-0.9-1.7-1.3c-0.4-0.3-0.7-0.5-0.9-0.9c-0.3-0.6-0.1-1.4,0.4-1.7
		c0.4-0.3,1.1-0.2,1.6,0.2c0.4,0.4,0.7,0.9,0.9,1.5c0.1,0.2,0,0.5,0.3,0.8c0-1.1,0-2.1,0-3.1c-0.2,0.7-0.6,0.6-1.1,0.3
		c-1.2-0.7-2.4-0.4-3,0.9c-0.6,1.2-0.4,2.8,0.6,3.8c0.5,0.5,1.1,0.9,1.7,1.3c0.4,0.3,0.7,0.6,0.9,1.1c0.3,0.7,0.1,1.5-0.5,1.9
		c-0.5,0.3-1.2,0.2-1.8-0.3c-0.5-0.5-0.8-1.1-1-1.8c-0.1-0.2-0.1-0.5-0.3-0.8c0,1.3,0,2.4,0,3.6c0.4-0.6,0.8-0.5,1.3-0.3
		c1.2,0.7,2.4,0.3,3.1-0.9C133.8,45.2,133.6,43.6,132.5,42.5z"/>
	<path class="st3" d="M39.4,24.9c-0.6,0.2-1.3,0.4-1.9,0.6c-0.4,0.1-0.5,0.3-0.6,0.7c-0.3,0.8-0.4,1.6-0.4,2.5
		c0,0.4,0.1,0.8,0.1,1.2c0.2,1.9,0.9,3.7,1.7,5.4c0.1,0.2,0.1,0.5,0.4,0.4c0.4-0.1,0.3-0.4,0.2-0.7c-0.3-0.8-0.2-1.6,0.4-2.3
		c0.2-0.3,0.4-0.6,0.3-1c-0.5-2-0.6-4.1,0-6.1c0-0.2,0.1-0.3,0.1-0.5C39.8,24.9,39.6,24.8,39.4,24.9z"/>
	<path class="st3" d="M55.3,24.5c-0.8,0.2-1.5,0.5-2.2,0.7c-0.3,0.1-0.5,0.3-0.6,0.7c-1,3.4,0.2,6.4,1.5,9.4
		c0.1,0.1,0.1,0.2,0.3,0.2c0.1,0,0.2-0.1,0.2-0.2c0-0.2,0-0.3,0-0.5c-0.3-0.8-0.1-1.6,0.4-2.3c0.3-0.4,0.3-0.9,0.2-1.4
		c-0.4-1.5-0.5-3.1-0.2-4.6C55,25.8,55.3,25.2,55.3,24.5z"/>
	<path class="st3" d="M24.8,35.8c0.4-0.1,0.3-0.4,0.2-0.7c-0.3-0.9-0.1-1.6,0.4-2.4c0.3-0.4,0.3-0.8,0.2-1.3c-0.4-1.5-0.5-3-0.2-4.6
		c0.1-0.7,0.4-1.3,0.4-2.1c-0.8,0.3-1.6,0.5-2.4,0.8c-0.2,0.1-0.3,0.2-0.4,0.4c-0.2,0.7-0.4,1.4-0.4,2.2c-0.1,2.6,0.9,4.9,1.8,7.2
		C24.5,35.5,24.5,35.8,24.8,35.8z"/>
	<path class="st3" d="M64.1,28.2c-0.8,0-2.3,1-2.5,1.7c-0.1,0.2,0,0.3,0.2,0.3c0.2,0.1,0.4,0,0.5-0.1c1.2-0.3,2.8,0.8,3,2
		c0.1,0.6-0.1,0.8-0.7,0.7c-1.1-0.3-2.3-0.4-2.7-1.8c-0.1-0.3-0.5-0.5-0.9-0.4s-0.2,0.5-0.1,0.8c0.2,0.7,0.5,1.5,1,2.1
		c0.8,1.1,2,1.4,3,0.7c0.9-0.7,1.6-1.5,2.2-2.4c0.3-0.4,0.3-0.9,0.2-1.4C66.7,29.3,65.2,28.2,64.1,28.2z"/>
	<path class="st3" d="M83.1,17.8c0.2-0.5,0.6-0.7,1.2-0.7c0.4,0,0.6,0.1,0.6,0.5c0,2.2,0,4.4,0,6.6c0,0.7,0.2,1.6-0.9,1.8
		c1.2,0,2.4,0,3.7,0c-1.2-0.6-1.2-0.6-1.2-1.8c0-2.1,0-4.2,0-6.3c0-0.3-0.1-0.6,0.1-0.7c0.4-0.1,0.8-0.1,1.2,0.2
		c0.3,0.2,0.5,0.6,0.6,0.9c0.1,0.3,0.2,0.5,0.2,0.8c0.1,0,0.1,0,0.2,0c0-0.7,0-1.5,0-2.2c0-0.3-0.2-0.3-0.4-0.3c-1.8,0-3.7,0-5.5,0
		c-0.2,0-0.4,0-0.4,0.2c0,0.8,0,1.5,0,2.3C82.8,18.6,82.9,18.2,83.1,17.8z"/>
	<path class="st3" d="M110.6,29.8c0.1,0,0.1,0,0.2,0c0.1-0.4,0.2-0.8,0.3-1.2c0.3-0.6,0.7-0.8,1.3-0.8c0.3,0,0.4,0.1,0.4,0.4
		c0,2.5,0,5,0,7.6c0,0.5-0.2,0.8-0.7,0.8c-0.1,0-0.2,0-0.2,0.2c1.2,0,2.4,0,3.8,0c-1.1-0.5-1.1-0.5-1.1-1.6c0-2.2,0-4.3,0-6.5
		c0-0.3-0.2-0.7,0.1-0.8c0.4-0.1,0.8-0.1,1.2,0.2c0.4,0.3,0.5,0.7,0.6,1.1c0.1,0.2,0,0.5,0.3,0.8c0-0.9,0-1.6,0-2.4
		c0-0.2-0.2-0.2-0.3-0.2c-1.9,0-3.7,0-5.6,0c-0.2,0-0.3,0.1-0.3,0.3C110.6,28.3,110.6,29,110.6,29.8z"/>
	<path class="st3" d="M88.4,27.3c-1.9,0-3.7,0-5.6,0c-0.2,0-0.3,0-0.3,0.2c0,0.8,0,1.5,0,2.3c0.3-0.4,0.4-0.7,0.5-1.1
		c0.2-0.5,0.6-0.8,1.1-0.9s0.7,0,0.7,0.6c0,2.2,0,4.4,0,6.6c0,0.7,0.2,1.6-1,1.7c1.3,0.1,2.5,0.1,3.7,0c-0.5-0.1-1-0.3-1-0.9
		c0-2.5,0-5.1,0-7.6c0-0.3,0.1-0.3,0.4-0.4c0.7,0,1.2,0.2,1.4,0.9c0.1,0.3,0.2,0.7,0.3,1.1c0.1,0,0.1,0,0.2,0c0-0.7,0-1.4,0-2.1
		C88.8,27.4,88.7,27.3,88.4,27.3z"/>
	<path class="st3" d="M78.3,34.4c-0.4-0.6-0.9-1.2-0.5-1.9c0.5-0.8,0.3-1.4,0-2.1c-0.2-0.4-0.3-0.8-0.3-1.2c-0.3-1.5-0.4-3-0.1-4.8
		c0-0.2-0.2-0.3-0.5-0.1c-0.6,0.4-1.2,0.8-1.8,1.1c-0.3,0.2-0.3,0.4-0.3,0.6c0,1.3,0.1,2.7,0.4,4c0.5,1.8,1.2,3.4,2.7,4.6
		c0.2,0.1,0.4,0.4,0.6,0.2C78.8,34.7,78.5,34.6,78.3,34.4z"/>
	<path class="st3" d="M93.9,27.5c-0.1-0.1-0.1-0.1-0.2-0.2c-1.2,0-2.4,0-3.5,0c0.9,0.4,0.9,0.4,0.9,1.6c0,2.1,0,4.1,0,6.2
		c0,0.7,0.2,1.6-1,1.7c1.3,0.1,2.4,0.2,3.6,0c-0.9-0.4-0.9-0.4-0.9-1.4c0-2.1,0-4.2,0-6.3C92.8,28.3,92.6,27.5,93.9,27.5z"/>
	<path class="st3" d="M57.6,19.9c1.7,0.3,3.2,0.9,4.4,2.1c0.6,0.6,1.2,1.3,1.9,1.9c0.3,0.3,0.6,0.6,1.1,0.9c0-0.3-0.2-0.5-0.4-0.6
		c-0.7-0.8-1.4-1.7-2.1-2.5c-0.3-0.3-0.5-0.7-0.6-1.1c0-1.3-0.7-2.1-2-2.4c-0.1,0-0.2-0.1-0.4-0.1c-2.2-0.7-3-0.5-4.5,1.3
		c-0.1,0.3-0.5,0.7-0.7,1.3C55.4,20,56.5,19.7,57.6,19.9z"/>
	<path class="st3" d="M24.6,22.7c0.3,0.2,0.6,0.3,1,0.3c-0.3-0.2-0.6-0.3-0.9-0.5C24.8,22.7,24.8,22.8,24.6,22.7z"/>
	<path class="st3" d="M53.5,39.6c0.1-0.1,0.2,0,0.2,0.1c0.4-0.2,0.4-0.5,0.4-0.9C53.8,39.1,53.7,39.3,53.5,39.6z"/>
</g>
<g>
	<path d="M62.6,55.5c-3-0.6-5.8-1.7-8.3-3.3c-8.6-5.6-13-13.5-12-23.9c0.1-1.1-0.2-1.4-1.2-1.4c-0.1,0-0.3,0-0.4,0
		c-0.8-0.2-1,0.2-0.9,0.9c0.1,2.2,0,4.3,0.3,6.5c1.5,11.4,9,20,20.1,23c1.1,0.3,2.3,0.6,3.5,0.9c0-0.4-0.1-0.8,0-1.1
		C64,56,63.5,55.7,62.6,55.5z"/>
	<path d="M48.7,43.7c0.9-0.6,0.9-1.2,0.3-2.2c-5.2-8.4-3.9-19,3.2-26.2c0.9-0.9-0.1-1.1-0.4-1.6c-0.4-0.7-0.7-0.1-1,0.1
		c-8.1,7.8-9.2,20.8-2.5,30.2C48.4,44,48.5,43.8,48.7,43.7z"/>
	<path d="M47.4,15.1c2.1-2.7,4.7-4.8,7.6-6.5c1.6-0.9,1.6-1,0.4-2.5c-0.2-0.3-0.3-0.3-0.7-0.2c-4,2-7.4,4.9-10.1,8.6
		c0.6,0.3,1.1,0.5,1.5,0.8C46.8,15.8,47.1,15.6,47.4,15.1z"/>
	<path d="M52.9,43.7C52.9,43.7,52.9,43.6,52.9,43.7c-0.1-0.7-0.5-1.1-0.9-1.5c-2.8-3.8-4.1-8.2-3.7-12.9c0.8-8.1,5.2-13.6,12.6-16.7
		c1.7-0.7,1.8-0.9,1.6-2.7c-0.2-1.5-0.3-3.1-0.5-4.6c-0.1-0.7,0.1-1.2,0.9-1.2c0.7,0,1.4-0.2,2.1-0.2c6.5-0.3,12.3,1.4,17.6,5.2
		c0.7,0.5,1.3,1.2,2.1,1.5c0,0,0.1,0,0.1,0c0,0,0-0.1,0-0.1c0.1-0.1,0.1-0.1,0.2-0.2c0,0,0.1,0,0.1,0c0-0.1,0-0.2-0.1-0.2
		c-0.3-0.2-0.6-0.4-0.8-0.6c-6.5-5.2-13.8-7.3-22.1-5.9c-0.7,0.1-0.9,0.3-0.8,1c0.3,2,0.5,4.1,0.8,6.1c0.1,0.6,0,0.9-0.7,1.1
		c-8.7,3-14,10.9-13.5,20.1c0.3,4.5,1.9,8.6,4.9,12C52.7,43.8,52.7,43.7,52.9,43.7C52.8,43.7,52.8,43.7,52.9,43.7z"/>
	<path d="M71.3,51.3c-3.7,0.8-7.3,0.6-10.8-0.6c-1.1-0.4-0.9,0.4-1.2,0.9c-0.4,0.6,0,0.8,0.5,1c2.3,0.8,4.8,1.1,7.3,1.2
		c1.5-0.1,3.1-0.1,4.7-0.6c0.3-0.1,1.1,0.1,0.7-0.6C72.2,52.1,72.4,51,71.3,51.3z"/>
	<path d="M86.8,49.1C86.8,49.1,86.8,49.1,86.8,49.1c-1.5,1.2-2.8,2.4-4.2,3.5c-1.1,0.9-1.3,0.9-2-0.3c-0.9-1.5-1.8-3.1-2.8-4.6
		c-0.3-0.5-0.7-1-1.4-0.6c-2.4,1.3-5,2-7.7,2.3c-4.1,0.4-8-0.3-11.6-2.5c-0.9-0.5-1.6-1.4-2.6-1.7c0,0-0.1,0-0.1,0c0,0,0,0,0,0.1
		c-0.1,0.1-0.2,0.1-0.2,0.2c6,5.6,15.8,5.7,22,2.4c0.6-0.3,0.8-0.3,1.2,0.3c1.1,1.9,2.2,3.7,3.3,5.6c0.2,0.4,0.4,0.7,0.9,0.3
		c2-1.4,3.8-2.9,5.3-4.8C87,49.3,86.9,49.2,86.8,49.1C86.8,49.1,86.8,49.1,86.8,49.1z"/>
	<path d="M94,27.6c-0.7-4.7-2.2-9.1-5.1-12.9c-0.1,0.1-0.1,0.2-0.2,0.2c0,0-0.1,0-0.1,0c0,0,0,0.1,0,0.1c0,0.5,0.3,0.8,0.6,1.2
		c0.9,1.4,1.6,2.8,2.3,4.2c1.8,4.1,2.2,8.5,2,12.9c0,0,0,0,0,0.1c0.1-0.1,0.1-0.1,0.2-0.1c0.1,0.3-0.1,0.6,0.2,0.9
		C94.4,32,94.3,29.8,94,27.6z"/>
	<path d="M93.5,33.5c-0.2,0.2-0.2,0.5-0.2,0.7c-0.3,2.5-1,5-2,7.3c-0.6,1.4-1.4,2.5-1.9,3.9c0,0,0,0.1,0,0.1c0,0,0.1,0,0.1,0
		c0.1,0.1,0.1,0.1,0.2,0.2c2.3-3.5,3.7-7.4,4.2-11.6C93.5,34.1,93.5,33.8,93.5,33.5z"/>
	<path d="M84.7,10.6c-0.1,0.3,0.1,0.5,0.3,0.6c1.1,1.1,2.3,2.3,3.3,3.5c0.1,0.1,0.2,0.2,0.4,0.2c0-0.1,0.1-0.3,0.3-0.2
		c-0.6-0.8-1.1-1.5-1.7-2.3c-0.5-0.9-1.1-1.8-2.2-2.1c0,0,0,0,0,0C85,10.5,84.8,10.6,84.7,10.6z"/>
	<path d="M89.5,45.6c-0.2,0-0.3,0.1-0.4,0.3c-0.6,1-1.4,1.8-2.1,2.7c-0.1,0.1-0.2,0.3-0.1,0.5c0.1,0,0.2,0.1,0.2,0.2
		c1.1-1.1,1.9-2.3,2.7-3.6C89.6,45.8,89.5,45.7,89.5,45.6z"/>
	<path d="M54.5,45.3c-0.3-0.8-0.8-1.3-1.6-1.6c0,0.1-0.1,0.2-0.3,0.2c0.5,0.7,1,1.2,1.7,1.7C54.2,45.4,54.3,45.3,54.5,45.3z"/>
	<path d="M79.7,27.8c-0.1,2.3,0.3,4.5,0.8,6.8c0.1,0.4,0.2,0.8,0.7,1c-0.3-3.9-0.1-7.8-2-11.5c1.1,0.1,1.5,0.8,1.6,1.7
		c0.1,1,0.2,2.1,0.3,3.1c0.1-1.2,0.2-2.5,0.1-3.7c-0.1-1.5-0.7-2.1-2.2-2.3c-1-0.1-1.8-0.6-2.5-1.3c-2.4-2.4-2.7-2.4-5.7-0.8
		c-1.5,0.8-2.9,0.8-4.4,0.1c-0.9-0.5-1.7-0.9-2.6-1.4c-2.3-1.3-3.5-1-5,1.2c-0.7,1.1-1.3,2.3-2,3.5c-0.6,1-1.3,1.1-2.2,0.3
		c-0.7-0.6-0.9-1.5-1.1-2.5c-1.1,2.1-0.3,4,2,4.8c0.7,0.3,1,0.6,1,1.3c-0.1,0.6,0.2,1.1,0.5,1.5c0.4,0.5,0.8,1.1,0.9,1.7
		c0.2,0.7,0.6,1,1.3,0.8c0.7-0.2,1.1-0.1,1,0.7c0,0.2,0,0.5,0.4,0.5c0-0.7,0-1.3,0-2.2c0.6,0.9,0.4,1.6,0.3,2.2
		c0,0.3-0.2,0.6-0.1,0.8c0.6,1.3,0.3,2.5-0.5,3.6c-0.2,0.3-0.5,0.8-0.1,1c0.5,0.2,1.6,0.3,1.6,0c0.2-1.2,1.3-2,0.9-3.4
		c-0.6-1.8-0.2-3.7-0.4-5.5c0.6,2.1,1.1,4.2,1.9,6.3c0-1.1,0-2.3,0-3.4c0.3,0.7,0.5,1.4,0.9,2.3c0.4-2.1,0.3-3.9-0.1-5.7
		c1.1,1.9,1.6,4,1.7,6.1c0,0.6-0.3,1-1,0.4c-0.2,0.7,0.1,1.3-0.3,1.9c-0.1,0.2-0.5,0.7,0,0.9c0.5,0.1,1.4,0.3,1.5-0.2
		c0.4-1.4,1.3-2.6,0.7-4.2c-0.4-1-0.5-2.1-0.7-3.1c1,1.7,1.4,3.6,2.5,5.3c-0.1-1.1-0.2-2.1-0.6-3.1c-0.4-0.9-1-1.8-0.7-3.2
		c0.9,2.1,2.3,3.7,2.4,5.8c0.4-2.4-1.1-4.4-1.2-6.7c1,2.1,2.5,4,2.4,6.4c0.3-2.7,0.4-5.4-0.2-8c0.5,1.3,1.1,2.6,1.2,4
		c0.1,1.4,0.3,2.7,1.1,4.1c0-3,0-5.8-0.7-8.5c0.4,1.3,1,2.4,1.5,3.6c0.9,2.3,1.4,4.7,0.2,7.1c-0.1,0.3-0.5,0.6-0.2,0.9
		c0.3,0.3,0.7,0.1,1.1,0.1c0.2,0,0.4-0.1,0.5-0.3c0.2-0.8,0.6-1.5,0.6-2.4c0-1.4-0.2-2.9,0.1-4.2c0.5-2.1,0.5-4.1-0.3-6.2
		c0.8,0.2,0.6,1,1,1.4c0.3-0.5-0.1-1.1,0.1-1.7c0.5,0.4,0.3,0.9,0.6,1.2c0,0,0.1,0.1,0.1,0.1c0.1,0.2,0.2,0.3,0.3,0.5h0
		c0.1-0.9,0.1-1.8-0.3-2.7C79.5,25.4,79.7,26.6,79.7,27.8z M60.1,27.1c-1.2,1.1-1.2,2.1-0.3,3.4c0.2,0.2,0.1,0.4,0,0.6
		c-0.3,0.4-0.6,0.5-1.1,0.5c-0.3,0-0.6-0.2-0.6-0.6c0-0.4,0-0.8,0-1.3c0-0.9-0.3-1.8-1.1-2.4c-0.5-0.3-0.4-0.6-0.2-1.1
		c0.2-0.5,0.6-0.6,1-0.4c0.5,0.2,1,0.1,1.5-0.1c0.8-0.5,1.2-0.3,1.2,0.7C60.5,26.7,60.3,26.9,60.1,27.1z M64.5,24
		c-0.3,1.1-1,1.9-2.1,2.2c-0.7,0.2-0.8-0.4-1-0.8c-0.2-0.3,0.1-0.5,0.3-0.6c1.7-0.7,2.3-2,1.9-3.9C64.6,21.9,64.7,22.9,64.5,24z"/>
	<path d="M57.7,44c-4-3-6.3-6.9-6.7-11.9c0-0.5-0.2-0.9-0.7-0.7c-0.8,0-0.9,0-0.8,0.9c0.6,5.4,3,9.8,7.3,13c0.3,0.2,0.6,0.7,1,0
		C58,44.8,58.4,44.5,57.7,44z"/>
	<path d="M57.2,17.8c2.6-2.1,5.6-3.4,9-3.6c0.8,0,0.7-0.6,0.8-1.1c0.1-0.8-0.6-0.3-0.9-0.5c-3.8,0.3-7.2,1.7-10.1,4.1
		c-0.2,0.1-0.5,0.2-0.4,0.5C55.8,17.9,56.8,18.2,57.2,17.8z"/>
	<path d="M65.8,44c-2.6-0.3-5-1.1-7-2.8c-0.7-0.6-0.9-0.1-1.3,0.3c-0.6,0.5,0,0.8,0.2,1c2.3,1.9,5,2.7,8.1,3.2
		c0.5,0.2,0.4-0.5,0.6-0.9C66.6,44.1,66.3,44,65.8,44z"/>
	<path d="M87.8,24.7c-1.7-0.3-3.5-0.4-5.1-1c-0.8-0.3-1.5-0.7-1.7-1.6c-0.1-0.4-0.1-0.7,0.3-0.9c0.3-0.1,0.6,0,0.3-0.5
		c-0.2-0.3-0.6-0.3-0.8-0.1c-0.4,0.3-0.4,0.8-0.3,1.2c0.3,1.2,1.2,1.9,2.3,2.4c1.3,0.6,2.8,0.8,4.3,1c0.8,0.1,1.7,0,1.9,1.3
		c0.2-1.2,1.2-1.2,3.1-0.2c-0.6-0.9-1.4-1.1-2.1-1.3c-0.3-0.1-0.7-0.1-1-0.2c-0.4-0.1,0-0.8-0.6-0.7C88.1,24.2,88.5,24.9,87.8,24.7z
		"/>
	<path d="M89.8,41.2c-0.6-0.2-1-0.6-1.4-1c-0.8-0.8-1.6-1.7-2.4-2.6c-0.2-0.2-0.5-0.6-0.9-0.5c-0.4,0.1-0.6,0.5-0.6,0.9
		c-0.2,0.9,0.1,1.6,0.6,2.4c0.4,0.6,0.8,1.2,1.5,1.1c0.7-0.1,0.5-1,0.7-1.6c0.7,0.8,1.3,1.5,2.2,1.9c0.2,0.1,0.5,0.4,0.6-0.1
		C90.1,41.6,90.1,41.3,89.8,41.2z M86.5,40.7c-0.2,0.1-0.5,0-0.7-0.2c-0.6-0.6-1.1-1.3-1.1-2.2c0-0.2,0-0.4,0.2-0.5
		c0.2-0.1,0.4,0,0.5,0.2c0.5,0.6,1.3,1.1,1.4,1.8C86.9,40.3,86.8,40.6,86.5,40.7z"/>
	<path d="M91.5,31.6c0.4,0.6,0.3,1.3,0.3,1.9c0,0.9-0.3,0.8-0.9,0.4c-0.7-0.5-1.4-0.9-2.1-1.3c-1-0.6-2.1-1-2.9-2
		c0.1,0.4-0.4,0.9,0.2,1.1c1.7,0.7,3.1,1.9,4.7,2.8c0.5,0.3,1.1,0.5,0.9,1.2c-0.1,0.7-0.1,1.5-1.2,1.7c0.5,0.3,0.8,0.5,1.2,0.7
		c0.4-1.8,0.6-3.6,0.8-5.3C92.4,32,92.2,31.7,91.5,31.6z"/>
	<path d="M81.5,42.5c0.3-0.1,0.4-0.1,0.5-0.2c0.4-0.6,0.9-0.6,1.4-0.1c0.6,0.5,0.2,0.8-0.1,1.2c-0.5,0.6-0.7,1.3-0.4,2.1
		c0.1,0.4,0.4,0.7,0.8,0.8c0.4,0.1,0.7-0.2,1-0.5c0.7-0.9,0.6-2.8-0.2-3.6C83.4,41.2,82.4,41.2,81.5,42.5z M84.4,45.1
		c0,0.3-0.2,0.7-0.5,0.7c-0.4,0-0.6-0.4-0.6-0.7c-0.1-0.8,0.1-1.5,0.8-2C84.5,43.7,84.4,44.4,84.4,45.1z"/>
	<path d="M79,28.4c-0.4,3.2-0.1,6.4,0.5,9.5C80.1,34.7,79.1,31.6,79,28.4z"/>
	<path d="M78.3,26.8c0,0,0-0.1-0.1-0.1c0.1,0.8,0,1.6-0.2,2.4c-0.6,2.6-0.5,5.2-0.3,7.8c0,0.3,0,0.7,0.4,0.9c0-1.9-0.1-3.8,0-5.7
		c0.1-1.6,0.2-3.2,0.4-4.8l0,0C78.2,27.3,78.3,27,78.3,26.8z"/>
	<path d="M71.2,38.5c1.8,0.1,1.7,0.1,2.2-0.7c0.7-1.2-0.4-1.8-0.7-2.6C72.5,36.5,71.7,37.4,71.2,38.5z"/>
	<path d="M76.7,14.2c-0.9-0.7-0.8-1.4-0.2-2.2c0.7-1,1.8-1.3,2.7-0.8c0,0.4-0.9,0.4-0.4,0.9c0.3,0.3,0.5,0.2,0.7,0
		c0.4-0.4,0.1-0.8-0.2-1.2c-0.1-0.1-0.2-0.2-0.3-0.2c-1.3-0.5-3.2,0.4-3.6,1.8C75.1,13.5,75.6,14.1,76.7,14.2z"/>
	<path d="M82.7,48.3c-0.6,0.2-0.8,0.2-1-0.4c-0.3-0.8-0.6-1.5-1-2.2c-0.1-0.3-0.3-0.6-0.6-0.8c-0.2-0.1-0.3,0-0.4,0.1
		c-0.1,0.1-0.1,0.2,0,0.3c1.2,1.4,1.3,1.8,1.6,4c0,0.1,0.1,0.1,0.2,0.1c0.5,0,0.5,0.5,0.7,0.8c0.1,0.2,0.1,0.6,0.5,0.4
		c0.4-0.2,0.1-0.5,0-0.7C82.5,49.5,81.8,49,82.7,48.3z"/>
	<path d="M78.8,14.8c-0.2,0.5-0.3,1,0.4,1.5c-0.3-0.9,0.2-1.4,0.7-1.9c0.2-0.1,0.4-0.2,0.6-0.4c0.3-0.1,0.7-0.2,1-0.2
		c0.5-0.1,1-0.1,1.1,0.5c0,0.6-0.6,0.6-1,0.6c-0.1,0.1-0.2,0.1-0.2,0.2c0.5,0.1,1.1,0.3,1.6-0.2c0.2-0.3,0.2-0.6,0-0.9
		c-0.4-0.6-1-0.8-1.6-0.7C80.3,13.4,79.3,13.7,78.8,14.8z"/>
	<path d="M64.5,11.2c0-0.1,0-0.2,0-0.4c-0.1-1,0.5-1.7,0.7-2.6c0.2-0.5,0.4-1,0.3-1.5c0-0.3-0.2-0.5-0.4-0.5c-0.5,0-0.6,0.4-0.9,0.7
		c-0.1,0.1-0.4,0.4-0.2,0.5c1.1,0.6,0.3,1.4,0.1,2.1C64.1,10.2,63.8,10.8,64.5,11.2z"/>
	<path d="M68.5,6.8c0-0.4,0-0.6-0.5-0.5c-0.3,0.1-0.5,0.1-0.4,0.6c0.3,1.5-0.3,2.8-1.3,3.9c0.1,0.1,0.1,0.1,0.2,0.2
		C67.9,9.9,68.4,8.5,68.5,6.8z"/>
	<path d="M87.6,36.3c0.3,0.3,0.5,0.7,1,0.9c0.4,0.1,0.7-0.1,0.7-0.5c0-0.1,0.1-0.5-0.1-0.4C88,36.6,88,35.5,87.5,35
		c-0.4-0.4-0.7-0.9-1.2-1c-0.3,0-0.5,0.2-0.5,0.5c0,0.2-0.1,0.5,0.1,0.4C87,34.7,87.1,35.7,87.6,36.3z"/>
	<path d="M73.2,12.8c0.2,0,0.5,0.1,0.4-0.2c-0.3-0.8,0.4-1.1,0.8-1.5c0.4-0.4,0.9-0.8,1.1-1.4c0.1-0.3,0-0.5-0.2-0.6
		C75.1,9,74.9,9,74.7,9c-0.3,0-0.2,0.2-0.1,0.4c0.1,0.6-0.5,0.9-0.8,1.3c-0.4,0.5-1,0.8-1.1,1.5C72.7,12.5,72.8,12.8,73.2,12.8z"/>
	<path d="M70.3,11.8c-0.1-0.1-0.2-0.1-0.3-0.2c-0.9-0.1-1.2-0.5-1-1.4c0.3-1.1,1.1-1.8,2-2.4c-1.3,0.1-2.3,1.1-2.6,2.4
		C68.2,11.4,69,12.1,70.3,11.8z"/>
	<path d="M87.9,21.4c0.2,0.7-0.2,1-0.7,1.2c-1.2,0.5-2.9-0.1-3.5-1.2c0,0,0,0,0,0c-0.1,0.1-0.1,0.2-0.2,0.2c0.8,1.4,2.3,2,3.7,1.5
		c0.7-0.3,1.4-0.7,1-1.7c0,0,0,0,0,0l0,0C88.1,21.4,88,21.4,87.9,21.4z"/>
	<path d="M70.3,11.8c2-0.6,2.8-2.7,1.6-4.1c-0.2,0.5,0.4,0.9,0.1,1.5c-0.5,1-1,1.8-2,2.3C70.1,11.6,70.2,11.6,70.3,11.8z"/>
	<path d="M83.7,21.4C83.7,21.4,83.7,21.4,83.7,21.4c0.6-1.1,1.8-1.4,3.2-0.8c0.4,0.2,0.8,0.4,1,0.8c0,0,0,0,0,0c0.1,0,0.2,0,0.3,0
		c-0.8-1.3-2.3-1.9-3.7-1.4c-0.7,0.3-1.2,0.7-1,1.6C83.6,21.5,83.6,21.4,83.7,21.4z"/>
	<path d="M91.4,27.8c-0.1,0-0.2,0.1-0.2,0.2c-0.1,0.2,0,0.3,0.2,0.4c0.4,0.2,0.7,0.1,1-0.2c0.4-0.6,0.3-1.2-0.3-1.7
		C92.4,27.5,92.4,27.5,91.4,27.8z"/>
	<path d="M64.5,11.2c0.8,0.6,1.3,0.1,1.9-0.3c-0.2,0.1-0.2,0-0.2-0.2c-0.5,0.2-1.1,0.6-1.7,0.1C64.6,11,64.6,11.1,64.5,11.2z"/>
	<path d="M81.5,14.8c-0.3-0.2-0.8-0.1-0.9-0.5c-0.2,0.1-0.5,0-0.7,0.1c0.5,0.2,1,0.4,1.5,0.6C81.4,14.9,81.4,14.8,81.5,14.8z"/>
	<path d="M81.6,14.7C81.6,14.7,81.6,14.7,81.6,14.7c0.2-0.1,0.6-0.1,0.5-0.4c0-0.3-0.4-0.2-0.6-0.2c-0.2,0-0.5,0.1-0.7,0.1
		C81.1,14.4,81.4,14.4,81.6,14.7z"/>
	<path d="M81.5,14.8c0,0,0.1,0.1,0.1,0.1C81.6,14.8,81.6,14.8,81.5,14.8C81.6,14.8,81.5,14.8,81.5,14.8z"/>
	<path d="M80.7,14.3C80.7,14.3,80.8,14.3,80.7,14.3c0-0.1-0.1-0.1-0.2-0.2c0,0.1,0,0.2,0,0.3C80.6,14.3,80.7,14.3,80.7,14.3z"/>
	<path d="M87.9,21.4C87.9,21.4,87.9,21.4,87.9,21.4C87.9,21.4,87.9,21.4,87.9,21.4C87.9,21.4,87.9,21.4,87.9,21.4z"/>
</g>
</svg>
