<?xml version="1.0" encoding="utf-8"?>
<!-- Generator: Adobe Illustrator 28.3.0, SVG Export Plug-In . SVG Version: 6.00 Build 0)  -->
<svg version="1.1" id="Layer_1" xmlns="http://www.w3.org/2000/svg" xmlns:xlink="http://www.w3.org/1999/xlink" x="0px" y="0px"
	 viewBox="0 0 439.8 117.2" style="enable-background:new 0 0 439.8 117.2;" xml:space="preserve">
<style type="text/css">
	.st0{fill:#1E73BE;}
</style>
<g id="Layer_2_00000087408556570773288640000010354550170615495813_">
	<g>
		<path class="st0" d="M144.2,11.5c0,0-2.2,0.6-5,0S128,17,128,17s-3.7-4.4-9.7-1.2c0,0,0,1.4,1.3,1.7c0,0,3.5-2.8,6.9,2.4l1.6,0.6
			c0,0,7.2-7,12.8-6.6C143.1,13.7,144.2,11.5,144.2,11.5z"/>
		<path class="st0" d="M220.2,10.8c0,0-2.2,0.6-5,0S204,16.3,204,16.3s-3.7-4.4-9.7-1.2c0,0,0,1.4,1.3,1.7c0,0,3.5-2.8,6.9,2.4
			l1.6,0.6c0,0,7.2-7,12.8-6.6C219.1,13,220.2,10.8,220.2,10.8z"/>
		<path class="st0" d="M138.2,24.3c-0.6,0.2-2.2,0.5-5,0l-2.7,2.5l-1-1.7c0,0-0.1-0.3-1.8-3.1l-0.3,0.4c-0.4,0.5-1,0.6-1.5,0.4l0,0
			l-5.1,5l0.1,0.2c0.2,0.6,0.2,1.1,0,1.7s-0.3,1.5-0.1,2.2c0.5,1.2,4.1,4.5,5.2,5.2h0.9c0,0,0.4-2.9,1.9-4.8l0.7-1.6
			c0,0,5.1,6.5,5.2,13.2c0.2,6.7,0.2,9.6-0.5,13c0,0-0.4,1.1,1.5-0.9c0,0,4.3-8.8,0.7-18.7c-3.1-8.5-5.1-9.3-5.1-9.3l1.2-1.2
			c0.4-0.4,1.1-0.6,1.7-0.4c0.4,0.1,0.8,0.3,1.3,0.6c0,0,3.7-0.5,4.8-1.8l-1.6-1C138.5,24.3,138.3,24.3,138.2,24.3z M125.7,32
			c-2.3-1.3-2.6-3.9-2.6-3.9l2.9-2.4l2,2.6L125.7,32z"/>
		<path class="st0" d="M146.9,23l0.7,2.3c0,0-2.7,2.7-4.1,4.1c0,0,5,1.9,6.2,7.5c0,0,0.9,3,0.3,7.1c-0.5,4.1,1.2,7.1,1.2,7.1
			s-0.1,1.1-0.9,0.6c0,0-1-2-2.2-10.2c-1.1-8.2-6.6-9.2-8.1-9.5c-1.4-0.3-2-0.7-2-1.5c0,0,4.8-2.9,5.9-5
			C145.3,23.4,146.9,23,146.9,23z"/>
		<path class="st0" d="M155.4,23c0,0,2.1-0.2,1.4,2.2c0,0-2.9,3.2,0.7,7.6c3.6,4.4,5.6,7.3,5.6,7.3s0.1,0.6-0.8,0.6
			c0,0-7.9-5.6-9.4-9.2S155,23,155.4,23z"/>
		<path class="st0" d="M176.9,20c0,0-1.7-1.8-2-2.6c-0.3-0.8,0.3-2.2-3.6-5.5c-3.9-3.4-5.8-3.2-6.2-3.2c-0.5,0-2.5,1.8-2.5,1.8
			s-0.9,1.2-0.5,1.7c0.2,0.3,1.4,0,1.4,0h1.2c0,0,3,0.5,7,3.9c0,0,1,0.9,2.3,2c1.2,1.1,2.2,3,2.8,2.6S176.9,20,176.9,20z"/>
		<path class="st0" d="M178,28c0,0-0.3-0.5,0.9-1.5c1.3-0.9-0.4-3.6-1.6-3.9c-1.2-0.3-3.5,0.2-4.2,0.7s-7.5,4.2-7.5,4.2
			s-2.3-0.1,0.5,7.6c0,0,4.7,4.8,9,5.5c2.4,0.3,3.8-0.4,3.8-0.4s1.7-1,2-2.3c0,0,0.1-1.1-1.2-0.8c0,0-0.5,1-0.6,1.1
			c-0.2,0.1-1.5,1-4.1-0.1s-7.5-7.3-7.5-7.3s-0.3-0.6-0.4-2c1.1-1.5,4.8-3.1,4.8-3.1s3.6-1.3,4.3,0.7c0,0,0.1,1.2-0.8,1.6
			c-0.9,0.5-3.8,2.3-3.8,2.3s-0.1,0.5,0.8,0.9c0.5,0.4,1.4-0.9,2.2-1s1.5,0.1,1.2,1.2s-0.9,1.1-0.9,1.1s-0.8-0.4-0.9,0.3
			c-0.2,0.7,2.3,3.7,2.3,3.7s0.3,0.4,0.9-0.6l1.5-0.8c0,0,3.3-0.1,3.8-2c0.3-1,0.3-0.5,0.2-2c0,0-0.6-1-1.8-0.3
			c-0.8,0.6-0.6,2.1-0.9,2.5c-0.3,0.4-3.2,0-2.2-2.2c0.6-1.3,1.6-1.4,1.6-1.4l0.2-0.8C179.5,28.9,178.3,28.9,178,28z"/>
		<path class="st0" d="M189.6,23l-1.6,1.8c-0.1,0.1-0.2,0.3-0.2,0.4c-0.4,1.4-1.6,9.7,4.8,15.2c0,0,1.3,0.3,1.9-0.1
			c0,0,0.6-0.8-0.1-1.9c0,0-5.4-4.9-4.4-12.7C190.1,25.7,191.1,23.4,189.6,23z"/>
		<path class="st0" d="M207.8,28c-2.2-3.6-1-6.4-1-6.4c-0.6-1.3-1.9-0.3-1.9-0.3s-1.2,3.6-2.2,3.8c-0.9,0.2-1.2,0.3-1.2,0.3
			c-0.5,0.7-2,1.9-2.7,2.5c-0.3,0.3-0.5,0.6-0.6,1c-0.5,2.7,0.1,4.2,0.1,4.2c0,0.7,1,1,1,1c1.9,0.8,4.9,0.7,4.9,0.7s0.8,1.6,2.3,1.9
			c1.5,0.3,1-2.2,1-2.2S210,31.5,207.8,28z M206.2,32.6c-1.6,0.2-4.1-0.8-4.1-0.8s-2-1.6-1.4-2.9c0.3-0.7,0.8-1.3,1.2-1.8
			c0.3-0.4,0.9-0.6,1.4-0.4l0.8,0.2c0.5,0.1,0.8,0.5,1,0.9c0.4,1,0.8,1.5,1.2,2C206.7,30.4,207,32.3,206.2,32.6z"/>
		<path class="st0" d="M216.7,24.5c0,0,0.1-1.3-1.4-0.6c0,0-1.2,0-0.5,3.8c0.8,3.8,2.7,11.1,2.7,11.1s1.3,2,0.5,4.9
			s-2.2,10.3-2.4,11.7c-0.2,1.3,0.5,1.9,0.5,1.9s0.3,0.4,0.9-2.5c0.5-2.9,1.6-5.7,2.4-9.8s1.3-5.9,0.8-7.2
			C219.7,36.6,216.7,24.5,216.7,24.5z"/>
		<path class="st0" d="M227.2,25.2c0,0-1.3,0.8-1,2.4s1.7,7.9,4.4,10.3s-0.3,1.9-0.3,1.9s-0.8,0-3.4-3.1s-3.6-8.9-3.1-10.5
			c0.4-1.6,1.2-2.7,1.9-2.9c0.7-0.2,2.4,0.2,2,1.1L227.2,25.2z"/>
		<path class="st0" d="M248.9,22.2l-1.7,0.4l-0.4,0.8c0,0-4.5,0.1-4.9,0c-0.3-0.1-1.2,0.9-1.2,0.9l-2.1,0.5l-3,2.6
			c0,0-1.5,2.1-1.3,2.2s2.9-1.1,3.7-2c0.7-0.9,1.1-1.5,1.1-1.5s1.9-0.6,1.7,0.5s-8,14.4-8,14.4s-0.7,1.1,1.1,0.7
			c1.7-0.4,8.2-14.1,8.2-14.1s1.4-0.1,2-1.7c0.2-0.7,1.3-0.7,1.6-0.3c0.2,0.3,2.6,2.2,0.5,8.7s-10.6,12-10.6,12l-1.7,1
			c0,0-7.9,1.2-12.6,4.5c0,0-0.2,0.5,0.8,0.7c2,0.4,11.6-3.6,15.9-2.2c0.6,0.2,4.1,1.4,5.8,2.3c1.8,0.9,2.7-0.5,2.7-0.5l9.3-14.6
			c0,0,0.6-0.7,0.5-1.3c-0.1-0.5-0.6-1.4-1-1.4s-0.7,0.9-0.8,1.4s-7,13.1-7.9,13.5c-0.9,0.4-1.5,0.2-2.8-0.4s-5.7-1.9-6.8-1.9
			l-0.5-0.2c0,0,9.9-6.4,11.9-12.9s0.5-8.3,0.5-8.5C248.4,25.7,249.2,24.2,248.9,22.2z"/>
		<path class="st0" d="M260.1,25.4c0,0-0.5-1.1-1.4-1.1c-0.3,0-1.2,0.9-1.4,1.7c-0.2,0.7,0.4,7.5,1.8,9.8c1.4,2.4,3.1,4.7,4.8,5.1
			s2-0.7,1.6-1.2s-1.8-2.3-2.5-3.3s-2.4-6.1-2.7-8.3C260,25.8,260.1,25.4,260.1,25.4z"/>
		<path class="st0" d="M249.1,20.3l-2.9-3.1v-0.8c0,0-3.9-6.1-8-9.9c-1.4-1.3-2.5-0.7-2.9-0.3c-0.3,0.4-0.9,1.4-0.5,2.3
			c0,0-1.7,0.7-2.8,2c0,0-2.7,0.3-1.5,2.5c0,0,1.3,2.2,3.5,0.8s1.4-1.8,0.6-2.2s-1.4-0.3-1.5-0.5s1.4-2.4,4.2-1.7
			c0.7,0.2,7.4,7,11.2,11.3C248.4,20.7,248.9,21.1,249.1,20.3z"/>
		<path class="st0" d="M335.8,19.4l-2.9-3.1v-0.8c0,0-3.9-6.1-8-9.9c-1.4-1.3-2.5-0.7-2.9-0.3c-0.3,0.4-0.9,1.4-0.5,2.3
			c0,0-1.7,0.7-2.8,2c0,0-2.7,0.3-1.5,2.5c0,0,1.3,2.2,3.5,0.8c2.1-1.4,1.4-1.8,0.6-2.2c-0.9-0.4-1.4-0.3-1.5-0.5s1.4-2.4,4.2-1.7
			c0.7,0.2,7.4,7,11.2,11.3C335.1,19.8,335.6,20.3,335.8,19.4z"/>
		<path class="st0" d="M274.9,23.4c0.3,0.3,0.5,0.9-0.2,2s-0.3,3.1-1.9,5.2l-0.4,0.3c0,0,2.9,0.9,3.2,1.8c0.2,0.9,0.2,1,0,1.1
			s-0.3,2.1,0.5,2.9c0.7,0.9-0.1,2.8-0.8,2.6s-1-1.4-0.9-1.9s-2-4.2-3.9-4.8c-1.9-0.5-3.8,0-4.1,0c-0.3,0-0.6-0.3-0.7-0.5
			c0-0.2,0.1-1.1,0.8-1.3c0.6-0.2,3.4-0.6,4-0.6s1.6-0.8,1.6-1.4s0.8-3.8,1.3-4.9S274.9,23.4,274.9,23.4z"/>
		<path class="st0" d="M277.6,40.4c0,0-5.6,5.1-13.5,2.9c-1.8-0.5-3.1-2.1-3.3-2.3c-0.2-0.2-1.1,0.2-1.6,0.5
			c-0.5,0.4-4.6,3.6-5.5,4.7c-0.4,0.5,0.2,1.2,0.9,1.9c0.7,0.6,1.4,0.5,1.4,0.5s7.2,0.1,13.8-1.1c6.6-1.2,9.1,3.3,9.1,4.5
			c0,0,0.9,1.4,2.4,0c0,0,0.9-1.2-0.8-3.9c-1.7-2.6-4.6-2.8-5.2-2.8s-10.9,0.5-16.7,1.2c-2.3,0.3-0.9-1.7-0.8-2s1.5-1.5,2.1-1.4
			s1.5,1.5,4,1.7c2.6,0.2,8.4,0.7,12.8-2.1c1.6-0.9,3.1-2.3,3.1-2.3s0.3-1.6-1.1-1C278,39.7,277.6,40.4,277.6,40.4z"/>
		<path class="st0" d="M283.5,55.7c-0.1-0.6-0.1-1.6-1.2-1.4c-1.1,0.2-1.5,0.5-1.6,0.7s-0.2,0.9-0.5,0.9c-0.3,0.1-1.4,0.1-1.3,0.6
			s2.5,3.7,1.7,4.5c-0.7,0.8-3.7,3.1-10.3,1.3c-1.9-0.5-3.7-2.4-5.8-3.1s-6.3-5.7-6.6-6.3s-1.9-1-1.7,0s3.3,5,3.5,5.3
			s5.6,4.7,8.4,6.3c4.4,2.5,8.5,1.5,12.7-1c0.8-0.5,2.2-3,3.7-4.3c1.5-1.4,0.1-2.3-0.2-2.5C283.9,56.5,283.5,55.7,283.5,55.7z"/>
		<path class="st0" d="M285.9,25.2c0,0,0-2.5-1.6-1.9c-1,0.4-1.4,4.3-1.3,6.1s-0.1,8.9,9.7,14.3c2.4,1.3,4.1,0.3,4.5,0
			s1.6-1.3,1.4-2.1s1-1.4,0.9-1.6c-0.1-0.3-1.8-0.1-2.4,1.2s-2.1,1.6-2.7,1.3s-5.1-3.1-6.7-5.9C286.2,33.7,284.3,28.4,285.9,25.2z"
			/>
		<path class="st0" d="M295.6,24.7c-0.2,0.7-0.3,3.5,0.1,4.8s0.7,2.3,2,3.7c1.4,1.4,1.6,2.6,1.5,2.8c-0.3,0.4-1,0.5-1.5,0.3
			s-2.9-2.3-3.7-3.5c-0.8-1.2-1.2-4.8-1.2-7s1.6-2.2,2.1-2.1C295.6,23.8,295.7,24.5,295.6,24.7z"/>
		<path class="st0" d="M314.1,22.4c-0.2-0.2-0.2-0.9-0.9-0.6c-0.7,0.3-1,0.6-1,0.6s-0.5,1-0.5,1.4c0,0-0.5-0.6-0.9-0.6
			s-2.8,0.2-3.3,0.6s-2.7,3.2-3,3.6c-0.3,0.3-0.2,3.6-0.2,3.6l-0.2,1c0,0,1,1.2,1.7,0.9s1.3-2.3,1.6-2.3c0.3-0.1-0.8-0.5-1-0.4
			s-0.4-1.3-0.2-2.2c0,0,0.4-0.6,1.5-0.8c0.7-0.2,0.8-1.8,3-0.9c0,0,0,0.9,0.3,3.7s3.3,6.6,3.3,6.6s1,0.5,2.1,0.4
			c0.5-0.4,0.4-2.3,0.4-2.3s-0.9-1-1.5-1.9c-0.6-1-2.5-4-2.2-7.2c0,0,0.3-1,0.9-2.1C314.1,22.7,314.1,22.4,314.1,22.4z"/>
		<path class="st0" d="M339.8,33.7c-0.8-0.6-2.7-4.8-2.9-5.3c-0.2-0.5,0.5-1.3,0-2s-0.5-2.5-0.5-2.9c0.1-0.4,0.6-1.5,0-1.3
			s-1.9,0.7-2.7,2c-0.8,1.4,0.6,2.3,0.6,2.3c0.9,1.7,0,2,0,2c-1.7,0.1-4.5,3-4.5,3c-1.2-0.4-4.8-0.2-4.8-0.2s2.1-4.2,0.9-5.2
			s-0.5-2.5-0.5-2.5c0.2-1.1-1.6-0.6-2.3,0.2c-0.8,0.8-0.6,2.1,0,2.4s0.5,2,0.9,3.1c0.4,1-1.1,2.3-1.1,2.3c-1.7,0.7-2.6,1.7-2.6,1.7
			c-0.8,2.2,1.2,2,1.2,2c5.3-3.5,11.2,0.2,12,1.1c0.8,0.9,3.4,0.7,2.9,2.4s-7.1,11.9-13.8,14.1c-6.7,2.3-10.3,3.4-11.3,4.6
			c-1,1.2-0.5,1.6,0.4,1.6c0.9-0.1,8.5-4.6,11.5-4c5.9,1.1,12.1,7.3,12.7,7.9c0.6,0.6,0.2,1.7,0.2,1.7c0.6,0.7,1.1,0,1.1,0
			c0.6-2-0.3-3.3-0.3-3.3c-4.3-7.5-10.7-8.5-10.7-8.5c7.7-4.7,11.2-12.1,11.8-13.1c1-1.4,0.6-2.8,0.6-2.8
			C339.8,36.2,340.5,34.3,339.8,33.7z M336.8,35.3c-0.5-0.6-3.1-2.1-3.8-2.4c-0.7-0.3-1.3-0.8-0.9-0.9c0.3-0.2,0.9-1.8,1.8-2.1
			c0.9-0.3,2,0.7,2,0.7s1.7,3.1,2,3.6C338.1,34.7,337.3,35.9,336.8,35.3z"/>
		<path class="st0" d="M362.1,24.7c0,0-2.7-0.4-5.4,0.7s-1.9,0.6-1.9,0.6s-2.1-3.7-3.6-4.7c0,0-3.2,1.6-4.6,3.8s-2.8,3.5-2.4,4.6
			c0,0,1.3,2.5,3.5,4.3c1.8,1.5,2,2.1,2,2.2c0,0.1,1.4,0.9,1.1-0.8c-0.1-0.6,0.7-4.6,1.7-5.7c0.4-0.5,0.5,0,0.5,0s3.4,1.7,4.7,9.5
			c0.8,4.8,0.7,17.2,0.7,17.2s-0.2,1.3,0.9,1.7c1,0.4,0.8-2.5,0.8-2.5s0.5-13.8,0-16.4c-0.4-2.6-1.4-9.9-4.5-11.4
			c0,0,0.2-1.6,3.2-1.9c0,0,2-0.1,3,0C361.7,25.9,362.7,25.6,362.1,24.7z M349.5,32.3c-1.5-1.3-2.7-2.4-3.1-3.5
			c-0.2-0.9,0.2-2.9,0.2-2.9h3.8l1.4,2.6C350.2,30.3,349.5,32.3,349.5,32.3z"/>
		<path class="st0" d="M367.6,23.3c-0.2,0.5-1.6,3-1.6,4.5c0.1,1.5-0.1,5.3,4,8.7s2.9,3.8,2.7,4s-0.7,0.7-2.2,0.5s-3.9-4.1-4.5-5
			c-0.6-0.8-2-2-2.1-5.3c-0.2-3.5,0.2-6.7,1.8-7.7C367.4,21.9,367.8,22.9,367.6,23.3z"/>
		<path class="st0" d="M390.3,26.1c-0.7-1.4-0.8-3.6-0.8-3.6c0.1-1.4-1.2-0.3-1.6-0.4s-0.9,1-1.4,1c-1.9-0.2-4.8,0-5.8,0
			s-4.7,2.5-5.4,5.2c-1,3.7,0.3,5.7,3.3,8.4c4.5,4,8.3,2.6,8.8,2.3s1.9-2.4,1.9-3.1c0-1.4-1.2-0.2-1.2-0.2s-1.2,2-2.3,2
			c-3,0-7.9-3.5-8.5-5.9c-0.9-3.7,2.4-5.2,3.1-5.1c0.7,0.1,4.5-0.4,5.6-0.7c1-0.2,1.5-1,1.5-1l-0.3,0.4c-0.2,0.5,0.3,2,0.3,2
			s-2.9,0.6-4,1.5c-2.1,1.7-2.1,2.3-2.1,2.3c0.6,1.2,3.5,2.4,4.7,2.4s2.7-1.1,4.1-1.8C391.5,31,391,27.5,390.3,26.1z M388.2,31.4
			c-0.2,0.3-4,0.9-4.2-0.5c-0.2-1.3,2.9-2.8,2.9-2.8s0.7-0.9,1.2,0C388.7,29,388.4,31.1,388.2,31.4z"/>
		<path class="st0" d="M400.1,24.3c-0.1,0.7-0.4,6.6-0.3,7.8c0.1,1.3,0.7,7,2.6,8.9s4.3,3.5,5.1,3.5c0.8,0,0.9-0.9,0.9-1.4
			c0-0.4,0.9-2,1.1-2.1c0,0,0.7-0.4,0.5,0.3c-0.2,0.8-0.8,0.3-0.7,1c0.2,0.7,0.3,2.1,0,2.4s-1.4,1.3-2.1,1.2s-7.2-3.8-8.1-6.4
			c-1-2.6-3.2-6-1.8-14.3c0,0,0.4-1.3,1.3-1.7C399.6,23.2,400.2,23.9,400.1,24.3z"/>
		<path class="st0" d="M410.1,24.5c-0.1,0.4-0.3,1.5-0.5,2.3c-0.2,0.7,0.5,5.6,1.3,6.7s2.7,3.3,3.1,3.7c0.3,0.4,1.1,1.7-0.9,1.9
			c-2,0.1-4.9-4.8-5.4-6.6s-0.2-6.9,0.5-7.5C409,24.3,410.2,23.7,410.1,24.5z"/>
		<path class="st0" d="M420.1,25.5c0,0-0.1,7.3,0.7,11.3s1.9,11,3.1,17.2c0,0,0.6,3.6,0.6,4s-2.2,1.8-1.9,3.1
			c0.3,1.3,2.2,4.2,2.4,4.4s0.3,0.9-0.3,0.6c-0.5-0.3-3-4-3.1-4.9c-0.1-1-2.8-15.2-3.8-23.8c-1-8.7-1.1-10.5-1-11.5s0.8-1.2,1.1-1.1
			c0.3,0,1.5-0.3,1.7-0.2S420.1,24.7,420.1,25.5z"/>
	</g>
	<g>
		<path class="st0" d="M58.5,110.2c-1.5-0.7-3.1-0.8-4.7-1.2c-9.6-2.5-18.1-7-25.1-14.1c-6.4-6.5-10.5-14.2-12.7-23
			c-0.8-3.2-1.3-6.4-1.6-9.7c0-0.2,0.1-0.5-0.2-0.6c0-0.7,0-1.4,0-2.2c0.3-1.2,0.3-2.5,0-3.7c0-0.7,0-1.4,0-2.2
			c0.4-0.6,0.2-1.2,0.3-1.9c0.1-0.4,0.2-0.5,0.6-0.5c1.2,0.2,2.4,0.3,3.6,0.4c0.5,0.1,0.6,0.3,0.5,0.8c-1.8,11.2,0.4,21.6,6.5,31.2
			c7.7,12,18.9,19.1,32.7,22c1,0.2,1.3,0.5,1.2,1.4c-0.1,1,0,2.1,0,3.1C59.3,110.2,58.9,110.2,58.5,110.2z"/>
		<path class="st0" d="M66.7,7.1c11.8,0.6,22.2,4.7,31.2,12.2c9.9,8.2,16,18.7,18.2,31.5c0.3,1.7,0.5,3.4,0.6,5.1
			c0,0.2,0,0.3,0.2,0.4c0,0.4,0,0.8,0,1.2c-0.3,1.2-0.3,2.4,0,3.5c0,0.5,0,0.9,0,1.4c-0.4,1.2-0.4,2.5-0.5,3.7
			c-1.1,7.9-3.8,15.1-8.2,21.8c-4,6.1-9.1,11.2-15.1,15.3c-0.6,0.4-0.8,0.4-1.2-0.2c-2.3-3.9-4.6-7.7-6.9-11.5
			c-0.3-0.6-0.6-0.7-1.2-0.3c-3.9,2.3-8.2,3.5-12.6,4c-4.3,0.5-8.5,0.6-12.8-0.2c-7-1.2-13-4.3-18.1-9.2
			c-6.1-5.8-9.8-12.9-10.9-21.2C27.4,49.3,32.7,37,45.2,28c3-2.2,6.3-3.7,9.9-4.7c0.7-0.2,0.9-0.5,0.8-1.3c-0.5-4.1-1-8.1-1.5-12.2
			c-0.2-1.6-0.3-1.6,1.3-1.9c2.1-0.5,4.3-0.6,6.5-0.8C63.7,7.1,65.2,7.1,66.7,7.1z M64.7,8c-2.8,0-5.6,0.2-8.4,0.7
			c-0.7,0.1-0.9,0.3-0.8,1c0.5,4.2,0.9,8.4,1.4,12.5c0.1,1-0.1,1.4-1.1,1.7C50,25.7,44.9,28.7,40.6,33c-8.7,8.8-12.2,19.4-10.4,31.6
			c1.2,7.7,4.5,14.3,10,19.8c5.9,5.9,13,9.4,21.4,10c7.8,0.6,15.3-0.6,22.1-4.5c0.9-0.5,1.1-0.3,1.6,0.5c2.2,3.8,4.5,7.5,6.8,11.3
			c0.2,0.4,0.4,0.6,0.9,0.3c2.5-1.7,5-3.6,7.1-5.7C108,88.7,112.9,79.7,115,69c1.4-7.2,1.3-14.3-0.4-21.4
			C112,36.8,106.5,27.8,98,20.5C88.5,12.3,77.3,8.1,64.7,8z"/>
		<path class="st0" d="M14.2,55.7c0.3,1.2,0.3,2.5,0,3.7C14.2,58.2,14.2,56.9,14.2,55.7z"/>
		<path class="st0" d="M116.9,61c-0.3-1.2-0.3-2.4,0-3.5C116.9,58.6,116.9,59.8,116.9,61z"/>
		<path class="st0" d="M21.8,58.4c0.2-11.3,3.8-21.2,11.6-29.6c0.8-0.8,1.6-1.5,2.4-2.3c0.3-0.3,0.5-0.4,0.8,0
			c0.3,0.3,0.6,0.6,0.8,1c0.4,0.5,1.3,1,1.2,1.5s-0.9,1-1.4,1.5c-8.3,8.6-12.2,19-11.4,31c0.5,7.1,2.8,13.6,6.9,19.4
			c0.3,0.5,0.3,0.7-0.1,1.1c-0.4,0.3-0.8,0.8-1.2,1.1c-1.2,1.1-1.2,1.1-2-0.2c-4-5.9-6.3-12.3-7.2-19.3
			C21.8,61.8,21.7,60.1,21.8,58.4z"/>
		<path class="st0" d="M46,16c-7.1,3.3-13,7.9-17.7,14c-0.5,0.6-0.8,0.6-1.4,0.3c-0.9-0.5-1.9-1-2.9-1.5c-0.5-0.2-0.6-0.4-0.2-0.9
			c5.1-6.7,11.3-11.9,18.8-15.6c0.5-0.3,0.9-0.3,1.2,0.3C44.5,13.7,45.3,14.8,46,16z"/>
		<path class="st0" d="M65.8,102.2c-5.2,0.1-10-0.8-14.7-2.4c-0.6-0.2-0.7-0.4-0.5-1c0.4-0.8,0.7-1.6,0.9-2.5
			c0.1-0.4,0.3-0.5,0.7-0.3c5.1,1.8,10.3,2.5,15.7,2.2c2.1-0.1,4.2-0.4,6.3-0.9c0.7-0.2,0.9,0,1.1,0.6c0.1,0.4,0.3,0.7,0.4,1.1
			c0.7,1.9,0.7,1.9-1.2,2.3C71.6,101.9,68.6,102.3,65.8,102.2z"/>
		<path class="st0" d="M64.5,69.5c1.1-1.6,0.6-3.2,0.3-4.8c-0.5-2.5-1.1-4.9-2.2-7.2c-0.1-0.2-0.2-0.4-0.3-0.6c0,0-0.1-0.1-0.3-0.1
			c1,3.6,1,7.1,0.2,10.9c-0.6-1.7-1.2-3.2-1.6-4.8c-0.3,2.5,0.3,5.1-0.3,7.8c-0.8-4.5-2.5-8.6-3.3-12.9c0.3,3.5-0.2,7,0.8,10.4
			c0.3,1,0.2,2-0.4,3c-0.6,0.9-1,1.9-1,3c0,0.3-0.1,0.4-0.4,0.4c-1,0-2,0-3,0c-0.4,0-0.5-0.2-0.4-0.5c0.2-0.9,0.6-1.8,1.1-2.6
			c1.1-1.6,1.4-3.4,0.6-5.2C54,65.5,54,64.8,54.2,64c0.2-1.2,0.3-2.4-0.3-3.6c-0.4,1.4,0.2,3-0.6,4.5c-0.2-1-0.8-1.7-0.6-2.7
			c0.1-0.5-0.3-0.6-0.7-0.6c-0.5,0-1,0.2-1.5,0.2c-1.1,0.1-2-0.6-2.2-1.6c-0.2-1.1-0.6-2-1.3-2.8c-1.1-1.2-1.6-2.6-1.5-4.2
			c0.1-0.9-0.2-1.3-1.1-1.5c-1.3-0.3-2.5-1-3.6-2c-2.2-2.1-2.5-5.2-0.7-8c0,1.6,0.3,3,1.2,4.3c0.1,0.2,0.3,0.4,0.4,0.6
			c1.8,2.1,3.5,1.9,4.7-0.5s2.5-4.9,4.2-7c1.1-1.4,2.3-2.7,4.3-2.8c1.4-0.1,2.6,0.4,3.7,1c1.6,0.8,3.1,1.7,4.6,2.6
			c3.5,2.1,7,2.2,10.5,0c3.2-2,4.9-2.5,8.8,1.1c0.1,0.1,0.3,0.2,0.4,0.3c1.5,1.8,3.4,2.9,5.9,3.2c2.6,0.3,3.5,1.4,3.7,4
			c0.3,2.9,0.3,5.9,0.3,8.8c-0.6-1-0.7-2.2-0.8-3.3c-0.1-1.7-0.1-3.5-0.6-5.1c-0.4-1.4-1.3-1.9-2.7-1.8c1.9,1.8,1.8,4.3,2.5,6.6
			c1.1,3.4,0.9,7,1.2,10.5c0.1,1.6,0.3,3.3,0.1,5c-2-3.8-2.6-8-2.6-12.3c0-1.8-0.1-3.7-0.4-5.5c-0.3-1.5-1.1-2.7-2.3-3.8
			c1.2,2.5,0.6,5.1,0.3,7.7c-0.5,4.6-0.7,9.2-0.4,13.9c0.1,1.3,0.3,2.6-0.2,3.9c-0.8-1.3-0.9-2.7-1-4.1c-0.1-3.1-0.3-6.2,0.2-9.4
			c0.2-1.6,0.5-3.2,0.9-4.8c0.4-1.4,0-3.7-0.9-5.1c0,0.6,0,1.2,0,1.7c0,0.6,0,1.1-0.3,1.7c-0.6-1.3-1-2.6-1.9-3.6
			c0.8,2.2,1.3,4.4,1.3,6.7c0,1.5-0.1,2.9-0.5,4.3c-0.3,0.9-0.4,1.8-0.3,2.7c0.2,1.8,0,3.5,0,5.3c0,1.7-0.2,3.2-0.9,4.9
			c-0.5,1.2-1.1,1.3-2,1.3c-0.4,0-0.7-0.1-1.1-0.1c-0.5-0.1-0.6-0.3-0.4-0.8c0.5-1.2,0.8-2.4,1.3-3.5c0.6-1.4,0.6-2.7,0.5-4.2
			c-0.3-3.2-1.1-6.3-2.7-9.2c-0.8-1.4-1.2-2.9-1.6-4.4c-0.1,1.5,0.3,2.8,0.6,4.2c0.4,1.7,0.6,3.3,0.6,5c-0.1,2.7,0,5.3,0.7,7.9
			c-1.4-1.8-2.5-3.9-2.6-6.2c-0.3-3.2-1-6.3-2-9.3c-0.1-0.3,0.1-0.6-0.4-0.9c0,2.7,1.2,5.3,1,7.9c-0.2,2.6,0.3,5.2-0.6,7.7
			c-0.3-2.2-0.5-4.4-1.3-6.4s-2.4-3.7-3-5.8c0.1,1.4,0.4,2.7,0.9,4c0.9,2.4,1.6,4.7,1.7,7.3c0,0.6-0.1,1.1-0.4,1.8
			c-0.2-1-0.4-1.8-0.6-2.6c-0.3-1.6-0.9-3-1.8-4.4c-0.8-1.3-1.8-2.6-2-4.4c-0.5,0.8-0.4,1.4-0.2,2.1c0.2,1,0.7,2,1.1,3
			c1.1,2.2,1.6,4.5,1.5,7.2c-2.1-3.4-2.9-7.1-4.5-10.5c-0.1,0-0.2,0.1-0.3,0.1c0.4,2,0.8,4.1,1.3,6.1c0.5,1.7,0.5,3.4-0.5,5
			c-0.4,0.7-0.6,1.6-0.7,2.4c-0.1,0.5-0.3,0.9-0.9,0.8c-0.9-0.1-1.8,0-2.9,0c1-1.9,1.2-4,1.7-5.9C64,68.5,64,69.1,64.5,69.5
			C64.6,69.5,64.6,69.5,64.5,69.5L64.5,69.5C64.6,69.4,64.6,69.4,64.5,69.5z M48.9,58.9c-0.1,0.5-0.1,0.8,0.2,1.1
			c0.7,0.6,2.5,0.3,2.9-0.6c0.2-0.5,0.3-0.9-0.4-1c-0.4-0.1-0.6-0.3-0.8-0.6c-0.6-1.2,0.1-4.6,1.2-5.4c1-0.8,1.2-1.6,0.8-2.8
			c-0.2-0.6-0.5-0.8-1.1-0.4c-1.2,0.9-2.5,1.4-4.1,0.6c-0.2-0.1-0.6-0.3-0.9,0c-0.5,0.5-0.7,1.2-0.8,1.9c-0.1,0.5,0.5,0.5,0.8,0.8
			c0.6,0.5,1.1,1.2,1.5,1.9C49,55.8,48.8,57.4,48.9,58.9z M59.3,40.8c0,0.2,0,0.4,0,0.5c0.5,3.2-0.7,5.5-3.8,6.7
			c-0.7,0.3-0.7,0.6-0.5,1.2c0.7,1.5,1.3,1.7,2.7,1c2.2-1.2,3.3-3.1,3.3-5.5C61,43.1,60.5,41.8,59.3,40.8z"/>
		<path class="st0" d="M49.2,84.6c-0.4,0.7-0.8,1.3-1.2,2c-0.3,0.5-0.5,0.5-0.9,0.2c-6.1-4.3-10.5-9.9-13-17c-1-3-1.6-6-1.8-9.1
			c0-0.7,0.2-0.8,0.8-0.8s1.4-0.2,1.9,0.1c0.6,0.3,0.3,1.2,0.3,1.8c0.5,4.5,1.8,8.6,4,12.5C41.9,78.5,45.2,81.9,49.2,84.6z"/>
		<path class="st0" d="M65.7,26.2c-0.1,1.7-0.1,1.7-1.7,1.9c-6.5,0.5-12.2,3-17.2,7.1c-0.5,0.4-0.9,0.5-1.3,0
			c-0.5-0.6-1.5-1-1.5-1.5c0-0.6,1-1,1.6-1.4c5.3-4,11.2-6.4,17.8-7c0.4,0,0.8-0.1,1.2-0.1C65.7,24.9,65.7,24.9,65.7,26.2z"/>
		<path class="st0" d="M63.9,87c-4.2-0.4-8-1.5-11.7-3.3c-1.7-0.9-3.4-1.9-4.7-3.4c-0.4-0.4-0.5-0.7,0-1.1c0.6-0.5,1.1-1.4,1.7-1.5
			c0.5-0.1,1.1,0.8,1.7,1.2c3.8,2.8,8.2,4.2,12.8,4.8c1.3,0.2,1.3,0.1,1,1.4c-0.1,0.5-0.2,1-0.3,1.4C64.3,86.9,64.3,87.2,63.9,87z"
			/>
		<path class="st0" d="M112.8,51.4c-1.6-1.7-3.6-1.8-5.7-1.7c0.1,0.5,0.1,0.9,0.2,1.3c-0.8,0.2-0.9-0.4-1-0.9
			c-0.1-0.6-0.4-0.8-0.9-0.8c-3.3-0.4-6.7-0.6-9.8-2c-2.1-0.9-3.8-2.2-4.5-4.5c-0.2-0.8-0.3-1.5,0.1-2.3c0.3-0.4,0.7-0.7,1.2-0.7
			c0.4,0,0.8,0.2,0.9,0.6c0.1,0.4,0.3,0.8-0.4,0.8c-0.7-0.1-0.9,0.4-0.9,1c0,1.5,0.9,2.4,2,3.1c1.6,0.9,3.4,1.4,5.2,1.6
			c2.2,0.3,4.4,0.6,6.6,1c-0.1-0.3-0.1-0.6-0.2-0.8c-0.2-0.5,0.2-0.5,0.4-0.6c0.4-0.2,0.4,0.2,0.4,0.3c-0.1,1.2,0.7,1.2,1.5,1.4
			c2,0.4,3.9,1,5.1,2.9C112.9,51.2,112.9,51.3,112.8,51.4z"/>
		<path class="st0" d="M66.4,13.2c2.2-0.5,2.2-0.5,2.1,1.8c-0.2,3.5-2.5,6.6-5.6,7.6c-1,0.3-1.7,0.1-2.4-0.6
			c-0.7-0.6-0.7-1.4-0.4-2.3s0.7-1.7,1-2.6c0.4-1.2-0.1-1.8-1.5-1.9c0.6-0.7,1.1-1.3,1.7-1.9c0.3-0.3,0.5-0.6,1-0.4
			c0.5,0.2,0.8,0.5,0.9,1.1c0.1,0.7-0.1,1.3-0.3,1.9c-0.5,1.5-1.3,2.9-1.7,4.4c-0.4,1.4,0.1,1.9,1.5,1.6c1.4-0.2,2.1-1.2,2.8-2.3
			C66.6,17.7,67.4,15.6,66.4,13.2z"/>
		<path class="st0" d="M111.4,60.5c0.2,0,0.3,0,0.3,0c1.2,0.5,2.1,1,1.6,2.6c-0.3,1.1-0.2,2.3-0.3,3.4c-0.2,2.1-0.6,4.2-1.1,6.4
			c-0.9-0.6-1.7-1.1-2.6-1.6c0.1-0.1,0.1-0.1,0.2-0.1c1.9,0,2-0.1,2.3-2c0.1-0.4,0.1-0.9,0.2-1.4s-0.1-0.7-0.5-1
			c-3-1.9-6.1-3.8-9.1-5.7c-0.6-0.4-1-0.3-1.6,0.1c0.3-1.2,0.2-2.2,0.4-3.4c0.4,2.2,2.3,2.7,3.8,3.6c2.1,1.4,4.3,2.6,6.5,3.9
			c0.5,0.3,0.7,0.4,0.7-0.4C112.1,63.5,112.5,61.9,111.4,60.5z"/>
		<path class="st0" d="M103.6,76.4c-0.1,0.7,0,1.4-0.2,2c-0.3,0.9-0.9,1.2-1.7,0.8c-2.3-1.1-3.9-4.6-3.2-7c0.4-1.4,1.4-1.7,2.5-0.7
			c1.7,1.7,3.1,3.6,4.9,5.2c0.9,0.8,1.7,1.6,3,1.9c0.5,0.1,0.2,0.9,0.2,1.4c0,0.4-0.4,0.2-0.6,0.2c-0.7-0.2-1.3-0.5-1.8-1
			c-0.9-0.9-1.8-2-2.7-2.9C103.8,76.3,103.7,76.4,103.6,76.4z M103,76.4c0-0.5-0.2-1.1-0.5-1.5c-0.7-0.8-1.4-1.5-2.1-2.3
			c-0.2-0.2-0.5-0.5-0.8-0.4c-0.4,0.2-0.4,0.6-0.4,0.9c0.1,1.6,0.8,3.1,2.1,4.1c0.3,0.3,0.7,0.6,1.2,0.3C102.9,77.4,103,77,103,76.4
			z"/>
		<path class="st0" d="M88.4,53.1c0.2,2.3,0.3,4.6,0.6,6.9c0.3,2.9,0.6,5.8,0.9,8.6c0.1,1.5,0,3-0.3,4.6c-0.9-1.3-1.7-2.5-1.4-4
			c0.4-1.9,0.2-3.7-0.1-5.5c-0.6-3.3-0.2-6.6,0.2-9.9c0-0.3,0.1-0.5,0.1-0.8C88.3,53.1,88.4,53.1,88.4,53.1z"/>
		<path class="st0" d="M76.1,18.2c0,2.6-2.6,5.4-5.2,5.5c-1.9,0.1-3.1-1.5-2.7-3.5c0.4-2.2,2.7-4.4,4.9-4.7
			C74.9,15.3,76.1,16.4,76.1,18.2z M75.2,17.5c0-1.1-0.5-1.5-1.5-1.4c-0.6,0.1-1.1,0.4-1.6,0.8c-1.3,1-2.2,2.3-2.6,3.9
			c-0.2,0.7-0.1,1.4,0.6,2c0.5,0.4,1,0.3,1.6,0C73.3,22.1,75.2,19.3,75.2,17.5z"/>
		<path class="st0" d="M93,81.5c0.2-0.4,0.4-0.8,0.6-1.2c0.6-1,1.7-1.5,2.8-1.2c2.4,0.7,3.8,3.3,3.2,6.1c-0.2,0.7-0.4,1.4-0.9,2
			s-1.1,0.9-1.9,0.8c-0.8-0.2-1.3-0.7-1.5-1.4c-0.5-1.9,0.2-3.4,1.5-4.7c0.4-0.4,0.4-0.6,0.1-1c-1.3-1.5-2.4-1.4-3.4,0.2
			C93.4,81.4,93.4,81.6,93,81.5z M97.7,82.1c-1.2,1.2-1.6,2.5-1.4,4c0.1,0.5,0.3,1.1,0.9,1.1c0.7,0,0.9-0.5,1-1
			C98.5,84.8,98.3,83.5,97.7,82.1z"/>
		<path class="st0" d="M101.8,45.1c-1.6-0.1-3.2-0.6-4.4-1.9c-1.3-1.5-0.9-3.4,0.9-4.1c2.1-0.9,5-0.3,6.5,1.3s1.1,3.5-1,4.3
			C103.2,45,102.6,45.1,101.8,45.1z M102,44.1c0.6-0.1,1.2-0.1,1.7-0.3c0.7-0.2,1.4-0.5,1.5-1.3s-0.4-1.3-1-1.7
			c-1.7-1.1-3.5-1.5-5.5-1c-0.8,0.2-1.5,0.5-1.6,1.3C97,42,97.7,42.5,98.3,43C99.4,43.7,100.7,44,102,44.1z"/>
		<path class="st0" d="M88.9,86.8c0.3-0.6,0.4-1.3,1.1-1.3s1.1,0.6,1.3,1.2c0.8,1.7,1.5,3.4,2.2,5.1c0.2,0.5,0.4,0.9,0.9,0.2
			c0.2-0.2,0.4-0.4,0.6-0.1s0.2,0.5-0.1,0.7c-0.8,0.5-0.6,1-0.2,1.7c0.3,0.4,0.4,1,0.7,1.4c0.3,0.5,0.3,0.7-0.3,1
			c-0.7,0.4-0.6-0.2-0.8-0.5c-0.1-0.2-0.2-0.3-0.3-0.5c-0.7-1.3-0.7-1.3-1.8-0.4c-0.1,0.1-0.3,0.5-0.5,0.2c-0.2-0.2-0.4-0.5,0-0.7
			c0.1,0,0.1-0.1,0.2-0.2c1.2-1.2,1.2-1.2,0.5-2.8c-0.7-1.4-1.3-2.8-1.9-4.2C90.2,86.8,89.8,86.5,88.9,86.8z"/>
		<path class="st0" d="M84.7,28.2c-1.2,0-2.4-0.1-3.1-1.2c-0.6-1.1-0.3-2.2,0.3-3.2c1.3-2,4-3.1,6.2-2.4c0.9,0.3,1.4,0.8,1.6,1.7
			c0.2,0.8-0.4,1.5-1.2,1.5c-0.5,0-0.9-0.3-1-0.7c-0.1-0.4,0.2-0.7,0.6-0.9c0.2-0.1,0.6,0,0.5-0.4c-0.1-0.3-0.4-0.4-0.7-0.5
			c-2.1-0.4-4.9,1.5-5.1,3.7C82.7,26.8,83.1,27.3,84.7,28.2z"/>
		<path class="st0" d="M89,32.1c-1-0.1-1.7-1-1.5-2.1c0.2-0.9,0.6-1.7,1.3-2.2c1.4-1.1,2.9-1.6,4.7-1.5c0.9,0.1,1.6,0.5,2.1,1.2
			c0.4,0.5,0.6,1.1,0.3,1.7C95.6,29.9,95,30,94.4,30c-1.2,0-2.3-0.4-3.3-1.1c-0.9-0.6-1.4-0.3-1.9,0.4C88.3,30.4,88.2,31,89,32.1z
			 M90.8,28.2c1.1,0.6,2,1.1,3.2,1.1c0.6,0,1.2-0.2,1.1-0.9c0-0.6-0.5-0.8-1.1-0.9C92.9,27.4,91.9,27.6,90.8,28.2z"/>
		<path class="st0" d="M73.4,73.8c1.1-2.3,2.7-4.2,2.8-7c0.9,1.4,1.6,2.6,2.3,3.8c0.1,0.2,0,0.4-0.1,0.6c-0.4,0.9-0.5,2-1.2,2.5
			c-0.6,0.4-1.7,0.1-2.6,0.1C74.1,73.8,73.8,73.8,73.4,73.8z"/>
		<path class="st0" d="M79,25.3c-0.3,0-0.4,0.1-0.5,0.1c-0.7,0.1-1.6,0.4-2-0.5c-0.4-0.8,0.2-1.4,0.6-2c0.5-0.6,1.1-1.1,1.6-1.7
			c0.4-0.4,0.7-0.7,1-1.2c0.6-0.9,0.5-1.2-0.5-1.8c0.2-0.2,0.4-0.1,0.6-0.1c0.6-0.1,1.3-0.3,1.7,0.4c0.4,0.7,0,1.3-0.3,1.9
			c-0.5,0.8-1.3,1.3-1.9,2c-0.4,0.4-0.7,0.7-1,1.2C77.6,24.4,77.8,24.8,79,25.3z"/>
		<path class="st0" d="M107.7,69c-0.1,0.9,0.3,1.8-0.6,2.2c-0.9,0.4-1.6-0.3-2.1-0.9c-0.8-0.9-1.4-1.9-2.1-2.8c-0.8-0.9-1.2-0.9-2,0
			c-0.1-0.8-0.3-1.8,0.6-2.2c0.9-0.4,1.5,0.4,2,1c0.8,0.9,1.4,1.9,2.2,2.8C106.5,69.9,106.8,69.8,107.7,69z"/>
		<path class="st0" d="M113,51.2c0.8,0.9,1,1.9,0.5,3.1c-0.3,0.8-1.4,1.1-2,0.6c-0.4-0.3-0.5-0.6-0.3-1s0.5-0.4,0.9-0.1
			c0.5,0.4,1.1,0,1.2-0.7c0.1-0.6-0.2-1.1-0.5-1.6C112.9,51.3,112.9,51.2,113,51.2z"/>
		<path class="st0" d="M109.8,72.5c-0.1,0.3-0.2,0.6-0.7,0.6c-0.4,0-0.6-0.3-0.6-0.6c0-0.3,0.2-0.6,0.6-0.6
			C109.5,71.9,109.7,72.2,109.8,72.5z"/>
		<path class="st0" d="M82.1,15.9c0.3,0.1,0.6,0.2,0.6,0.6s-0.3,0.6-0.7,0.6c-0.4,0-0.7-0.3-0.6-0.6C81.5,16.2,81.7,15.9,82.1,15.9z
			"/>
		<path class="st0" d="M64.5,69.5L64.5,69.5L64.5,69.5C64.6,69.5,64.6,69.5,64.5,69.5C64.5,69.4,64.5,69.5,64.5,69.5z"/>
	</g>
	<path class="st0" d="M187.9,76.7h-9.3v4h7.9v19.4h-2.9v-1.7h-18.7v1.8h-2.8V80.7h7v-4h-8.6v-2.8h27.4L187.9,76.7L187.9,76.7z
		 M164.8,95.7h18.7v-5c-0.5,0.5-1.1,0.7-2,0.7h-2.8c-2.5,0-3.1-0.8-3.1-3.3v-4.7h-3.8v0.5c0,3-0.8,6.8-4.6,9.4
		c-0.4-0.5-1.5-1.4-2.1-1.8c4-2.7,4-6.3,4-8.1h-4.4v12.3H164.8z M175.8,80.7v-4h-3.9v4H175.8z M181.3,88.8c0.6,0,0.7-0.3,0.8-2
		c0.3,0.2,0.9,0.5,1.5,0.8v-4.3h-5.1V88c0,0.7,0.1,0.8,0.8,0.8H181.3z"/>
	<path class="st0" d="M252.9,81.9c0.2,3.2,0.4,5.9,0.8,8.1c0.8-2,1.5-4.2,2-6.6l3.1,0.7c-0.1,0.2-0.3,0.4-0.7,0.4
		c-0.8,3.5-1.9,6.7-3.5,9.4c0.8,2.5,1.6,3.9,2.5,3.9c0.6,0,0.9-0.9,1-3.8c0.5,0.5,1.3,1,2,1.2c-0.4,4.3-1.2,5.1-3.2,5.1
		c-1.6,0-2.9-1.3-4-3.8c-1.1,1.5-2.4,2.8-3.9,3.8c-0.4-0.5-1.3-1.3-1.9-1.6c0.8-0.5,1.5-1.1,2.2-1.8H243v1.8h-2V83.4h8.9v1.9h-2.8
		v1.8h2.8V93h-2.8v1.9h3v1c0.7-0.8,1.3-1.6,1.8-2.5c-0.8-3-1.3-6.9-1.5-11.5h-10.8v6.3c0,3.7-0.3,8.8-2.1,12.1
		c-0.5-0.4-1.6-1-2.2-1.2c1.2-2.2,1.6-4.9,1.8-7.6h-1.8v1.1c0,2.1-0.3,5.4-2.2,7.6c-0.4-0.4-1.2-0.9-1.6-1.2
		c1.6-1.9,1.8-4.7,1.8-6.5v-1.1h-1.6v-2.3h5.5v-2.2h-2.1v0.8H233v-8l2.7,0.2c0,0.2-0.2,0.4-0.6,0.4v4.3h2.1v-5.2h13v-1h-1v-1.8h-7.1
		v1.7h-2.8v-1.7h-7v-2.4h7v-2.1l3.5,0.2c0,0.2-0.2,0.4-0.7,0.5v1.4h7.1v-2.1l3.5,0.2c0,0.3-0.2,0.4-0.7,0.5v1.4h7.1v2.4h-3.3
		c1,0.6,2.2,1.5,2.7,2.2l-0.8,0.6h1.7v2.4L252.9,81.9L252.9,81.9z M245.2,85.3H243v1.8h2.2V85.3z M247.9,91.2v-2.3H243v2.3H247.9z
		 M243.1,93v1.9h2.2V93H243.1z M253.5,77.7c0,0.2-0.2,0.4-0.7,0.4v1.2h3.3c-0.6-0.6-1.4-1.2-2.1-1.6l1.6-1.2H252v1.1L253.5,77.7z"/>
	<path class="st0" d="M327.3,77.4l2.3,1.4c-0.1,0.2-0.3,0.3-0.5,0.4c-3.3,5.5-9.3,12.1-15,16.3c3,1.5,6.9,1.5,11,1.5
		c2,0,4.8,0,5.9,0c-0.4,0.7-0.8,2-1,2.7h-6.9c-6.5,0-11.2-1-14.2-5.5c-1,1.8-2.1,3.7-3.1,5.1c0.1,0.1,0.1,0.2,0.1,0.4
		c0,0.2-0.1,0.4-0.2,0.5l-2.9-1.9c2.2-2.4,4.6-6.4,5.8-9.5l2.7,1.1c-0.2,0.5-0.5,1.1-0.8,1.7c0.4,0.8,0.9,1.6,1.5,2.2
		c4.8-3.4,9.9-8.8,13-13.4h-20.2v-2.8h10.8v-5.4l3.6,0.2c0,0.3-0.2,0.4-0.7,0.5v4.7h8.5L327.3,77.4z"/>
	<path class="st0" d="M395.8,84v10.4H393v-1.6h-16.7c-0.6,2.7-1.7,5.5-3.9,7.5c-0.5-0.5-1.6-1.6-2.2-1.9c3.3-3.1,3.8-7.4,3.8-10.6
		V84H395.8z M397.8,76.9H386v2.5h10.4v2.4h-23v-2.4h9.7v-2.5h-11.6v-2.4h11.6V72l3.6,0.2c0,0.3-0.2,0.4-0.7,0.5v1.8h11.8V76.9z
		 M383.2,86.3h-6.4v1.6c0,0.8,0,1.6-0.1,2.5h6.5V86.3z M393,90.3v-4h-7v4H393z"/>
</g>
</svg>
