<?xml version="1.0" encoding="UTF-8"?>
<svg id="Layer_1" data-name="Layer 1" xmlns="http://www.w3.org/2000/svg" version="1.1" xmlns:xlink="http://www.w3.org/1999/xlink" viewBox="0 0 128 128">
  <defs>
    <style>
      .cls-1 {
        fill: url(#radial-gradient-2);
      }

      .cls-1, .cls-2 {
        stroke-width: 0px;
      }

      .cls-2 {
        fill: url(#radial-gradient);
      }
    </style>
    <radialGradient id="radial-gradient" cx="64" cy="64" fx="64" fy="64" r="49.3" gradientUnits="userSpaceOnUse">
      <stop offset="0" stop-color="#326cb5"/>
      <stop offset="1" stop-color="#3a58a8"/>
    </radialGradient>
    <radialGradient id="radial-gradient-2" cx="83.9" cy="64.6" fx="83.9" fy="64.6" r="7.2" xlink:href="#radial-gradient"/>
  </defs>
  <path class="cls-2" d="M89.4,89.8c0-.2.2-.2.3-.3.6-.5.6-1,.1-1.5-.2-.2-.4-.3-.3-.6,0-.2,0-.5-.3-.6s-.6-.1-.9,0c-.1.1-.2.3-.4.3h-.2v-.2c.1-.2.3-.3.4-.4.4-.4.4-1.2-.1-1.6-.5-.4-1-.7-1.7-.7s-1.3.2-1.5.9c-.2.4-.4.6-.9.7-.3,0-.6.3-.7.6-.3.6-.3.6-.9.5-.4,0-.7-.2-1-.5-.3-.2-.6-.5-.9-.6-.5-.2-1-.3-1.4,0-.1,0-.2.1-.3.1-.7,0-1.1.5-1.4,1.1-.2.5-.5,1-.7,1.4-.3.5-.7.7-1.3.7s-1.3.3-1.7.9c-.3.5-.7.8-1.3,1.1-.4.2-.8.5-1,.9s-.4.6-.9.5c-.3,0-.5.2-.6.5-.2.3-.3.6-.6.9-.2.3-.4.5-.7.4-.7-.1-1.4-.2-2.1-.2s-.5-.2-.6-.3c-.2-.1-.5-.3-.7-.3-.5-.1-.9-.2-1.2-.6-.3-.3-.7-.3-1.1-.3s-.7,0-1.1.4c-.3.3-.6.3-.9,0-.1-.2-.2-.3-.3-.5-.3-.3-.5-.7-.9-.9-.6-.3-1.1-.3-1.6,0-.5.3-.9.5-1.5.2-.6-.2-1.1.2-1.4.6-.2.3-.4.6-.5,1,0,.7-.5,1.3-.9,1.8-.2.2-.3.6-.7.7-.2-.3-.2-.6-.1-.9.1-.5,0-.9-.3-1.2-.8-1-1.8-1.4-3-.9-.3.1-.6.3-.7.6-.2.5-.6.6-1.1.6s-1.1,0-1.7-.1c-.8-.2-1.6-.2-2.3,0-.6.1-1.1,0-1.4-.6-.2-.3-.4-.5-.6-.6-.4-.3-.7-.3-1.1,0-.1,0-.2.2-.3.3-.2.1-.1.5-.4.3-.1,0-.1-.3-.2-.4-.3-.4-.7-.5-1.1-.3-.2.1-.3.3-.6.3-.2-.2,0-.5-.1-.7,0-.9-1-1.6-1.8-1.5-.2,0-.5.1-.7.2-.2,0-.4,0-.6,0-.2,0-.3-.3-.2-.5,0,0,.1-.1.1-.2.2-.8,0-1.5-1-1.5-.5,0-.9-.1-1.4,0-.5.2-.8,0-1-.4-.2-.4-.5-.6-1-.6-.5,0-.6-.2-.5-.6.3-.9,0-1.5-.6-2.1-.2-.2-.4-.3-.6-.3-.5-.2-1-.2-1.4.3,0,.1-.2.2-.3.3-.7-.6-1.3-1.3-1.6-2.1-.2-.5-.6-.8-.9-1.1-.2-.2-.5-.3-.7-.3-.5,0-.7-.2-.9-.5-.5-.6-1-1.3-1.5-1.8s-1.1-.8-1.9-.7c-.3,0-.4-.1-.3-.4.2-.4,0-.7-.2-1-.2-.2-.4-.3-.6-.5-.5-.3-.9-.3-1.3,0-.3.3-.6.6-.9.9-.5.6-1.1.5-1.8.4-.1,0-.2-.1-.2-.2-.1-.1-.2-.3-.3-.4-.3-1.1-1.3-1.7-2.2-2.2-.2-.1-.3-.2-.3-.5-.1-1-.7-1.5-1.7-1.4h-.1c-.3,0-.5,0-.6-.4-.1-.5-.3-.8-.7-1-.3-.3-.5-.6-.5-1s-.2-.7-.5-1c-.3-.4-.7-.5-1.4-.5.1-.5,0-.9-.2-1.4-.2-.5-.3-1,0-1.5.2-.3.1-.6-.1-.8-.5-.5-.5-.9-.2-1.5h.3c.5.5,1,.5,1.5.4.2,0,.4-.1.6-.2.5-.1.7-.5.7-.9v-.5c0-.4,0-.9,0-1.3,0-.5,0-.9-.2-1.3-.1-.2-.2-.4-.2-.6,0-.5-.3-1-.6-1.3-.7-.6-.7-1.3-.6-2.1,0-.5.2-1,.5-1.4.2-.5.6-.8.7-1.3,0-.3.3-.3.6-.3h2.4c.3,0,.6-.2.7-.6.1-.3.3-.5.6-.6.5-.1.6-.4.6-.9s0-.4.1-.6.2-.5.2-.6c0-.8.5-1.3,1-1.7h.3c.5.3,1,.4,1.5.6.5.2,1,.5,1.5.7.7.4,1.4.7,2.2.7s1.1-.2,1.5-.7c.3-.4.6-.9,1-1.3.3-.4.6-.5,1.1-.4.6.2,1.2.1,1.7-.3.3-.3.7-.2,1.1,0,.7.5,1.5,1.1,2.1,1.8.5.5,1,.9,1.6.8.7,0,1.4-.2,2.1-.6.2-.2.5-.3.7-.5.7-.5,1.4-.6,2.3-.5.3,0,.6,0,.9.1,1.5.3,2.6-.2,3.5-1.3.7-.9,1.5-1.3,2.6-1.4.4,0,.8-.1,1.2-.2.7-.1,1.4-.3,2-.9.9-.8,1.9-1,3-.7.5.1,1.1,0,1.7.2.6.2,1.1.3,1.5.8.8.8,1.8.9,2.7.6.9-.2,1.7-.3,2.5-.4h.7c.3.1.6.2.9.3.5.2,1,.1,1.4-.2s.8-.5,1.3-.4c.1,0,.2-.1.4-.1.7,0,1.1-.9,1-1.5,0-.3-.3-.5-.6-.5-.1,0-.3,0-.4.1h-.3c-.3-.2-.3-.5-.3-.8,0-.3.2-.5.4-.5.3-.1.6-.2.9-.3.3-.1.5-.3.7-.6.2-.3.1-.5,0-.9-.1-.3-.1-.6.2-.9.5-.5.3-1.4-.3-1.8-.2-.1-.4-.2-.6-.3-.8-.2-1.5-.6-2.2-1-1-.5-1.5-1.8-1.4-2.9,0-.5.3-.8.8-.9.2,0,.4,0,.6-.1.5-.1.7-.3.7-.8v-.3c0-.3.2-.4.5-.5h2.2c.7,0,1.3-.2,1.8-.5.4-.3.7-.5,1.1-.7.9-.6,1.9-1,3-1.2.2,0,.3,0,.5,0,.2.1.5.2.7.4.5.3.9.2.9-.5,0-.4,0-.5.5-.5s.7,0,1,.1c.6.2,1.1.1,1.6-.2.2-.1.3-.2.5-.3.2-.2.5-.2.6-.2.6,0,1.2,0,1.7.4.2.1.4.2.6.3.5.2,1,.5,1.5.2.2-.1.4,0,.6,0s.3.1.4.4c.1.6.5.9,1,1.1.5.2,1.1.4,1.6.6,1.2.3,2,0,2.6-1,.1-.2.2-.4.3-.6.3-.6.9-.9,1.5-.9.3,0,.6.1.9.2.4.2.7.3,1.2.3s1-.2,1.3-.7c.7-1.1.6-.9,1.8-.6.6.1,1.1.6,1.6,1,.7.6,1.5,1,2.4,1.1.7.1,1.5,0,2-.6,0,0,.1-.2.2-.2.1,0,.2,0,.3,0,.2.2.2.3.2.6.2.8.7,1.4,1.5,1.6,1.3.3,2.3,1.1,3.1,2.2.6.7,1.2,1.2,2,1.6.2.1.5.2.7.2.6,0,.7-.2.8-.8v-.3c0-.2.2-.3.4-.3h.2c2.5.9,4.7,2,7,3.2.6.3,1,.8,1.1,1.5.2.8.3,1.6.2,2.4,0,.5,0,1,.4,1.4.3.3.3.7.3,1.1v.5c-.1.7.2,1.3.7,1.9.2.2.3.3.5.5.3.5.5.9.5,1.5s.2,1.5.7,2.1c.4.4.6.9.8,1.5.2.7.6,1.4,1.1,2,.3.3.6.7.9,1.1.2.2.3.5.3.8s0,.7.1,1.1c0,.6.1,1.1.5,1.5.2.2.2.5.3.8.1.5,0,.6-.5.9-.1,0-.2.1-.3.2-.7.5-1,1.1-.8,1.9.3,1.1.3,2.2.6,3.3.2.9.2,1.8,0,2.6-.2,1.1-.2,2.2.3,3.1.2.5.2.9,0,1.4-.3.7-.7,1.3-1.3,1.9-.1.2-.3.3-.4.5-1,.9-1.6,1.9-1.8,3.2-.1.9-.5,1.5-1.1,2.2-.3.3-.4.5-.5.9,0,.3-.1.7-.4,1-.2.1-.2.3-.2.6v5c0,.9.2,1.9.4,2.8.2.9.2,1.9.3,2.8.1.6.1,1.1.2,1.7,0,.5.1.9-.3,1.3,0,0-.1.1-.1.2-.1.3-.2.6,0,.9.1.3.3.5.7.5s.3,0,.3.2,0,.3-.2.3c-.4.1-.7.4-.9.7s-.3.3-.5.3c-.8.2-1.5.4-2.3.3-.6,0-1.1.1-1.5.6-.5.5-1,.8-1.7.9-.4,0-.7.3-1.1.5-.4.2-.6.1-.9-.2,0,0,0-.1-.1-.2-.3-.5-.8-.6-1.3-.5-.5.2-1,0-1.4-.2-.5-.3-1-.2-1.4,0-.1.1-.3.2-.4.3-.9.8-1.9.7-3,.5-.2,0-.3-.2-.3-.4,0-.7-.1-1.4-.4-2-.2-.5-.3-1-.2-1.4.2-.7-.1-1.2-.6-1.7-.3-.3-.6-.5-.9-.8s-.2-.5-.5-.5-.3.3-.5.5c0,0-.1,0-.2,0-.1,0-.1-.1-.2-.2,0-.6-.1-1.3,0-1.9,0-.5-.2-.9-.5-1.1-.3-.2-.4-.6-.9-.5-.2,0-.3-.2-.4-.3-.1-.2-.2-.3-.3-.5-.1-.2-.2-.3-.3-.5-.3-.3-.7-.6-1.3-.4-.5.2-.9.5-.9,1.1s-.3.6-.7.3c-.1,0-.2-.2-.4-.3-.2-.2-.5-.3-.8-.1-.2,0-.4.1-.5-.1-.3-.6-.8-.6-1.4-.4-.1,0-.2,0-.2,0h0v.3c.1,0,.1.1.1.1ZM83.5,33.8c-1.8,7.8-5.1,14.8-11,20.3,1,1.4,1.8,2.9,2.5,4.3,1.5,3.3,2.6,6.7,3.3,10.3.5,2.7.8,5.3.9,8v.6c0,.1.1.2.2.2h.3c2.7-.4,5.4-.5,8.1,0h.6c0,0,.2-.1.2-.2v-.3c0-1.7.1-3.4.2-5.1.1-1.4.3-2.7.6-4.1.3-1.5.6-3,1.1-4.4.6-1.9,1.3-3.9,2.2-5.7.6-1.1,1.1-2.2,1.8-3.3.3-.4.3-.5,0-.7-1.8-1.7-3.4-3.5-4.7-5.6-1.7-2.4-2.9-5-4-7.7-.6-1.5-1.1-3.1-1.5-4.7-.1-.6-.2-1.3-.6-2h0c0,.1,0,.1,0,.1ZM83.7,77.9h-.9c-1.4,0-2.7.3-4.1.6-.6.2-.8.5-.9,1,0,.3,0,.6.2.9.1.2.3.3.5.2.3-.1.7-.2,1-.3,2.9-.7,5.8-.7,8.7,0,.3,0,.6.2.9.3.2,0,.4,0,.5-.2.2-.8.2-1.6-.9-1.9-1.7-.3-3.4-.7-5-.6h0ZM83.7,82.3c.6,0,1.2,0,1.8.1.6,0,1.2.2,1.8.3.6.1,1.1.3,1.7.5.2,0,.4,0,.5-.1.4-.6.3-1.7-.6-1.9h-.1c-3.4-1.1-6.7-1-10.1,0-.7.2-1,.8-.8,1.4.2.5.5.7,1,.5.2,0,.3-.1.5-.2,1.4-.5,2.9-.7,4.4-.7h0Z"/>
  <path class="cls-1" d="M84.4,66.1v8.3c0,.2-.2.3-.3.3s-.3,0-.3-.3v-.7c0-5.1,0-10.1-.1-15.2v-.6c0-.3,0-.5-.3-.6-.3-.2-.6-.5-.7-.9-.2-.5.1-1.2.6-1.5.5-.3,1.1-.3,1.6,0,.7.6,1,1.6,0,2.3-.4.3-.5.6-.5,1.1v7.9h.1Z"/>
</svg>