<?xml version="1.0" encoding="UTF-8"?>
<svg id="Layer_1" data-name="Layer 1" xmlns="http://www.w3.org/2000/svg" version="1.1" xmlns:xlink="http://www.w3.org/1999/xlink" viewBox="0 0 491.8 395">
  <defs>
    <style>
      .cls-1 {
        fill: url(#linear-gradient-38);
      }

      .cls-1, .cls-2, .cls-3, .cls-4, .cls-5, .cls-6, .cls-7, .cls-8, .cls-9, .cls-10, .cls-11, .cls-12, .cls-13, .cls-14, .cls-15, .cls-16, .cls-17, .cls-18, .cls-19, .cls-20, .cls-21, .cls-22, .cls-23, .cls-24, .cls-25, .cls-26, .cls-27, .cls-28, .cls-29, .cls-30, .cls-31, .cls-32, .cls-33, .cls-34, .cls-35, .cls-36, .cls-37, .cls-38, .cls-39, .cls-40, .cls-41, .cls-42, .cls-43, .cls-44, .cls-45, .cls-46, .cls-47, .cls-48, .cls-49, .cls-50, .cls-51, .cls-52, .cls-53, .cls-54, .cls-55, .cls-56, .cls-57, .cls-58, .cls-59, .cls-60, .cls-61, .cls-62, .cls-63, .cls-64, .cls-65, .cls-66, .cls-67, .cls-68, .cls-69, .cls-70, .cls-71, .cls-72, .cls-73, .cls-74, .cls-75, .cls-76, .cls-77, .cls-78, .cls-79, .cls-80, .cls-81, .cls-82, .cls-83, .cls-84, .cls-85, .cls-86 {
        stroke-width: 0px;
      }

      .cls-2 {
        fill: url(#linear-gradient-12);
      }

      .cls-3 {
        fill: url(#linear-gradient-17);
      }

      .cls-4 {
        fill: url(#linear-gradient-19);
      }

      .cls-5 {
        fill: url(#linear-gradient-33);
      }

      .cls-6 {
        fill: url(#linear-gradient);
      }

      .cls-7 {
        fill: url(#linear-gradient-62);
      }

      .cls-8 {
        fill: url(#linear-gradient-67);
      }

      .cls-9 {
        fill: url(#linear-gradient-57);
      }

      .cls-10 {
        fill: url(#linear-gradient-21);
      }

      .cls-11 {
        fill: url(#linear-gradient-6);
      }

      .cls-12 {
        fill: url(#linear-gradient-76);
      }

      .cls-13 {
        fill: url(#linear-gradient-42);
      }

      .cls-14 {
        fill: url(#linear-gradient-15);
      }

      .cls-15 {
        fill: url(#linear-gradient-11);
      }

      .cls-16 {
        fill: url(#linear-gradient-81);
      }

      .cls-17 {
        fill: url(#linear-gradient-73);
      }

      .cls-18 {
        fill: url(#linear-gradient-5);
      }

      .cls-19 {
        fill: url(#linear-gradient-31);
      }

      .cls-20 {
        fill: url(#linear-gradient-71);
      }

      .cls-21 {
        fill: url(#linear-gradient-58);
      }

      .cls-22 {
        fill: url(#linear-gradient-63);
      }

      .cls-23 {
        fill: url(#linear-gradient-34);
      }

      .cls-24 {
        fill: url(#linear-gradient-41);
      }

      .cls-25 {
        fill: url(#linear-gradient-40);
      }

      .cls-26 {
        fill: url(#linear-gradient-66);
      }

      .cls-27 {
        fill: url(#linear-gradient-13);
      }

      .cls-28 {
        fill: url(#linear-gradient-23);
      }

      .cls-29 {
        fill: url(#linear-gradient-25);
      }

      .cls-30 {
        fill: url(#linear-gradient-43);
      }

      .cls-31 {
        fill: url(#linear-gradient-16);
      }

      .cls-32 {
        fill: url(#linear-gradient-22);
      }

      .cls-33 {
        fill: url(#linear-gradient-54);
      }

      .cls-34 {
        fill: url(#linear-gradient-55);
      }

      .cls-35 {
        fill: url(#linear-gradient-35);
      }

      .cls-36 {
        fill: url(#linear-gradient-50);
      }

      .cls-37 {
        fill: url(#linear-gradient-32);
      }

      .cls-38 {
        fill: url(#linear-gradient-60);
      }

      .cls-39 {
        fill: url(#linear-gradient-59);
      }

      .cls-40 {
        fill: url(#linear-gradient-20);
      }

      .cls-41 {
        fill: url(#linear-gradient-14);
      }

      .cls-42 {
        fill: url(#linear-gradient-2);
      }

      .cls-43 {
        fill: url(#linear-gradient-52);
      }

      .cls-44 {
        fill: url(#linear-gradient-45);
      }

      .cls-45 {
        fill: url(#linear-gradient-7);
      }

      .cls-46 {
        fill: url(#linear-gradient-39);
      }

      .cls-47 {
        fill: url(#linear-gradient-3);
      }

      .cls-48 {
        fill: url(#linear-gradient-77);
      }

      .cls-49 {
        fill: url(#linear-gradient-69);
      }

      .cls-50 {
        fill: url(#linear-gradient-9);
      }

      .cls-51 {
        fill: url(#linear-gradient-27);
      }

      .cls-52 {
        fill: url(#linear-gradient-82);
      }

      .cls-53 {
        fill: url(#linear-gradient-83);
      }

      .cls-54 {
        fill: url(#linear-gradient-53);
      }

      .cls-55 {
        fill: url(#linear-gradient-85);
      }

      .cls-56 {
        fill: url(#linear-gradient-65);
      }

      .cls-57 {
        fill: url(#linear-gradient-36);
      }

      .cls-58 {
        fill: url(#linear-gradient-48);
      }

      .cls-59 {
        fill: url(#linear-gradient-49);
      }

      .cls-60 {
        fill: url(#linear-gradient-8);
      }

      .cls-61 {
        fill: url(#linear-gradient-47);
      }

      .cls-62 {
        fill: url(#linear-gradient-24);
      }

      .cls-63 {
        fill: url(#linear-gradient-26);
      }

      .cls-64 {
        fill: url(#linear-gradient-61);
      }

      .cls-65 {
        fill: url(#linear-gradient-18);
      }

      .cls-66 {
        fill: url(#linear-gradient-51);
      }

      .cls-67 {
        fill: url(#linear-gradient-30);
      }

      .cls-68 {
        fill: url(#linear-gradient-44);
      }

      .cls-69 {
        fill: url(#linear-gradient-84);
      }

      .cls-70 {
        fill: url(#linear-gradient-68);
      }

      .cls-71 {
        fill: url(#linear-gradient-72);
      }

      .cls-72 {
        fill: url(#linear-gradient-29);
      }

      .cls-73 {
        fill: url(#linear-gradient-46);
      }

      .cls-74 {
        fill: url(#linear-gradient-64);
      }

      .cls-75 {
        fill: url(#linear-gradient-28);
      }

      .cls-76 {
        fill: url(#linear-gradient-56);
      }

      .cls-77 {
        fill: url(#linear-gradient-10);
      }

      .cls-78 {
        fill: url(#linear-gradient-70);
      }

      .cls-79 {
        fill: url(#linear-gradient-78);
      }

      .cls-80 {
        fill: url(#linear-gradient-86);
      }

      .cls-81 {
        fill: url(#linear-gradient-74);
      }

      .cls-82 {
        fill: url(#linear-gradient-4);
      }

      .cls-83 {
        fill: url(#linear-gradient-37);
      }

      .cls-84 {
        fill: url(#linear-gradient-80);
      }

      .cls-85 {
        fill: url(#linear-gradient-79);
      }

      .cls-86 {
        fill: url(#linear-gradient-75);
      }
    </style>
    <linearGradient id="linear-gradient" x1="203.3" y1="49.6" x2="382.7" y2="349.8" gradientUnits="userSpaceOnUse">
      <stop offset="0" stop-color="#ffc96a"/>
      <stop offset="1" stop-color="#ffab15"/>
    </linearGradient>
    <linearGradient id="linear-gradient-2" x1="317.6" y1="206" x2="318" y2="206" gradientUnits="userSpaceOnUse">
      <stop offset="0" stop-color="#fff"/>
      <stop offset="1" stop-color="#000"/>
    </linearGradient>
    <linearGradient id="linear-gradient-3" x1="317.7" y1="206.6" x2="317.9" y2="206.6" xlink:href="#linear-gradient-2"/>
    <linearGradient id="linear-gradient-4" x1="303" y1="136.4" x2="303.1" y2="136.4" xlink:href="#linear-gradient-2"/>
    <linearGradient id="linear-gradient-5" x1="297.4" y1="132" x2="306.1" y2="132" xlink:href="#linear-gradient"/>
    <linearGradient id="linear-gradient-6" x1="292.7" y1="318.1" x2="331" y2="318.1" xlink:href="#linear-gradient"/>
    <linearGradient id="linear-gradient-7" x1="428.4" y1="291.7" x2="445.8" y2="291.7" xlink:href="#linear-gradient"/>
    <linearGradient id="linear-gradient-8" x1="176.3" y1="291.8" x2="192.7" y2="291.8" xlink:href="#linear-gradient"/>
    <linearGradient id="linear-gradient-9" x1="263.3" y1="291.4" x2="278.4" y2="291.4" xlink:href="#linear-gradient"/>
    <linearGradient id="linear-gradient-10" x1="272.1" y1="285.7" x2="272.1" y2="285.7" xlink:href="#linear-gradient"/>
    <linearGradient id="linear-gradient-11" x1="259.8" y1="268.6" x2="279.1" y2="268.6" xlink:href="#linear-gradient"/>
    <linearGradient id="linear-gradient-12" x1="301.5" y1="290.5" x2="315.3" y2="290.5" xlink:href="#linear-gradient"/>
    <linearGradient id="linear-gradient-13" x1="68.6" y1="267.2" x2="89.7" y2="267.2" xlink:href="#linear-gradient"/>
    <linearGradient id="linear-gradient-14" x1="449.9" y1="293.7" x2="459.7" y2="293.7" xlink:href="#linear-gradient"/>
    <linearGradient id="linear-gradient-15" x1="358.8" y1="292.6" x2="369" y2="292.6" xlink:href="#linear-gradient"/>
    <linearGradient id="linear-gradient-16" x1="282.4" y1="291.8" x2="292.1" y2="291.8" xlink:href="#linear-gradient"/>
    <linearGradient id="linear-gradient-17" x1="168.1" y1="293.8" x2="175.2" y2="293.8" xlink:href="#linear-gradient"/>
    <linearGradient id="linear-gradient-18" x1="42.8" y1="266.1" x2="60.1" y2="266.1" xlink:href="#linear-gradient"/>
    <linearGradient id="linear-gradient-19" x1="148.8" y1="311.3" x2="168.5" y2="311.3" xlink:href="#linear-gradient"/>
    <linearGradient id="linear-gradient-20" x1="372" y1="263.7" x2="385.4" y2="263.7" xlink:href="#linear-gradient"/>
    <linearGradient id="linear-gradient-21" x1="222.2" y1="309.5" x2="229.5" y2="309.5" xlink:href="#linear-gradient"/>
    <linearGradient id="linear-gradient-22" x1="28.4" y1="270.2" x2="41.7" y2="270.2" xlink:href="#linear-gradient"/>
    <linearGradient id="linear-gradient-23" x1="331.2" y1="314.1" x2="338.2" y2="314.1" xlink:href="#linear-gradient"/>
    <linearGradient id="linear-gradient-24" x1="94.5" y1="292.5" x2="103.4" y2="292.5" xlink:href="#linear-gradient"/>
    <linearGradient id="linear-gradient-25" x1="386.4" y1="259.6" x2="403.9" y2="259.6" xlink:href="#linear-gradient"/>
    <linearGradient id="linear-gradient-26" x1="49.9" y1="306.7" x2="92.9" y2="306.7" xlink:href="#linear-gradient"/>
    <linearGradient id="linear-gradient-27" x1="131" y1="298" x2="131.1" y2="298" xlink:href="#linear-gradient"/>
    <linearGradient id="linear-gradient-28" x1="129.9" y1="291.4" x2="147.4" y2="291.4" xlink:href="#linear-gradient"/>
    <linearGradient id="linear-gradient-29" x1="292.3" y1="286" x2="306.6" y2="286" xlink:href="#linear-gradient"/>
    <linearGradient id="linear-gradient-30" x1="314.9" y1="292.4" x2="335.2" y2="292.4" xlink:href="#linear-gradient"/>
    <linearGradient id="linear-gradient-31" x1="191.8" y1="301.2" x2="230.3" y2="301.2" xlink:href="#linear-gradient"/>
    <linearGradient id="linear-gradient-32" x1="243.1" y1="290.6" x2="259.6" y2="290.6" xlink:href="#linear-gradient"/>
    <linearGradient id="linear-gradient-33" x1="338.3" y1="304.1" x2="366.4" y2="304.1" xlink:href="#linear-gradient"/>
    <linearGradient id="linear-gradient-34" x1="344.4" y1="304.7" x2="344.6" y2="304.7" xlink:href="#linear-gradient"/>
    <linearGradient id="linear-gradient-35" x1="233.4" y1="293.2" x2="244.5" y2="293.2" xlink:href="#linear-gradient"/>
    <linearGradient id="linear-gradient-36" x1="380.8" y1="293.2" x2="395.7" y2="293.2" xlink:href="#linear-gradient"/>
    <linearGradient id="linear-gradient-37" x1="369.5" y1="282" x2="398.8" y2="282" xlink:href="#linear-gradient"/>
    <linearGradient id="linear-gradient-38" x1="400" y1="305.8" x2="427.8" y2="305.8" xlink:href="#linear-gradient"/>
    <linearGradient id="linear-gradient-39" x1="103.3" y1="311" x2="129.5" y2="311" xlink:href="#linear-gradient"/>
    <linearGradient id="linear-gradient-40" x1="129.4" y1="343.5" x2="129.4" y2="343.5" xlink:href="#linear-gradient"/>
    <linearGradient id="linear-gradient-41" x1="26" y1="291.2" x2="45.7" y2="291.2" xlink:href="#linear-gradient"/>
    <linearGradient id="linear-gradient-42" x1="366.9" y1="367.4" x2="380.7" y2="367.4" xlink:href="#linear-gradient"/>
    <linearGradient id="linear-gradient-43" x1="340.4" y1="364.5" x2="350.9" y2="364.5" xlink:href="#linear-gradient"/>
    <linearGradient id="linear-gradient-44" x1="306.1" y1="367.4" x2="317.7" y2="367.4" xlink:href="#linear-gradient"/>
    <linearGradient id="linear-gradient-45" x1="285.2" y1="367.3" x2="295.4" y2="367.3" xlink:href="#linear-gradient"/>
    <linearGradient id="linear-gradient-46" x1="454.5" y1="367.4" x2="462.6" y2="367.4" xlink:href="#linear-gradient"/>
    <linearGradient id="linear-gradient-47" x1="162.5" y1="365.6" x2="170.3" y2="365.6" xlink:href="#linear-gradient"/>
    <linearGradient id="linear-gradient-48" x1="73.8" y1="363.9" x2="93.6" y2="363.9" xlink:href="#linear-gradient"/>
    <linearGradient id="linear-gradient-49" x1="79" y1="373.3" x2="79.1" y2="373.3" xlink:href="#linear-gradient"/>
    <linearGradient id="linear-gradient-50" x1="41" y1="364" x2="54.6" y2="364" xlink:href="#linear-gradient"/>
    <linearGradient id="linear-gradient-51" x1="47.2" y1="373.5" x2="47.3" y2="373.5" xlink:href="#linear-gradient"/>
    <linearGradient id="linear-gradient-52" x1="23" y1="364.4" x2="39.3" y2="364.4" xlink:href="#linear-gradient"/>
    <linearGradient id="linear-gradient-53" x1="35.1" y1="373.3" x2="35.4" y2="373.3" xlink:href="#linear-gradient"/>
    <linearGradient id="linear-gradient-54" x1="245.1" y1="364.4" x2="261.4" y2="364.4" xlink:href="#linear-gradient"/>
    <linearGradient id="linear-gradient-55" x1="270.4" y1="364.2" x2="283.5" y2="364.2" xlink:href="#linear-gradient"/>
    <linearGradient id="linear-gradient-56" x1="192.9" y1="367.1" x2="206.9" y2="367.1" xlink:href="#linear-gradient"/>
    <linearGradient id="linear-gradient-57" x1="391.9" y1="367.1" x2="405.5" y2="367.1" xlink:href="#linear-gradient"/>
    <linearGradient id="linear-gradient-58" x1="318.8" y1="367.2" x2="332.6" y2="367.2" xlink:href="#linear-gradient"/>
    <linearGradient id="linear-gradient-59" x1="325.2" y1="373.4" x2="325.3" y2="373.4" xlink:href="#linear-gradient"/>
    <linearGradient id="linear-gradient-60" x1="407.2" y1="367.3" x2="419.2" y2="367.3" xlink:href="#linear-gradient"/>
    <linearGradient id="linear-gradient-61" x1="149.6" y1="367.4" x2="161.4" y2="367.4" xlink:href="#linear-gradient"/>
    <linearGradient id="linear-gradient-62" x1="115.9" y1="367.3" x2="128.3" y2="367.3" xlink:href="#linear-gradient"/>
    <linearGradient id="linear-gradient-63" x1="179.1" y1="367.3" x2="191.5" y2="367.3" xlink:href="#linear-gradient"/>
    <linearGradient id="linear-gradient-64" x1="352.8" y1="367.3" x2="365.1" y2="367.3" xlink:href="#linear-gradient"/>
    <linearGradient id="linear-gradient-65" x1="215.3" y1="367.3" x2="227.6" y2="367.3" xlink:href="#linear-gradient"/>
    <linearGradient id="linear-gradient-66" x1="229.7" y1="363.9" x2="239.8" y2="363.9" xlink:href="#linear-gradient"/>
    <linearGradient id="linear-gradient-67" x1="55.7" y1="367.3" x2="66" y2="367.3" xlink:href="#linear-gradient"/>
    <linearGradient id="linear-gradient-68" x1="130.1" y1="367.3" x2="140.5" y2="367.3" xlink:href="#linear-gradient"/>
    <linearGradient id="linear-gradient-69" x1="105.4" y1="367.3" x2="113.7" y2="367.3" xlink:href="#linear-gradient"/>
    <linearGradient id="linear-gradient-70" x1="95.2" y1="367.4" x2="103.4" y2="367.4" xlink:href="#linear-gradient"/>
    <linearGradient id="linear-gradient-71" x1="435.3" y1="367.3" x2="443.6" y2="367.3" xlink:href="#linear-gradient"/>
    <linearGradient id="linear-gradient-72" x1="420.2" y1="364.1" x2="426.2" y2="364.1" xlink:href="#linear-gradient"/>
    <linearGradient id="linear-gradient-73" x1="424.4" y1="354.5" x2="424.4" y2="354.5" xlink:href="#linear-gradient"/>
    <linearGradient id="linear-gradient-74" x1="445.3" y1="365.5" x2="452.6" y2="365.5" xlink:href="#linear-gradient"/>
    <linearGradient id="linear-gradient-75" x1="297" y1="365.5" x2="304.5" y2="365.5" xlink:href="#linear-gradient"/>
    <linearGradient id="linear-gradient-76" x1="381.9" y1="367.2" x2="390.9" y2="367.2" xlink:href="#linear-gradient"/>
    <linearGradient id="linear-gradient-77" x1="262.7" y1="367.3" x2="268.9" y2="367.3" xlink:href="#linear-gradient"/>
    <linearGradient id="linear-gradient-78" x1="177.2" y1="373.4" x2="177.3" y2="373.4" xlink:href="#linear-gradient"/>
    <linearGradient id="linear-gradient-79" x1="171.3" y1="367.3" x2="177.2" y2="367.3" xlink:href="#linear-gradient"/>
    <linearGradient id="linear-gradient-80" x1="141.8" y1="367.3" x2="147.8" y2="367.3" xlink:href="#linear-gradient"/>
    <linearGradient id="linear-gradient-81" x1="427.6" y1="367.3" x2="433.5" y2="367.3" xlink:href="#linear-gradient"/>
    <linearGradient id="linear-gradient-82" x1="143.4" y1="355.6" x2="146.1" y2="355.6" xlink:href="#linear-gradient"/>
    <linearGradient id="linear-gradient-83" x1="266" y1="354.3" x2="266.1" y2="354.3" xlink:href="#linear-gradient"/>
    <linearGradient id="linear-gradient-84" x1="264.7" y1="355.7" x2="267.4" y2="355.7" xlink:href="#linear-gradient"/>
    <linearGradient id="linear-gradient-85" x1="429" y1="355.6" x2="431.8" y2="355.6" xlink:href="#linear-gradient"/>
    <linearGradient id="linear-gradient-86" x1="173" y1="355.6" x2="175.7" y2="355.6" xlink:href="#linear-gradient"/>
  </defs>
  <path class="cls-6" d="M153,202.9c2.9.2,3.4,2.2,2.9,4.6,0,.2-.3.3-.3.5-.3.7,0,1.3.7,1.5.5.2,1.2.2,1.7,0,.6-.2,1.3-.5,2-.5,2.5-.3,5.4,1.9,5.4,4.4.3.6-.2,1.3.3,2,.9.2,1.4-.5,1.9-.8,1.2-.7,2.6-.4,3.4.8.2.4.2,1.2.5,1.2.9.4.7-.7,1.2-1,.3-.3.5-.6.8-.8,1-.8,2-.8,3.2,0,.7.5,1.4,1.1,1.9,1.9,1,1.7,2.3,2.2,4.2,1.9,2.2-.5,4.5-.7,6.9,0,1.5.3,3.6.3,4.9.3s2.5-.3,3.2-1.7c.3-.9,1.2-1.4,2-1.7,3.4-1.5,6.4-.2,8.8,2.7.8,1,1.1,2.1.8,3.5-.2.8-.4,1.9.3,2.7,1.2-.3,1.5-1.3,2.2-2,1.3-1.3,2.7-3,2.7-5.2.2-1,.7-2.1,1.4-2.9,1-1.2,2.3-2.6,4.2-1.9,1.7.7,3,.3,4.4-.7,1.5-1,3-.8,4.7,0,1.2.5,1.9,1.5,2.7,2.5.3.5.7,1,1,1.5.8.8,1.7,1,2.5,0,1-1.2,1.8-1.2,3.2-1.2s2.6,0,3.4.8c1,1.2,2.1,1.6,3.5,1.9.6.2,1.3.7,2,1,.5.3,0,.8,1.9.8s4.1.2,6.1.5c1,.2,1.7-.4,2.2-1.2.7-.8,1.2-1.7,1.7-2.7.4-.9,1.1-1.6,1.9-1.4,1.5.4,2.1-.4,2.7-1.5.6-1.1,1.8-1.8,3-2.5,1.5-.8,2.7-1.8,3.7-3.2,1.4-1.7,3.4-2.5,5.1-2.5s3.1-.8,3.9-2.2c.8-1.2,1.5-2.7,2.2-4.1.7-1.7,1.9-3.2,4.1-3.2s.7-.3,1-.3c1.3-.8,2.8-.5,4.2,0,1,.3,1.9,1,2.7,1.7.8.8,1.8,1.5,3,1.5,1.7.3,1.9.3,2.7-1.4.3-1.1,1-1.9,2-1.9,1.5-.1,2.2-.8,2.7-2,.9-1.8,2.6-2.5,4.6-2.5s3.4,1,4.9,2.2c1.5,1.2,1.5,3.5.3,4.7s-.9.7-1.2,1.2v.5h.5c.7,0,.9-.5,1.2-.8.8-.3,1.7-.3,2.5,0,.8.3.8,1,.8,1.7-.2.9.5,1.2,1,1.7,1.6,1.5,1.4,3-.3,4.4-.2.2-.5.2-.7.3,0,0,.2,0,.3,0,1.7-.5,3.1-.5,4.1,1.2.3.6,1,.5,1.5.3.9-.5,1.7-.2,2.4.3.5.3.9.8,1.2,1,1.2.7,2,.9,2-1s1.2-2.7,2.7-3.4,2.7.4,3.7,1.2c.3.4.7.9,1,1.4s.5,1,.8,1.5c.4.3.7.8,1.2.8,1.3-.4,1.7.8,2.5,1.5,1,.9,1.5,2,1.5,3.4,0,1.9.2,3.7.2,5.6.2.4.2.7.5.7s.5-.2.5-.2c.7-.4.7-1.4,1.5-1.4s.7.6,1.5,1.5c.8.9,1.7,1.6,2.5,2.4,1.4,1.4,2.4,2.7,1.7,4.9-.3,1.3-.2,2.8.5,4.2.9,1.8,1.4,3.9,1.2,5.9,0,.7.3,1.2,1,1.2,3.2.5,6.2.9,8.9-1.5.4-.3.9-.5,1.2-.8,1.3-.9,2.8-1,4.2-.2,1.3.7,2.7,1,4.2.5s3.1-.1,3.9,1.4c0,.2.3.5.3.5.8,1,1.3,1.2,2.5.7,1-.6,2-1.2,3.2-1.4,2.1-.1,3.7-1,5.1-2.5,1.2-1.4,2.7-1.9,4.6-1.7,2.3.2,4.5-.5,6.9-1,.6-.2.9,0,1.4-1s1.3-1.9,2.5-2.2c.5-.2.5-.5.5-1s.2-.7-.8-.7-1.7-.6-2-1.4c-.5-.8-.3-1.7,0-2.5,0-.2.3-.5.3-.5,1.3-1,1.2-2.3,1-3.7-.4-1.7-.4-3.4-.7-5.1-.3-2.7-.3-5.6-1-8.3-.7-2.7-1.2-5.6-1.2-8.3v-14.9c0-.7,0-1.4.5-1.7.9-.7,1.2-1.9,1.2-2.9.2-1.2.6-1.9,1.4-2.7,1.7-1.8,2.9-3.9,3.2-6.4.5-3.8,2.3-7,5.2-9.5.4-.6.9-.9,1.2-1.4,1.7-1.7,2.9-3.6,3.7-5.6.5-1.5.7-2.8,0-4.2-1.5-2.9-1.5-6.1-.8-9.3.5-2.6.5-5.3,0-7.8-.7-3.2-.9-6.4-1.7-9.6-.5-2.4.4-4.2,2.4-5.6.3-.4.7-.7,1-.7,1.4-.8,1.7-1.3,1.4-2.7,0-.9-.3-1.7-.8-2.4-1.2-1.4-1.5-2.9-1.5-4.6,0-1-.3-2.3-.3-3.2s-.3-1.7-.8-2.4c-.8-1-1.7-2.2-2.5-3.2-1.5-1.8-2.7-3.7-3.2-5.9-.5-1.7-1.2-3.2-2.4-4.4-1.5-1.7-2.2-4.4-2.2-6.1s-.7-3-1.5-4.4c-.6-.5-.9-1-1.4-1.5-1.3-1.7-2.3-3.4-2-5.6v-1.5c0-1.2-.2-2.2-1-3.2-1-1.1-1.4-2.6-1.2-4.1.3-2.4-.2-4.7-.7-7.1-.5-2.2-1.7-3.6-3.4-4.6-6.8-3.6-13.5-7-20.8-9.5h-.5c-.7-.2-1.2,0-1.2.8v.8c-.2,1.9-.5,2.4-2.4,2.4s-1.5-.2-2.2-.5c-2.4-1.2-4.2-2.7-5.9-4.7-2.5-3-5.4-5.4-9.3-6.4-2.4-.6-3.9-2.3-4.4-4.7-.2-.7-.2-1.2-.7-1.7-.3-.2-.7-.4-1-.2-.4,0-.5.3-.7.5-1.5,1.7-3.7,2-5.9,1.7-2.7-.3-5.1-1.3-7.1-3.2-1.3-1.2-2.8-2.6-4.7-2.9-3.7-.6-3.2-1.5-5.4,1.9-.9,1.3-2.6,2-3.9,2s-2.3-.3-3.5-1c-.8-.4-1.5-.7-2.5-.7-1.9.2-3.6.8-4.6,2.7-.3.7-.7,1.4-1,1.9-1.9,3.1-4.3,3.9-7.8,2.9-1.5-.5-3.2-1.2-4.7-1.7-1.5-.7-2.7-1.5-3-3.2-.2-.9-.7-1.2-1.2-1.2s-1.2-.3-1.7,0c-1.7.9-3.1,0-4.6-.5-.7-.3-1.4-.7-1.9-1-1.6-1.2-3.4-1-5.1-1.2-.5,0-1.4.2-1.9.7-.5.3-1,.7-1.5,1-1.5,1-3,1.4-4.7.7-.9-.3-1.5-.3-2.9-.3s-1.4.2-1.4,1.4c-.2,1.9-1.2,2.4-2.7,1.4-.6-.5-1.3-.9-2-1.2-.4-.2-.9-.2-1.4-.2-3.2.6-6.2,1.8-8.9,3.5-1.2.7-2.2,1.4-3.4,2.2-1.5,1-3.2,1.5-5.2,1.5h-6.4c-.7.2-1.4.6-1.4,1.4v.8c-.2,1.4-.8,2.1-2.2,2.4-.5.3-1.2.3-1.7.3-1.6.1-2.4,1.1-2.4,2.5-.4,3.2,1.3,6.9,4.2,8.4,2,1,4,2.4,6.4,2.9.7,0,1.4.5,1.9.8,1.8,1,2.5,3.8,1,5.2-.8.8-.8,1.7-.5,2.5.3,1,.5,1.7,0,2.5-.5.9-1.2,1.4-2,1.7-.8.3-1.9.7-2.7,1-.7.1-1.2.7-1.2,1.5-.2,1,0,1.7.8,2.4h.8c.4-.3.9-.3,1.2-.3,1.1-.1,1.9.4,1.9,1.4.5,1.9-.7,4.6-2.9,4.6s-.9.3-1.2.3c-1.3-.2-2.5.4-3.7,1.2s-2.7,1-4.2.5c-.8-.3-1.7-.5-2.5-.8h-2c-2.5.4-4.9.7-7.4,1.2-2.9.6-5.7.5-8.1-1.9-1.2-1.4-2.9-1.9-4.6-2.4-1.7-.7-3.4-.4-4.9-.7-3.3-.7-6.4-.2-8.9,2.2-1.7,1.5-3.7,2.2-5.9,2.5-1.1.2-2.3.5-3.5.5-3.2.2-5.8,1.6-7.8,4.1-2.7,3.2-6.1,4.9-10.5,3.9-.8-.3-1.9-.3-2.7-.3-2.6-.4-4.8,0-6.8,1.5-.7.5-1.5,1-2.2,1.5-1.9,1.2-3.9,1.7-6.1,1.7-1.8,0-3.3-.9-4.7-2.4-1.8-2-4-3.7-6.2-5.2-1-.7-2.2-.8-3.2,0-1.4,1.3-3,1.5-4.9,1-1.3-.3-2.4,0-3.2,1.2-1,1.2-2.1,2.5-2.9,3.7-1,1.5-2,2.2-4.4,2.2s-4.6-.8-6.6-2c-1.4-.8-2.9-1.5-4.4-2.2-1.6-.7-3.2-1.1-4.6-1.9h-.8c-1.5,1.4-3.2,2.7-3,5.1,0,.5-.4,1.4-.7,1.9-.3.5-.3.4-.3,1.7s-.5,2.2-1.9,2.5c-1.1.2-1.6.9-1.9,1.7-.3,1.1-1,1.7-2,1.7h-7.1c-.9,0-1.7.2-1.9,1-.3,1.5-1.3,2.5-2,3.9-.7,1.2-1.4,2.7-1.4,4.1,0,2.2,0,4.4,1.9,6.1,1.1.8,1.9,2.2,1.9,3.7-.2.7.2,1.4.5,1.9.7,1.2.9,2.5.7,3.9-.2,1.2,0,2.5,0,3.7v1.5c0,1.3-.8,2.4-2.2,2.7-.5.2-1.2.5-1.7.5-1.7.2-3.2.3-4.6-1.2h-.8c-.7,1.7-.7,3,.7,4.4.6.7.8,1.6.3,2.4-.8,1.6-.5,3.2.2,4.6.7,1.5,1,2.7.7,4.2,2.2,0,3.2.3,4.2,1.5.9.9,1.4,1.6,1.4,2.9s.5,2.2,1.5,3c1,.6,1.7,1.6,2,3,.2,1.2.7,1.2,1.7,1.2h.3c3.1-.2,4.8,1.2,5.1,4.2.2.7.5,1.1,1,1.4,2.7,1.5,5.4,3.2,6.4,6.4,0,.4.5.9.8,1.2s.4.5.7.5c1.8.2,3.7.5,5.2-1.2.8-1,1.7-1.9,2.7-2.7,1.2-.8,2.3-1,3.7,0,.7.5,1.2,1,1.9,1.5.7.7,1.2,1.7.7,2.9-.4.9-.2,1.2.8,1.2,2.4-.4,3.9.5,5.6,2s3.2,3.3,4.6,5.2c.7.8,1.3,1.5,2.7,1.5.8-.2,1.7.3,2.2.8,1,1,2.2,1.9,2.7,3.4.8,2.5,2.5,4.3,4.7,6.2.3-.3.8-.5.8-.8,1.2-1.5,2.7-1.7,4.2-1,.5.2,1.2.5,1.7,1,1.9,1.7,2.7,3.6,1.9,6.1-.5,1.4-.1,1.9,1.4,1.9,1.4.2,2.2.7,2.9,1.9.6,1.2,1.6,1.7,3,1.2,1.4-.3,2.7,0,4.1,0ZM318.2,186.6c-.3.3-.8.3-1.5.3-1.7-.6-3.4-1.1-5.1-1.4-1.7-.5-3.5-1-5.2-1-1.7-.3-3.5-.3-5.2-.3h0s-.2,0-.2,0c-4.6-.2-8.8.6-13,2-.6.2-.9.5-1.4.5-1.4.7-2.2,0-2.9-1.5-.6-1.8.4-3.5,2.4-4.2,10-3,19.9-3.4,29.9,0h.3c2.9.5,3.1,3.9,1.9,5.6ZM283.6,176.2c.1-1.5.8-2.4,2.5-2.9,4.1-1.1,8-1.9,12.2-1.9h2.6v-.2c4.9,0,9.8.9,14.9,1.9,3.4.9,3.4,3.2,2.7,5.6-.2.7-.7.7-1.4.7-.8-.3-1.7-.8-2.5-.8-8.6-2-17.2-2.2-25.8,0-1,.3-2,.7-3,1-.7,0-1.2-.2-1.5-.7-.7-.8-.7-1.7-.7-2.7ZM300.3,40.6c0,.1.1.2.2.3h-.2v-.3ZM300.5,41c1.1,2,1.4,3.7,1.7,5.5,1,4.7,2.7,9.2,4.4,13.8,3.2,7.9,6.9,15.7,11.8,22.8,4,6,8.6,11.6,14,16.5,1,.8,1,1,.2,2.2-2,3-3.7,6.2-5.4,9.6-2.7,5.4-4.7,11.2-6.4,16.9-1.3,4.2-2.4,8.6-3.2,13-.7,4.1-1.4,8.1-1.7,12.2-.4,5.1-.7,10.1-.7,15.2v.8c0,.2-.3.5-.5.5h-1.7c-8-1.4-16.1-1.2-24,0h-.8c-.4,0-.7-.2-.7-.5v-1.7c-.3-7.9-1.2-15.7-2.7-23.6-2-10.7-5-20.8-9.6-30.6-2.1-4.4-4.4-8.6-7.3-12.8,17.4-16.2,27.2-36.8,32.6-59.8Z"/>
  <path class="cls-42" d="M317.8,206.2c0-.1.1-.2.2-.2-.2,0-.3,0-.4-.2l.2.4Z"/>
  <path class="cls-47" d="M317.9,206.9v-.7c-.2,0-.2.2-.2.3l.2.4Z"/>
  <polygon class="cls-82" points="303.1 136.3 303 136.4 303 136.5 303.1 136.5 303.1 136.3"/>
  <path class="cls-18" d="M299.7,110.4c.8.4,1,1.1,1,1.9v1.7c0,15,.3,29.9.3,44.9v2c0,.8.5.8,1,.8s1-.3,1-.8v-24.4h-.2v-23.3c0-1.3.3-2.4,1.5-3.2,2.8-2.2,2-5-.2-6.9-1.3-1-3.3-1-4.7,0-1.6,1.1-2.4,3.1-1.9,4.6.5,1.2,1.2,2.2,2.2,2.7Z"/>
  <path class="cls-11" d="M331,323.4c-2,.7-3.9,1.6-5.9,1.8-6.9.9-12.5-1.9-17.5-6.3h.1c-4-3.6-6.7-8.3-10.1-12.3-.7-.9-1-.8-1.7,0-.8.8-1.7,1.6-2.6,2.4-.7.7-.9,1.4,0,2.3,3.3,3.7,5.9,8,9.5,11.6s8.7,6.5,14.3,7.2c3.7.5,7.2-.8,10.3-2.9,1.5-1,2.8-2.2,3.7-3.8Z"/>
  <path class="cls-45" d="M445.6,297.3c-1.5-4.4-1.9-9-2.4-13.6h.3,0c0-1.3.9-3.3,0-3.6-1.1-.4-1.9,1.5-3,2.3-.7.5-1.6,1.1-1.6,2.2,0,2.8-.4,5.6.6,8.3.4,1.1,0,1.4-1.2,1.1-1-.2-1.7-1-2.8-1-1.7,0-1.9-.7-.9-2,.3-.5.4-1,.4-1.5v-8c0-.4,0-.8-.3-.9-.2,0-.5.2-.7.4-2.3,2.1-4.4,4.1-3.4,7.8.7,2.8,1,5.7-1.7,7.9-.7.6-.4,1.3.7,1.3s1.8,0,2.6.3c2.7,1.2,5.3,2.6,7.4,4.6.2.2.4.6.8.5,1.2-.2,5.4-4.2,5.5-5.4,0-.2,0-.5-.2-.7Z"/>
  <path class="cls-60" d="M190.6,283.5c.4-1.7.8-3.4,1.1-5.1-.2-.2-.4-.3-.7-.5-.5.6-1,1.2-1.5,1.9-.9,1.2-2,1.3-3.1.5-1-.8-1.5-.4-2.2.3-1.9,1.9-3.3,4.2-5.2,6-3.4,3.3-2.9,7.2-2.3,11.2,0,.7.5.9,1.2.7,1.7-.7,3.2-3.8,2.9-5.7-.3-1.8-.8-3.7,0-5.4.7-1.4,2.5-.7,3.7-1.2,2-.7,2.2-.4,1.9,1.7h.1c0,.3,0,.6-.2.9-1,5.8-.2,11.3,2.9,16.3.2.3.3.7.7.6.6,0,.4-.5.3-.8-.3-.8.3-1.3.8-1.8,1.7-1.6,2.1-3.4,1.2-5.1-2.4-4.7-2.7-9.5-1.6-14.5Z"/>
  <path class="cls-50" d="M278,294.3c-.7-1.5-1-3.3-1.1-5-.3-3.5,0-7,1.2-10.5-.9,0-1.3.7-1.8,1.1-.8.7-1.8.9-2.6.3-1.4-1.2-2.3-.5-3.2.6-.4.5-.8.8-1.2,1.3-1.6,1.7-3.6,3.2-4.8,5.2-1.7,2.8-1.4,6-.5,9.1.4,1.2,1.2.9,1.9.2,1.7-2,2.8-4,2.2-6.9-.7-3,1.1-4.6,4.1-4h0c.4,0,.6.4.6.7v1.8c-.8,4.4.1,8.5,1.7,12.6.4,1.1.8,2.4,2.6,3.2-1.6-1.9-.7-3,0-4.3,1-1.7,1.9-3.3.9-5.4Z"/>
  <polygon class="cls-77" points="272.1 285.7 272.1 285.7 272.1 285.7 272.1 285.7"/>
  <path class="cls-15" d="M279.1,277c-.8-1.9-1.4-3.9-2.6-5.6-1.6-2.4-1.9-4.6-.5-7.1.4-.8,0-1.3-.4-1.6-1.9-1.1-3.9-2-6-2.4-1.7-.4-3.2.2-4.5,1.7-1.9,2.2-2.8,4.9-4.7,7.1-.9,1-.7,2.4.2,3.5,1,1.2,2.3,2,3.9,1.5v-.2h0c1.6-.5,3-1.3,4.3-2.3.9-.7.8-1.2,0-1.9-.9-.7-2.1-.7-3-1.3-.5-.4-1.4-.7-.9-1.6.4-.8,1-1.4,2-1.1,2.6,1,5.2,1.9,7,4.1,1.9,2.2,3.3,4.8,4.8,7.2h.4Z"/>
  <path class="cls-2" d="M304.1,300.8c1.5.7,4.7.2,5.8-.8,1.6-1.4,2.4-3.4,3.8-5,1.4-1.7,1.8-3.6,1.6-5.8-.2-2.1-.9-4.2-.9-6.3s.3-2,0-3.1c-.9.8-1.5,1.5-2.2,2.1-1.7,1.6-2.5,3.4-2,5.9.5,2.1.7,4.3.9,6.5.2,1.8-.7,2.4-2.4,1.7-1.6-.6-2.8-1.5-2.9-3.4,0-.5-.4-1.6-1-.9h0c-1.2,1.2-2.9,2.3-3.2,4.2-.4,1.9.9,4.1,2.5,4.9Z"/>
  <path class="cls-27" d="M69.1,267.7c-1,1.3-.4,2.6.5,3.7.7.9,1.7.7,2.4.4h0c1.6-.7,3.2-1.5,4.2-3.1.3-.5.8-.9.5-1.6-.4-.8-.9,0-1.4,0-1.2,0-2.5-.9-2.3-1.7.4-1.5,2.5-2.4,3.8-1.7,1.3.8,2.6,1.7,3.8,2.5,3.4,3.4,5.8,7.6,9.1,11.1-1.7-3.2-3.2-6.5-5.6-9.3-1.8-2.1-1.7-2.2,0-4.5.2-.4.7-.6.6-1.2.6-.6.4-1.1-.3-1.6-.9-.6-1.8-1.3-2.7-1.9-4.3-2.8-7.3-2.2-10.1,2-.4.6-.8,1.3.3,1.4,1.7.2,1.2.9.5,1.7-1.1,1.3-2.2,2.5-3.2,3.8Z"/>
  <path class="cls-41" d="M459.7,306.8c-.2-.7-.2-.9-.3-1h-.1c-3.3-2.9-4.3-6.4-2.9-10.7.2-.7,0-1.4-.4-2-.7-1.4-1.3-2.7-1.5-4.3-.3-2.6,0-5,.9-7.4,0-.3.2-.6,0-.8-.2-.2-.4,0-.6,0-2.3,1.9-4.3,3.9-4.7,7.1-1.1,8.3,3,14.1,9.6,19.1Z"/>
  <path class="cls-14" d="M360.2,295.9c2.2,4,4.8,7.4,8.8,9.5-1.1-1.5-2.3-3-3.6-4.3-1.4-1.5-1.6-3.2-.9-5.1.5-1.4.5-2.9,0-4.3-1.3-4-2.2-7.9,0-11.9-2.1,1.1-4.2,2.7-4.9,4.8h0c-1.1,3.7-1.6,7.5.5,11.3Z"/>
  <path class="cls-31" d="M291.2,304.2h.9c-.7-.7-1.1-1.2-1.6-1.7h0c-1.7-1.6-2.8-3.5-2.9-5.8,0-1,0-2,.2-3,.3-2.2-.6-4.2-.8-6.2-.2-2.7-.3-5.4.3-8.1-1.3,1.2-2.5,2.4-3.8,3.5-.4.4-.5.9-.6,1.4-.7,3.9-.8,7.8.9,11.6,1.6,3.6,4.3,6.1,7.4,8.3Z"/>
  <path class="cls-3" d="M173.8,280.9c-8.2,5.9-7.5,19.4,1.4,25.7v-.8c-1-2.7-1.7-5.4-1.9-8.4,0-1.6,0-3.3-.7-4.9-.8-2.4-.6-4.6,0-7,.3-1.4.6-2.8,1.2-4.6Z"/>
  <path class="cls-65" d="M47,268.6h.2v.2c2,0,4,.7,5.8.4,3-.4,5.4-2.2,6.8-5,.2-.4.5-.7.1-1.1-.3-.3-.7,0-1,0-2.1,1.2-4.2.6-6.4.2-1.8-.3-3.6-.5-5.4.2-2.7,1-3,3.7-4.3,5.7,1.4-.8,2.8-.7,4.2-.6Z"/>
  <path class="cls-4" d="M154.3,299.7c5.4,3.8,7.4,9.5,9,15.5,1.8,6.7,1.6,13.6,1.8,20.4l-.3.2c0,2,.9,3.8.8,5.7,0,.7.7.9,1.5,1.2-.9-3.1-.4-6.2-.6-9.2-.2-2.1.2-4.4.5-6.5.4-2.8,1.2-5.6,1.4-8.5.5-6.9-1.7-13.1-4.9-19-1.3-2.5-3.2-4.6-6-5.7-.7-1.1.4-1.3,1-1.8,2.1-2,4.2-3.9,4.3-7.1,0-1.6-1-3.2-.4-5-1,.9-2,1.9-3,2.8-.3,0-.5,0-.7.4-1.1,1.7-1.4,3.5-.8,5.4.3,1.1,0,2-1,2.4-3.1,1.2-5.5,3.3-7.6,5.7-.3.4-.6.7-.4,1.2s.6.4,1,.5c1.6,0,3.1.5,4.4,1.4Z"/>
  <path class="cls-40" d="M380.4,256.3c-1.4-.3-2.7-.3-4.1.3-2.2.9-2.7,2.9-3.8,4.6-.2.3-.6.7-.4,1.1.3.6.8.2,1.3.2h0c1.6-.3,3.4-.6,4.8.3,2.9,1.9,5,4.5,6.4,7.7,0,.3,0,.8.6.7.4,0,.3-.5.3-.7-.4-1.4,0-2.8-1.4-4.3-1.8-1.9-2.1-5-2.7-7.4.5-1.3,0-2.2-.9-2.5Z"/>
  <path class="cls-10" d="M227.4,294.1h.2c-.4-3.4-.8-6.9-.5-10.4,0-1.1,1.1-1.9.6-3.1-1.2.6-2.1,1.5-2.9,2.6l-.7.7c-1.6,1.4-1.6,3.3-1.8,5.1-.2,2.9.2,5.7.5,8.6.7,6.1,2.3,12,3.7,18,1.4,5.9,1.6,11.7.7,17.7-.2,1.7-.6,3.5.2,5.1.5-1.8,1-3.5,1.1-5.3.1-3.5.8-6.9.8-10.4s0-8.2.2-12.3c0-1.6.1-3.2,0-4.8,0-3.9-1.6-7.7-2.1-11.5ZM229.3,308.9v-2.9c.2,1,.2,2,0,2.9Z"/>
  <path class="cls-32" d="M30.6,268.7h.1c2.1-.4,3.8.2,5.3,1.6,2.5,2.2,4.2,4.8,5.7,7.8-.2-1.6,0-3.4-1-4.8-.6-.7-1.1-1.3-1.3-2.2-.6-1.8-.9-3.6-1.9-5.2-.2-.4-.3-.9,0-1.2,1.1-1.4,0-1.8-1-2.1-1.4-.4-2.7-.4-4.2.4-1.6.8-2.3,2.1-3.1,3.6-.3.6-1.1,1.2-.7,1.9.4.7,1.4.3,2.1.2Z"/>
  <path class="cls-28" d="M334,307.7c-.5.5-1,1-1.6,1.4-1.3.9-1.7,1.9-.4,3.2s.5.8.7,1.2c1,2.6,1.4,5.3,0,8,1.6-1.3,2.8-2.8,4-4.4,2.1-3,1.9-6.1,0-9.1-1-1.7-1.2-1.7-2.7-.3Z"/>
  <path class="cls-62" d="M100.4,280c-.3-.3-.5,0-.7,0-1.3,1.5-3.1,2.8-3.8,4.6-1.6,4.2-2,8.7-.2,13.1,1.1,2.7,3.1,4.9,5.7,6.4h-.1c0,.1.2.4.3.5.5.4,1.1.8,1.6.3.6-.7-.5-.6-.7-1-1.6-2.6-3.5-5.2-2.1-8.6.3-.6.2-1.3,0-1.9-1-1.9-1.3-3.9-1.3-6.1s.3-4.3,1.3-6.3c.2-.3.2-.7,0-1Z"/>
  <path class="cls-29" d="M403.9,256.3c-1.9.8-3.7,1.8-5.9,1-.9-.3-2-.4-3-.4s-2.9-.2-4.3.4c-2.5,1.2-2.9,3.8-4.3,5.7,2.9-1.2,5.9-.6,8.8-.4h0c3.8.4,8.2-2.6,8.7-6.3Z"/>
  <path class="cls-63" d="M85.8,319.9c.3,0,.5,0,.7-.4,1.9-2.8,3.9-5.5,5.8-8.3.3-.5,1-1.1.3-1.5v.2h0c-.7-.4-1,.6-1.3,1-2.1,2.6-3.5,5.8-5.9,8.2-2.1,2.3-4.2,4.7-6.3,6.9-.9.9-1.6,2.2-3.1,2.2-1.6-1.5-3.6-2-5.8-2s-2.6-.8-4.4-1c3-1.9,5.6-3.6,7.6-6.1.6-.5,1.3-.9,1.9-1.5,2.1-2.2,4.1-4.4,5.6-7.1,3.8-5.5,6.7-11.5,8.2-18.1.9-4.3.6-8.5.3-12.8,0,0-.2,0-.3-.2-1,.7-1.8,1.8-3.3,1.7-1.7,0-3.2-.4-4.4-1.6s-1.7-.8-2.5,0c-1.2,1.3-2.4,2.5-3.7,3.8-1.7,1.1-2.9,2.7-4.3,4.1-.4.4-.7,1-.3,1.4.5.6,1-.2,1.3-.4,1.3-1,2.6-1.8,4.2-2.1.9,0,1.2.2,1.1,1-.4,3-.9,6-2.2,8.7-1.4,2.9-4.4,4.5-6.2,7.1-.2.3-.8.3-.9,0-.5-1.3-1.6-2.2-1.9-3.7-.7-3.3-.4-6.7-.8-10-.3-2.8.2-5.5,1-8.2.2-.5,1-1,.4-1.5-.8-.6-1.2.4-1.7.8-.3.3-.8.6-.7,1.1-2.3,1.5-2.7,3.9-3.2,6.2-1.3,5.6,0,10.6,4,14.8.8,1.6,2.4,2.3,3.9,3,.6.3,1.2,0,.8-.7-.4-1,.3-1.5.8-1.9,1-.8,2-1.7,2.7-2.7,1.2-1.7,3.1-3,3.7-5.1,0-.3.3-.7.4-1,1.1-1,1.4-2.5,2.1-3.7,1.1-1.8,1.2-4.3,3.7-5.3,1.2-.4,1.3-.2,1.4.8.3,5.2.3,10.4-1.4,15.6-2.1,6.4-4.9,12.2-10.1,16.7-2,1.3-4,2.6-6,3.9-3.4,1.9-6.9,3.8-10.8,4.7-.4,0-.8.5-1.1,0-.3-.4-.3-1,0-1.3,1-1.3.7-2.8.7-4.3v-.3c.4-2.2.7-4.4,1.1-6.6,1.2-5.7.7-11.5-.5-17.3-1.1-5.5-2.9-11.1-.5-16.8,0-.3.3-.8,0-1s-.7,0-1,.3c-.7.8-1.4,1.6-2.1,2.4-2.4,1.6-2.4,4.2-2.7,6.6-.5,4,.4,7.9,1.3,11.7,1.3,5.8,3,11.5,3.3,17.5.2,4.5.2,9.1-2.9,12.9-1.1,1.2-1.2,1.7-.5,1.7,1.3,0,1.3.9,1.6,2.1.4-1.6.6-2.6,2.1-3.1,2.4-.8,4.8-.7,7.2-.8,3.6,0,7.1.9,10.3,2.7,1,.6,1.5,0,2.1-.5,3.8-4.3,8-8.2,11.3-12.9ZM75.3,296.4v.2c-.2.2,0-.2,0-.3h0Z"/>
  <path class="cls-51" d="M131.1,298h0s0,0-.1,0h.1Z"/>
  <path class="cls-75" d="M131.1,297.8v.2c2.7-.6,4.8.5,7.1,1.6,1.2,1.3,2.7,2.1,4.1,3,.6.4,1.6.9,2.2,0,1.5-2.2,3.3-3.9,2.8-7.3-.8-4.8-1.7-9.7-.5-14.6,0-.3.1-.8-.2-1-.4-.2-.8,0-1.1.2-3,2.2-4.6,5-4.2,8.8.1,1.4.7,3.4,0,4-1,1-2.6-.8-4-.7,0,0,0-.2-.3-.4,2.6-2.9,1.8-6.3,1.5-9.7v-1.6c0-.5-.3-.8-.8-.5-1.7,1.2-3.3,2.4-4.6,4-.4.5,0,1,0,1.5.5,3.3,1.8,6.8-1.2,9.7l-1.5,1.5c-.2.2-.6.5-.4.9.2.4.7.5,1.1.4Z"/>
  <path class="cls-72" d="M302.6,290.2c1.5-1,2.1-2.8,3.1-4.2.5-.8,1-1.7.9-3.1-.3-1.4-.4-3.2-1.3-4.7-.2-.4-.4-1.1-1-.4-1,1.2-2.5,1.7-3.5,2.7-2.8,2.6-5.6,5.4-7.9,8.5-1.1,1.5-.7,3.1.8,4.1h0c1,.6,2.1.9,3.2,1.2,2,.7,4.4-.5,4.9-2.6,0-.6.2-1.2.8-1.5ZM300.2,289.1c-1.3-.6-3.4-.8-3.3-2.4,0-1.1,2.2-1.2,3.5-1.4.7,0,1.4-.2,1.7.6.3,1,.6,2,0,2.9-.4.8-1.3.5-1.9.3Z"/>
  <path class="cls-67" d="M316.3,300.9c3.7-.3,7.3,0,10.5,2.3.9.7,1.8,1.3,2.7,2,.7.5,1.2.5,1.6-.4.5-1.1,1.3-2.1,2.1-3,2.1-2.7,2.6-5.6,1.1-8.9h0c-1-2.1-2.3-2.4-4-.7s-2.4,2.4-.8,4.1c.2.2.3.6,0,.8-.3.4-.6,0-.9,0-1.3-.2-2.4-1.3-3.8-.8-.3-2,1.5-2.4,2.6-3.2.8-.6,1.7-1.1,2-1.9.4-1.3,1.2-2.2,2-3,2.1-2,2.3-4.5,2.4-7.1,0-.5,0-1.6-1-1.2-.9.5-1.3,0-1.8-.3-.5-.4-1-.3-1.6,0-3,2.5-5.8,5.2-8.4,8.1-1.7,1.8-1.1,3.7,1.2,4.8.8.4,2.2.4,2.1,1.1,0,1-1.6,1.2-2.5,1.7-.2,0-.5,0-.7.2-1.1.6-2.6.5-3.3,1.8l-2.2,2.2c-.3.3-.9.7-.7,1.1.2.6.9.4,1.4.3ZM324.9,286h0c.2-1.1,1.5-.4,2.1-.7,1,0,1.9-.2,2.2,1,.2.6.4,1.3-.2,1.8-.5.4-1.1.2-1.7,0-.3,0-.5-.3-.8-.4-.8-.4-1.9-.7-1.7-1.7Z"/>
  <path class="cls-19" d="M217.4,339.6c.5.6,1,1.2,1.4,1.8-.7-2.3-.9-4.7-1.6-7-.8-2.9-1.2-5.8-.1-8.8.9-2.5,1.6-5.1,1.1-7.8-.6-4.1-.9-8.2-1.1-12.3-.6-8.5-1.1-17.1-.9-25.7,0-.7.5-1.7-.3-2.1-.8-.4-1.1.9-1.8,1.1-.2,0-.5,0-.7.2-2,.8-2.5.4-2.5-1.7v-4.3c0-2.2.8-2.8,3-2.7.6,0,1.2,0,1.7-.2,1.4-.2,2.9-.3,4.2,0,1.4.3,2.5,0,3.7-.5,3-1.3,4.8-3.6,6.2-6.5.3-.7,1.1-1.4.3-2-.5-.4-1,0-1.4.5h0c-2.4,2-5.3,1.8-8,1-2.6-.8-5.4-.4-7.2,1.9-1.3,1.7-2.4,3.6-3.4,5.5-.2.4-.4,1-1.1,1.1-.2,0-.4-.2-.5-.5-.5-2.1-1.9-4-1.5-6.4.2-1.1-.4-1.8-1.5-2-.7-.2-1.5-.5-2.2-.5-1.8,0-3.7.6-4.6,1.8-1.2,1.6-2.1,3.6-3.2,5.4-.3.5-.3.9,0,1.3s.7,0,1.1,0c1.8-.3,3.5-1.6,5.5-.2,2.7,1.9,5.2,4,6.3,7.3.2.7,1.2,1.4.4,2.1-.8.6-1.3-.5-1.9-.8s-1.1-.6-1.6-.2c-.9.6-2,1-2.9,1.6-1.6,1.2-2.7,2.8-4.3,3.9-3.1,2-4.8,5.3-6.2,8.7-.2.4,0,.7.3.9.7.4.7,1.1.6,1.7,0,1.3.7,1.7,1.7,1.8h1.8c2.6,0,5.2,0,7.4,1.9,1.1,1,1.5,2.5,2.6,3.4,0,.8,0,1.7,1,1.7s1-1.1,1.1-1.9c.2-1.1-.2-2.1-.7-3-1-1.7-.6-3.7-1.3-5.6-.7-2-1.5-4.2-1.2-6.5,0-1,.7-1.3,1.4-1.1,1.4.4,3.2-1,4.3.8v.4c0,7.3,0,14.6.6,21.8.3,2.9.5,5.8,1,8.7.7,3.9.6,7.9,1.5,11.8.6,2.5,1.1,4.9,1.8,7.4.2,1,.4,2.2,1.6,2.8ZM203.5,290h0c0,.1-.3.2-.4.2-1.5,0-3.1-.2-4.4-1.1-1.1-.7-.3-1.8-.4-2.8v-.2c1.1.7,2.1,0,3.2,0s1.3-.3,1.5.5c.2,1.1,1.1,2.2.5,3.4Z"/>
  <path class="cls-37" d="M249.1,301.4c1.9.7,3.9.3,5.7.6,2,.4,2.6-.7,3.1-2.2,1.7-1.6,2-2.7,1.3-4.8-.4-1.3-.7-2.7-.9-4.1-.5-3.6-1.3-7.2-.3-10.9,0-.3,0-.8-.3-.9-.2,0-.5,0-.6.2-1.3,1.3-2.7,2.5-3.8,3.9-.5.6-1,1.4-.9,2.4.3,3.3.6,6.7.9,10.2-2.2-1.4-4.4-2.5-4.8-5.4-.5-3.1-.6-6.1.1-9.1,0-.4.2-.8-.1-1.2-.2-.3-.6-.3-.8,0-1.9,1.8-4.5,3.1-4.6,6.3,0,2.4,0,4.8.3,7.2.4,3.7,2.3,6.4,5.8,7.7h-.1,0Z"/>
  <path class="cls-5" d="M353.1,341.2c-.4-2.5.2-4.9.2-7.4v-.2h.3c.4-.4.3-.9.4-1.4.3-1.5,0-3.1.3-4.6.4-3.2,1.4-6.3,2.8-9.2.3-.7.4-1.3.3-2-.3-2.4-.6-4.8-.9-7.1v-1.6c-.9-4.2-2-8.5-3.1-12.7-1.3-4.7-2.8-9.5.4-14.1.2-.3.3-.8.5-1.1,1.4-3.1,3.3-5.8,6.1-7.7.3-.2.7-.7,1.1-.3.4.3.3.9,0,1.3-.4.6-.7,1.2-.7,2.2,2.3-2.1,4-4.2,5.3-6.7.3-.6.3-1.2.2-1.9-.2-1.1-.8-1.4-1.7-.8-2.4,1.7-4.9,3.3-6.5,6-1.6,2-3.1,4.1-4.3,6.4-1.2,2.3-1.7,2.6-4.3,1.7-1.9-.7-3.3-.3-4.5,1.3-.6.8-1.1,1.7-2,2.2v.7c-1.1,1.5-2.4,3-3.3,4.6-.9,1.6-1.8,3.3-1.2,5.3,1.3,3.7,3.6,6.7,5.9,10.5,0-2.1.2-3.7.5-5.3,0-.3,0-.7-.5-.7s-.7-.4-.7-.8c0-2-1.2-3.9-.6-6,.2-.8-.2-1.6-.6-2.3-.5-.8-.5-1.8-.3-2.6.3-1.4,1.5-1.6,2.8-1.6s1.5.7,1.5,1.7c0,2.1.9,4.2-.2,6.3,0,.2,0,.6.2.8,1.2,2,1.6,4.3,2,6.5.6,2.3,1.3,4.6,1.8,7,.4,1.8,1.2,3.5,1.1,5.4v.2c0,2.6.9,5.2,1,7.8,0,4.2-.3,8.4-.2,12.6,0,.2,0,.5-.2.7-.8,2.5-.4,5-.5,7.6,0,.3,0,.6.4.7.4,0,.7,0,.9-.4.2-.4.4-.6.3-1Z"/>
  <path class="cls-23" d="M344.4,304.6l.2.3c0-.1-.1-.2-.2-.3,0,0,0,0,0,0h0Z"/>
  <path class="cls-35" d="M244.3,305.8h0c-2.4-1.8-3.5-4.3-4.7-6.9,0,0,0-.3-.2-.4-1.1-6.2-2.2-12.4-.1-18.7-2,2.2-4.9,3.6-5.3,7.2-.4,4.1-1.6,8.2,1.5,11.8,1.7,3.4,4.4,5.7,7.5,7.7.2,0,.6.2.8.2s.4-.2.6-.3c.2-.2,0-.4-.2-.6h.1Z"/>
  <path class="cls-57" d="M390.7,299.1c1.3-1.8,2.8-3.5,4.2-5.2.6-.8.9-1.6.8-2.6,0-2.6-1.4-4.5-3.6-5.7h0c-1.8-1.1-5.7-.5-6.6.9-.9,1.4-2,2.6-3.1,3.8-1.7,1.8-2.1,5.6-.8,7.8,2.2,3.8,6.6,4.4,9.1,1ZM386.1,290c1.9,0,4.4,2,4.8,3.8.3,1.4-.7,2.5-2.1,2.1-1.5-.4-3.9-3-4.1-4.6-.2-1.3.7-1.3,1.4-1.3Z"/>
  <path class="cls-83" d="M376.9,294.4c1.9-2.3,3.8-4.6,5.2-7.2h.3l1.3-3.2c.4-1.3.9-2.6,1-4,0-1.3.7-1.5,1.8-1.5,2,0,3.8.3,5.6.9,1,.2,1.6,1,2.4,1.5.3.2.6.5,1,.4.8.8,1.6,1.7,2.4,2.5s.7,0,.9-.5c-.8-1-1.6-2-2.2-3.2h-.4c-1.3-2.1-2.7-4.1-1.8-6.8,0-.4-.2-.5-.4-.6-2.1-1.2-7.3,0-8.9,2.1-.2.3-.6.7-1,.6-.4,0-.4-.5-.4-.9-.3-1.7-.9-3.3-1.7-4.8-1.2-2.4-1.3-2.4-3.1-.3-.4.4-.8.8-1.2,1.3-1,1-1.5,2-.3,3.3.6.7,1,1.6,1.4,2.4.6,1.3.7,2.5-.6,3.6-1,.9-2.2,1.8-2.8,3.1-2.1,1.5-3.4,3.7-4.9,5.7-1.6,2-1.2,4.9.8,6.4h0c1.8,1.5,4,1.2,5.7-.8ZM373.6,287.4c0-.9.7-1.2,1.5-1.2h0c1.4-.1,2.8-.3,4.1-1.1.7-.4,1,0,.9,1.6,0,.5-.2,1.5-.5,2.4-.6,1.7-1.6,2.2-3.4,1.7-1.4-.4-2.8-2.3-2.6-3.4Z"/>
  <path class="cls-1" d="M427.2,324.7c.7-1.4.5-2.8.6-4.3.2-2-1.2-3.7-.7-5.7v-.2h0c-.8-1.9-.8-3.9-.8-5.9s0-2.5-.6-3.6c0-1.5,0-3.1-.2-4.6-.5-5.6-1.6-11.2-1.6-16.9v-3.9c-2.8,2.2-6,1.7-8.8.9-1.8-.5-2.7-.4-3.8.8l-1,1c-3.3,2.7-6.5,5.5-9.1,8.8-.9,1.1-1.4,2.4-.9,4,.7,2,1.1,2.4,4.4,2.1,4.7-.4,7.9,1.8,10.6,5.2.5-1.2-.6-2.1-.6-3.2,0-2.4-.7-4.8-1.4-7.1-.6-2.2-.6-4.4.4-6.5,1.7-.8,3.5-.3,5.2-.3s.8.6.8,1.2c0,4.1.7,8,1.4,12,.5,3,.4,6,.8,9,.3,1.9,0,3.8.4,5.6,1,3.6,1.1,7.3,2.1,10.9.7,2.7.8,5.6,1.8,8.1.9-1.2-.6-2.3,0-3.7.4-1.1.5-2.5,1.1-3.7ZM411.1,292.2h-.1c-1.2,0-2.4.2-4.1.3-.9,0-2.1,0-2.8-1.5-1.1-2.1-.8-2.8,1.5-3.6,1.4-.5,2.8-1.1,4.3-1.5,1.2-.2,1.8,0,2,1.4.2,1.2.6,2.4.5,3.6,0,.8,0,1.4-1.3,1.3Z"/>
  <path class="cls-46" d="M129.2,315.9c-.9-6.7-.9-13.5-1.6-20.3-.6-5.6-.3-11.2-.4-16.8,0-.4.3-1-.3-1.3-.5-.2-.9.3-1.2.6-2.5,3-5.5,2.4-8.5.9s-1.8-.3-2.6.3c-1.9,1.4-3.5,3.2-5.1,4.9-1.5.9-2.8,2-3.5,3.6-.5.6-.9,1.2-1.4,1.8-1.3,1.4-1.5,3-1.1,4.7.3,1.2,1.2,1.8,2.3,1.6,3.6-.6,6.6.6,9.3,2.9.2,1.1,1.1,1.7,1.6,2.7.2.5.7,1,1.2.7.6-.3.3-.8.3-1.4,0-2-.9-3.9-1.2-5.8-.5-2.8-.9-5.7-1.7-8.5-.3-1.2,0-1.1.8-1.2,1.3,0,2.7.4,3.8-.3,1.4-.8,1.5,0,1.6,1,.3,2.6.5,5.2.7,7.7.3,5.1.6,10.2,1,15.3.3,4,.7,7.9,1.2,11.9.3,2-.2,4,.9,5.9.6,4.4,1.1,8.9,1.8,13.3.2,1.2.6,2.4.8,3.6,0,.5.5.9,1,.7.5,0,.4-.5.3-1h.2c-1.1-4.3-1.7-8.5-.9-13,.8-4.7,1.3-9.5.7-14.5ZM113.2,291.9c-1.4-.3-2.8-.5-4.1-.8-1.6-.4-1.7-1.6-.6-3.8,1.4-.2,2.8-.5,4.1-.7.7,0,1.2,0,1.3.9,0,1,.4,2.1.6,3.1s-.2,1.5-1.3,1.3Z"/>
  <path class="cls-25" d="M129.4,343.4h0s0,0,0,0h0Z"/>
  <path class="cls-24" d="M31.2,298.2c2.1-.3,4.2.5,6.2,1.1,2.2.7,4.1,1.9,5.4,4,.3.5.8.7,1.4.5.5,0,.7-.5.7-.9,0-1.6.4-3.3-.1-4.7s-.5-2.7-.5-4.1c0-2.5.2-4.9-.3-7.4-.3-1.4-.2-3,1.2-4,.6-.4.6-1.1.4-1.8h-.1c-.2-.7-.9-.5-1.4-.5-1.6,0-3.1-.3-4.4-1.4-.9-.7-1.9-.6-2.7.2-3.1,3.3-6.6,6.3-9.5,9.8-1,1.2-1.3,2.5-1.5,3.7.3,2.9,1.6,6,5.2,5.5ZM34.1,287.3c1.4-.2,2.8-.5,4.1-.7.7,0,1.2,0,1.3.9,0,1,.4,2.1.6,3.1.2,1-.2,1.5-1.3,1.3-1.4-.3-2.8-.5-4.1-.8-1.6-.4-1.7-1.6-.6-3.8Z"/>
  <path class="cls-13" d="M378.7,370.1v-8.5c0-.4,0-.6-.6-.6h-2.9c-.3,0-.7,0-.7.2.1.3.2.3.4.3,1.3.2,1.6.5,1.6,1.9v6.2c0,.3,0,.7-.3,1-.8.8-1.6,1.4-2.7,1.4-1.1,0-2-.6-2.2-1.7v-8.6c0-.5,0-.7-.7-.7h-3.3c-.2,0-.4,0-.4.3.2,0,.2.2.2.2,2,.4,2,.5,2,2.5v5.6c-.1,1.8.4,3.3,2.1,4.3h0c0,0,2.1,0,2.1,0,1.1-.6,2.3-1.4,3.3-2.4v2.4h.7c0-.4.3-.4.5-.4.8-.4,1.7-.7,2.5-1,.3-.1.5-.2.3-.5-1.6.2-1.9,0-1.9-1.8Z"/>
  <path class="cls-30" d="M348.9,355.1h-4.3c-.6,0-1.3-.2-2,.3.5.3.9.3,1.3.3,1,.3,1.5.7,1.5,1.7v14.5c0,.5-.3,1-.8,1-.5,0-.8-.2-1-.6-.3-.4-.6-.9-.9-1.3-.5-.5-1.1-.6-1.6-.3-.5.2-.7.8-.7,1.4,0,.5.4.9.8,1.2.3.2.8,0,.8.6h0c0,0,3,0,3,0,0-.2.2-.3.2-.3,1.5-.5,2.3-1.6,2.8-2.9.5-.9.5-1.9.5-2.9v-10.4c.1-1.1.5-1.6,1.5-1.8.3,0,.7,0,1-.4-.6-.4-1.3-.2-2-.2Z"/>
  <path class="cls-68" d="M315.3,371.4v-7.4c0-1.6-.8-2.6-2.3-2.9-1.4-.4-2.7-.3-4.1.1-.7.2-1.3.6-1.8,1.2-.4.5-.6,1.1-.6,1.7s.5,1,1.1,1,1-.4,1-1v-.6c0-1,.6-1.6,1.5-1.8,1.2-.3,2.3.1,2.7.9.3.8.3,1.7.3,2.6s-.4.4-.6.5c-.9.4-1.9.8-2.8,1.2-.8.4-1.6.7-2.3,1.3-1.7,1.4-1.8,3.7,0,5.2,0,.1.4.2.4.5h0c0,0,1.9,0,1.9,0,1.3-.4,2.4-1.1,3.4-2.1.3.7.4,1.6,1.2,1.9.5.2,1,0,1.5,0,1.5-.9,2-1.5,2-2.3-.3.3-.6.5-.9.7-.8.5-1.5.2-1.5-.8ZM313,371.1c-.5.8-2.5,1.5-3.4,1.1-1.3-.5-1.7-2.3-.8-3.5.3-.4.6-.7,1-.9.9-.6,2-1,3.2-1.5v4.8Z"/>
  <path class="cls-44" d="M294.7,365.7c.4,0,.7,1.4.7-.5s-1.6-3.9-3.5-4.3c-2.6-.5-4.9.7-6,3.1-.8,1.9-.9,3.9-.4,5.8.5,1.9,1.6,3.3,3.6,3.9h0c0-.1.2-.1.2-.1.7.1,1.5.2,2.2.2h.2c0,0,.1-.2.2-.2,1.9-.7,2.8-2.1,3.4-3.9,0-.3.2-.6-.1-.8-.4.2-.4.6-.6.9-1.2,2-3.7,2.5-5.5,1-1.6-1.3-2.1-3.1-2.1-5,.5,0,.9,0,1.3,0h6.4ZM287,364.3c.3-1.2,1.2-2.3,2.4-2.5,1.6-.3,3.3,1.2,3.1,2.8,0,.4-.2.4-.5.4h-4.5c-.5,0-.5-.2-.5-.7Z"/>
  <path class="cls-73" d="M461,367.2c-.8-.6-1.6-1-2.5-1.5-.6-.3-1.2-.6-1.7-1-.6-.6-.9-1.2-.6-2,.2-.7.9-1.1,1.6-1.1,1.1,0,1.9.3,2.6,1.1.4.6.6,1.2.8,1.8,0,.2,0,.4.4.4.2,0,.2-.3.2-.5v-2.2c0-.6-.3-.9-1-.9-.4,0-.3,0-1.1-.2s-1.6-.3-2.4-.1c-1.3.3-2.3,1-2.6,2.4-.4,1.4-.1,2.6,1.1,3.5.6.5,1.3.8,1.9,1.2.8.4,1.6.8,2.3,1.4.7.7,1,1.6.7,2.4-.3.8-1.1,1.2-2.2,1.2-.6-.1-1.1-.3-1.6-.6-.8-.6-1.3-1.4-1.6-2.3-.1-.2,0-.7-.5-.8v4.1c.9-.1,1.7-.3,2.4.4h0c0,0,.1,0,.1,0,0-.2.2-.2.4-.2.7.2,1.4,0,2.1,0,.2,0,.4,0,.4,0,1.3-.5,2.2-1.4,2.4-2.9.2-1.5-.4-2.6-1.6-3.4Z"/>
  <path class="cls-61" d="M169.6,371.8c-.5.5-1.2.8-1.9.5-.8-.3-1-1-1-1.7v-7.5c0-1.1,0-1.1,1-1.1h1.2c.3,0,.5,0,.5-.5s.2-.4-.5-.4-1.5.2-2.2,0c-.2-1.3.1-2.6-.2-3.9-.6.3-.5.7-.7,1-.6,1.2-1.4,2.2-2.6,2.9,0,0-.2.2-.3.2-.2,0-.4.2-.4.5.1.2.3.2.5.2h.4c.7,0,1,.3,1,1v7.3c-.1,1.5.4,2.7,1.7,3.6h0c0,.1,1.9.1,1.9.1.9-.7,2-1.3,2.3-2.6-.4,0-.5.2-.7.4Z"/>
  <path class="cls-58" d="M90.7,370.5c-.1-.3-.3-.5-.3-.7-2-4.8-4.1-9.6-6.2-14.4-.1-.3-.2-.6-.3-.8-.3-.5-.5-.5-.8,0,0,.2-.2.4-.2.6-1.2,2.7-2.4,5.5-3.6,8.2-1.1,2.6-2.2,5.1-3.4,7.7-.3.8-.7,1.5-1.6,1.8-.2.1-.5.1-.5.4,1,.3,4.1.3,5.2,0-.2-.2-.3-.2-.5-.2-1.6-.3-1.8-.8-1.2-2.3.4-.9.8-1.9,1.2-2.8,0-.4.3-.6.8-.6h6.2c.3,0,.6,0,.7.3.5,1.2,1.1,2.4,1.5,3.6.4.9,0,1.4-1,1.7-.2.1-.6,0-.7.4.6.2,1.3,0,1.9,0h3.8c.8,0,1.4,0,1.9-.4-1.8,0-2.4-1.3-2.9-2.6ZM79.4,366.2c1-2.5,2.1-4.8,3.2-7.4,1.1,2.6,2.1,5,3.2,7.4h-6.4Z"/>
  <path class="cls-59" d="M79.1,373.3s0,0-.1,0c0,0,0,0,0,0h0Z"/>
  <path class="cls-36" d="M54.2,373.1c-1.2-.3-1.5-.6-1.6-1.8v-6.2c0-.9,0-1.7-.5-2.5-.7-1.3-1.7-1.9-3.1-1.7-1.2.1-2.1.7-2.9,1.5-.3.2-.6.5-.9.8-.1-.5-.1-.9-.1-1.3v-6.9c0-.7,0-.8-.8-.5-1,.4-1.9.8-2.9,1.2-.2,0-.4,0-.4.5h.4c1.1,0,1.4.3,1.5,1.3v12.8c0,.5,0,1-.1,1.5-.2.6-.5,1.1-1.2,1.2-.2,0-.6-.1-.6.4h6.2c-.1-.1-.2-.2-.2-.2-1.8-.4-1.9-.5-1.9-2.3v-5.9c0-.3,0-.7.3-1,.8-.7,1.6-1.4,2.7-1.4,1.3,0,2.3.6,2.3,1.9v7.1c0,1-.3,1.2-1.4,1.5-.2,0-.5,0-.5.3.8.3,5.2.3,6.1,0,0-.3-.2-.3-.4-.3Z"/>
  <path class="cls-66" d="M47.3,373.4h-.1c0,0,0,.1.1.2v-.2Z"/>
  <path class="cls-43" d="M38.6,355.2h-14.8c-.5,0-.8.2-.8.7v3.2c0,.2,0,.2.4.2,0,0,0-.3,0-.5.5-1.7,1.4-2.4,3.2-2.4h2.1c.7,0,1,.3,1,1v13.8c0,1.1-.5,1.6-1.6,1.8-.4,0-.8-.1-1,.3.7.3,6.2.3,7.9,0-.2-.3-.5-.3-.8-.3-1.4-.2-1.8-.7-1.8-2v-14c0-.7.3-.7.8-.7h2.3c1.7,0,2.6.7,3.1,2.3,0,.3,0,.7.4.7.2,0,.2-.2.2-.4v-3.1c0-.5-.2-.7-.7-.7Z"/>
  <path class="cls-54" d="M35.4,373.4h0c0,0-.2,0-.3,0,0,0,0,0,0,0h.3Z"/>
  <path class="cls-33" d="M260,355.3h-14.3c-.5,0-.6.3-.6.7v3.1c0,.2-.1.4.2.4s.3-.2.3-.4c.5-2,1.3-2.6,3.3-2.6h2c.7,0,1,.3,1,1v13.9c-.1,1-.5,1.5-1.5,1.7-.4,0-.8,0-1.1.3.8.2,6.9.3,8.2,0h0c0,0-.5,0-.5,0v-.2c-.3,0-.6-.2-.9-.2-1.1-.2-1.6-.7-1.6-1.8v-14.1c-.1-.4,0-.6.6-.6h2c2,0,3.3.7,3.7,2.6.1.2.1.4.4.4.2,0,.2-.3.2-.5v-2.2c-.1-1.4,0-1.4-1.4-1.4Z"/>
  <path class="cls-34" d="M281.2,361.9c-1.8-1.3-4.1-1.2-5.7.3-.2.3-.4.7-1,.8v-8.5c-1.8.3-3.7,1.2-4.1,1.8h.4c1.1,0,1.5.3,1.5,1.4v13.6c0,.7,0,1.2.8,1.5s1.4.6,2.1.9c1.1.2,2.3.2,3.4,0h0c2.2-.6,3.7-2,4.5-4.2,1-2.8.2-5.9-1.9-7.6ZM279.9,371.8c-1.4,1.6-3.6,1.7-5.1.2-.4-.3-.4-.6-.4-1v-3h0v-3.1c0-.5.2-.9.6-1.2,1.7-1.3,3.8-1.1,5.1.6,1.6,2,1.5,5.6-.2,7.5Z"/>
  <path class="cls-76" d="M206.4,372.9c-.9-.2-1.3-.8-1.3-1.6v-6.2c0-.8,0-1.6-.4-2.3-.6-1.6-1.8-2.2-3.5-2-.8,0-1.4.4-1.9.9-.6.5-1.1.9-1.8,1.6h0v-2c0-.5-.1-.7-.6-.5-1.1.4-2.3.9-3.4,1.3q-.2,0-.2.3c0,.2-1,.2.3.2s1.6.2,1.6,1.6v6.8c0,1.2-.2,1.4-1.4,1.8-.2,0-.4,0-.4.4,1.6.3,5.4.2,6,0-.1-.1-.1-.2-.1-.2-1.5-.2-1.8-.9-1.8-2.4v-5.8c0-.3,0-.6.2-.9.7-.7,1.4-1.3,2.4-1.5,1.3-.2,2.3.4,2.6,1.7,0,.4,0,.7,0,1.1v5.3c0,.4,0,.5,0,1.2s-.5,1.2-1.2,1.3c-.3.1-.7,0-.8.5h6.2c0-.5-.3-.5-.5-.5Z"/>
  <path class="cls-9" d="M405.1,373.1v-.2c-1.5-.2-1.7-1.3-1.7-2.6v-5.4c0-.8-.1-1.6-.4-2.3-.6-1.5-1.8-2.2-3.5-1.9-1,.2-1.8.9-2.5,1.5-.3.3-.5.8-1.1.8v-2.4c-1.5.3-2.7.9-4,1.4v.3c0,.2.2.2.4.2,1.3.1,1.6.3,1.6,1.6v6.9c-.1,1.3-.2,1.5-1.5,1.9-.2,0-.4.2-.4.4,1,.4,5.2.3,6.2,0-.2,0-.4-.2-.4-.2-1.5-.5-1.7-.7-1.7-2.3v-5.9c0-.5,0-.9.5-1.2.5-.4.9-.8,1.5-1,1.7-.7,3.1,0,3.3,2v6.9c0,.8-.5,1.3-1.3,1.4-.2,0-.7-.1-.7.3.8.3,5.2.3,6.1,0h-.2s-.2-.2-.2-.2Z"/>
  <path class="cls-21" d="M332.1,373c-.9-.2-1.3-.8-1.3-1.6v-6.2c0-.9,0-1.7-.5-2.5-.6-1.3-1.8-1.9-3.2-1.8-1,0-1.7.5-2.4,1.1-.4.3-.9.7-1.5,1.3v-1.9c0-.5-.2-.7-.7-.5-1.1.4-2.1.8-3.2,1.2,0,0-.3,0-.3.3,0,.2-.7.2.5.2s1.5.3,1.5,1.4v7.2c0,1.1-.3,1.4-1.4,1.7-.2.1-.4.1-.4.5h6c-.2-.2-.2-.3-.2-.3-1.6-.6-1.8-.7-1.8-2.4v-5.8c0-.3,0-.6.2-.9.6-.7,1.3-1.3,2.2-1.5,1.4-.4,2.5.3,2.8,1.7v7.4c0,.8-.5,1.4-1.4,1.4-.2.1-.6,0-.6.4,1.4.3,5.5.2,6.2-.1,0-.3-.3-.3-.5-.3Z"/>
  <path class="cls-39" d="M325.3,373.4h-.1s0,0,.1,0h0Z"/>
  <path class="cls-38" d="M417.3,372.2c-.7-.4-.5-1.1-.5-1.7v-6.6c0-1.6-.8-2.6-2.3-2.9-1.4-.3-2.7-.2-4.1.2-.7.2-1.3.6-1.8,1.2-.4.5-.6,1.1-.6,1.7s.5,1,1.1,1,1-.4,1-1v-.9c0-.7.4-1.2,1.1-1.5,1.7-.7,3.1.2,3.3,2v.5c.1.8-.3,1.3-1,1.6-.5.1-1,.3-1.4.5-1.1.5-2.2.9-3.2,1.6-2.3,1.6-2.2,4.5.2,5.8.7,0,1.3,0,2,0,1.3-.3,2.2-1.2,3.3-1.9,0,.9.3,1.6,1.1,1.9.5.2,1,0,1.5,0h0c0,0,.2,0,.2,0,1.5-.9,2-1.4,2-2.2h-.2c-.5.4-1,1-1.7.6ZM411.4,372.3c-.8,0-1.4-.6-1.7-1.4-.4-.9,0-2,.8-2.7,1.1-.9,2.3-1.4,3.8-2v4.8c-.3.6-2.1,1.4-2.9,1.3Z"/>
  <path class="cls-64" d="M159,371.3v-7.2c0-1.7-.9-2.7-2.6-3-1.1-.2-2.2-.2-3.2,0-.9.1-1.8.6-2.3,1.1s-.8,1.2-.8,1.9.5,1.1,1.1,1.1,1.1-.4,1.1-1v-.5c0-1.4.6-2,2.1-2s2.2.6,2.3,2.1v.9c0,.7-.3,1-.9,1.2-1.5.5-3.1,1.2-4.5,2.1-2.3,1.5-2.3,4.3,0,5.8.7.1,1.4,0,2.2,0,1.2-.3,2.1-1.2,3.1-1.9.2.7.3,1.4,1,1.8.5.2,1.1,0,1.7,0h0c0,0,.2,0,.2,0,1.4-.9,1.8-1.4,1.9-2.2-.4,0-.5.3-.8.5-.9.6-1.6.3-1.6-.8ZM156.7,370.5c0,.4-.1.8-.5,1-.4.2-.9.5-1.4.7-1.1.3-1.9,0-2.5-.7-.7-.8-.7-2,0-2.8l.6-.6c1.1-.8,2.3-1.4,3.7-1.9h0v4.3Z"/>
  <path class="cls-7" d="M119.6,361.5c-2.6,1.4-3.9,3.6-3.7,6.6.2,2.8,1.8,4.7,4.4,5.6,1,0,2,.2,3,0,3.3-1.1,5.3-4.1,4.9-7.5-.4-4.1-5-6.6-8.6-4.7ZM125.4,370.6c-.1.4-.3.8-.6,1.2-1.2,1.5-3.2,1.7-4.6.4-1.2-1.2-1.7-2.7-1.9-4.3v-.8c0-1.4.1-2.4.6-3.4,1-1.9,3.2-2.4,4.9-.9.3.3.7.7.9,1.1,1.2,2.1,1.4,4.4.7,6.7Z"/>
  <path class="cls-22" d="M188.3,361.5c-2.2-1.1-4.3-1-6.3.5-2.1,1.6-3.1,3.8-2.8,6.4.3,2.7,1.8,4.4,4.3,5.3,1.1.2,2.1.2,3.2,0h0c2.9-1.2,4.4-3.2,4.8-6.2.3-2.3-1-4.8-3.2-6ZM188.7,370.8c-1.1,2.5-3.9,2.9-5.6.7-1.1-1.4-1.5-3.1-1.5-4.9h0c0-1.2.1-2.2.6-3.1,1-2.1,3.4-2.5,5.1-.9,1.1,1.2,1.6,2.6,1.8,4.2.2,1.4,0,2.7-.4,4Z"/>
  <path class="cls-74" d="M356.4,361.5c-2.6,1.4-3.8,3.7-3.6,6.7.3,2.8,1.8,4.6,4.4,5.5,1.1.2,2.1.2,3.2,0h0c0-.1-.1-.1-.1-.1,3.2-1,5.2-4.3,4.7-7.7-.5-4-5.1-6.4-8.6-4.4ZM362,371.2c-1.2,2.1-3.5,2.3-5.1.6-1.1-1.1-1.5-2.5-1.7-4v-1.2h0c0-.9,0-1.8.4-2.6,1-2.6,3.8-3.1,5.6-1,1.3,1.6,1.5,3.6,1.5,5.6-.1.9-.2,1.8-.7,2.6Z"/>
  <path class="cls-56" d="M218.9,361.5c-2.5,1.4-3.8,3.7-3.6,6.6.2,2.8,1.8,4.7,4.4,5.6,1,0,2,.2,3,0h0c3.1-.8,5.4-4.2,4.9-7.8-.6-4-5.1-6.4-8.6-4.4ZM224.6,371.3c-1.1,2.2-3.6,2.5-5.2.6-.8-.9-1.3-2-1.5-3.2-.3-1.5-.3-3,.2-4.5.9-2.7,3.7-3.2,5.6-1.1,1.2,1.4,1.6,3.1,1.6,5v.2c0,1,.4.8-.7,3Z"/>
  <path class="cls-26" d="M238.7,354.9c-1-.5-2.1-.8-3.2-.5-2.3.6-3.8,2.6-3.9,5.3-.1.4,0,.9-.1,1.2-.2.4-.8.2-1.1.2s-.5,0-.5.4.3.4.6.4h.5c.6,0,.7.2.7.7v8.9c-.2.9-.4,1.2-1.3,1.4-.3.1-.7,0-.7.4,1.1.3,5.4.3,6.3,0l-.2-.2c0-.3-.3-.3-.5-.3-1.3-.2-1.7-.5-1.7-1.8v-8.7c0-.4.2-.6.6-.6h1.1c.4,0,.9.2.9-.4s-.5-.4-.8-.4h-1.2c-.3,0-.5,0-.5-.4,0-1.3-.1-2.7.2-4,.2-.7.6-1.1,1.3-1.3s1.3,0,1.8.6c.3.4.6.8.9,1.2.5.6,1.1.7,1.6.3.4-.4.5-1.1,0-1.7-.2-.3-.5-.5-.8-.7Z"/>
  <path class="cls-8" d="M62.5,360.9c-2.6-.5-4.9.6-6,3-.8,1.6-.9,3.2-.7,4.9.3,2.3,1.4,4.1,3.7,4.9,1,.2,2,.2,3,0,2.2-1,3.5-2.9,3.3-4.6-.4,0-.5.4-.6.7-1.3,2.3-4,2.7-5.9.8-1.3-1.3-1.7-2.9-1.7-4.8h7.8c.5,0,.6-.2.6-.7,0-1.9-1.6-3.8-3.5-4.2ZM62.7,365h-2.3c0,0-2.1,0-2.1,0-.5,0-.6-.3-.5-.8.4-1.8,1.9-2.9,3.5-2.4,1,.3,1.9,1.6,1.9,2.7s-.2.4-.5.4Z"/>
  <path class="cls-70" d="M140,369.5c-1.5,2.7-5.1,3-6.8.3-1.2-2-1.3-4.1-.4-6.3.6-1.2,2-1.9,3-1.9s1.6.5,1.9,1.5c0,.2,0,.5.2.8.3.7,1.1,1,1.8.7.6-.2.9-.9.6-1.6-.3-.7-.9-1.2-1.6-1.6-2.6-1.3-6-.4-7.6,2.2-.9,1.4-1.1,3-1,4.6.2,2.6,1.4,4.5,3.9,5.5,1,.2,2,.2,3,0h0c2.2-1.2,3.8-3.3,3.5-5-.4,0-.4.5-.5.8Z"/>
  <path class="cls-49" d="M112,367.2c-.9-.6-1.8-1.1-2.7-1.6-.6-.3-1.1-.6-1.6-1.1s-.7-1.1-.5-1.8c.2-.6.7-1,1.3-1.1,1.1-.2,2,0,2.7.8.4.5.7,1.1.9,1.7,0,.3,0,.7.5.7.3-.8,0-1.7,0-2.6s-.3-1-1-1-.7,0-1.1-.2c-.8,0-1.5-.2-2.3,0-1.4.2-2.5,1-2.8,2.4-.3,1.5.1,2.7,1.3,3.6.6.4,1.2.7,1.8,1.1.8.5,1.5.8,2.2,1.4.8.7,1.1,1.7.8,2.5-.4.8-1.3,1.2-2.4,1.1-.9-.2-1.5-.6-2.1-1.2-.4-.5-.7-1.1-.9-1.8,0-.2,0-.6-.5-.6,0,1.3,0,2.6,0,3.8s.2.3.4.3c.8-.3,1.5,0,2.2.2.9,0,1.8.2,2.7,0h0c.1-.2.2-.2.3-.2,2.9-1,3.2-4.8.7-6.3Z"/>
  <path class="cls-78" d="M101.5,367.1c-.9-.6-1.9-1.1-2.8-1.6-.5-.3-1-.6-1.4-1-.9-1.1-.5-2.4.8-2.8,1.1-.3,2,0,2.8.8.4.5.7,1.1.9,1.7.1.3,0,.7.4.7.2-.8.3-2.4,0-3.8-.7.5-1.4.2-2.2,0-.7,0-1.4-.2-2.1,0-1.3.3-2.3,1-2.6,2.4-.3,1.4,0,2.6,1.2,3.5.6.4,1.2.7,1.8,1.1.8.4,1.6.8,2.3,1.4.8.7,1.1,1.7.8,2.5-.4.8-1.3,1.2-2.4,1.1-.7,0-1.3-.4-1.8-.8-.7-.6-1.1-1.3-1.3-2.2-.1-.2,0-.6-.5-.6-.1,1.2,0,2.5,0,3.7s.2.3.4.3c.8-.3,1.5,0,2.2.2.9,0,1.8.2,2.7,0h0c1.5-.4,2.5-1.3,2.7-2.9.2-1.7-.5-2.9-1.9-3.7Z"/>
  <path class="cls-20" d="M441.9,367.2c-1-.6-1.9-1.2-2.9-1.7-.6-.3-1.2-.6-1.6-1.1-.8-1-.5-2.3.8-2.7,1-.3,2,0,2.8.7s.8,1.1,1,1.8c.1.3,0,.7.5.7v-2.6c0-.7-.3-1-1-1s-.7-.2-1.1-.2c-.6-.2-1.2-.2-1.9-.2-1.6.2-2.8,1.1-3.1,2.5-.4,1.4.2,2.8,1.5,3.7.7.5,1.5.9,2.3,1.4.5.2,1,.5,1.4.9.8.7,1.2,1.7.8,2.5-.4.8-1.3,1.2-2.4,1.1-.7-.1-1.3-.4-1.8-.9-.6-.6-1-1.3-1.2-2.1,0-.2,0-.6-.5-.6v3.7c-.1.4,0,.4.4.4.8-.3,1.5,0,2.2.2.9,0,1.8.2,2.7,0h.1c0-.2.3-.2.3-.2,2.9-1,3.2-4.8.7-6.3Z"/>
  <path class="cls-71" d="M424.4,371.1v-16.6h0c-1.5.3-3.6,1.3-4.1,1.9h.4c1.2.1,1.5.4,1.5,1.6v13.8c0,.7-.4,1.2-1.2,1.3-.2,0-.7-.1-.7.3.9.3,5.1.3,6-.1l-.2-.2c-1.3,0-1.6-1-1.6-2Z"/>
  <polygon class="cls-17" points="424.4 354.4 424.4 354.5 424.4 354.5 424.4 354.4"/>
  <path class="cls-81" d="M451.9,371.8c-.5.5-1.1.7-1.8.4-.6-.3-.9-.9-.9-1.5v-8.2c0-.4.2-.6.6-.6h1.7c.2,0,.5,0,.5-.4.1-.5-.2-.5-.5-.5h-1.7c-.3,0-.5-.1-.5-.5v-3.4c-.6,0-.6.3-.6.5-.3.4-.4.9-.7,1.3-.6,1-1.4,1.7-2.4,2.2,0,.1-.3.3-.3.5.1.3.3.3.5.3.5.2,1.1-.2,1.3.2.2.4,0,.9,0,1.4v7.2c0,1.3.3,2.4,1.5,3,.7.3,1.5,0,2.2,0h0c1.2-.9,1.8-1.5,1.8-2.4-.4,0-.5.3-.7.5Z"/>
  <path class="cls-86" d="M304.1,371.5c-.6.6-1.3,1-2.1.6-.8-.4-.9-1.1-.9-1.9v-7.6c-.1-.6.2-.8.8-.8h1.6c.2,0,.4,0,.4-.3s-.1-.5-.4-.5h-1.7c-.5,0-.7-.2-.7-.7v-2.2c0-.3.1-.7-.3-1-.3.7-.6,1.3-.9,1.8-.6.9-1.4,1.7-2.4,2.2-.3.1-.5.2-.5.5.1.3.4.3.6.3h.4c.6,0,.9.4.9,1v8.1c0,1.1.4,2.1,1.5,2.7.7.3,1.5,0,2.2,0h0c0-.1,0-.1,0-.1,1.3-.9,1.8-1.5,1.8-2.4,0,0,.2-.3-.4.3Z"/>
  <path class="cls-12" d="M389.3,360.9c-.9,0-1.7.4-2.3,1.1-.3.4-.6.7-1,1.2v-1.7c.1-.5,0-.7-.6-.5-1.2.5-2.4.8-3.5,1.5v.2c1.7,0,1.9.3,1.9,2v6.5c0,1-.4,1.9-1.6,1.9s-.3.1-.3.4h6.6c0,0-.2,0-.2,0-.1-.4-.2-.4-.4-.4-1.7-.3-1.9-.5-1.9-2.1v-5.9c0-1,.6-1.6,1.2-2.2.4-.3.8-.3,1.3,0,.2.2.4.4.6.5.6.4,1.2.3,1.6,0,.2-.4.3-1.1,0-1.6s-.5-.7-1.4-.7Z"/>
  <path class="cls-48" d="M268.4,373c-.8-.2-1.2-.7-1.2-1.5v-8.5c0-2.3,0-2.4-2.2-1.5-.6.2-1.3.4-2.1,1h-.2c1.9.2,2.2.5,2.2,2.1v6.8c0,.9-.5,1.5-1.4,1.6-.2,0-.5,0-.5.4,1.4.3,5.2.2,5.9,0,0-.3-.3-.3-.5-.3Z"/>
  <path class="cls-79" d="M177.2,373.4h0c0,0,0,0-.1,0,0,0,0,0,0,0Z"/>
  <path class="cls-85" d="M175.4,370.9v-9.1c0-.7-.4-1-1.1-.7-.8.3-1.7.7-2.5,1-.2.1-.4.1-.4.5,1.8.3,1.9.5,1.9,2.4v6.4c0,1-.4,1.3-1.4,1.6-.3,0-.6,0-.6.3,1,.3,4.8.3,5.9,0,0-.1-.2-.2-.2-.2-1.3-.2-1.6-1.1-1.6-2.2Z"/>
  <path class="cls-84" d="M146,370.3v-8.6c0-.8-.2-.9-.9-.6-1,.3-2,.7-3,1.1-.2,0-.2.1-.2.4h.4c1.1,0,1.5.5,1.5,1.8v6.1c0,1.8-.2,2-1.9,2.6-.1,0-.1,0-.1.2h0c0,0,.1,0,.1,0,1.2.4,5.2.3,5.9,0-1.2-.6-1.8-1.6-1.8-3.1Z"/>
  <path class="cls-16" d="M433.3,373.1c-1.3-.2-1.6-1-1.6-2.1v-9.2c0-1,0-1.1-1.1-.7-.9.3-1.7.7-2.6,1-.2.1-.4.1-.4.4v.2h.2c1.4.3,1.7.5,1.7,2v6.4c0,1.3-.3,1.6-1.6,2,0,0-.3,0-.3.3.9.3,5,.3,5.9,0-.2,0-.2-.3-.2-.3Z"/>
  <path class="cls-52" d="M143.4,355.6c0,.8.7,1.4,1.4,1.4s1.3-.6,1.3-1.3c0-.7-.5-1.4-1.3-1.4-.7-.1-1.4.5-1.4,1.3Z"/>
  <path class="cls-53" d="M266,354.3s0,0,0,0c0,0,0,0,0,0h-.1Z"/>
  <path class="cls-69" d="M264.7,355.7c0,.7.7,1.3,1.4,1.3s1.3-.5,1.3-1.3-.6-1.4-1.4-1.4c-.8,0-1.3.7-1.3,1.4Z"/>
  <path class="cls-55" d="M431.8,355.6c0-.7-.6-1.3-1.4-1.3h-.1c-.8,0-1.3.6-1.3,1.4.1.7.6,1.3,1.4,1.3s1.4-.7,1.4-1.4Z"/>
  <path class="cls-80" d="M174.2,357c.8,0,1.5-.5,1.5-1.3,0-.7-.5-1.4-1.3-1.4-.8-.1-1.4.5-1.4,1.3,0,.7.4,1.4,1.2,1.4Z"/>
</svg>