<?xml version="1.0" encoding="UTF-8"?>
<svg id="Layer_1" data-name="Layer 1" xmlns="http://www.w3.org/2000/svg" version="1.1" viewBox="0 0 688 170">
  <defs>
    <style>
      .cls-1 {
        fill: #010101;
      }

      .cls-1, .cls-2 {
        stroke-width: 0px;
      }

      .cls-2 {
        fill: #191818;
      }
    </style>
  </defs>
  <g>
    <path class="cls-1" d="M157.4,129.3c0-.4.4-.3.6-.5,1-.8,1.1-1.7.2-2.6-.3-.3-.7-.5-.6-1,0-.4,0-.8-.5-1-.5-.2-1-.2-1.5,0-.2.2-.3.5-.7.5,0,0-.2,0-.3-.1,0,0,0-.2,0-.3.2-.3.5-.5.7-.7.7-.7.7-2.1-.2-2.8-.9-.7-1.7-1.3-2.9-1.3-1.2,0-2.2.4-2.7,1.5-.3.7-.7,1.1-1.6,1.2-.6,0-1,.5-1.2,1.1-.5,1-.6,1-1.6.8-.7-.1-1.3-.4-1.8-.9-.5-.4-1-.8-1.6-1-.8-.3-1.7-.5-2.5.1-.2.1-.4.2-.6.2-1.3,0-2,.9-2.4,1.9-.4.8-.8,1.7-1.3,2.4-.5.8-1.3,1.3-2.3,1.3-1.2,0-2.2.5-3,1.5-.6.8-1.3,1.4-2.2,1.9-.7.4-1.4.8-1.8,1.5-.4.7-.7,1.1-1.6.9-.5-.1-.9.3-1.1.8-.3.6-.6,1.1-1,1.6-.3.5-.7.8-1.3.7-1.2-.2-2.4-.3-3.6-.3-.4,0-.8-.3-1.1-.5-.4-.2-.8-.5-1.2-.6-.8-.2-1.5-.4-2.1-1.1-.5-.5-1.2-.5-2-.5-.7,0-1.3,0-1.9.7-.5.6-1,.5-1.5,0-.2-.3-.4-.6-.6-.9-.5-.6-.9-1.2-1.6-1.5-1-.5-1.9-.6-2.8,0-.8.6-1.6.8-2.6.4-1.1-.4-1.9.4-2.5,1.1-.4.5-.7,1.1-.8,1.7,0,1.3-.8,2.3-1.6,3.1-.4.4-.6,1-1.3,1.2-.4-.5-.3-1.1-.2-1.6.2-.8,0-1.5-.5-2.1-1.4-1.7-3.2-2.5-5.2-1.6-.5.2-1,.5-1.2,1-.4.8-1.1,1-1.9,1-1,0-2,0-2.9-.2-1.4-.4-2.8-.3-4.1,0-1.1.2-1.9-.1-2.5-1.1-.3-.5-.7-.8-1.1-1.1-.7-.5-1.3-.5-1.9,0-.2.1-.3.3-.5.5-.3.2-.2.8-.7.6-.2,0-.2-.5-.3-.7-.5-.7-1.3-.9-2-.5-.3.2-.6.6-1.1.5-.3-.4-.1-.8-.2-1.2,0-1.5-1.7-2.8-3.2-2.6-.4,0-.8.2-1.2.3-.3.1-.7.1-1,0-.4-.1-.6-.5-.4-.9,0-.1.2-.2.2-.3.3-1.4.1-2.6-1.7-2.7-.8,0-1.6-.2-2.4,0-.8.3-1.4,0-1.8-.7-.4-.7-.9-1-1.7-1.1-.9-.1-1.1-.3-.8-1.1.5-1.5,0-2.6-1.1-3.6-.3-.3-.7-.5-1-.6-.9-.4-1.8-.3-2.5.6-.1.2-.3.3-.5.5-1.3-1.1-2.3-2.2-2.8-3.7-.3-.9-1-1.4-1.6-2-.3-.3-.8-.6-1.3-.5-.8,0-1.2-.4-1.6-.9-.8-1.1-1.7-2.2-2.7-3.1-1-.9-1.9-1.4-3.3-1.2-.6,0-.7-.2-.5-.7.3-.7.1-1.3-.4-1.7-.4-.3-.7-.6-1.1-.9-.8-.6-1.5-.5-2.2,0-.6.5-1.1,1-1.6,1.6-.9,1-2,.8-3.1.7-.2,0-.3-.2-.4-.3-.2-.2-.4-.5-.5-.7-.6-1.9-2.2-2.9-3.8-3.8-.3-.2-.5-.4-.6-.8-.2-1.8-1.2-2.6-3-2.5,0,0-.1,0-.2,0-.6,0-.9,0-1-.7-.2-.8-.6-1.4-1.2-1.8-.6-.5-.9-1-.9-1.8,0-.7-.3-1.2-.8-1.7-.6-.7-1.2-.9-2.5-.9.2-.9,0-1.6-.4-2.5-.4-.8-.6-1.8-.1-2.7.3-.5.2-1-.2-1.4-.8-.8-.8-1.6-.4-2.6.2,0,.4,0,.5.1.8.9,1.7.8,2.7.7.3,0,.7-.2,1-.3.8-.2,1.3-.8,1.3-1.6,0-.3,0-.6,0-.9,0-.7-.1-1.5,0-2.2.1-.8,0-1.6-.4-2.3-.2-.3-.4-.7-.3-1.1,0-.9-.5-1.7-1.1-2.2-1.2-1-1.2-2.3-1.1-3.6,0-.8.4-1.7.8-2.4.4-.8,1-1.4,1.2-2.3.1-.5.6-.6,1.1-.6,1.4,0,2.8,0,4.2,0,.9,0,.9,0,1.2-1,.2-.5.5-.9,1.1-1,.8-.2,1.1-.7,1.1-1.5,0-.3,0-.7.2-1,.2-.3.4-.8.4-1.1-.1-1.4.9-2.2,1.8-3,.1-.1.3-.1.5,0,.8.5,1.8.7,2.7,1.1.9.4,1.8.8,2.6,1.3,1.2.7,2.5,1.2,3.9,1.2,1.2,0,2-.4,2.6-1.3.5-.7,1.1-1.5,1.7-2.2.5-.7,1.1-.9,1.9-.7,1.1.3,2.1.2,2.9-.6.6-.5,1.3-.4,1.9,0,1.3.9,2.6,1.9,3.7,3.1.8.9,1.7,1.5,2.8,1.4,1.3,0,2.5-.3,3.6-1,.4-.3.9-.6,1.3-.9,1.2-.8,2.5-1.1,4-.9.5,0,1.1,0,1.6.2,2.6.6,4.6-.4,6.2-2.3,1.2-1.5,2.7-2.3,4.6-2.4.7,0,1.4-.2,2.1-.3,1.3-.2,2.5-.6,3.5-1.5,1.5-1.4,3.3-1.7,5.3-1.3.9.2,1.9,0,2.9.4,1,.3,2,.6,2.7,1.4,1.4,1.4,3.1,1.5,4.8,1.1,1.5-.3,2.9-.5,4.4-.7.4,0,.8,0,1.2.1.5.2,1,.3,1.5.5.9.3,1.8.2,2.5-.3.7-.5,1.4-.8,2.2-.7.2,0,.4-.2.7-.2,1.3,0,2-1.6,1.7-2.7-.1-.6-.5-.9-1.1-.8-.2,0-.5,0-.7.2-.2,0-.3,0-.5,0-.5-.4-.6-.8-.5-1.4,0-.5.3-.8.7-.9.5-.2,1.1-.4,1.6-.6.5-.2.9-.5,1.2-1,.3-.5.2-.9,0-1.5-.2-.5-.2-1,.3-1.5.9-.8.5-2.5-.6-3.1-.3-.2-.7-.4-1.1-.5-1.4-.3-2.6-1.1-3.8-1.7-1.7-.9-2.7-3.1-2.5-5,.1-.8.5-1.4,1.4-1.5.3,0,.7,0,1-.2.8-.2,1.2-.6,1.3-1.4,0-.2,0-.3,0-.5,0-.5.4-.7.8-.8.3,0,.7,0,1,0,.9,0,1.9,0,2.8,0,1.2,0,2.2-.3,3.1-.9.7-.5,1.3-.9,2-1.3,1.6-1,3.4-1.7,5.3-2.1.3,0,.6,0,.8.1.4.2.8.4,1.2.7.9.6,1.5.3,1.6-.8,0-.7.1-.8.8-.8.6,0,1.2,0,1.7.2,1,.4,1.9.2,2.8-.4.3-.2.6-.4.9-.6.3-.3.8-.4,1.1-.4,1,.1,2.1,0,3,.7.3.2.7.4,1.1.6.9.3,1.7.8,2.7.3.3-.2.7,0,1,0s.6.2.7.7c.2,1,.9,1.5,1.8,1.9.9.3,1.9.7,2.8,1,2.1.6,3.5.1,4.6-1.7.2-.3.4-.7.6-1.1.6-1.1,1.6-1.5,2.7-1.6.6,0,1,.2,1.5.4.7.4,1.3.6,2.1.6s1.8-.4,2.3-1.2c1.3-2,1-1.5,3.2-1.1,1.1.2,2,1,2.8,1.7,1.2,1.1,2.6,1.7,4.2,1.9,1.3.2,2.6,0,3.5-1,.1-.1.2-.3.4-.3.2-.1.4,0,.6.1.3.3.3.6.4,1,.3,1.4,1.2,2.4,2.6,2.8,2.3.6,4,2,5.5,3.8,1,1.2,2.1,2.1,3.5,2.8.4.2.8.3,1.3.3,1.1,0,1.3-.3,1.4-1.4,0-.2,0-.3,0-.5,0-.4.3-.6.7-.5.1,0,.2,0,.3,0,4.3,1.5,8.3,3.5,12.3,5.6,1,.6,1.7,1.4,2,2.7.3,1.4.6,2.8.4,4.2-.1.9.1,1.8.7,2.4.5.6.6,1.2.6,1.9,0,.3,0,.6,0,.9-.2,1.3.4,2.3,1.2,3.3.3.3.5.6.8.9.5.8.9,1.6.9,2.6,0,1.4.4,2.6,1.3,3.6.7.7,1.1,1.6,1.4,2.6.3,1.3,1,2.4,1.9,3.5.5.6,1,1.3,1.5,1.9.3.4.5.9.5,1.4,0,.6.1,1.3.2,1.9,0,1,.2,1.9.9,2.7.3.4.4.9.5,1.4.2.8,0,1.1-.8,1.6-.2.1-.4.2-.6.4-1.2.8-1.7,1.9-1.4,3.3.5,1.9.6,3.8,1,5.7.3,1.5.3,3.1,0,4.6-.4,1.9-.4,3.8.5,5.5.4.8.3,1.6,0,2.5-.5,1.2-1.2,2.3-2.2,3.3-.2.3-.5.5-.7.8-1.7,1.5-2.8,3.4-3.1,5.6-.2,1.5-.9,2.7-1.9,3.8-.5.5-.7.9-.8,1.6,0,.6-.2,1.3-.7,1.7-.3.2-.3.6-.3,1,0,2.9,0,5.9,0,8.8,0,1.6.3,3.3.7,4.9.4,1.6.4,3.3.6,4.9.2,1,.2,2,.4,3,.1.8.2,1.6-.6,2.2,0,0-.2.2-.2.3-.2.5-.3,1,0,1.5.2.5.6.8,1.2.8.3,0,.5.1.5.4,0,.2,0,.5-.3.6-.7.2-1.2.7-1.5,1.3-.2.4-.5.5-.8.6-1.4.3-2.7.7-4.1.6-1.1-.1-2,.2-2.7,1-.8.9-1.8,1.4-3,1.5-.7.1-1.3.5-1.9.8-.7.3-1,.2-1.5-.4,0,0-.1-.2-.2-.3-.5-.9-1.4-1.1-2.3-.8-.9.3-1.7.1-2.5-.3-.8-.5-1.7-.4-2.5.1-.2.2-.5.3-.7.5-1.6,1.4-3.4,1.2-5.3.9-.4,0-.6-.3-.6-.7.1-1.2-.2-2.4-.7-3.5-.4-.8-.5-1.7-.3-2.5.4-1.3-.2-2.1-1-2.9-.5-.5-1-.9-1.5-1.4-.3-.3-.4-.9-.9-.9-.5,0-.5.6-.9.8,0,0-.2.1-.3.1-.2,0-.2-.2-.3-.4,0-1.1-.2-2.2-.1-3.3,0-.8-.3-1.5-.9-2-.5-.4-.7-1.1-1.5-.9-.3,0-.5-.3-.7-.5-.2-.3-.3-.6-.5-.9-.2-.3-.4-.6-.6-.8-.6-.5-1.3-1.1-2.2-.7-.9.4-1.6.9-1.6,2,0,.8-.5,1-1.2.6-.2-.1-.4-.4-.7-.6-.4-.3-.9-.5-1.4-.2-.3.1-.7.2-.9-.2-.6-1-1.4-1-2.4-.7-.2,0-.3,0-.4-.1h0ZM147.2,31.2c-3.2,13.7-9,25.9-19.3,35.5,1.7,2.5,3.1,5,4.3,7.6,2.7,5.8,4.5,11.8,5.7,18.1.9,4.7,1.4,9.3,1.6,14,0,.3,0,.7,0,1,0,.2.2.3.4.3.2,0,.3,0,.5,0,4.7-.7,9.5-.8,14.2,0,.3,0,.7,0,1,0,.1,0,.3-.2.3-.3,0-.1,0-.3,0-.5,0-3,.2-6,.4-9,.2-2.4.6-4.8,1-7.2.5-2.6,1.1-5.2,1.9-7.7,1-3.4,2.2-6.8,3.8-10,1-2,2-3.9,3.2-5.7.5-.7.5-.8-.1-1.3-3.2-2.9-5.9-6.2-8.3-9.8-2.9-4.2-5.1-8.8-7-13.5-1-2.7-2-5.4-2.6-8.2-.2-1.1-.4-2.2-1.1-3.5h0ZM147.5,108.5c-.6,0-1.1,0-1.6,0-2.5,0-4.8.5-7.2,1.1-1,.3-1.4.8-1.5,1.7,0,.6,0,1.1.4,1.6.2.3.5.5.9.4.6-.2,1.2-.4,1.8-.6,5.1-1.3,10.2-1.2,15.3.1.5.1,1,.3,1.5.5.4.1.7,0,.8-.4.4-1.4.4-2.8-1.6-3.3-3-.6-5.9-1.2-8.8-1.1h0ZM147.6,116.1c1,0,2.1,0,3.1.2,1,.1,2.1.3,3.1.6,1,.2,2,.5,3,.8.4.1.7,0,.9-.2.7-1,.6-3-1.1-3.3,0,0-.1,0-.2,0-5.9-2-11.8-1.8-17.7,0-1.2.4-1.8,1.4-1.4,2.5.4.9.9,1.3,1.7.9.3-.1.5-.2.8-.3,2.5-.8,5-1.3,7.7-1.2h0Z"/>
    <path class="cls-2" d="M148.7,87.8v13.3c0,.4,0,.8,0,1.2,0,.3-.3.5-.6.5s-.6-.1-.6-.5c0-.4,0-.8,0-1.2,0-8.9-.1-17.7-.2-26.6,0-.3,0-.7,0-1,0-.5-.1-.9-.6-1.1-.6-.3-1-.9-1.3-1.6-.3-.9.2-2.1,1.1-2.7.8-.6,2-.6,2.8,0,1.3,1.1,1.8,2.8.1,4.1-.7.5-.9,1.1-.9,1.9,0,4.6,0,9.2,0,13.8h.2Z"/>
  </g>
  <g>
    <path class="cls-1" d="M521.5,113.9c-4-3.5-6.7-8.2-10.1-12.2-.7-.9-1-.8-1.7-.1-.8.8-1.7,1.6-2.6,2.4-.7.7-.9,1.4-.1,2.3,3.3,3.7,5.9,8,9.5,11.6,4,4,8.7,6.5,14.3,7.2,3.7.5,7.2-.8,10.3-2.9,1.5-1,2.8-2.2,3.7-3.8-2,.7-3.9,1.6-5.9,1.8-6.9.9-12.5-1.9-17.5-6.3Z"/>
    <path class="cls-1" d="M657.2,78.7c-.1-1.2.9-3.2,0-3.5-1.1-.4-1.9,1.5-3,2.3-.7.5-1.6,1.1-1.6,2.2.1,2.8-.4,5.6.6,8.3.4,1.1-.1,1.4-1.2,1.1-1-.2-1.7-1-2.8-1-1.7,0-1.9-.7-.9-2,.3-.5.4-1,.4-1.5,0-1.3,0-2.6,0-3.9h-.1c0-1.4,0-2.7,0-4.1,0-.4,0-.8-.3-.9-.2,0-.5.2-.7.4-2.3,2.1-4.4,4.1-3.4,7.8.7,2.8,1,5.7-1.7,7.9-.7.6-.4,1.3.7,1.3.9,0,1.8-.1,2.6.3,2.7,1.2,5.3,2.6,7.4,4.6.2.2.4.6.8.5,1.2-.2,5.4-4.2,5.5-5.4,0-.2,0-.5-.2-.7-1.5-4.4-1.9-9-2.4-13.6Z"/>
    <path class="cls-1" d="M400.3,83c0,.3-.1.6-.2.9-1,5.8-.2,11.3,2.9,16.3.2.3.3.7.7.6.6,0,.4-.5.3-.8-.3-.8.3-1.3.8-1.8,1.7-1.6,2.1-3.4,1.2-5.1-2.4-4.7-2.7-9.5-1.6-14.5.4-1.7.8-3.4,1.1-5.1-.2-.2-.4-.3-.7-.5-.5.6-1,1.2-1.5,1.9-.9,1.2-2,1.3-3.1.5-1-.8-1.5-.4-2.2.3-1.9,1.9-3.3,4.2-5.2,6-3.4,3.3-2.9,7.2-2.3,11.2,0,.7.5.9,1.2.7,1.7-.7,3.2-3.8,2.9-5.7-.3-1.8-.8-3.7,0-5.4.7-1.4,2.5-.7,3.7-1.2,2-.7,2.2-.4,1.9,1.7Z"/>
    <path class="cls-1" d="M485.9,80.8c.4,0,.6.4.6.7,0,.6,0,1.2,0,1.8-.8,4.4.1,8.5,1.7,12.6.4,1.1.8,2.4,2.6,3.2-1.6-1.9-.7-3,.1-4.3,1-1.7,1.9-3.3.9-5.4-.7-1.5-1-3.3-1.1-5-.3-3.5,0-7,1.2-10.5-.9,0-1.3.7-1.8,1.1-.8.7-1.8.9-2.6.3-1.4-1.2-2.3-.5-3.2.6-.4.5-.8.8-1.2,1.3-1.6,1.7-3.6,3.2-4.8,5.2-1.7,2.8-1.4,6-.5,9.1.4,1.2,1.2.9,1.9.2,1.7-2,2.8-4,2.2-6.9-.7-3,1.1-4.6,4.1-4Z"/>
    <path class="cls-1" d="M478.3,69c1.6-.5,3-1.3,4.3-2.3.9-.7.8-1.2,0-1.9-.9-.7-2.1-.7-3-1.3-.5-.4-1.4-.7-.9-1.6.4-.8,1-1.4,2-1.1,2.6,1,5.2,1.9,7,4.1,1.9,2.2,3.3,4.8,4.8,7.2.1,0,.3,0,.4-.1-.8-1.9-1.4-3.9-2.6-5.6-1.6-2.4-1.9-4.6-.5-7.1.4-.8.1-1.3-.4-1.6-1.9-1.1-3.9-2-6-2.4-1.7-.4-3.2.2-4.5,1.7-1.9,2.2-2.8,4.9-4.7,7.1-.9,1-.7,2.4.2,3.5,1,1.2,2.3,2,3.9,1.5Z"/>
    <path class="cls-1" d="M518.6,86.7c-1.2,1.3-2.9,2.4-3.2,4.3-.4,1.9.9,4.1,2.5,4.9,1.5.7,4.7.2,5.8-.8,1.6-1.4,2.4-3.4,3.8-5,1.4-1.7,1.8-3.6,1.6-5.8-.2-2.1-.9-4.2-.9-6.3,0-1,.3-2-.1-3.1-.9.8-1.5,1.5-2.2,2.1-1.7,1.6-2.5,3.4-2,5.9.5,2.1.7,4.3.9,6.5.2,1.8-.7,2.4-2.4,1.7-1.6-.6-2.8-1.5-2.9-3.4,0-.5-.4-1.6-1-.9Z"/>
    <path class="cls-1" d="M285.8,66.9c1.6-.7,3.2-1.5,4.2-3.1.3-.5.8-.9.5-1.6-.4-.8-.9-.1-1.4-.1-1.2,0-2.5-.9-2.3-1.7.4-1.5,2.5-2.4,3.8-1.7,1.3.8,2.6,1.7,3.8,2.5,3.4,3.4,5.8,7.6,9.1,11.1-1.7-3.2-3.2-6.5-5.6-9.3-1.8-2.1-1.7-2.2-.1-4.5.2-.4.7-.6.6-1.2.6-.6.4-1.1-.3-1.6-.9-.6-1.8-1.3-2.7-1.9-4.3-2.8-7.3-2.2-10.1,2-.4.6-.8,1.3.3,1.4,1.7.2,1.2.9.5,1.7-1.1,1.3-2.2,2.5-3.2,3.8-1,1.3-.4,2.6.5,3.7.7.9,1.7.7,2.4.4Z"/>
    <path class="cls-1" d="M673.1,101c-3.3-3-4.3-6.5-2.9-10.8.2-.7,0-1.4-.4-2-.7-1.4-1.3-2.7-1.5-4.3-.3-2.6-.1-5,.9-7.4.1-.3.2-.6,0-.8-.2-.2-.4,0-.6,0-2.3,1.9-4.3,3.9-4.7,7.1-1.1,8.3,3,14.1,9.6,19.1-.2-.7-.2-.9-.3-1Z"/>
    <path class="cls-1" d="M573.5,79.7c-1.1,3.7-1.6,7.5.5,11.3,2.2,4,4.8,7.4,8.8,9.5-1.1-1.5-2.3-3-3.6-4.3-1.4-1.5-1.6-3.2-.9-5.1.5-1.4.5-2.9,0-4.3-1.3-4-2.2-7.9,0-11.9-2.1,1.1-4.2,2.7-4.9,4.8Z"/>
    <path class="cls-1" d="M504.3,97.6c-1.7-1.6-2.8-3.5-2.9-5.8,0-1,0-2,.2-3,.3-2.2-.6-4.2-.8-6.2-.2-2.7-.3-5.4.3-8.1-1.3,1.2-2.5,2.4-3.8,3.5-.4.4-.5.9-.6,1.4-.7,3.9-.8,7.8.9,11.6,1.6,3.6,4.3,6.1,7.4,8.3.1,0,.3,0,.9,0-.7-.7-1.1-1.2-1.6-1.7Z"/>
    <path class="cls-1" d="M389,101.8c0-.5,0-.7,0-.9-1-2.7-1.7-5.4-1.9-8.4,0-1.6-.1-3.3-.7-4.9-.8-2.4-.6-4.6,0-7,.3-1.4.6-2.8,1.2-4.6-8.2,5.9-7.5,19.4,1.4,25.7Z"/>
    <path class="cls-1" d="M261,63.9c2,.1,4,.7,5.8.4,3-.4,5.4-2.2,6.8-5,.2-.4.5-.7.1-1.1-.3-.3-.7,0-1,.1-2.1,1.2-4.2.6-6.4.2-1.8-.3-3.6-.5-5.4.2-2.7,1-3,3.7-4.3,5.7,1.4-.8,2.8-.7,4.2-.6Z"/>
    <path class="cls-1" d="M378.6,130.9c0,2,.9,3.8.8,5.7,0,.7.7.9,1.5,1.2-.9-3.1-.4-6.2-.6-9.2-.2-2.1.2-4.4.5-6.5.4-2.8,1.2-5.6,1.4-8.5.5-6.9-1.7-13.1-4.9-19-1.3-2.5-3.2-4.6-6-5.7-.7-1.1.4-1.3,1-1.8,2.1-2,4.2-3.9,4.3-7.1,0-1.6-1-3.2-.4-5-1,.9-2,1.9-3,2.8-.3,0-.5.1-.7.4-1.1,1.7-1.4,3.5-.8,5.4.3,1.1,0,2-1,2.4-3.1,1.2-5.5,3.3-7.6,5.7-.3.4-.6.7-.4,1.2.2.5.6.4,1,.5,1.6.1,3.1.5,4.4,1.4,5.4,3.8,7.4,9.5,9,15.5,1.8,6.7,1.6,13.6,1.8,20.4ZM372.5,79.3s0,0,0,0c0,0,0,0,0,0,0,0,0,0,0,0,0,0,0,0,0,0,0,0,0,0,0,0,0,0,0,0,0,0Z"/>
    <path class="cls-1" d="M587.1,57.5c1.6-.2,3.4-.5,4.8.4,2.9,1.9,5,4.5,6.4,7.7.1.3.1.8.6.7.4,0,.3-.5.3-.7-.4-1.4,0-2.8-1.4-4.3-1.8-1.9-2.1-5-2.7-7.4.5-1.3,0-2.2-.9-2.5-1.4-.3-2.7-.3-4.1.3-2.2.9-2.7,2.9-3.8,4.6-.2.3-.6.7-.4,1.1.3.6.8.2,1.3.2Z"/>
    <path class="cls-1" d="M441.4,89.2c-.4-3.4-.8-6.9-.5-10.4.1-1.1,1.1-1.9.6-3.1-1.2.6-2.1,1.5-2.9,2.6-.2.2-.5.5-.7.7-1.6,1.4-1.6,3.3-1.8,5.1-.2,2.9.2,5.7.5,8.6.7,6.1,2.3,12,3.7,18,1.4,5.9,1.6,11.7.7,17.7-.2,1.7-.6,3.5.2,5.1.5-1.8,1-3.5,1.1-5.3.1-3.5.8-6.9.8-10.4,0-4.1.1-8.2.2-12.3,0-1.6.1-3.2,0-4.8-.1-3.9-1.6-7.7-2.1-11.5ZM441,77.2s0,0,0,0c0,0,0,0,0,0,0,0,0,0,0,0ZM443.1,104c0-1,0-2,0-2.9.2,1,.2,2,0,2.9Z"/>
    <path class="cls-1" d="M244.5,63.7c2.1-.3,3.8.3,5.3,1.7,2.5,2.2,4.2,4.8,5.7,7.8-.2-1.6.1-3.4-1-4.8-.6-.7-1.1-1.3-1.3-2.2-.6-1.8-.9-3.6-1.9-5.2-.2-.4-.3-.9,0-1.2,1.1-1.4-.1-1.8-1-2.1-1.4-.4-2.7-.4-4.2.4-1.6.8-2.3,2.1-3.1,3.6-.3.6-1.1,1.2-.7,1.9.4.7,1.4.3,2.1.2Z"/>
    <path class="cls-1" d="M546.5,116.6c1.6-1.3,2.8-2.8,4-4.4,2.1-3,1.9-6.1,0-9.1-1-1.7-1.2-1.7-2.7-.3-.5.5-1,1-1.6,1.4-1.3.9-1.7,1.9-.4,3.2.3.3.5.8.7,1.2,1,2.6,1.4,5.3,0,8Z"/>
    <path class="cls-1" d="M315.1,99.3s0,0,0,0c0,.1.2.3.3.4.5.4,1.1.8,1.6.3.6-.7-.5-.6-.7-1-1.6-2.6-3.5-5.2-2.1-8.6.3-.6.2-1.3,0-1.9-1-1.9-1.3-3.9-1.3-6.1,0-2.2.3-4.3,1.3-6.3.2-.3.2-.7,0-1-.3-.3-.5,0-.7.1-1.3,1.5-3.1,2.8-3.8,4.6-1.6,4.2-2,8.7-.2,13.1,1.1,2.7,3.1,4.9,5.7,6.4Z"/>
    <path class="cls-1" d="M609,57.8c3.8.3,8.2-2.7,8.7-6.4-1.9.8-3.7,1.8-5.9,1-.9-.3-2-.4-3-.4-1.4,0-2.9-.2-4.3.4-2.5,1.2-2.9,3.8-4.3,5.7,2.9-1.2,5.9-.6,8.8-.4Z"/>
    <path class="cls-1" d="M306.3,105.1c-.7-.5-1,.5-1.3.9-2.1,2.6-3.5,5.8-5.9,8.2-2.1,2.3-4.2,4.7-6.3,6.9-.9.9-1.6,2.3-3.2,2.2,0,0-.1.1-.1.2,0,0,0,0,0,0,0,0,.1-.1.2-.2-1.6-1.5-3.6-2-5.8-2-1.4,0-2.6-.8-4.4-1,3-1.9,5.6-3.6,7.6-6.1.6-.5,1.3-.9,1.9-1.5,2.1-2.2,4.1-4.4,5.6-7.1,3.8-5.5,6.7-11.5,8.2-18.1.9-4.3.6-8.5.3-12.8,0,0-.2-.1-.3-.2-1,.7-1.8,1.8-3.3,1.7-1.7,0-3.2-.4-4.4-1.6-.9-.9-1.7-.8-2.5.1-1.2,1.3-2.4,2.5-3.7,3.8-1.7,1.1-2.9,2.7-4.3,4.1-.4.4-.7,1-.3,1.4.5.6,1-.2,1.3-.4,1.3-1,2.6-1.8,4.2-2.1.9-.1,1.2.2,1.1,1-.4,3-.9,6-2.2,8.7-1.4,2.9-4.4,4.5-6.2,7.1-.2.3-.8.3-.9,0-.5-1.3-1.6-2.2-1.9-3.7-.7-3.3-.4-6.7-.8-10-.3-2.8.2-5.5,1-8.2.2-.5,1-1,.4-1.5-.8-.6-1.2.4-1.7.8-.3.3-.8.6-.7,1.1-2.3,1.5-2.7,3.9-3.2,6.2-1.3,5.6,0,10.6,4,14.8.8,1.6,2.4,2.3,3.9,3,.6.3,1.2,0,.8-.7-.4-1,.3-1.5.8-1.9,1-.8,2-1.7,2.7-2.7,1.2-1.7,3.1-3,3.7-5.1.1-.3.3-.7.4-1,1.1-1,1.4-2.5,2.1-3.7,1.1-1.8,1.2-4.3,3.7-5.3,1.2-.4,1.3-.2,1.4.8.3,5.2.3,10.4-1.4,15.6-2.1,6.4-4.9,12.2-10.1,16.7-2,1.3-4,2.6-6,3.9-3.4,1.9-6.9,3.8-10.8,4.7-.4,0-.8.5-1.1,0-.3-.4-.3-1,0-1.3,1-1.3.7-2.8.7-4.3,0-.1,0-.2,0-.3.4-2.2.7-4.4,1.1-6.6,1.2-5.7.7-11.5-.5-17.3-1.1-5.5-2.9-11.1-.5-16.8.1-.3.3-.8,0-1-.3-.2-.7,0-1,.3-.7.8-1.4,1.6-2.1,2.4-2.4,1.6-2.4,4.2-2.7,6.6-.5,4,.4,7.9,1.3,11.7,1.3,5.8,3,11.5,3.3,17.5.2,4.5.2,9.1-2.9,12.9,0,0,0,0,0,0-1.1,1.2-1.2,1.7-.5,1.7,1.3,0,1.3.9,1.6,2.1.4-1.6.6-2.6,2.1-3.1,2.4-.8,4.8-.7,7.2-.8,3.6,0,7.1.9,10.3,2.7,1,.6,1.5.1,2.1-.5,3.8-4.3,8-8.2,11.3-12.9.3,0,.5,0,.7-.4,1.9-2.8,3.9-5.5,5.8-8.3.3-.5,1-1.1.3-1.5ZM289.1,91.5s0,0,0,.1c0,0,0,0-.1.1,0,0,0-.2.1-.3ZM265.5,126.3s0,0,0,0c0,0,0,0,0,0,0,0,0,0,0,0Z"/>
    <path class="cls-1" d="M344.8,93.1c2.7-.7,4.9.5,7.2,1.6h0c1.2,1.3,2.7,2.1,4.1,3,.6.4,1.6.9,2.2,0,1.5-2.2,3.3-3.9,2.8-7.3-.8-4.8-1.7-9.7-.5-14.6,0-.3.1-.8-.2-1-.4-.2-.8,0-1.1.2-3,2.2-4.6,5-4.2,8.8.1,1.4.7,3.4,0,4-1,1-2.6-.8-4-.7,0,0-.1-.2-.3-.4,2.6-2.9,1.8-6.3,1.5-9.7,0-.5,0-1.1,0-1.6,0-.5-.3-.8-.8-.5-1.7,1.2-3.3,2.4-4.6,4-.4.5,0,1,0,1.5.5,3.3,1.8,6.8-1.2,9.7,0,0,0,0,0,0-.5.5-1,1-1.5,1.5-.2.2-.6.5-.4.9.2.4.7.5,1.1.4ZM345.7,90.5s0,0,0,0c0,0,0,0,0,0,0,0,0,0,0,0Z"/>
    <path class="cls-1" d="M507.5,88.1c1,.7,2.1,1,3.2,1.3,2,.7,4.4-.5,4.9-2.6.1-.6.2-1.2.8-1.5,1.5-1,2.1-2.8,3.1-4.2.5-.8,1-1.7.9-3.1-.3-1.4-.4-3.2-1.3-4.7-.2-.4-.4-1.1-1-.4-1,1.2-2.5,1.7-3.5,2.7-2.8,2.6-5.6,5.4-7.9,8.5-1.1,1.5-.7,3.1.8,4.1ZM510.7,81.8c.1-1.1,2.2-1.2,3.5-1.4.7,0,1.4-.2,1.7.6.3,1,.6,2,0,2.9-.4.8-1.3.5-1.9.3-1.3-.6-3.4-.8-3.3-2.4Z"/>
    <path class="cls-1" d="M548.1,88.1q-1.5-3.3-4-.8c-1.2,1.2-2.4,2.4-.8,4.1.2.2.3.6,0,.8-.3.4-.6,0-.9,0-1.3-.2-2.4-1.3-3.8-.8-.3-2,1.5-2.4,2.6-3.2.8-.6,1.7-1.1,2-1.9.4-1.3,1.2-2.2,2-3,2.1-2,2.3-4.5,2.4-7.1,0-.5-.1-1.6-1-1.2-.9.5-1.3,0-1.8-.3-.5-.4-1-.3-1.6.1-3,2.5-5.8,5.2-8.4,8.1-1.7,1.8-1.1,3.7,1.2,4.8.8.4,2.2.4,2.1,1.1-.1,1-1.6,1.2-2.5,1.7-.2.1-.5,0-.7.2-1.1.6-2.6.5-3.3,1.8-.7.7-1.5,1.5-2.2,2.2-.3.3-.9.7-.7,1.1.2.6.9.4,1.4.3,3.7-.3,7.3,0,10.5,2.3.9.7,1.8,1.3,2.7,2,.7.5,1.2.5,1.6-.4.5-1.1,1.3-2.1,2.1-3,2.1-2.7,2.6-5.6,1.1-8.9ZM538.8,81.2c.2-1.2,1.5-.5,2.1-.8,1,0,1.9-.2,2.2,1,.2.6.4,1.3-.2,1.8-.5.4-1.1.2-1.7,0-.3-.1-.5-.3-.8-.4-.8-.4-1.9-.7-1.7-1.7Z"/>
    <path class="cls-1" d="M442.4,56.6c-2.4,2.1-5.3,1.9-8,1.1-2.6-.8-5.4-.4-7.2,1.9-1.3,1.7-2.4,3.6-3.4,5.5-.2.4-.4,1-1.1,1.1-.2,0-.4-.2-.5-.5-.5-2.1-1.9-4-1.5-6.4.2-1.1-.4-1.8-1.5-2-.7-.2-1.5-.5-2.2-.5-1.8,0-3.7.6-4.6,1.8-1.2,1.6-2.1,3.6-3.2,5.4-.3.5-.3.9.1,1.3.4.4.7,0,1.1-.1,1.8-.3,3.5-1.6,5.5-.2,2.7,1.9,5.2,4,6.3,7.3.2.7,1.2,1.4.4,2.1-.8.6-1.3-.5-1.9-.8-.6-.3-1.1-.6-1.6-.2-.9.6-2,1-2.9,1.6-1.6,1.2-2.7,2.8-4.3,3.9-3.1,2-4.8,5.3-6.2,8.7-.2.4,0,.7.3.9.7.4.7,1.1.6,1.7,0,1.3.7,1.7,1.7,1.8.6,0,1.2,0,1.8,0,2.6,0,5.2-.1,7.4,1.9,1.1,1,1.5,2.5,2.6,3.4h0c0,.8,0,1.7,1,1.7,1.1,0,1-1.1,1.1-1.9.2-1.1-.2-2.1-.7-3-1-1.7-.6-3.7-1.3-5.6-.7-2-1.5-4.2-1.2-6.5.1-1,.7-1.3,1.4-1.1,1.4.4,3.2-1,4.3.8,0,0,0,.2,0,.4,0,7.3,0,14.6.6,21.8.3,2.9.5,5.8,1,8.7.7,3.9.6,7.9,1.5,11.8.6,2.5,1.1,4.9,1.8,7.4.2,1,.4,2.2,1.6,2.8.5.6,1,1.2,1.4,1.8-.7-2.3-.9-4.7-1.6-7-.8-2.9-1.2-5.8-.1-8.8.9-2.5,1.6-5.1,1.1-7.8-.6-4.1-.9-8.2-1.1-12.3-.6-8.5-1.1-17.1-.9-25.7,0-.7.5-1.7-.3-2.1-.8-.4-1.1.9-1.8,1.1-.2,0-.5,0-.7.2-2,.8-2.5.4-2.5-1.7,0-1.4,0-2.8,0-4.3,0-2.2.8-2.8,3-2.7.6,0,1.2,0,1.7-.2,1.4-.2,2.9-.3,4.2,0,1.4.3,2.5,0,3.7-.5,3-1.3,4.8-3.6,6.2-6.5.3-.7,1.1-1.4.3-2-.6-.5-1.2.3-1.6.7ZM417.3,85c0,.2-.3.3-.4.3-1.5,0-3.1-.2-4.4-1.1-1.1-.7-.3-1.8-.4-2.8,0,0,0-.1,0-.2,0,0,0,0,0,0h0s0,0,0,0c1.1.7,2.1,0,3.2-.1.6,0,1.3-.3,1.5.5.2,1.1,1.1,2.2.5,3.4Z"/>
    <path class="cls-1" d="M462.9,96.5c1.9.7,3.9.3,5.7.6,2,.4,2.6-.7,3.1-2.2h0c1.7-1.6,2-2.7,1.3-4.8-.4-1.3-.7-2.7-.9-4.1-.5-3.6-1.3-7.2-.3-10.9,0-.3,0-.8-.3-.9-.2,0-.5,0-.6.2-1.3,1.3-2.7,2.5-3.8,3.9-.5.6-1,1.4-.9,2.4.3,3.3.6,6.7.9,10.2-2.2-1.4-4.4-2.5-4.8-5.4-.5-3.1-.6-6.1.1-9.1.1-.4.2-.8-.1-1.2-.2-.3-.6-.3-.8,0-1.9,1.8-4.5,3.1-4.6,6.3,0,2.4,0,4.8.3,7.2.4,3.7,2.3,6.4,5.8,7.7Z"/>
    <path class="cls-1" d="M558.2,99.7c0-2.1.2-3.7.5-5.3,0-.3,0-.7-.5-.7-.6,0-.7-.4-.7-.8-.1-2-1.2-3.9-.6-6,.2-.8-.2-1.6-.6-2.3-.5-.8-.5-1.8-.3-2.6.3-1.4,1.5-1.6,2.8-1.6,1.2,0,1.5.7,1.5,1.7,0,2.1.9,4.2-.2,6.3-.1.2,0,.6.2.8,1.2,2,1.6,4.3,2,6.5.6,2.3,1.3,4.6,1.8,7,.4,1.8,1.2,3.5,1.1,5.4,0,0,0,.2,0,.2,0,2.6.9,5.2,1,7.8.1,4.2-.3,8.4-.2,12.6,0,.2-.1.5-.2.7-.8,2.5-.4,5-.5,7.6,0,.3,0,.6.4.7.4.1.7-.1.9-.4.2-.3.4-.6.3-1-.4-2.5.2-4.9.2-7.4,0,0,0-.1,0-.2,0,0,.2,0,.3,0h0c.4-.4.3-.9.4-1.4.3-1.5,0-3.1.3-4.6.4-3.2,1.4-6.3,2.8-9.2.3-.7.4-1.3.3-2-.3-2.4-.6-4.8-.9-7.1,0-.5.1-1.1,0-1.6-.9-4.2-2-8.5-3.1-12.7-1.3-4.7-2.8-9.5.4-14.1.2-.3.3-.8.5-1.1,1.4-3.1,3.3-5.8,6.1-7.7.3-.2.7-.7,1.1-.3.4.3.3.9,0,1.3-.4.6-.7,1.2-.7,2.2,2.3-2.1,4-4.2,5.3-6.7,0,0,0,0,0,0,.3-.6.3-1.2.2-1.9-.2-1.1-.8-1.4-1.7-.8-2.4,1.7-4.9,3.3-6.5,6-1.6,2-3.1,4.1-4.3,6.4-1.2,2.3-1.7,2.6-4.3,1.7-1.9-.7-3.3-.3-4.5,1.3-.6.8-1.1,1.7-2,2.2,0,.2,0,.5,0,.7-1.1,1.5-2.4,3-3.3,4.6-.9,1.6-1.8,3.3-1.2,5.3,1.3,3.8,3.7,6.9,6.1,10.8Z"/>
    <path class="cls-1" d="M458.1,100.8c-2.4-1.7-3.5-4.2-4.7-6.8,0-.1,0-.3-.2-.4h0s0,0,0,0c0,0,0,0,0,0-1.1-6.2-2.2-12.4-.1-18.7-2,2.2-4.9,3.6-5.3,7.2-.4,4.1-1.6,8.2,1.5,11.8,1.7,3.4,4.4,5.7,7.5,7.7.2.1.6.2.8.2.2,0,.4-.2.6-.3.2-.2,0-.4-.2-.6ZM453.2,95.4s0,0,0,0c0,0,0,0,0,0,0,0,0,0,0,0Z"/>
    <path class="cls-1" d="M605.9,80.6c-1.8-1-5.7-.4-6.6,1-.9,1.4-2,2.6-3.1,3.8-1.7,1.8-2.1,5.6-.8,7.8,2.2,3.8,6.6,4.4,9.1,1,1.3-1.8,2.8-3.5,4.2-5.2.6-.8.9-1.6.8-2.6-.1-2.6-1.4-4.5-3.6-5.7ZM602.6,91c-1.5-.4-3.9-3-4.1-4.6-.2-1.3.7-1.3,1.4-1.3,1.9,0,4.4,2,4.8,3.8.3,1.4-.7,2.5-2.1,2.1Z"/>
    <path class="cls-1" d="M585,90.4c1.8,1.4,4,1.1,5.7-.9,1.9-2.3,3.8-4.6,5.2-7.2h0c.1,0,.2,0,.3,0l1.3-3.2c.4-1.3.9-2.6,1-4,0-1.3.7-1.5,1.8-1.5,2-.1,3.8.3,5.6.9,1,.2,1.6,1,2.4,1.5.3.2.6.5,1,.4,0,0,0,0,0,0,.8.8,1.6,1.7,2.4,2.5,1,1,.7,0,.9-.5-.8-1-1.6-2-2.2-3.2-.1,0-.2,0-.4,0h0s0,0,0,0c-1.3-2.1-2.7-4.1-1.8-6.8.1-.4-.2-.5-.4-.6-2.1-1.2-7.3,0-8.9,2.1-.2.3-.6.7-1,.6-.4,0-.4-.5-.4-.9-.3-1.7-.9-3.3-1.7-4.8-1.2-2.4-1.3-2.4-3.1-.3-.4.4-.8.8-1.2,1.3-1,1-1.5,2-.3,3.3.6.7,1,1.6,1.4,2.4.6,1.3.7,2.5-.6,3.6-1,.9-2.2,1.8-2.8,3.1-2.1,1.5-3.4,3.7-4.9,5.7-1.6,2-1.2,4.9.8,6.4ZM588.9,81.2c1.4,0,2.8-.2,4.1-1,.7-.4,1,0,.9,1.6,0,.5-.2,1.5-.5,2.4-.6,1.7-1.6,2.2-3.4,1.7-1.4-.4-2.8-2.3-2.6-3.4.1-.9.7-1.2,1.5-1.2Z"/>
    <path class="cls-1" d="M640.8,109.6c-.8-1.9-.8-3.9-.8-5.9h0c-.1-1.2-.1-2.5-.6-3.6h0c0-1.5,0-3.1-.2-4.6-.5-5.6-1.6-11.2-1.6-16.9,0-1.3,0-2.6,0-3.9-2.8,2.2-6,1.7-8.8.9-1.8-.5-2.7-.4-3.8.8-.3.3-.7.7-1,1-3.3,2.7-6.5,5.5-9.1,8.8-.9,1.1-1.4,2.4-.9,4,.7,2,1.1,2.4,4.4,2.1,4.7-.4,7.9,1.8,10.6,5.2.5-1.2-.6-2.1-.6-3.2-.1-2.4-.7-4.8-1.4-7.1-.6-2.2-.6-4.4.4-6.5,1.7-.8,3.5-.3,5.2-.3.7,0,.8.6.8,1.2,0,4.1.7,8,1.4,12,.5,3,.4,6,.8,9,.3,1.9,0,3.8.4,5.6,1,3.6,1.1,7.3,2.1,10.9.7,2.7.8,5.6,1.8,8.1.9-1.2-.6-2.3,0-3.7.4-1.1.5-2.5,1.1-3.7.7-1.4.5-2.8.6-4.3.2-2-1.2-3.7-.7-5.7ZM624.8,87.3c-1.2-.1-2.4.2-4.1.3-.9.1-2.1,0-2.8-1.5-1.1-2.1-.8-2.8,1.5-3.6,1.4-.5,2.8-1.1,4.3-1.5,1.2-.2,1.8,0,2,1.4.2,1.2.6,2.4.5,3.6,0,.8-.1,1.4-1.3,1.3Z"/>
    <path class="cls-1" d="M343.2,138.6c-1.1-4.3-1.7-8.6-.9-13.1.8-4.7,1.3-9.5.7-14.5-.9-6.7-.9-13.5-1.6-20.3-.6-5.6-.3-11.2-.4-16.8,0-.4.3-1-.3-1.3-.5-.2-.9.3-1.2.6-2.5,3-5.5,2.4-8.5.9-1-.5-1.8-.3-2.6.3-1.9,1.4-3.5,3.2-5.1,4.9-1.5.9-2.8,2-3.5,3.6-.5.6-.9,1.2-1.4,1.8-1.3,1.4-1.5,3-1.1,4.7.3,1.2,1.2,1.8,2.3,1.6,3.6-.6,6.6.6,9.3,2.9.2,1.1,1.1,1.7,1.6,2.7.2.5.7,1,1.2.7.6-.3.3-.8.3-1.4-.1-2-.9-3.9-1.2-5.8-.5-2.8-.9-5.7-1.7-8.5-.3-1.2,0-1.1.8-1.2,1.3,0,2.7.4,3.8-.3,1.4-.8,1.5,0,1.6,1,.3,2.6.5,5.2.7,7.7.3,5.1.6,10.2,1,15.3.3,4,.7,7.9,1.2,11.9.3,2-.2,4,.9,5.9.6,4.4,1.1,8.9,1.8,13.3.2,1.2.6,2.4.8,3.6,0,.5.5.9,1,.7.5-.1.4-.5.3-1ZM327,87c-1.4-.3-2.8-.5-4.1-.8-1.6-.4-1.7-1.6-.6-3.8h0c1.4-.2,2.8-.5,4.1-.7.7-.1,1.2,0,1.3.9,0,1,.4,2.1.6,3.1.2,1-.2,1.5-1.3,1.3ZM331.4,96.3s0,0,0,0c0,0,0,0,0,0,0,0,0,0,0,0ZM337.1,95.7s0,0,0,0c0,0,0,0,0,0,0,0,0,0,0,0Z"/>
    <path class="cls-1" d="M259.3,76c-.2-.7-.9-.5-1.4-.5-1.6,0-3.1-.3-4.4-1.4-.9-.7-1.9-.6-2.7.2-3.1,3.3-6.6,6.3-9.5,9.8-1,1.2-1.3,2.5-1.5,3.7.3,2.9,1.6,6,5.2,5.5,2.1-.3,4.2.5,6.2,1.1,2.2.7,4.1,1.9,5.4,4,.3.5.8.7,1.4.5.5-.1.7-.5.7-.9,0-1.6.4-3.3-.1-4.7-.5-1.4-.5-2.7-.5-4.1-.1-2.5.2-4.9-.3-7.4-.3-1.4-.2-3,1.2-4,.6-.4.6-1.1.4-1.8ZM252.6,87c-1.4-.3-2.8-.5-4.1-.8-1.6-.4-1.7-1.6-.6-3.8h0c1.4-.2,2.8-.5,4.1-.7.7-.1,1.2,0,1.3.9,0,1,.4,2.1.6,3.1.2,1-.2,1.5-1.3,1.3Z"/>
  </g>
</svg>