<?xml version="1.0" encoding="UTF-8"?>
<svg id="Layer_1" data-name="Layer 1" xmlns="http://www.w3.org/2000/svg" version="1.1" viewBox="0 0 688 170">
  <defs>
    <style>
      .cls-1 {
        fill: #010101;
      }

      .cls-1, .cls-2, .cls-3 {
        stroke-width: 0px;
      }

      .cls-2 {
        fill: #191818;
      }

      .cls-3 {
        fill: #030303;
      }
    </style>
  </defs>
  <g>
    <path class="cls-1" d="M157.4,129.3c0-.4.4-.3.6-.5,1-.8,1.1-1.7.2-2.6-.3-.3-.7-.5-.6-1,0-.4,0-.8-.5-1s-1-.2-1.5,0c-.2.2-.3.5-.7.5,0,0-.2,0-.3,0v-.3c.2-.3.5-.5.7-.7.7-.7.7-2.1-.2-2.8-.9-.7-1.7-1.3-2.9-1.3s-2.2.4-2.7,1.5c-.3.7-.7,1.1-1.6,1.2-.6,0-1,.5-1.2,1.1-.5,1-.6,1-1.6.8-.7,0-1.3-.4-1.8-.9-.5-.4-1-.8-1.6-1-.8-.3-1.7-.5-2.5,0-.2,0-.4.2-.6.2-1.3,0-2,.9-2.4,1.9-.4.8-.8,1.7-1.3,2.4-.5.8-1.3,1.3-2.3,1.3s-2.2.5-3,1.5c-.6.8-1.3,1.4-2.2,1.9-.7.4-1.4.8-1.8,1.5s-.7,1.1-1.6.9c-.5-.1-.9.3-1.1.8-.3.6-.6,1.1-1,1.6-.3.5-.7.8-1.3.7-1.2-.2-2.4-.3-3.6-.3s-.8-.3-1.1-.5c-.4-.2-.8-.5-1.2-.6-.8-.2-1.5-.4-2.1-1.1-.5-.5-1.2-.5-2-.5s-1.3,0-1.9.7c-.5.6-1,.5-1.5,0-.2-.3-.4-.6-.6-.9-.5-.6-.9-1.2-1.6-1.5-1-.5-1.9-.6-2.8,0-.8.6-1.6.8-2.6.4-1.1-.4-1.9.4-2.5,1.1-.4.5-.7,1.1-.8,1.7,0,1.3-.8,2.3-1.6,3.1-.4.4-.6,1-1.3,1.2-.4-.5-.3-1.1-.2-1.6.2-.8,0-1.5-.5-2.1-1.4-1.7-3.2-2.5-5.2-1.6-.5.2-1,.5-1.2,1-.4.8-1.1,1-1.9,1s-2,0-2.9-.2c-1.4-.4-2.8-.3-4.1,0-1.1.2-1.9-.1-2.5-1.1-.3-.5-.7-.8-1.1-1.1-.7-.5-1.3-.5-1.9,0-.2.1-.3.3-.5.5-.3.2-.2.8-.7.6-.2,0-.2-.5-.3-.7-.5-.7-1.3-.9-2-.5-.3.2-.6.6-1.1.5-.3-.4,0-.8-.2-1.2,0-1.5-1.7-2.8-3.2-2.6-.4,0-.8.2-1.2.3-.3.1-.7.1-1,0-.4-.1-.6-.5-.4-.9,0-.1.2-.2.2-.3.3-1.4,0-2.6-1.7-2.7-.8,0-1.6-.2-2.4,0-.8.3-1.4,0-1.8-.7-.4-.7-.9-1-1.7-1.1-.9,0-1.1-.3-.8-1.1.5-1.5,0-2.6-1.1-3.6-.3-.3-.7-.5-1-.6-.9-.4-1.8-.3-2.5.6,0,.2-.3.3-.5.5-1.3-1.1-2.3-2.2-2.8-3.7-.3-.9-1-1.4-1.6-2-.3-.3-.8-.6-1.3-.5-.8,0-1.2-.4-1.6-.9-.8-1.1-1.7-2.2-2.7-3.1s-1.9-1.4-3.3-1.2c-.6,0-.7-.2-.5-.7.3-.7,0-1.3-.4-1.7-.4-.3-.7-.6-1.1-.9-.8-.6-1.5-.5-2.2,0-.6.5-1.1,1-1.6,1.6-.9,1-2,.8-3.1.7-.2,0-.3-.2-.4-.3-.2-.2-.4-.5-.5-.7-.6-1.9-2.2-2.9-3.8-3.8-.3-.2-.5-.4-.6-.8-.2-1.8-1.2-2.6-3-2.5h-.2c-.6,0-.9,0-1-.7-.2-.8-.6-1.4-1.2-1.8-.6-.5-.9-1-.9-1.8s-.3-1.2-.8-1.7c-.6-.7-1.2-.9-2.5-.9.2-.9,0-1.6-.4-2.5-.4-.8-.6-1.8-.1-2.7.3-.5.2-1-.2-1.4-.8-.8-.8-1.6-.4-2.6.2,0,.4,0,.5,0,.8.9,1.7.8,2.7.7.3,0,.7-.2,1-.3.8-.2,1.3-.8,1.3-1.6v-.9c0-.7-.1-1.5,0-2.2.1-.8,0-1.6-.4-2.3-.2-.3-.4-.7-.3-1.1,0-.9-.5-1.7-1.1-2.2-1.2-1-1.2-2.3-1.1-3.6,0-.8.4-1.7.8-2.4.4-.8,1-1.4,1.2-2.3.1-.5.6-.6,1.1-.6h4.2q.9,0,1.2-1c.2-.5.5-.9,1.1-1,.8-.2,1.1-.7,1.1-1.5s0-.7.2-1,.4-.8.4-1.1c-.1-1.4.9-2.2,1.8-3,.1,0,.3,0,.5,0,.8.5,1.8.7,2.7,1.1.9.4,1.8.8,2.6,1.3,1.2.7,2.5,1.2,3.9,1.2s2-.4,2.6-1.3c.5-.7,1.1-1.5,1.7-2.2.5-.7,1.1-.9,1.9-.7,1.1.3,2.1.2,2.9-.6.6-.5,1.3-.4,1.9,0,1.3.9,2.6,1.9,3.7,3.1.8.9,1.7,1.5,2.8,1.4,1.3,0,2.5-.3,3.6-1,.4-.3.9-.6,1.3-.9,1.2-.8,2.5-1.1,4-.9.5,0,1.1,0,1.6.2,2.6.6,4.6-.4,6.2-2.3,1.2-1.5,2.7-2.3,4.6-2.4.7,0,1.4-.2,2.1-.3,1.3-.2,2.5-.6,3.5-1.5,1.5-1.4,3.3-1.7,5.3-1.3.9.2,1.9,0,2.9.4,1,.3,2,.6,2.7,1.4,1.4,1.4,3.1,1.5,4.8,1.1,1.5-.3,2.9-.5,4.4-.7.4,0,.8,0,1.2,0,.5.2,1,.3,1.5.5.9.3,1.8.2,2.5-.3s1.4-.8,2.2-.7c.2,0,.4-.2.7-.2,1.3,0,2-1.6,1.7-2.7,0-.6-.5-.9-1.1-.8-.2,0-.5,0-.7.2h-.5c-.5-.4-.6-.8-.5-1.4,0-.5.3-.8.7-.9.5-.2,1.1-.4,1.6-.6.5-.2.9-.5,1.2-1,.3-.5.2-.9,0-1.5-.2-.5-.2-1,.3-1.5.9-.8.5-2.5-.6-3.1-.3-.2-.7-.4-1.1-.5-1.4-.3-2.6-1.1-3.8-1.7-1.7-.9-2.7-3.1-2.5-5,0-.8.5-1.4,1.4-1.5.3,0,.7,0,1-.2.8-.2,1.2-.6,1.3-1.4v-.5c0-.5.4-.7.8-.8h3.8c1.2,0,2.2-.3,3.1-.9.7-.5,1.3-.9,2-1.3,1.6-1,3.4-1.7,5.3-2.1.3,0,.6,0,.8.1.4.2.8.4,1.2.7.9.6,1.5.3,1.6-.8,0-.7,0-.8.8-.8s1.2,0,1.7.2c1,.4,1.9.2,2.8-.4.3-.2.6-.4.9-.6.3-.3.8-.4,1.1-.4,1,.1,2.1,0,3,.7.3.2.7.4,1.1.6.9.3,1.7.8,2.7.3.3-.2.7,0,1,0s.6.2.7.7c.2,1,.9,1.5,1.8,1.9.9.3,1.9.7,2.8,1,2.1.6,3.5.1,4.6-1.7.2-.3.4-.7.6-1.1.6-1.1,1.6-1.5,2.7-1.6.6,0,1,.2,1.5.4.7.4,1.3.6,2.1.6s1.8-.4,2.3-1.2c1.3-2,1-1.5,3.2-1.1,1.1.2,2,1,2.8,1.7,1.2,1.1,2.6,1.7,4.2,1.9,1.3.2,2.6,0,3.5-1,.1-.1.2-.3.4-.3.2-.1.4,0,.6.1.3.3.3.6.4,1,.3,1.4,1.2,2.4,2.6,2.8,2.3.6,4,2,5.5,3.8,1,1.2,2.1,2.1,3.5,2.8.4.2.8.3,1.3.3,1.1,0,1.3-.3,1.4-1.4v-.5c0-.4.3-.6.7-.5h.3c4.3,1.5,8.3,3.5,12.3,5.6,1,.6,1.7,1.4,2,2.7.3,1.4.6,2.8.4,4.2-.1.9.1,1.8.7,2.4.5.6.6,1.2.6,1.9v.9c-.2,1.3.4,2.3,1.2,3.3.3.3.5.6.8.9.5.8.9,1.6.9,2.6s.4,2.6,1.3,3.6c.7.7,1.1,1.6,1.4,2.6.3,1.3,1,2.4,1.9,3.5.5.6,1,1.3,1.5,1.9.3.4.5.9.5,1.4s.1,1.3.2,1.9c0,1,.2,1.9.9,2.7.3.4.4.9.5,1.4.2.8,0,1.1-.8,1.6-.2,0-.4.2-.6.4-1.2.8-1.7,1.9-1.4,3.3.5,1.9.6,3.8,1,5.7.3,1.5.3,3.1,0,4.6-.4,1.9-.4,3.8.5,5.5.4.8.3,1.6,0,2.5-.5,1.2-1.2,2.3-2.2,3.3-.2.3-.5.5-.7.8-1.7,1.5-2.8,3.4-3.1,5.6-.2,1.5-.9,2.7-1.9,3.8-.5.5-.7.9-.8,1.6,0,.6-.2,1.3-.7,1.7-.3.2-.3.6-.3,1v8.8c0,1.6.3,3.3.7,4.9.4,1.6.4,3.3.6,4.9.2,1,.2,2,.4,3,.1.8.2,1.6-.6,2.2,0,0-.2.2-.2.3-.2.5-.3,1,0,1.5.2.5.6.8,1.2.8s.5.1.5.4,0,.5-.3.6c-.7.2-1.2.7-1.5,1.3s-.5.5-.8.6c-1.4.3-2.7.7-4.1.6-1.1-.1-2,.2-2.7,1-.8.9-1.8,1.4-3,1.5-.7.1-1.3.5-1.9.8-.7.3-1,.2-1.5-.4,0,0-.1-.2-.2-.3-.5-.9-1.4-1.1-2.3-.8-.9.3-1.7.1-2.5-.3-.8-.5-1.7-.4-2.5.1-.2.2-.5.3-.7.5-1.6,1.4-3.4,1.2-5.3.9-.4,0-.6-.3-.6-.7.1-1.2-.2-2.4-.7-3.5-.4-.8-.5-1.7-.3-2.5.4-1.3-.2-2.1-1-2.9-.5-.5-1-.9-1.5-1.4s-.4-.9-.9-.9-.5.6-.9.8c0,0-.2.1-.3.1-.2,0-.2-.2-.3-.4,0-1.1-.2-2.2-.1-3.3,0-.8-.3-1.5-.9-2-.5-.4-.7-1.1-1.5-.9-.3,0-.5-.3-.7-.5-.2-.3-.3-.6-.5-.9-.2-.3-.4-.6-.6-.8-.6-.5-1.3-1.1-2.2-.7-.9.4-1.6.9-1.6,2s-.5,1-1.2.6c-.2-.1-.4-.4-.7-.6-.4-.3-.9-.5-1.4-.2-.3.1-.7.2-.9-.2-.6-1-1.4-1-2.4-.7-.2,0-.3,0-.4-.1h0l.2.5ZM147.2,31.2c-3.2,13.7-9,25.9-19.3,35.5,1.7,2.5,3.1,5,4.3,7.6,2.7,5.8,4.5,11.8,5.7,18.1.9,4.7,1.4,9.3,1.6,14v1c0,.2.2.3.4.3h.5c4.7-.7,9.5-.8,14.2,0h1c.1,0,.3-.2.3-.3v-.5c0-3,.2-6,.4-9,.2-2.4.6-4.8,1-7.2.5-2.6,1.1-5.2,1.9-7.7,1-3.4,2.2-6.8,3.8-10,1-2,2-3.9,3.2-5.7.5-.7.5-.8-.1-1.3-3.2-2.9-5.9-6.2-8.3-9.8-2.9-4.2-5.1-8.8-7-13.5-1-2.7-2-5.4-2.6-8.2-.2-1.1-.4-2.2-1.1-3.5h0v.2ZM147.5,108.5h-1.6c-2.5,0-4.8.5-7.2,1.1-1,.3-1.4.8-1.5,1.7,0,.6,0,1.1.4,1.6.2.3.5.5.9.4.6-.2,1.2-.4,1.8-.6,5.1-1.3,10.2-1.2,15.3,0,.5,0,1,.3,1.5.5.4,0,.7,0,.8-.4.4-1.4.4-2.8-1.6-3.3-3-.6-5.9-1.2-8.8-1.1h0ZM147.6,116.1c1,0,2.1,0,3.1.2,1,0,2.1.3,3.1.6,1,.2,2,.5,3,.8.4,0,.7,0,.9-.2.7-1,.6-3-1.1-3.3h-.2c-5.9-2-11.8-1.8-17.7,0-1.2.4-1.8,1.4-1.4,2.5.4.9.9,1.3,1.7.9.3,0,.5-.2.8-.3,2.5-.8,5-1.3,7.7-1.2h0Z"/>
    <path class="cls-2" d="M148.7,87.8v14.5c0,.3-.3.5-.6.5s-.6,0-.6-.5v-1.2c0-8.9-.1-17.7-.2-26.6v-1c0-.5-.1-.9-.6-1.1-.6-.3-1-.9-1.3-1.6-.3-.9.2-2.1,1.1-2.7.8-.6,2-.6,2.8,0,1.3,1.1,1.8,2.8.1,4.1-.7.5-.9,1.1-.9,1.9v13.8h.2Z"/>
  </g>
  <g>
    <path class="cls-1" d="M517.4,91.4c-4-3.5-6.7-8.2-10.1-12.2-.7-.9-1-.8-1.7,0-.8.8-1.7,1.6-2.6,2.4-.7.7-.9,1.4-.1,2.3,3.3,3.7,5.9,8,9.5,11.6,4,4,8.7,6.5,14.3,7.2,3.7.5,7.2-.8,10.3-2.9,1.5-1,2.8-2.2,3.7-3.8-2,.7-3.9,1.6-5.9,1.8-6.9.9-12.5-1.9-17.5-6.3h.1Z"/>
    <path class="cls-1" d="M653.1,56.2c0-1.2.9-3.2,0-3.5-1.1-.4-1.9,1.5-3,2.3-.7.5-1.6,1.1-1.6,2.2,0,2.8-.4,5.6.6,8.3.4,1.1,0,1.4-1.2,1.1-1-.2-1.7-1-2.8-1-1.7,0-1.9-.7-.9-2,.3-.5.4-1,.4-1.5v-3.9h0v-4.1c0-.4,0-.8-.3-.9-.2,0-.5.2-.7.4-2.3,2.1-4.4,4.1-3.4,7.8.7,2.8,1,5.7-1.7,7.9-.7.6-.4,1.3.7,1.3s1.8,0,2.6.3c2.7,1.2,5.3,2.6,7.4,4.6.2.2.4.6.8.5,1.2-.2,5.4-4.2,5.5-5.4,0-.2,0-.5-.2-.7-1.5-4.4-1.9-9-2.4-13.6h.3Z"/>
    <path class="cls-1" d="M396.2,60.5c0,.3-.1.6-.2.9-1,5.8-.2,11.3,2.9,16.3.2.3.3.7.7.6.6,0,.4-.5.3-.8-.3-.8.3-1.3.8-1.8,1.7-1.6,2.1-3.4,1.2-5.1-2.4-4.7-2.7-9.5-1.6-14.5.4-1.7.8-3.4,1.1-5.1-.2-.2-.4-.3-.7-.5-.5.6-1,1.2-1.5,1.9-.9,1.2-2,1.3-3.1.5-1-.8-1.5-.4-2.2.3-1.9,1.9-3.3,4.2-5.2,6-3.4,3.3-2.9,7.2-2.3,11.2,0,.7.5.9,1.2.7,1.7-.7,3.2-3.8,2.9-5.7-.3-1.8-.8-3.7,0-5.4.7-1.4,2.5-.7,3.7-1.2,2-.7,2.2-.4,1.9,1.7h.1Z"/>
    <path class="cls-1" d="M481.8,58.3c.4,0,.6.4.6.7v1.8c-.8,4.4.1,8.5,1.7,12.6.4,1.1.8,2.4,2.6,3.2-1.6-1.9-.7-3,.1-4.3,1-1.7,1.9-3.3.9-5.4-.7-1.5-1-3.3-1.1-5-.3-3.5,0-7,1.2-10.5-.9,0-1.3.7-1.8,1.1-.8.7-1.8.9-2.6.3-1.4-1.2-2.3-.5-3.2.6-.4.5-.8.8-1.2,1.3-1.6,1.7-3.6,3.2-4.8,5.2-1.7,2.8-1.4,6-.5,9.1.4,1.2,1.2.9,1.9.2,1.7-2,2.8-4,2.2-6.9-.7-3,1.1-4.6,4.1-4h-.1Z"/>
    <path class="cls-1" d="M474.2,46.5c1.6-.5,3-1.3,4.3-2.3.9-.7.8-1.2,0-1.9-.9-.7-2.1-.7-3-1.3-.5-.4-1.4-.7-.9-1.6.4-.8,1-1.4,2-1.1,2.6,1,5.2,1.9,7,4.1,1.9,2.2,3.3,4.8,4.8,7.2.1,0,.3,0,.4,0-.8-1.9-1.4-3.9-2.6-5.6-1.6-2.4-1.9-4.6-.5-7.1.4-.8.1-1.3-.4-1.6-1.9-1.1-3.9-2-6-2.4-1.7-.4-3.2.2-4.5,1.7-1.9,2.2-2.8,4.9-4.7,7.1-.9,1-.7,2.4.2,3.5,1,1.2,2.3,2,3.9,1.5h0Z"/>
    <path class="cls-1" d="M514.5,64.2c-1.2,1.3-2.9,2.4-3.2,4.3-.4,1.9.9,4.1,2.5,4.9,1.5.7,4.7.2,5.8-.8,1.6-1.4,2.4-3.4,3.8-5,1.4-1.7,1.8-3.6,1.6-5.8-.2-2.1-.9-4.2-.9-6.3s.3-2,0-3.1c-.9.8-1.5,1.5-2.2,2.1-1.7,1.6-2.5,3.4-2,5.9.5,2.1.7,4.3.9,6.5.2,1.8-.7,2.4-2.4,1.7-1.6-.6-2.8-1.5-2.9-3.4,0-.5-.4-1.6-1-.9h.1Z"/>
    <path class="cls-1" d="M281.7,44.4c1.6-.7,3.2-1.5,4.2-3.1.3-.5.8-.9.5-1.6-.4-.8-.9,0-1.4,0-1.2,0-2.5-.9-2.3-1.7.4-1.5,2.5-2.4,3.8-1.7,1.3.8,2.6,1.7,3.8,2.5,3.4,3.4,5.8,7.6,9.1,11.1-1.7-3.2-3.2-6.5-5.6-9.3-1.8-2.1-1.7-2.2-.1-4.5.2-.4.7-.6.6-1.2.6-.6.4-1.1-.3-1.6-.9-.6-1.8-1.3-2.7-1.9-4.3-2.8-7.3-2.2-10.1,2-.4.6-.8,1.3.3,1.4,1.7.2,1.2.9.5,1.7-1.1,1.3-2.2,2.5-3.2,3.8-1,1.3-.4,2.6.5,3.7.7.9,1.7.7,2.4.4h0Z"/>
    <path class="cls-1" d="M669,78.5c-3.3-3-4.3-6.5-2.9-10.8.2-.7,0-1.4-.4-2-.7-1.4-1.3-2.7-1.5-4.3-.3-2.6,0-5,.9-7.4,0-.3.2-.6,0-.8-.2-.2-.4,0-.6,0-2.3,1.9-4.3,3.9-4.7,7.1-1.1,8.3,3,14.1,9.6,19.1-.2-.7-.2-.9-.3-1h0Z"/>
    <path class="cls-1" d="M569.4,57.2c-1.1,3.7-1.6,7.5.5,11.3,2.2,4,4.8,7.4,8.8,9.5-1.1-1.5-2.3-3-3.6-4.3-1.4-1.5-1.6-3.2-.9-5.1.5-1.4.5-2.9,0-4.3-1.3-4-2.2-7.9,0-11.9-2.1,1.1-4.2,2.7-4.9,4.8h.1Z"/>
    <path class="cls-1" d="M500.2,75.1c-1.7-1.6-2.8-3.5-2.9-5.8,0-1,0-2,.2-3,.3-2.2-.6-4.2-.8-6.2-.2-2.7-.3-5.4.3-8.1-1.3,1.2-2.5,2.4-3.8,3.5-.4.4-.5.9-.6,1.4-.7,3.9-.8,7.8.9,11.6,1.6,3.6,4.3,6.1,7.4,8.3h.9c-.7-.7-1.1-1.2-1.6-1.7Z"/>
    <path class="cls-1" d="M384.9,79.3v-.9c-1-2.7-1.7-5.4-1.9-8.4,0-1.6-.1-3.3-.7-4.9-.8-2.4-.6-4.6,0-7,.3-1.4.6-2.8,1.2-4.6-8.2,5.9-7.5,19.4,1.4,25.7h0Z"/>
    <path class="cls-1" d="M256.9,41.4c2,0,4,.7,5.8.4,3-.4,5.4-2.2,6.8-5,.2-.4.5-.7.1-1.1-.3-.3-.7,0-1,0-2.1,1.2-4.2.6-6.4.2-1.8-.3-3.6-.5-5.4.2-2.7,1-3,3.7-4.3,5.7,1.4-.8,2.8-.7,4.2-.6h.2Z"/>
    <path class="cls-1" d="M374.5,108.4c0,2,.9,3.8.8,5.7,0,.7.7.9,1.5,1.2-.9-3.1-.4-6.2-.6-9.2-.2-2.1.2-4.4.5-6.5.4-2.8,1.2-5.6,1.4-8.5.5-6.9-1.7-13.1-4.9-19-1.3-2.5-3.2-4.6-6-5.7-.7-1.1.4-1.3,1-1.8,2.1-2,4.2-3.9,4.3-7.1,0-1.6-1-3.2-.4-5-1,.9-2,1.9-3,2.8-.3,0-.5,0-.7.4-1.1,1.7-1.4,3.5-.8,5.4.3,1.1,0,2-1,2.4-3.1,1.2-5.5,3.3-7.6,5.7-.3.4-.6.7-.4,1.2s.6.4,1,.5c1.6,0,3.1.5,4.4,1.4,5.4,3.8,7.4,9.5,9,15.5,1.8,6.7,1.6,13.6,1.8,20.4l-.3.2ZM368.4,56.8h0Z"/>
    <path class="cls-1" d="M583,35c1.6-.2,3.4-.5,4.8.4,2.9,1.9,5,4.5,6.4,7.7,0,.3,0,.8.6.7.4,0,.3-.5.3-.7-.4-1.4,0-2.8-1.4-4.3-1.8-1.9-2.1-5-2.7-7.4.5-1.3,0-2.2-.9-2.5-1.4-.3-2.7-.3-4.1.3-2.2.9-2.7,2.9-3.8,4.6-.2.3-.6.7-.4,1.1.3.6.8.2,1.3.2h0Z"/>
    <path class="cls-1" d="M437.3,66.7c-.4-3.4-.8-6.9-.5-10.4.1-1.1,1.1-1.9.6-3.1-1.2.6-2.1,1.5-2.9,2.6-.2.2-.5.5-.7.7-1.6,1.4-1.6,3.3-1.8,5.1-.2,2.9.2,5.7.5,8.6.7,6.1,2.3,12,3.7,18,1.4,5.9,1.6,11.7.7,17.7-.2,1.7-.6,3.5.2,5.1.5-1.8,1-3.5,1.1-5.3.1-3.5.8-6.9.8-10.4s.1-8.2.2-12.3c0-1.6.1-3.2,0-4.8-.1-3.9-1.6-7.7-2.1-11.5h.2ZM436.9,54.7h0ZM439,81.5v-2.9c.2,1,.2,2,0,2.9Z"/>
    <path class="cls-1" d="M240.4,41.2c2.1-.3,3.8.3,5.3,1.7,2.5,2.2,4.2,4.8,5.7,7.8-.2-1.6.1-3.4-1-4.8-.6-.7-1.1-1.3-1.3-2.2-.6-1.8-.9-3.6-1.9-5.2-.2-.4-.3-.9,0-1.2,1.1-1.4-.1-1.8-1-2.1-1.4-.4-2.7-.4-4.2.4-1.6.8-2.3,2.1-3.1,3.6-.3.6-1.1,1.2-.7,1.9.4.7,1.4.3,2.1.2h0Z"/>
    <path class="cls-1" d="M542.4,94.1c1.6-1.3,2.8-2.8,4-4.4,2.1-3,1.9-6.1,0-9.1-1-1.7-1.2-1.7-2.7-.3-.5.5-1,1-1.6,1.4-1.3.9-1.7,1.9-.4,3.2.3.3.5.8.7,1.2,1,2.6,1.4,5.3,0,8Z"/>
    <path class="cls-1" d="M311,76.8h0c0,0,.2.3.3.4.5.4,1.1.8,1.6.3.6-.7-.5-.6-.7-1-1.6-2.6-3.5-5.2-2.1-8.6.3-.6.2-1.3,0-1.9-1-1.9-1.3-3.9-1.3-6.1s.3-4.3,1.3-6.3c.2-.3.2-.7,0-1-.3-.3-.5,0-.7,0-1.3,1.5-3.1,2.8-3.8,4.6-1.6,4.2-2,8.7-.2,13.1,1.1,2.7,3.1,4.9,5.7,6.4h0Z"/>
    <path class="cls-1" d="M604.9,35.3c3.8.3,8.2-2.7,8.7-6.4-1.9.8-3.7,1.8-5.9,1-.9-.3-2-.4-3-.4s-2.9-.2-4.3.4c-2.5,1.2-2.9,3.8-4.3,5.7,2.9-1.2,5.9-.6,8.8-.4h0Z"/>
    <path class="cls-1" d="M302.2,82.6c-.7-.5-1,.5-1.3.9-2.1,2.6-3.5,5.8-5.9,8.2-2.1,2.3-4.2,4.7-6.3,6.9-.9.9-1.6,2.3-3.2,2.2,0,0-.1,0-.1.2h0l.2-.2c-1.6-1.5-3.6-2-5.8-2s-2.6-.8-4.4-1c3-1.9,5.6-3.6,7.6-6.1.6-.5,1.3-.9,1.9-1.5,2.1-2.2,4.1-4.4,5.6-7.1,3.8-5.5,6.7-11.5,8.2-18.1.9-4.3.6-8.5.3-12.8,0,0-.2,0-.3-.2-1,.7-1.8,1.8-3.3,1.7-1.7,0-3.2-.4-4.4-1.6-.9-.9-1.7-.8-2.5,0-1.2,1.3-2.4,2.5-3.7,3.8-1.7,1.1-2.9,2.7-4.3,4.1-.4.4-.7,1-.3,1.4.5.6,1-.2,1.3-.4,1.3-1,2.6-1.8,4.2-2.1.9,0,1.2.2,1.1,1-.4,3-.9,6-2.2,8.7-1.4,2.9-4.4,4.5-6.2,7.1-.2.3-.8.3-.9,0-.5-1.3-1.6-2.2-1.9-3.7-.7-3.3-.4-6.7-.8-10-.3-2.8.2-5.5,1-8.2.2-.5,1-1,.4-1.5-.8-.6-1.2.4-1.7.8-.3.3-.8.6-.7,1.1-2.3,1.5-2.7,3.9-3.2,6.2-1.3,5.6,0,10.6,4,14.8.8,1.6,2.4,2.3,3.9,3,.6.3,1.2,0,.8-.7-.4-1,.3-1.5.8-1.9,1-.8,2-1.7,2.7-2.7,1.2-1.7,3.1-3,3.7-5.1.1-.3.3-.7.4-1,1.1-1,1.4-2.5,2.1-3.7,1.1-1.8,1.2-4.3,3.7-5.3,1.2-.4,1.3-.2,1.4.8.3,5.2.3,10.4-1.4,15.6-2.1,6.4-4.9,12.2-10.1,16.7-2,1.3-4,2.6-6,3.9-3.4,1.9-6.9,3.8-10.8,4.7-.4,0-.8.5-1.1,0-.3-.4-.3-1,0-1.3,1-1.3.7-2.8.7-4.3v-.3c.4-2.2.7-4.4,1.1-6.6,1.2-5.7.7-11.5-.5-17.3-1.1-5.5-2.9-11.1-.5-16.8.1-.3.3-.8,0-1s-.7,0-1,.3c-.7.8-1.4,1.6-2.1,2.4-2.4,1.6-2.4,4.2-2.7,6.6-.5,4,.4,7.9,1.3,11.7,1.3,5.8,3,11.5,3.3,17.5.2,4.5.2,9.1-2.9,12.9h0c-1.1,1.2-1.2,1.7-.5,1.7,1.3,0,1.3.9,1.6,2.1.4-1.6.6-2.6,2.1-3.1,2.4-.8,4.8-.7,7.2-.8,3.6,0,7.1.9,10.3,2.7,1,.6,1.5.1,2.1-.5,3.8-4.3,8-8.2,11.3-12.9.3,0,.5,0,.7-.4,1.9-2.8,3.9-5.5,5.8-8.3.3-.5,1-1.1.3-1.5v.2ZM285,69h0q0,0-.1.2s0-.2.1-.3h0ZM261.4,103.8h0Z"/>
    <path class="cls-1" d="M340.7,70.6c2.7-.7,4.9.5,7.2,1.6h0c1.2,1.3,2.7,2.1,4.1,3,.6.4,1.6.9,2.2,0,1.5-2.2,3.3-3.9,2.8-7.3-.8-4.8-1.7-9.7-.5-14.6,0-.3.1-.8-.2-1-.4-.2-.8,0-1.1.2-3,2.2-4.6,5-4.2,8.8.1,1.4.7,3.4,0,4-1,1-2.6-.8-4-.7,0,0-.1-.2-.3-.4,2.6-2.9,1.8-6.3,1.5-9.7v-1.6c0-.5-.3-.8-.8-.5-1.7,1.2-3.3,2.4-4.6,4-.4.5,0,1,0,1.5.5,3.3,1.8,6.8-1.2,9.7h0l-1.5,1.5c-.2.2-.6.5-.4.9s.7.5,1.1.4v.2ZM341.6,68h0Z"/>
    <path class="cls-1" d="M503.4,65.6c1,.7,2.1,1,3.2,1.3,2,.7,4.4-.5,4.9-2.6,0-.6.2-1.2.8-1.5,1.5-1,2.1-2.8,3.1-4.2.5-.8,1-1.7.9-3.1-.3-1.4-.4-3.2-1.3-4.7-.2-.4-.4-1.1-1-.4-1,1.2-2.5,1.7-3.5,2.7-2.8,2.6-5.6,5.4-7.9,8.5-1.1,1.5-.7,3.1.8,4.1h0ZM506.6,59.3c.1-1.1,2.2-1.2,3.5-1.4.7,0,1.4-.2,1.7.6.3,1,.6,2,0,2.9-.4.8-1.3.5-1.9.3-1.3-.6-3.4-.8-3.3-2.4Z"/>
    <path class="cls-1" d="M544,65.6c-1-2.2-2.3-2.5-4-.8-1.2,1.2-2.4,2.4-.8,4.1.2.2.3.6,0,.8-.3.4-.6,0-.9,0-1.3-.2-2.4-1.3-3.8-.8-.3-2,1.5-2.4,2.6-3.2.8-.6,1.7-1.1,2-1.9.4-1.3,1.2-2.2,2-3,2.1-2,2.3-4.5,2.4-7.1,0-.5,0-1.6-1-1.2-.9.5-1.3,0-1.8-.3-.5-.4-1-.3-1.6,0-3,2.5-5.8,5.2-8.4,8.1-1.7,1.8-1.1,3.7,1.2,4.8.8.4,2.2.4,2.1,1.1,0,1-1.6,1.2-2.5,1.7-.2,0-.5,0-.7.2-1.1.6-2.6.5-3.3,1.8-.7.7-1.5,1.5-2.2,2.2-.3.3-.9.7-.7,1.1.2.6.9.4,1.4.3,3.7-.3,7.3,0,10.5,2.3.9.7,1.8,1.3,2.7,2,.7.5,1.2.5,1.6-.4.5-1.1,1.3-2.1,2.1-3,2.1-2.7,2.6-5.6,1.1-8.9h0ZM534.7,58.7c.2-1.2,1.5-.5,2.1-.8,1,0,1.9-.2,2.2,1,.2.6.4,1.3-.2,1.8-.5.4-1.1.2-1.7,0-.3,0-.5-.3-.8-.4-.8-.4-1.9-.7-1.7-1.7h.1Z"/>
    <path class="cls-1" d="M438.3,34.1c-2.4,2.1-5.3,1.9-8,1.1-2.6-.8-5.4-.4-7.2,1.9-1.3,1.7-2.4,3.6-3.4,5.5-.2.4-.4,1-1.1,1.1-.2,0-.4-.2-.5-.5-.5-2.1-1.9-4-1.5-6.4.2-1.1-.4-1.8-1.5-2-.7-.2-1.5-.5-2.2-.5-1.8,0-3.7.6-4.6,1.8-1.2,1.6-2.1,3.6-3.2,5.4-.3.5-.3.9.1,1.3s.7,0,1.1,0c1.8-.3,3.5-1.6,5.5-.2,2.7,1.9,5.2,4,6.3,7.3.2.7,1.2,1.4.4,2.1-.8.6-1.3-.5-1.9-.8s-1.1-.6-1.6-.2c-.9.6-2,1-2.9,1.6-1.6,1.2-2.7,2.8-4.3,3.9-3.1,2-4.8,5.3-6.2,8.7-.2.4,0,.7.3.9.7.4.7,1.1.6,1.7,0,1.3.7,1.7,1.7,1.8h1.8c2.6,0,5.2,0,7.4,1.9,1.1,1,1.5,2.5,2.6,3.4h0c0,.8,0,1.7,1,1.7s1-1.1,1.1-1.9c.2-1.1-.2-2.1-.7-3-1-1.7-.6-3.7-1.3-5.6-.7-2-1.5-4.2-1.2-6.5.1-1,.7-1.3,1.4-1.1,1.4.4,3.2-1,4.3.8v.4c0,7.3,0,14.6.6,21.8.3,2.9.5,5.8,1,8.7.7,3.9.6,7.9,1.5,11.8.6,2.5,1.1,4.9,1.8,7.4.2,1,.4,2.2,1.6,2.8.5.6,1,1.2,1.4,1.8-.7-2.3-.9-4.7-1.6-7-.8-2.9-1.2-5.8-.1-8.8.9-2.5,1.6-5.1,1.1-7.8-.6-4.1-.9-8.2-1.1-12.3-.6-8.5-1.1-17.1-.9-25.7,0-.7.5-1.7-.3-2.1s-1.1.9-1.8,1.1c-.2,0-.5,0-.7.2-2,.8-2.5.4-2.5-1.7v-4.3c0-2.2.8-2.8,3-2.7.6,0,1.2,0,1.7-.2,1.4-.2,2.9-.3,4.2,0,1.4.3,2.5,0,3.7-.5,3-1.3,4.8-3.6,6.2-6.5.3-.7,1.1-1.4.3-2-.6-.5-1.2.3-1.6.7l.2-.2ZM413.2,62.5c0,.2-.3.3-.4.3-1.5,0-3.1-.2-4.4-1.1-1.1-.7-.3-1.8-.4-2.8v-.2h0c1.1.7,2.1,0,3.2,0,.6,0,1.3-.3,1.5.5.2,1.1,1.1,2.2.5,3.4h0Z"/>
    <path class="cls-1" d="M458.8,74c1.9.7,3.9.3,5.7.6,2,.4,2.6-.7,3.1-2.2h0c1.7-1.6,2-2.7,1.3-4.8-.4-1.3-.7-2.7-.9-4.1-.5-3.6-1.3-7.2-.3-10.9,0-.3,0-.8-.3-.9-.2,0-.5,0-.6.2-1.3,1.3-2.7,2.5-3.8,3.9-.5.6-1,1.4-.9,2.4.3,3.3.6,6.7.9,10.2-2.2-1.4-4.4-2.5-4.8-5.4-.5-3.1-.6-6.1.1-9.1.1-.4.2-.8-.1-1.2-.2-.3-.6-.3-.8,0-1.9,1.8-4.5,3.1-4.6,6.3,0,2.4,0,4.8.3,7.2.4,3.7,2.3,6.4,5.8,7.7h-.1Z"/>
    <path class="cls-1" d="M554.1,77.2c0-2.1.2-3.7.5-5.3,0-.3,0-.7-.5-.7s-.7-.4-.7-.8c0-2-1.2-3.9-.6-6,.2-.8-.2-1.6-.6-2.3-.5-.8-.5-1.8-.3-2.6.3-1.4,1.5-1.6,2.8-1.6s1.5.7,1.5,1.7c0,2.1.9,4.2-.2,6.3,0,.2,0,.6.2.8,1.2,2,1.6,4.3,2,6.5.6,2.3,1.3,4.6,1.8,7,.4,1.8,1.2,3.5,1.1,5.4v.2c0,2.6.9,5.2,1,7.8,0,4.2-.3,8.4-.2,12.6,0,.2,0,.5-.2.7-.8,2.5-.4,5-.5,7.6,0,.3,0,.6.4.7.4.1.7-.1.9-.4.2-.3.4-.6.3-1-.4-2.5.2-4.9.2-7.4v-.2h.3c.4-.4.3-.9.4-1.4.3-1.5,0-3.1.3-4.6.4-3.2,1.4-6.3,2.8-9.2.3-.7.4-1.3.3-2-.3-2.4-.6-4.8-.9-7.1,0-.5,0-1.1,0-1.6-.9-4.2-2-8.5-3.1-12.7-1.3-4.7-2.8-9.5.4-14.1.2-.3.3-.8.5-1.1,1.4-3.1,3.3-5.8,6.1-7.7.3-.2.7-.7,1.1-.3.4.3.3.9,0,1.3-.4.6-.7,1.2-.7,2.2,2.3-2.1,4-4.2,5.3-6.7h0c.3-.6.3-1.2.2-1.9-.2-1.1-.8-1.4-1.7-.8-2.4,1.7-4.9,3.3-6.5,6-1.6,2-3.1,4.1-4.3,6.4s-1.7,2.6-4.3,1.7c-1.9-.7-3.3-.3-4.5,1.3-.6.8-1.1,1.7-2,2.2v.7c-1.1,1.5-2.4,3-3.3,4.6-.9,1.6-1.8,3.3-1.2,5.3,1.3,3.8,3.7,6.9,6.1,10.8l-.2-.3Z"/>
    <path class="cls-1" d="M454,78.3c-2.4-1.7-3.5-4.2-4.7-6.8,0,0,0-.3-.2-.4h0c-1.1-6.2-2.2-12.4-.1-18.7-2,2.2-4.9,3.6-5.3,7.2-.4,4.1-1.6,8.2,1.5,11.8,1.7,3.4,4.4,5.7,7.5,7.7.2,0,.6.2.8.2s.4-.2.6-.3c.2-.2,0-.4-.2-.6h.1ZM449.1,72.9h0Z"/>
    <path class="cls-1" d="M601.8,58.1c-1.8-1-5.7-.4-6.6,1-.9,1.4-2,2.6-3.1,3.8-1.7,1.8-2.1,5.6-.8,7.8,2.2,3.8,6.6,4.4,9.1,1,1.3-1.8,2.8-3.5,4.2-5.2.6-.8.9-1.6.8-2.6,0-2.6-1.4-4.5-3.6-5.7h0ZM598.5,68.5c-1.5-.4-3.9-3-4.1-4.6-.2-1.3.7-1.3,1.4-1.3,1.9,0,4.4,2,4.8,3.8.3,1.4-.7,2.5-2.1,2.1h0Z"/>
    <path class="cls-1" d="M580.9,67.9c1.8,1.4,4,1.1,5.7-.9,1.9-2.3,3.8-4.6,5.2-7.2h.3l1.3-3.2c.4-1.3.9-2.6,1-4,0-1.3.7-1.5,1.8-1.5,2,0,3.8.3,5.6.9,1,.2,1.6,1,2.4,1.5.3.2.6.5,1,.4h0c.8.8,1.6,1.7,2.4,2.5,1,1,.7,0,.9-.5-.8-1-1.6-2-2.2-3.2h-.4c-1.3-2.1-2.7-4.1-1.8-6.8,0-.4-.2-.5-.4-.6-2.1-1.2-7.3,0-8.9,2.1-.2.3-.6.7-1,.6-.4,0-.4-.5-.4-.9-.3-1.7-.9-3.3-1.7-4.8-1.2-2.4-1.3-2.4-3.1-.3-.4.4-.8.8-1.2,1.3-1,1-1.5,2-.3,3.3.6.7,1,1.6,1.4,2.4.6,1.3.7,2.5-.6,3.6-1,.9-2.2,1.8-2.8,3.1-2.1,1.5-3.4,3.7-4.9,5.7-1.6,2-1.2,4.9.8,6.4h0ZM584.8,58.7c1.4,0,2.8-.2,4.1-1,.7-.4,1,0,.9,1.6,0,.5-.2,1.5-.5,2.4-.6,1.7-1.6,2.2-3.4,1.7-1.4-.4-2.8-2.3-2.6-3.4,0-.9.7-1.2,1.5-1.2h0Z"/>
    <path class="cls-1" d="M636.7,87.1c-.8-1.9-.8-3.9-.8-5.9h0c0-1.2,0-2.5-.6-3.6h0c0-1.5,0-3.1-.2-4.6-.5-5.6-1.6-11.2-1.6-16.9v-3.9c-2.8,2.2-6,1.7-8.8.9-1.8-.5-2.7-.4-3.8.8-.3.3-.7.7-1,1-3.3,2.7-6.5,5.5-9.1,8.8-.9,1.1-1.4,2.4-.9,4,.7,2,1.1,2.4,4.4,2.1,4.7-.4,7.9,1.8,10.6,5.2.5-1.2-.6-2.1-.6-3.2,0-2.4-.7-4.8-1.4-7.1-.6-2.2-.6-4.4.4-6.5,1.7-.8,3.5-.3,5.2-.3s.8.6.8,1.2c0,4.1.7,8,1.4,12,.5,3,.4,6,.8,9,.3,1.9,0,3.8.4,5.6,1,3.6,1.1,7.3,2.1,10.9.7,2.7.8,5.6,1.8,8.1.9-1.2-.6-2.3,0-3.7.4-1.1.5-2.5,1.1-3.7.7-1.4.5-2.8.6-4.3.2-2-1.2-3.7-.7-5.7v-.2ZM620.7,64.8c-1.2,0-2.4.2-4.1.3-.9,0-2.1,0-2.8-1.5-1.1-2.1-.8-2.8,1.5-3.6,1.4-.5,2.8-1.1,4.3-1.5,1.2-.2,1.8,0,2,1.4.2,1.2.6,2.4.5,3.6,0,.8,0,1.4-1.3,1.3h-.1Z"/>
    <path class="cls-1" d="M339.1,116.1c-1.1-4.3-1.7-8.6-.9-13.1.8-4.7,1.3-9.5.7-14.5-.9-6.7-.9-13.5-1.6-20.3-.6-5.6-.3-11.2-.4-16.8,0-.4.3-1-.3-1.3-.5-.2-.9.3-1.2.6-2.5,3-5.5,2.4-8.5.9s-1.8-.3-2.6.3c-1.9,1.4-3.5,3.2-5.1,4.9-1.5.9-2.8,2-3.5,3.6-.5.6-.9,1.2-1.4,1.8-1.3,1.4-1.5,3-1.1,4.7.3,1.2,1.2,1.8,2.3,1.6,3.6-.6,6.6.6,9.3,2.9.2,1.1,1.1,1.7,1.6,2.7.2.5.7,1,1.2.7.6-.3.3-.8.3-1.4-.1-2-.9-3.9-1.2-5.8-.5-2.8-.9-5.7-1.7-8.5-.3-1.2,0-1.1.8-1.2,1.3,0,2.7.4,3.8-.3,1.4-.8,1.5,0,1.6,1,.3,2.6.5,5.2.7,7.7.3,5.1.6,10.2,1,15.3.3,4,.7,7.9,1.2,11.9.3,2-.2,4,.9,5.9.6,4.4,1.1,8.9,1.8,13.3.2,1.2.6,2.4.8,3.6,0,.5.5.9,1,.7.5-.1.4-.5.3-1h.2ZM322.9,64.5c-1.4-.3-2.8-.5-4.1-.8-1.6-.4-1.7-1.6-.6-3.8h0c1.4-.2,2.8-.5,4.1-.7.7,0,1.2,0,1.3.9,0,1,.4,2.1.6,3.1s-.2,1.5-1.3,1.3ZM327.3,73.8h0ZM333,73.2h0Z"/>
    <path class="cls-1" d="M255.2,53.5c-.2-.7-.9-.5-1.4-.5-1.6,0-3.1-.3-4.4-1.4-.9-.7-1.9-.6-2.7.2-3.1,3.3-6.6,6.3-9.5,9.8-1,1.2-1.3,2.5-1.5,3.7.3,2.9,1.6,6,5.2,5.5,2.1-.3,4.2.5,6.2,1.1,2.2.7,4.1,1.9,5.4,4,.3.5.8.7,1.4.5.5,0,.7-.5.7-.9,0-1.6.4-3.3-.1-4.7-.5-1.4-.5-2.7-.5-4.1-.1-2.5.2-4.9-.3-7.4-.3-1.4-.2-3,1.2-4,.6-.4.6-1.1.4-1.8h-.1ZM248.5,64.5c-1.4-.3-2.8-.5-4.1-.8-1.6-.4-1.7-1.6-.6-3.8h0c1.4-.2,2.8-.5,4.1-.7.7,0,1.2,0,1.3.9,0,1,.4,2.1.6,3.1.2,1-.2,1.5-1.3,1.3Z"/>
  </g>
  <g>
    <path class="cls-3" d="M575.4,146.5s0-.1,0-.1c-1.7-.9-2.2-2.4-2.1-4.2,0-1.9,0-3.8,0-5.6,0-2,0-2.1-2-2.5,0,0-.1-.1-.2-.2,0-.3.2-.3.4-.3,1.1,0,2.2,0,3.3,0,.6,0,.7.2.7.7,0,2.4,0,4.9,0,7.3,0,.4,0,.9,0,1.3.2,1.1,1.1,1.8,2.2,1.7,1.1,0,1.9-.6,2.7-1.4.3-.3.3-.7.3-1,0-2.1,0-4.2,0-6.2,0-1.4-.3-1.7-1.6-1.9-.2,0-.3,0-.4-.3.1-.3.4-.2.7-.2,1,0,2,0,2.9,0,.5,0,.6.2.6.6,0,1.4,0,2.9,0,4.3,0,1.4,0,2.8,0,4.2,0,1.7.3,2,1.9,1.8.2.3,0,.4-.3.5-.8.3-1.7.6-2.5,1-.2,0-.5,0-.5.4h-.7c0-.8,0-1.6,0-2.4-1,1-2.2,1.8-3.3,2.4h-2Z"/>
    <path class="cls-3" d="M546.2,146.5c0-.5-.5-.4-.8-.6-.4-.3-.7-.7-.8-1.2,0-.6.2-1.2.7-1.4.5-.3,1.1-.2,1.6.3.3.4.6.9.9,1.3.2.4.5.7,1,.6.5,0,.7-.5.8-1,0-.5.1-1.1.1-1.6,0-4.1,0-8.2,0-12.2,0-.2,0-.5,0-.7-.1-1-.5-1.4-1.5-1.7-.4,0-.8,0-1.3-.3.7-.5,1.4-.2,2-.3.7,0,1.5,0,2.2,0s1.4,0,2.1,0c.7,0,1.4-.2,2,.2-.3.4-.7.3-1,.4-1,.2-1.4.7-1.5,1.8,0,.4,0,.7,0,1.1,0,3.1,0,6.2,0,9.3,0,1-.1,2-.5,2.9-.5,1.3-1.3,2.4-2.8,2.9-.1,0-.2.1-.2.3h-2.9Z"/>
    <path class="cls-3" d="M511.9,146.5c0-.3-.3-.4-.4-.5-1.7-1.5-1.6-3.8.1-5.2.7-.6,1.5-.9,2.3-1.3.9-.4,1.9-.8,2.8-1.2.2-.1.6-.1.6-.5,0-.9.1-1.8-.3-2.6-.4-.8-1.5-1.2-2.7-.9-.9.2-1.4.8-1.5,1.8,0,.2,0,.4,0,.6,0,.6-.4,1-1,1-.6,0-1.1-.4-1.1-1,0-.6.2-1.2.6-1.7.5-.6,1.1-1,1.8-1.2,1.4-.4,2.7-.5,4.1-.1,1.5.3,2.3,1.3,2.3,2.9,0,2.1,0,4.2,0,6.4,0,.3,0,.7,0,1,0,1,.7,1.3,1.5.8.3-.2.6-.4.9-.7,0,.8-.5,1.4-2,2.3-.5,0-1,.2-1.5,0-.8-.3-.9-1.2-1.2-1.9-1,1-2.1,1.7-3.4,2.1h-2ZM517.4,138.8c-1.3.5-2.4,1-3.4,1.6-.4.2-.7.5-1,.9-.9,1.2-.5,3,.8,3.5.9.4,2.9-.3,3.4-1.1,0-.1.1-.3.1-.5,0-1.4,0-2.8,0-4.4Z"/>
    <path class="cls-3" d="M493.3,146.3c-2-.6-3.1-2-3.6-3.9-.5-1.9-.4-3.9.4-5.8,1.1-2.4,3.4-3.6,6-3.1,1.9.4,3.5,2.4,3.5,4.3,0,.6-.3.5-.7.5-2.1,0-4.2,0-6.4,0-.4,0-.8,0-1.3.1,0,1.9.5,3.7,2.1,5,1.8,1.5,4.3,1,5.5-1,.2-.3.2-.7.6-.9.3.2.2.5.1.8-.6,1.8-1.5,3.2-3.4,3.9-.1,0-.2.1-.2.2h-.2c-.7,0-1.5-.1-2.2-.2ZM493.9,137.6c.8,0,1.5,0,2.3,0,.3,0,.5,0,.5-.4.2-1.6-1.5-3.1-3.1-2.8-1.2.2-2.1,1.3-2.4,2.5,0,.5,0,.7.5.7.7,0,1.4,0,2.1,0Z"/>
    <path class="cls-3" d="M661.4,146.5c-.7-.7-1.5-.5-2.4-.4,0-1.4,0-2.7,0-4.1.6.1.4.6.5.8.3.9.8,1.7,1.6,2.3.5.3,1,.5,1.6.6,1.1,0,1.9-.4,2.2-1.2.3-.8,0-1.7-.7-2.4-.7-.6-1.5-1-2.3-1.4-.6-.4-1.3-.7-1.9-1.2-1.2-.9-1.5-2.1-1.1-3.5.3-1.4,1.3-2.1,2.6-2.4.8-.2,1.6-.1,2.4.1.4.1.7.2,1.1.2,1,0,1,0,1,.9,0,.7,0,1.5,0,2.2,0,.2,0,.4-.2.5-.3,0-.3-.2-.4-.4-.2-.6-.4-1.2-.8-1.8-.7-.8-1.5-1.2-2.6-1.1-.7,0-1.4.4-1.6,1.1-.3.8,0,1.4.6,2,.5.4,1.1.7,1.7,1,.9.5,1.7.9,2.5,1.5,1.2.8,1.8,1.9,1.6,3.4-.2,1.5-1.1,2.4-2.4,2.9-.1,0-.2,0-.4.1-.7,0-1.4.2-2.1,0-.2,0-.3,0-.4.2h-.2Z"/>
    <path class="cls-3" d="M370.3,146.5c-1.3-.9-1.8-2.1-1.7-3.6,0-2.4,0-4.9,0-7.3,0-1.1,0-1.1-1-1-.1,0-.2,0-.4,0-.2,0-.4,0-.5-.2,0-.3.2-.4.4-.5.1,0,.2-.1.3-.2,1.2-.7,2-1.7,2.6-2.9.2-.3.1-.7.7-1,.3,1.3,0,2.6.2,3.9.7.2,1.5,0,2.2,0,.3,0,.5,0,.5.4,0,.4-.2.5-.5.5-.4,0-.8,0-1.2,0-1.1,0-1,0-1,1.1,0,2.4,0,4.7,0,7.1,0,.1,0,.2,0,.4,0,.7.2,1.4,1,1.7.7.3,1.4,0,1.9-.5.2-.2.3-.4.7-.4-.3,1.3-1.4,1.9-2.3,2.6h-1.7Z"/>
    <path class="cls-3" d="M283.3,145.9c-.9.3-4.3.3-5.3,0,0-.3.3-.3.5-.4.9-.3,1.3-1,1.6-1.8,1.2-2.6,2.3-5.1,3.4-7.7,1.2-2.7,2.4-5.5,3.6-8.2,0-.2.1-.4.2-.6.3-.5.5-.5.8,0,.1.2.2.5.3.8,2.1,4.8,4.2,9.6,6.2,14.4,0,.2.2.4.3.7.5,1.3,1.1,2.6,2.9,2.6q-.7.4-1.9.4c-.7,0-1.3,0-2,0-.6,0-1.2,0-1.8,0-.6,0-1.3.1-1.9-.1.1-.4.5-.3.7-.4,1-.3,1.4-.8,1-1.7-.4-1.2-1-2.4-1.5-3.6-.1-.3-.4-.3-.7-.3-2.1,0-4.2,0-6.2,0-.5,0-.7.2-.8.6-.4.9-.8,1.9-1.2,2.8-.6,1.5-.4,2,1.2,2.3.2,0,.3,0,.5.3ZM283.6,138.8h6.4c-1.1-2.4-2.1-4.8-3.2-7.4-1.1,2.6-2.2,4.9-3.2,7.4Z"/>
    <path class="cls-3" d="M251.5,146h-6.3c0-.5.4-.4.6-.4.7-.1,1-.6,1.2-1.2.1-.5.1-1,.1-1.5,0-4,0-7.9,0-11.9,0-.3,0-.6,0-.9-.1-1-.4-1.3-1.5-1.3-.1,0-.2,0-.4,0,0,0,0,0,0,0,0-.4.2-.4.4-.5,1-.4,1.9-.8,2.9-1.2.7-.3.8-.2.8.5,0,2.3,0,4.6,0,6.9,0,.4,0,.8.1,1.3.3-.3.6-.6.9-.8.8-.8,1.7-1.4,2.9-1.5,1.4-.2,2.4.4,3.1,1.7.4.8.5,1.6.5,2.5,0,1.7,0,3.4,0,5.1,0,.4,0,.7,0,1.1.1,1.2.4,1.5,1.6,1.8.2,0,.3,0,.4.3-.9.3-5.3.3-6.1,0,0-.2.3-.2.5-.3,1.1-.3,1.4-.5,1.4-1.5,0-2.4,0-4.7,0-7.1,0-1.3-1-2-2.3-1.9-1.1,0-1.9.7-2.7,1.4-.3.3-.3.7-.3,1,0,2,0,3.9,0,5.9,0,1.8.1,1.9,1.9,2.3,0,0,.1.1.3.4Z"/>
    <path class="cls-3" d="M239.6,145.9c-1.1.3-7.4.3-8.2,0,.2-.4.6-.3,1-.3,1.1-.2,1.5-.7,1.6-1.8,0-.2,0-.4,0-.6,0-4.4,0-8.8,0-13.2,0-1,0-1-1-1-.7,0-1.4,0-2.1,0-1.8,0-2.7.7-3.2,2.4,0,.2,0,.4-.1.5-.3,0-.4,0-.4-.2,0-1.1,0-2.1,0-3.2,0-.5.3-.7.8-.7,4.9,0,9.9,0,14.8,0,.5,0,.7.2.7.7,0,1,0,2,0,3.1,0,.2,0,.3-.2.4-.4,0-.3-.4-.4-.7-.5-1.6-1.4-2.3-3.1-2.3-.8,0-1.6,0-2.3,0-.5,0-.8,0-.8.7,0,4.7,0,9.3,0,14,0,1.3.4,1.8,1.8,2,.3,0,.6,0,.8.3Z"/>
    <path class="cls-3" d="M461.7,146c-1.3.3-7.4.2-8.2,0,.3-.4.7-.2,1.1-.3,1-.2,1.4-.7,1.5-1.7,0-.2,0-.5,0-.7,0-4.4,0-8.8,0-13.2,0-1,0-1-1-1-.7,0-1.3,0-2,0-2,0-2.8.6-3.3,2.6,0,.2,0,.4-.3.4-.2,0-.2-.2-.2-.4,0-1,0-2,0-3.1,0-.4.1-.7.6-.7.4,0,.8,0,1.2,0,4.4,0,8.7,0,13.1,0,1.5,0,1.3-.1,1.4,1.4,0,.7,0,1.5,0,2.2,0,.2,0,.4-.2.5-.3,0-.3-.2-.4-.4-.4-1.9-1.7-2.7-3.7-2.6-.7,0-1.3,0-2,0-.5,0-.7.2-.6.6,0,.2,0,.4,0,.6,0,4.3,0,8.6,0,12.8,0,.2,0,.5,0,.7,0,1.1.5,1.6,1.6,1.8.3,0,.6.1.9.2,0,0,0,0,0,.2Z"/>
    <path class="cls-3" d="M482.8,146.3c-1.1.2-2.3.2-3.4,0-.7-.3-1.4-.6-2.1-.9-.7-.3-.8-.8-.8-1.5,0-4,0-7.9,0-11.9,0-.6,0-1.1,0-1.7,0-1.1-.4-1.4-1.5-1.4-.1,0-.2,0-.4,0,.4-.6,2.3-1.5,4.1-1.8,0,1.4,0,2.8,0,4.2,0,1.4,0,2.8,0,4.3.6-.1.8-.5,1-.8,1.6-1.5,3.9-1.6,5.7-.3,2.1,1.7,2.9,4.8,1.9,7.6-.8,2.2-2.3,3.6-4.5,4.3ZM478.6,140.5c0,1,0,2,0,3.1,0,.4,0,.7.4,1,1.5,1.5,3.7,1.4,5.1-.2,1.7-1.9,1.8-5.5.2-7.5-1.3-1.7-3.4-1.9-5.1-.6-.4.3-.6.7-.6,1.2,0,1,0,2,0,3.1Z"/>
    <path class="cls-3" d="M401.7,135.9c.7-.7,1.2-1.1,1.8-1.6.5-.5,1.1-.8,1.9-.9,1.7-.2,2.9.4,3.5,2,.3.7.4,1.5.4,2.3,0,1.7,0,3.3,0,5,0,.4,0,.8,0,1.2,0,.8.4,1.4,1.3,1.6.2,0,.5,0,.5.5h-6.2c.1-.5.5-.4.8-.5.7-.1,1.2-.6,1.2-1.3,0-.4,0-.8.1-1.2,0-1.8,0-3.5,0-5.3,0-.4,0-.7-.1-1.1-.3-1.3-1.3-1.9-2.6-1.7-1,.2-1.7.8-2.4,1.5-.3.3-.2.6-.2.9,0,1.9,0,3.8,0,5.8,0,1.5.3,2.2,1.8,2.4,0,0,0,.1.1.2-.6.3-4.4.4-6,.1,0-.4.2-.3.4-.4,1.2-.4,1.4-.6,1.4-1.8,0-1.3,0-2.6,0-3.9,0-1,0-2,0-2.9,0-1.4-.3-1.6-1.6-1.6-.2,0-.3,0-.3-.2,0-.1,0-.2.2-.3,1.1-.4,2.3-.9,3.4-1.3.5-.2.6,0,.6.5,0,.6,0,1.1,0,1.9Z"/>
    <path class="cls-3" d="M609.7,145.9c-.9.3-5.3.3-6.1,0,.1-.4.5-.3.7-.3.8-.1,1.2-.6,1.3-1.4,0-.4,0-.9,0-1.3,0-1.6,0-3.3,0-4.9,0-.2,0-.5,0-.7-.2-1.9-1.6-2.7-3.3-2-.6.2-1,.6-1.5,1-.4.3-.5.7-.5,1.2,0,2,0,3.9,0,5.9,0,1.6.2,1.8,1.7,2.3.1,0,.2.1.4.2-1,.3-5.2.4-6.2,0,0-.2.2-.3.4-.4,1.3-.4,1.4-.6,1.5-1.9,0-1.1,0-2.2,0-3.3,0-1.2,0-2.4,0-3.6,0-1.3-.3-1.5-1.6-1.6-.2,0-.3,0-.4-.2,0-.1,0-.2.1-.3,1.3-.5,2.5-1.1,4-1.4v2.4c.6,0,.8-.5,1.1-.8.7-.6,1.5-1.3,2.5-1.5,1.7-.3,2.9.4,3.5,1.9.3.7.4,1.5.4,2.3,0,1.8,0,3.6,0,5.4,0,1.3.2,2.4,1.7,2.6,0,0,0,.1.1.2Z"/>
    <path class="cls-3" d="M529.5,146h-6.1c0-.4.2-.4.4-.5,1.1-.3,1.4-.6,1.4-1.7,0-2.4,0-4.8,0-7.2,0-1.1-.3-1.4-1.5-1.4-.2,0-.4,0-.5-.2,0-.2.2-.3.3-.3,1.1-.4,2.1-.8,3.2-1.2.5-.2.7,0,.7.5,0,.6,0,1.1,0,1.9.6-.6,1.1-1,1.5-1.3.7-.6,1.4-1.1,2.4-1.1,1.4-.1,2.6.5,3.2,1.8.4.8.5,1.6.5,2.5,0,1.7,0,3.3,0,5,0,.4,0,.8,0,1.2,0,.8.4,1.4,1.3,1.6.2,0,.4,0,.5.3-.7.3-4.8.4-6.2.1,0-.4.4-.3.6-.4.9,0,1.3-.6,1.4-1.4,0-.4,0-.7,0-1.1,0-1.8,0-3.6,0-5.4,0-.3,0-.6,0-.9-.3-1.4-1.4-2.1-2.8-1.7-.9.2-1.6.8-2.2,1.5-.3.3-.2.6-.2.9,0,1.9,0,3.8,0,5.8,0,1.7.2,1.8,1.8,2.4,0,0,.1.2.3.4Z"/>
    <path class="cls-3" d="M621.2,146.3c-.5,0-1,.2-1.5,0-.8-.3-1-1-1.1-1.9-1.1.7-2,1.6-3.3,1.9-.7,0-1.3.1-2,0-2.4-1.3-2.5-4.2-.2-5.8,1-.7,2.1-1.1,3.2-1.6.4-.2.9-.4,1.4-.5q1.1-.4,1-1.6c0-.2,0-.3,0-.5-.2-1.8-1.6-2.7-3.3-2-.7.3-1,.8-1.1,1.5,0,.3,0,.6,0,.9,0,.6-.4,1-1,1-.6,0-1.1-.4-1.1-1,0-.6.2-1.2.6-1.7.5-.6,1.1-1,1.8-1.2,1.4-.4,2.7-.5,4.1-.2,1.5.3,2.3,1.3,2.3,2.9,0,2.2,0,4.4,0,6.6,0,.6-.2,1.3.5,1.7.7.4,1.2-.2,1.7-.6,0,0,.1,0,.2,0,0,.8-.5,1.3-2,2.2ZM618.6,138.8c-1.5.6-2.8,1.1-3.9,2-.9.7-1.2,1.8-.8,2.7.3.8.9,1.3,1.7,1.4.8.1,2.6-.7,2.9-1.3,0-.1,0-.2,0-.3,0-1.4,0-2.9,0-4.5Z"/>
    <path class="cls-3" d="M363.5,146.3c-.6,0-1.2.2-1.7,0-.7-.4-.8-1.1-1-1.8-1,.7-1.9,1.6-3.1,1.9-.8,0-1.5.1-2.2,0-2.3-1.5-2.3-4.3,0-5.8,1.4-.9,3-1.6,4.5-2.1.6-.2,1-.5.9-1.2,0-.3,0-.6,0-.9-.1-1.5-.8-2.1-2.3-2.1-1.5,0-2.1.6-2.1,2,0,.2,0,.3,0,.5,0,.6-.5,1-1.1,1-.6,0-1.1-.4-1.1-1.1,0-.7.3-1.4.8-1.9.6-.6,1.4-1,2.3-1.1,1-.2,2.1-.2,3.2,0,1.7.3,2.6,1.3,2.6,3,0,2.1,0,4.2,0,6.2,0,.3,0,.7,0,1,0,1.1.7,1.4,1.6.8.3-.2.4-.5.8-.5-.1.8-.5,1.3-1.9,2.2ZM360.8,138.8c-1.4.5-2.6,1.1-3.7,1.9-.2.2-.4.4-.6.6-.7.8-.7,2,0,2.8.6.8,1.4,1,2.5.7.5-.2,1-.5,1.4-.7.4-.2.5-.6.5-1,0-1.3,0-2.7,0-4.2Z"/>
    <path class="cls-3" d="M327.5,146.3c-1,.2-2,.1-3,0-2.6-.9-4.2-2.8-4.4-5.6-.2-3,1.1-5.2,3.7-6.6,3.6-1.9,8.2.6,8.6,4.7.4,3.4-1.6,6.4-4.9,7.5ZM322.5,139.5c0,.1,0,.5,0,1,.2,1.6.7,3.1,1.9,4.3,1.4,1.3,3.4,1.1,4.6-.4.3-.4.5-.8.6-1.2.7-2.3.5-4.6-.7-6.7-.2-.4-.6-.8-.9-1.1-1.7-1.5-3.9-1-4.9.9-.5,1-.6,2-.6,3.4Z"/>
    <path class="cls-3" d="M390.9,146.3c-1.1.2-2.1.2-3.2,0-2.5-.9-4-2.6-4.3-5.3-.3-2.6.7-4.8,2.8-6.4,2-1.5,4.1-1.6,6.3-.5,2.2,1.2,3.5,3.7,3.2,6-.4,3-1.9,5-4.8,6.1ZM385.8,139.2c0,1.8.4,3.5,1.5,4.9,1.7,2.2,4.5,1.8,5.6-.7.5-1.3.6-2.6.4-4-.2-1.6-.7-3-1.8-4.2-1.7-1.6-4.1-1.2-5.1.9-.5.9-.6,1.9-.6,3Z"/>
    <path class="cls-3" d="M564.6,146.3c-1.1.2-2.1.2-3.2,0-2.6-.9-4.1-2.7-4.4-5.5-.2-3,1-5.3,3.6-6.7,3.5-2,8.1.4,8.6,4.4.5,3.4-1.5,6.7-4.7,7.7ZM559.4,139.2c0,.4,0,.8,0,1.2.2,1.5.6,2.9,1.7,4,1.6,1.7,3.9,1.5,5.1-.6.5-.8.6-1.7.7-2.6.1-2-.2-4-1.5-5.6-1.8-2.1-4.6-1.6-5.6,1-.3.8-.4,1.7-.4,2.5Z"/>
    <path class="cls-3" d="M426.9,146.3c-1,.2-2,.1-3,0-2.6-.9-4.2-2.8-4.4-5.6-.2-2.9,1.1-5.2,3.6-6.6,3.5-2,8,.4,8.6,4.4.5,3.6-1.8,7-4.9,7.8ZM429.5,140.7c0-1.9-.4-3.6-1.6-5-1.9-2.1-4.7-1.6-5.6,1.1-.5,1.5-.5,3-.2,4.5.2,1.2.7,2.3,1.5,3.2,1.6,1.9,4.1,1.6,5.2-.6.5-1,.6-2,.7-3Z"/>
    <path class="cls-3" d="M440.2,145.9c-.9.3-5.2.3-6.3,0,0-.4.4-.3.7-.4.9-.2,1.1-.5,1.3-1.4,0-.2,0-.3,0-.5,0-2.8,0-5.6,0-8.4,0-.5-.1-.8-.7-.7-.2,0-.3,0-.5,0-.3,0-.6,0-.6-.4,0-.3.2-.4.5-.4.4,0,.9.2,1.1-.2.2-.3,0-.8.1-1.2.1-2.7,1.6-4.7,3.9-5.3,1.1-.3,2.2,0,3.2.5.3.2.6.4.8.7.5.6.4,1.3,0,1.7-.5.4-1.1.3-1.6-.3-.3-.4-.6-.8-.9-1.2-.5-.6-1.1-.8-1.8-.6-.7.2-1.1.6-1.3,1.3-.3,1.3-.1,2.7-.2,4,0,.3.2.4.5.4.4,0,.8,0,1.2,0,.3,0,.8-.2.8.4,0,.6-.5.3-.9.4-.4,0-.7,0-1.1,0-.4,0-.6.2-.6.6,0,2.9,0,5.8,0,8.7,0,1.3.4,1.6,1.7,1.8.2,0,.4,0,.5.3Z"/>
    <path class="cls-3" d="M266.7,146.3c-1,.2-2,.2-3,0-2.3-.8-3.4-2.6-3.7-4.9-.2-1.7-.1-3.3.7-4.9,1.1-2.4,3.4-3.5,6-3,1.9.4,3.4,2.3,3.5,4.2,0,.5-.1.7-.6.7-1.8,0-3.6,0-5.4,0-.8,0-1.5,0-2.4,0,0,1.9.4,3.5,1.7,4.8,1.9,1.9,4.6,1.5,5.9-.8.1-.3.2-.6.6-.7.2,1.7-1.1,3.6-3.3,4.6ZM264.6,137.6h0c.8,0,1.6,0,2.3,0,.3,0,.5,0,.5-.4,0-1.1-.9-2.4-1.9-2.7-1.6-.5-3.1.6-3.5,2.4-.1.5,0,.8.5.8.7,0,1.4,0,2.1,0Z"/>
    <path class="cls-3" d="M341.2,146.3c-1,.2-2,.2-3,0-2.5-1-3.7-2.9-3.9-5.5-.1-1.6.1-3.2,1-4.6,1.6-2.6,5-3.5,7.6-2.2.7.4,1.3.9,1.6,1.6.3.7,0,1.4-.6,1.6-.7.3-1.5,0-1.8-.7-.1-.3-.1-.6-.2-.8-.3-1-.9-1.5-1.9-1.5-1.4,0-2.4.7-3,1.9-.9,2.2-.8,4.3.4,6.3,1.7,2.7,5.3,2.4,6.8-.3.1-.3.1-.7.5-.8.3,1.7-1.3,3.8-3.5,4.9Z"/>
    <path class="cls-3" d="M315.2,146.3c-.9.2-1.8,0-2.7,0-.7-.2-1.4-.5-2.2-.2-.2,0-.4,0-.4-.3,0-1.2-.1-2.5,0-3.8.5,0,.4.4.5.6.2.7.5,1.3.9,1.8.6.6,1.2,1,2.1,1.2,1.1.1,2-.3,2.4-1.1.3-.8,0-1.8-.8-2.5-.7-.6-1.4-.9-2.2-1.4-.6-.4-1.2-.7-1.8-1.1-1.2-.9-1.6-2.1-1.3-3.6.3-1.4,1.4-2.2,2.8-2.4.8-.1,1.5,0,2.3.1.4.1.7.2,1.1.2,1,0,1,0,1,1,0,.9.2,1.8-.1,2.6-.5,0-.4-.4-.5-.7-.2-.6-.5-1.2-.9-1.7-.7-.8-1.6-1-2.7-.8-.6.1-1.1.5-1.3,1.1-.2.7,0,1.3.5,1.8.5.5,1,.8,1.6,1.1.9.5,1.8,1,2.7,1.6,2.5,1.5,2.2,5.3-.7,6.3-.1,0-.2,0-.3.1Z"/>
    <path class="cls-3" d="M304.9,146.3c-.9.2-1.8,0-2.7,0-.7-.2-1.4-.5-2.2-.2-.2,0-.4,0-.4-.3,0-1.2-.1-2.5,0-3.7.5,0,.4.4.5.6.2.9.6,1.6,1.3,2.2.5.4,1.1.7,1.8.8,1.1.1,2-.3,2.4-1.1.3-.8,0-1.8-.8-2.5-.7-.6-1.5-1-2.3-1.4-.6-.4-1.2-.7-1.8-1.1-1.2-.9-1.5-2.1-1.2-3.5.3-1.4,1.3-2.1,2.6-2.4.7-.2,1.4-.1,2.1,0,.8.2,1.5.5,2.2,0,.3,1.4.2,3,0,3.8-.4,0-.3-.4-.4-.7-.2-.6-.5-1.2-.9-1.7-.8-.8-1.7-1.1-2.8-.8-1.3.4-1.7,1.7-.8,2.8.4.4.9.7,1.4,1,.9.5,1.9,1,2.8,1.6,1.4.8,2.1,2,1.9,3.7-.2,1.6-1.2,2.5-2.7,3Z"/>
    <path class="cls-3" d="M645,146.3c-.9.2-1.8,0-2.7,0-.7-.1-1.4-.5-2.2-.2-.3,0-.5,0-.4-.4,0-1.2,0-2.4,0-3.7.5,0,.5.4.5.6.2.8.6,1.5,1.2,2.1.5.5,1.1.8,1.8.9,1.1.1,2-.3,2.4-1.1.4-.8,0-1.8-.8-2.5-.4-.4-.9-.7-1.4-.9-.8-.5-1.6-.9-2.3-1.4-1.3-.9-1.9-2.3-1.5-3.7.3-1.4,1.5-2.3,3.1-2.5.7,0,1.3,0,1.9.2.4,0,.7.2,1.1.2,1,0,1,0,1,1,0,.9.1,1.8-.1,2.6-.5,0-.4-.4-.5-.7-.2-.7-.5-1.3-1-1.8-.8-.8-1.8-1-2.8-.7-1.3.4-1.6,1.7-.8,2.7.4.5,1,.8,1.6,1.1,1,.5,1.9,1.1,2.9,1.7,2.5,1.5,2.2,5.3-.7,6.3-.1,0-.2,0-.3.1Z"/>
    <path class="cls-3" d="M628.6,127c0,.5,0,.9,0,1.3,0,4.8,0,9.5,0,14.3,0,.4,0,.7,0,1.1,0,1,.3,1.9,1.6,2,0,0,.1,0,.2.2,0,0,0,0,0,.1-.9.3-5.1.3-6,0,.1-.4.5-.3.7-.3.8-.1,1.1-.6,1.2-1.3,0-.4,0-.8,0-1.2,0-4,0-8,0-12,0-.2,0-.4,0-.6,0-1.2-.3-1.5-1.5-1.6-.1,0-.2,0-.4,0,.5-.6,2.6-1.6,4.1-1.9Z"/>
    <path class="cls-3" d="M655,146.3c-.7.1-1.5.3-2.2,0-1.2-.6-1.5-1.7-1.5-3,0-2.2,0-4.3,0-6.5,0-.2,0-.5,0-.7,0-.5.2-1-.1-1.4-.3-.4-.8,0-1.3-.2-.2,0-.4,0-.5-.3,0-.2.2-.4.3-.5,1-.5,1.8-1.2,2.4-2.2.3-.4.4-.9.7-1.3.1-.2.1-.5.6-.5,0,.8,0,1.6,0,2.4,0,.3,0,.7,0,1,0,.4.2.5.5.5.6,0,1.1,0,1.7,0,.3,0,.6,0,.5.5,0,.4-.3.4-.5.4-.6,0-1.1,0-1.7,0-.4,0-.6.2-.6.6,0,2.7,0,5.5,0,8.2,0,.6.3,1.2.9,1.5.7.3,1.3.1,1.8-.4.2-.2.3-.5.7-.5-.1.9-.6,1.5-1.8,2.3Z"/>
    <path class="cls-3" d="M506.8,146.3c-.7.1-1.5.3-2.2,0-1.1-.6-1.5-1.6-1.5-2.7,0-1.5,0-3,0-4.5,0-1.2,0-2.4,0-3.6,0-.9,0-.9-.9-1-.1,0-.2,0-.4,0-.2,0-.5,0-.6-.3,0-.3.2-.4.5-.5,1-.5,1.8-1.3,2.4-2.2.3-.5.6-1.1.9-1.8.4.3.3.7.3,1,0,.7,0,1.5,0,2.2,0,.5.2.7.7.7.6,0,1.1,0,1.7,0,.3,0,.4.2.4.5,0,.3-.2.3-.4.3-.5,0-1.1,0-1.6,0-.6,0-.9.2-.8.8,0,2,0,4,0,6,0,.5,0,1.1,0,1.6,0,.8.1,1.5.9,1.9.8.4,1.5,0,2.1-.6.1-.1.3-.2.4-.3,0,.9-.5,1.5-1.8,2.4Z"/>
    <path class="cls-3" d="M592.6,146.1h-6.5c0-.3.1-.4.3-.4,1.2,0,1.5-.9,1.6-1.9,0-.7,0-1.3,0-2,0-1.5,0-3,0-4.5,0-1.7-.2-1.9-1.9-2,0,0,0-.2,0-.2,1.1-.7,2.3-1,3.5-1.5.5-.2.7,0,.6.5,0,.5,0,1,0,1.7.4-.5.7-.8,1-1.2.6-.7,1.4-1.1,2.3-1.1.6,0,1.1.2,1.4.7.3.5.2,1.2-.1,1.6-.4.4-1,.5-1.6.1-.2-.1-.4-.3-.6-.5-.5-.3-.9-.3-1.3,0-.6.6-1.2,1.2-1.2,2.2,0,2,0,3.9,0,5.9,0,1.6.2,1.8,1.9,2.1.2,0,.3,0,.4.4Z"/>
    <path class="cls-3" d="M467.1,135.1c.8-.6,1.5-.8,2.1-1,2.2-.9,2.2-.8,2.2,1.5,0,2.4,0,4.8,0,7.2,0,.4,0,.9,0,1.3,0,.8.4,1.3,1.2,1.5.2,0,.4,0,.5.3-.7.3-4.5.4-5.9.1,0-.4.3-.3.5-.4.9-.1,1.3-.7,1.4-1.6,0-.4,0-.8,0-1.2,0-1.8,0-3.6,0-5.4,0,0,0-.2,0-.2,0-1.6-.3-1.9-2.2-2.1Z"/>
    <path class="cls-3" d="M381.5,145.9c-.9.3-5,.3-6,0,0-.3.3-.3.6-.3,1-.3,1.3-.6,1.4-1.6,0-1,0-2,0-2.9,0-1.2,0-2.4,0-3.5,0-1.9-.1-2.1-1.9-2.4,0-.4.2-.4.4-.5.8-.3,1.7-.7,2.5-1,1.1-.4,1.1-.4,1.1.7,0,2.7,0,5.4,0,8.1,0,.3,0,.7,0,1,0,1.1.3,2,1.6,2.2,0,0,.2.2.2.3Z"/>
    <path class="cls-3" d="M346,145.9c0-.1,0-.2.1-.2,1.7-.6,1.9-.8,1.9-2.6,0-2,0-4.1,0-6.1,0-1.3-.4-1.7-1.5-1.8-.2,0-.3,0-.4,0,0-.3,0-.4.2-.4,1-.4,2-.8,3-1.1.7-.3.9-.2.9.6,0,2.5,0,5.1,0,7.6,0,.3,0,.7,0,1q0,2.2,1.8,3.1c-.7.3-4.7.4-5.9,0Z"/>
    <path class="cls-3" d="M631.8,135.1c0-.3.2-.3.4-.4.9-.3,1.7-.7,2.6-1,1-.4,1.1-.3,1.1.7,0,2.7,0,5.4,0,8.1,0,.4,0,.7,0,1.1,0,1.1.3,1.9,1.6,2.1,0,0,.1.2.2.3-.9.3-5,.3-5.9,0,0-.2.2-.3.3-.3,1.3-.4,1.6-.7,1.6-2,0-1.2,0-2.4,0-3.5,0-1,0-2,0-2.9,0-1.5-.3-1.7-1.7-1.9,0,0-.1,0-.2-.1Z"/>
    <path class="cls-3" d="M349,126.9c.8,0,1.4.7,1.3,1.4,0,.7-.6,1.3-1.3,1.3-.8,0-1.4-.6-1.4-1.4,0-.7.7-1.4,1.4-1.3Z"/>
    <path class="cls-3" d="M470.2,126.9c.8,0,1.4.6,1.4,1.4,0,.7-.6,1.3-1.3,1.3-.8,0-1.4-.6-1.4-1.3,0-.8.6-1.4,1.4-1.4Z"/>
    <path class="cls-3" d="M634.6,126.9c.8,0,1.4.6,1.4,1.3,0,.8-.6,1.4-1.4,1.4-.7,0-1.3-.6-1.4-1.3,0-.8.5-1.4,1.3-1.4Z"/>
    <path class="cls-3" d="M378.6,126.9c.8,0,1.4.7,1.3,1.4,0,.8-.7,1.3-1.5,1.3-.7,0-1.3-.7-1.2-1.4,0-.8.6-1.4,1.4-1.3Z"/>
  </g>
</svg>